<svg width="52" height="43" viewBox="0 0 52 43" fill="none" xmlns="http://www.w3.org/2000/svg">
<mask id="mask0" mask-type="alpha" maskUnits="userSpaceOnUse" x="23" y="8" width="12" height="16">
<path d="M23.0178 20.2763L28.0368 8.61914H29.1702L34.3511 20.4382C34.4051 21.6255 33.3149 24.0001 28.5225 24.0001C23.7302 24.0001 22.8559 21.5176 23.0178 20.2763Z" fill="#FEF768"/>
</mask>
<g mask="url(#mask0)">
<path d="M23.0178 20.2763L28.0368 8.61914H29.1702L34.3511 20.4382C34.4051 21.6255 33.3149 24.0001 28.5225 24.0001C23.7302 24.0001 22.8559 21.5176 23.0178 20.2763Z" fill="#DC41CC"/>
<path d="M23.0178 20.2763L28.0368 8.61914H29.1702L34.1714 19.9525C34.2254 21.1398 33.3149 24.0001 28.5225 24.0001C23.7302 24.0001 22.8559 21.5176 23.0178 20.2763Z" fill="#DC41CC"/>
<path d="M23.0175 19.2602L27.9629 7.97119H29.0795L34.0074 18.9466C34.0605 20.0964 33.1634 22.8664 28.4414 22.8664C23.7194 22.8664 22.858 20.4623 23.0175 19.2602Z" fill="#F9B651"/>
<path d="M23.0172 17.4949L27.9723 6.67627H29.0873L34.0074 17.8085C34.0604 18.9583 33.1648 21.5715 28.4502 21.5715C23.7356 21.5715 22.858 18.697 23.0172 17.4949Z" fill="#DC41CC"/>
<path d="M23.3412 16.8265L28.1411 6.02832H29.225L34.0078 16.5266C34.0594 17.6264 33.1887 20.2759 28.6056 20.2759C24.0225 20.2759 23.1864 17.9763 23.3412 16.8265Z" fill="#F9B651"/>
<path d="M23.0167 14.7575L27.8261 4.40918H28.9082L33.6836 15.0574C33.7351 16.1572 32.8658 18.6568 28.2899 18.6568C23.7139 18.6568 22.8621 15.9073 23.0167 14.7575Z" fill="#DC41CC"/>
<path d="M23.0167 13.4625L27.8261 3.11426H28.9082L33.6836 13.7625C33.7351 14.8623 32.8658 17.3619 28.2899 17.3619C23.7139 17.3619 22.8621 14.6123 23.0167 13.4625Z" fill="#F9B652"/>
<path d="M23.341 11.8434L28.1503 1.49512H29.2325L34.0078 12.1433C34.0594 13.2432 33.19 15.7427 28.6141 15.7427C24.0382 15.7427 23.1864 12.9932 23.341 11.8434Z" fill="#DC41CC"/>
<path d="M23.341 10.548L28.1503 0.199707H29.2325L34.0078 10.8479C34.0594 11.9477 33.19 14.4473 28.6141 14.4473C24.0382 14.4473 23.1864 11.6978 23.341 10.548Z" fill="#F9B652"/>
<path d="M23.341 9.25306L28.1503 -1.09521H29.2325L34.0078 9.55301C34.0594 10.6528 33.19 13.1524 28.6141 13.1524C24.0382 13.1524 23.1864 10.4029 23.341 9.25306Z" fill="#DC41CC"/>
<path d="M23.341 7.95765L28.1503 -2.39062H29.2325L34.0078 8.2576C34.0594 9.35741 33.19 11.857 28.6141 11.857C24.0382 11.857 23.1864 9.10745 23.341 7.95765Z" fill="#F9B652"/>
<path opacity="0.1" d="M33.2002 12.3431C32.1554 17.4506 28.1811 22.3812 22.3525 22.835V24.7779L29.4763 29.797L36.6002 20.4064C36.4922 16.4667 34.6573 5.21943 33.2002 12.3431Z" fill="#A9009B"/>
<path opacity="0.1" d="M31.2568 7.17781C30.2121 12.2853 26.2378 17.2159 20.4092 17.6697V19.6126L27.533 26.2369L39.6758 20.0845C39.5679 16.1448 32.7139 0.0541081 31.2568 7.17781Z" fill="#AD15A0"/>
</g>
<circle cx="28.6669" cy="8.61905" r="1.61905" fill="#59C3FF"/>
<mask id="mask1" mask-type="alpha" maskUnits="userSpaceOnUse" x="27" y="7" width="4" height="4">
<circle cx="28.6669" cy="8.61905" r="1.61905" fill="#59C3FF"/>
</mask>
<g mask="url(#mask1)">
<path opacity="0.1" d="M29.7732 7.14359C28.547 9.07725 27.0418 10.3821 26.4424 10.7928L27.2796 12.6793L31.1822 9.73161C31.2235 8.06324 30.9994 5.20993 29.7732 7.14359Z" fill="#0025A7"/>
</g>
<path d="M4.25643 1.31615C3.26114 1.98943 1.71154 3.72756 3.47546 5.29382M3.47546 5.29382C5.23937 6.86009 7.04103 4.60602 6.3198 2.94898C5.89547 1.97406 4.88474 1.78291 3.47546 5.29382ZM3.47546 5.29382C3.52463 7.88091 5.99992 9.16485 7.23142 9.48344" stroke="#46D5DE" stroke-width="0.723311"/>
<path d="M13.4953 22.8534C13.831 21.6997 13.9131 19.3725 11.5554 19.2941M11.5554 19.2941C9.19778 19.2157 9.25136 22.1008 10.8647 22.9151C11.8139 23.3942 12.7137 22.8956 11.5554 19.2941ZM11.5554 19.2941C9.86508 17.335 7.14044 17.9282 5.98941 18.4697" stroke="#C625FF" stroke-width="0.723311"/>
<rect x="8.85938" y="7.84033" width="1.44662" height="4.33987" transform="rotate(-106.542 8.85938 7.84033)" fill="#70FF00"/>
<rect x="16.4277" y="10.8779" width="1.44662" height="4.33987" transform="rotate(-83.1295 16.4277 10.8779)" fill="#FB0000"/>
<rect x="18.0566" y="5.29639" width="1.44662" height="4.33987" transform="rotate(171.871 18.0566 5.29639)" fill="#FB32FF"/>
<rect x="16.8496" y="14.2222" width="1.44662" height="4.33987" transform="rotate(66.8705 16.8496 14.2222)" fill="#3CA1FF"/>
<rect x="0.792969" y="13.1753" width="1.44662" height="4.33987" transform="rotate(-123.222 0.792969 13.1753)" fill="#3CA1FF"/>
<rect x="10.293" y="15.4302" width="1.44662" height="4.33987" transform="rotate(-152.506 10.293 15.4302)" fill="#FF9900"/>
<path d="M43.4999 24C43.1666 24.5 42.6999 29.4 43.4999 33C44.3888 37 42.8333 39.8333 42 42.5" stroke="#515151"/>
<path fill-rule="evenodd" clip-rule="evenodd" d="M42.4099 23.8751C38.7534 22.9034 36 18.6462 36 13.5417C36 7.71966 39.5817 3 44 3C48.4183 3 52 7.71967 52 13.5417C52 19.061 48.781 23.5896 44.682 24.0456C44.8812 24.4523 45 24.9644 45 25.5208C45 25.6849 44.9897 25.8452 44.97 26L42.03 26C42.0103 25.8452 42 25.6849 42 25.5208C42 24.8835 42.1558 24.3043 42.4099 23.8751Z" fill="#EB5C5C"/>
<mask id="mask2" mask-type="alpha" maskUnits="userSpaceOnUse" x="36" y="3" width="16" height="23">
<mask id="path-28-inside-1" mask-type="luminance" fill="white">
<path fill-rule="evenodd" clip-rule="evenodd" d="M42.4099 23.8751C38.7534 22.9034 36 18.6462 36 13.5417C36 7.71966 39.5817 3 44 3C48.4183 3 52 7.71967 52 13.5417C52 19.061 48.781 23.5896 44.682 24.0456C44.8812 24.4523 45 24.9644 45 25.5208C45 25.6849 44.9897 25.8452 44.97 26L42.03 26C42.0103 25.8452 42 25.6849 42 25.5208C42 24.8835 42.1558 24.3043 42.4099 23.8751Z"/>
</mask>
<path fill-rule="evenodd" clip-rule="evenodd" d="M42.4099 23.8751C38.7534 22.9034 36 18.6462 36 13.5417C36 7.71966 39.5817 3 44 3C48.4183 3 52 7.71967 52 13.5417C52 19.061 48.781 23.5896 44.682 24.0456C44.8812 24.4523 45 24.9644 45 25.5208C45 25.6849 44.9897 25.8452 44.97 26L42.03 26C42.0103 25.8452 42 25.6849 42 25.5208C42 24.8835 42.1558 24.3043 42.4099 23.8751Z" fill="#EB5C5C"/>
<path d="M42.4099 23.8751L43.2704 24.3845L43.9433 23.2479L42.6667 22.9086L42.4099 23.8751ZM44.682 24.0456L44.5714 23.0517L43.1585 23.2089L43.784 24.4855L44.682 24.0456ZM44.97 26L44.97 27L45.8509 27L45.962 26.1261L44.97 26ZM42.03 26L41.038 26.1261L41.149 27L42.03 27L42.03 26ZM42.6667 22.9086C39.5927 22.0917 37 18.3618 37 13.5417L35 13.5417C35 18.9307 37.9141 23.7151 42.1531 24.8416L42.6667 22.9086ZM37 13.5417C37 10.8289 37.8356 8.41052 39.1397 6.69211C40.4433 4.97439 42.1711 4 44 4L44 2C41.4106 2 39.1384 3.38544 37.5466 5.48306C35.9552 7.57998 35 10.4324 35 13.5417L37 13.5417ZM44 4C45.8289 4 47.5567 4.97439 48.8603 6.69211C50.1644 8.41052 51 10.8289 51 13.5417L53 13.5417C53 10.4324 52.0448 7.57998 50.4534 5.48306C48.8616 3.38544 46.5894 2 44 2L44 4ZM51 13.5417C51 18.7773 47.9676 22.6739 44.5714 23.0517L44.7925 25.0394C49.5945 24.5053 53 19.3446 53 13.5417L51 13.5417ZM46 25.5208C46 24.8279 45.8531 24.163 45.58 23.6056L43.784 24.4855C43.9094 24.7415 44 25.1009 44 25.5208L46 25.5208ZM45.962 26.1261C45.987 25.9292 46 25.7268 46 25.5208L44 25.5208C44 25.6431 43.9923 25.7612 43.978 25.8739L45.962 26.1261ZM42.03 27L44.97 27L44.97 25L42.03 25L42.03 27ZM41 25.5208C41 25.7268 41.013 25.9292 41.038 26.1261L43.022 25.8739C43.0077 25.7612 43 25.6431 43 25.5208L41 25.5208ZM41.5494 23.3657C41.1915 23.9701 41 24.7304 41 25.5208L43 25.5208C43 25.0366 43.1201 24.6385 43.2704 24.3845L41.5494 23.3657Z" fill="#CB3E3E" mask="url(#path-28-inside-1)"/>
</mask>
<g mask="url(#mask2)">
<ellipse opacity="0.1" cx="41" cy="10.5" rx="5" ry="6.5" fill="white"/>
<ellipse opacity="0.05" cx="39.5" cy="9" rx="3.5" ry="4" fill="white"/>
<path opacity="0.1" fill-rule="evenodd" clip-rule="evenodd" d="M44 23.9188C47.9463 23.2729 51 18.8545 51 13.5C51 8.1455 47.9463 3.72711 44 3.08124C44.3276 3.02762 44.6613 3 45 3C49.4183 3 53 7.70101 53 13.5C53 19.299 49.4183 24 45 24C44.6613 24 44.3276 23.9724 44 23.9188Z" fill="black"/>
<path d="M40.5 23.5C40.5 23.5 41.5 24 43 24C44.5 24 45.5 24 45.5 24V26H41.5L40.5 23.5Z" fill="#D45353"/>
</g>
</svg>
