<svg width="16" height="16" viewBox="0 0 16 16" fill="none" xmlns="http://www.w3.org/2000/svg">
<path d="M5.99996 4.66668V14H12.6666V4.66668H5.99996ZM5.99996 3.33334H12.6666C13.4 3.33334 14 3.93334 14 4.66668V14C14 14.7333 13.4 15.3333 12.6666 15.3333H5.99996C5.26663 15.3333 4.66663 14.7333 4.66663 14V4.66668C4.66663 3.93334 5.26663 3.33334 5.99996 3.33334Z" fill="#9AA0A6"/>
<path d="M3.33333 11.3333C3.33333 11.7333 3.06667 12 2.66667 12C2.26667 12 2 11.7333 2 11.3333V1.99999C2 1.26666 2.6 0.666656 3.33333 0.666656H10.6667C11.0667 0.666656 11.3333 0.933323 11.3333 1.33332C11.3333 1.73332 11.0667 1.99999 10.6667 1.99999H3.33333V11.3333Z" fill="#9AA0A6"/>
</svg>
