<?xml version="1.0" encoding="utf-8"?>
<!-- Generator: Adobe Illustrator 23.0.1, SVG Export Plug-In . SVG Version: 6.00 Build 0)  -->
<svg version="1.1" id="Layer_1" xmlns="http://www.w3.org/2000/svg" xmlns:xlink="http://www.w3.org/1999/xlink" x="0px" y="0px"
	 viewBox="0 0 20 20" style="enable-background:new 0 0 20 20;" xml:space="preserve">
<style type="text/css">
	.st0{fill:none;}
	.st1{fill-rule:evenodd;clip-rule:evenodd;fill:#C3C6CA;}
</style>
<g id="ic_gmail">
	<rect id="box" class="st0" width="20" height="20"/>
	<path id="path" class="st1" d="M17.3,8.6h-7.2v2.9h4.1c-0.4,1.8-2,2.9-4.1,2.9c-2.5,0-4.5-2-4.5-4.4s2-4.4,4.5-4.4
		c1.1,0,2.1,0.4,2.8,1l2.2-2.2c-1.4-1.2-3.1-1.9-5.1-1.9c-4.3,0-7.7,3.3-7.7,7.5s3.4,7.5,7.7,7.5c3.8,0,7.3-2.7,7.3-7.5
		C17.5,9.6,17.4,9.1,17.3,8.6z"/>
</g>
</svg>
