<svg width="170" height="24" viewBox="0 0 170 24" fill="none" xmlns="http://www.w3.org/2000/svg">
<path d="M0.641504 18V2.25H4.0665V8.5H10.0415V2.25H13.4665V18H10.0415V11.2H4.0665V18H0.641504ZM19.3001 2.25L22.6501 8.375L26.0501 2.25H29.7751L24.2751 11.5V18H20.8501V11.5L15.4501 2.25H19.3001ZM37.1229 2.25C38.3396 2.25 39.4479 2.40833 40.4479 2.725C41.4479 3.04167 42.3063 3.51667 43.023 4.15C43.7396 4.78333 44.2896 5.575 44.6729 6.525C45.0729 7.45833 45.2729 8.55 45.2729 9.8C45.2729 11.2333 45.0396 12.4667 44.5729 13.5C44.1063 14.5167 43.4729 15.3667 42.673 16.05C41.873 16.7167 40.9313 17.2083 39.848 17.525C38.7813 17.8417 37.6479 18 36.4479 18H31.6229V2.25H37.1229ZM35.0479 15.35H36.2229C36.9229 15.35 37.5979 15.2667 38.2479 15.1C38.9146 14.9167 39.4979 14.6167 39.9979 14.2C40.4979 13.7667 40.8979 13.2 41.1979 12.5C41.4979 11.7833 41.6479 10.8833 41.6479 9.8C41.6479 8.21667 41.1979 7.00833 40.2979 6.175C39.3979 5.325 38.1896 4.9 36.6729 4.9H35.0479V15.35ZM47.9804 2.25H53.9554C54.8387 2.25 55.6137 2.38333 56.2804 2.65C56.9637 2.9 57.5304 3.25 57.9804 3.7C58.4304 4.13333 58.7637 4.65 58.9804 5.25C59.2137 5.83333 59.3304 6.46667 59.3304 7.15C59.3304 7.78333 59.2304 8.35 59.0304 8.85C58.847 9.33333 58.6054 9.75833 58.3054 10.125C58.022 10.475 57.697 10.775 57.3304 11.025C56.9804 11.2583 56.6387 11.45 56.3054 11.6L60.1554 18H56.2304L53.2054 12.2H51.3804V18H47.9804V2.25ZM51.3804 9.575H52.7304C53.6304 9.575 54.3637 9.39167 54.9304 9.025C55.5137 8.65833 55.8054 8.05 55.8054 7.2C55.8054 6.45 55.572 5.875 55.1054 5.475C54.6554 5.05833 53.9887 4.85 53.1054 4.85H51.3804V9.575ZM66.4126 11.85H70.4126L69.6876 9.75C69.4543 9.1 69.2376 8.45 69.0376 7.8C68.8376 7.13333 68.6459 6.46667 68.4626 5.8H68.4126C68.2293 6.43333 68.0293 7.08333 67.8126 7.75C67.5959 8.4 67.3709 9.06667 67.1376 9.75L66.4126 11.85ZM66.7126 2.25H70.2626L76.0876 18H72.4626L71.2376 14.375H65.6376L64.4126 18H60.8376L66.7126 2.25ZM77.5329 16.225C77.5329 15.9417 77.5829 15.675 77.6829 15.425C77.7996 15.175 77.9496 14.9583 78.1329 14.775C78.3162 14.5917 78.5246 14.45 78.7579 14.35C79.0079 14.25 79.2662 14.2 79.5329 14.2C80.0662 14.2 80.5246 14.3917 80.9079 14.775C81.3079 15.1583 81.5079 15.6417 81.5079 16.225C81.5079 16.8583 81.3079 17.3583 80.9079 17.725C80.5246 18.0917 80.0662 18.275 79.5329 18.275C78.9996 18.275 78.5329 18.0917 78.1329 17.725C77.7329 17.3583 77.5329 16.8583 77.5329 16.225ZM94.1929 12C94.1929 12.9833 94.0512 13.8667 93.7679 14.65C93.4845 15.4167 93.0929 16.0667 92.5929 16.6C92.0929 17.1333 91.5012 17.5417 90.8179 17.825C90.1512 18.0917 89.4345 18.225 88.6679 18.225C87.8845 18.225 87.1595 18.1 86.4929 17.85C85.8262 17.5833 85.2512 17.2 84.7679 16.7C84.2845 16.1833 83.9012 15.5583 83.6179 14.825C83.3345 14.075 83.1929 13.2167 83.1929 12.25C83.1929 11.2667 83.3345 10.3917 83.6179 9.625C83.9179 8.85833 84.3179 8.21667 84.8179 7.7C85.3179 7.16667 85.9012 6.76667 86.5679 6.5C87.2512 6.23333 87.9845 6.1 88.7679 6.1C89.5345 6.1 90.2512 6.225 90.9179 6.475C91.5845 6.725 92.1595 7.1 92.6429 7.6C93.1262 8.1 93.5012 8.71667 93.7679 9.45C94.0512 10.1833 94.1929 11.0333 94.1929 12ZM92.3679 12.125C92.3679 11.3083 92.2595 10.6083 92.0429 10.025C91.8429 9.425 91.5679 8.94167 91.2179 8.575C90.8845 8.19167 90.4929 7.91667 90.0429 7.75C89.6095 7.56667 89.1595 7.475 88.6929 7.475C88.2262 7.475 87.7679 7.55833 87.3179 7.725C86.8845 7.89167 86.4929 8.15833 86.1429 8.525C85.8095 8.89167 85.5345 9.375 85.3179 9.975C85.1179 10.5583 85.0179 11.275 85.0179 12.125C85.0179 12.975 85.1179 13.7 85.3179 14.3C85.5345 14.9 85.8179 15.3917 86.1679 15.775C86.5179 16.1417 86.9179 16.4167 87.3679 16.6C87.8179 16.7667 88.2762 16.85 88.7429 16.85C89.2095 16.85 89.6595 16.775 90.0929 16.625C90.5262 16.4583 90.9095 16.1917 91.2429 15.825C91.5929 15.4417 91.8679 14.95 92.0679 14.35C92.2679 13.75 92.3679 13.0083 92.3679 12.125ZM98.7312 18H96.9812V6.25H98.3062L98.5812 7.875C99.1645 7.325 99.7728 6.89167 100.406 6.575C101.056 6.25833 101.798 6.1 102.631 6.1C103.831 6.1 104.773 6.43333 105.456 7.1C106.139 7.76667 106.481 8.7 106.481 9.9V18H104.731V10.225C104.731 9.44167 104.531 8.8 104.131 8.3C103.731 7.78333 103.064 7.525 102.131 7.525C101.548 7.525 100.956 7.675 100.356 7.975C99.7562 8.25833 99.2145 8.66667 98.7312 9.2V18ZM110.317 18V6.25H112.067V18H110.317ZM111.192 3.225C110.858 3.225 110.575 3.11667 110.342 2.9C110.125 2.68333 110.017 2.4 110.017 2.05C110.017 1.7 110.125 1.41667 110.342 1.2C110.575 0.966665 110.858 0.849999 111.192 0.849999C111.492 0.849999 111.758 0.958332 111.992 1.175C112.242 1.39167 112.367 1.68333 112.367 2.05C112.367 2.41667 112.25 2.70833 112.017 2.925C111.783 3.125 111.508 3.225 111.192 3.225ZM120.452 12.05L124.577 18H122.577L120.552 15.05L119.377 13.2L118.277 15L116.302 18H114.377L118.452 12.05L114.552 6.25H116.527L118.577 9.4L119.527 10.975L120.477 9.325L122.402 6.25H124.302L120.452 12.05ZM128.345 18H126.595V6.25H127.895L128.17 7.875C128.72 7.325 129.312 6.89167 129.945 6.575C130.579 6.24167 131.337 6.075 132.22 6.075C133.054 6.075 133.737 6.25 134.27 6.6C134.804 6.93333 135.204 7.4 135.47 8C136.054 7.38333 136.695 6.90833 137.395 6.575C138.095 6.24167 138.87 6.075 139.72 6.075C140.92 6.075 141.82 6.41667 142.42 7.1C143.037 7.76667 143.345 8.7 143.345 9.9V18H141.595V10.3C141.595 9.4 141.404 8.71667 141.02 8.25C140.654 7.76667 139.995 7.525 139.045 7.525C138.479 7.525 137.912 7.66667 137.345 7.95C136.779 8.23333 136.27 8.63333 135.82 9.15C135.837 9.26667 135.845 9.39167 135.845 9.525C135.845 9.65833 135.845 9.78333 135.845 9.9V18H134.095V10.3C134.095 9.4 133.912 8.71667 133.545 8.25C133.179 7.76667 132.529 7.525 131.595 7.525C131.012 7.525 130.437 7.675 129.87 7.975C129.32 8.275 128.812 8.69167 128.345 9.225V18ZM146.882 7.3C147.665 6.88333 148.382 6.58333 149.032 6.4C149.698 6.2 150.432 6.1 151.232 6.1C151.832 6.1 152.382 6.175 152.882 6.325C153.398 6.45833 153.84 6.69167 154.207 7.025C154.59 7.35833 154.882 7.8 155.082 8.35C155.298 8.88333 155.407 9.55 155.407 10.35V18H154.057L153.782 16.575H153.732C153.232 17.1583 152.657 17.5833 152.007 17.85C151.373 18.1 150.673 18.225 149.907 18.225C149.357 18.225 148.84 18.15 148.357 18C147.89 17.8333 147.482 17.6 147.132 17.3C146.798 17 146.532 16.6417 146.332 16.225C146.148 15.8083 146.057 15.3417 146.057 14.825C146.057 14.2083 146.182 13.6667 146.432 13.2C146.682 12.7333 147.032 12.3417 147.482 12.025C147.948 11.7083 148.498 11.475 149.132 11.325C149.782 11.1583 150.498 11.075 151.282 11.075H153.657V10.2C153.657 9.2 153.423 8.50833 152.957 8.125C152.49 7.725 151.873 7.525 151.107 7.525C150.64 7.525 150.107 7.6 149.507 7.75C148.923 7.88333 148.273 8.15 147.557 8.55L146.882 7.3ZM153.657 12.35L151.707 12.375C150.323 12.4083 149.34 12.65 148.757 13.1C148.173 13.55 147.882 14.1 147.882 14.75C147.882 15.5333 148.123 16.0833 148.607 16.4C149.09 16.7167 149.665 16.875 150.332 16.875C150.915 16.875 151.507 16.7417 152.107 16.475C152.707 16.1917 153.223 15.7333 153.657 15.1V12.35ZM163.323 18.225C162.789 18.225 162.273 18.15 161.773 18C161.289 17.85 160.873 17.65 160.523 17.4V23.75H158.798V6.1H160.248L160.498 7.6C160.914 7.2 161.406 6.85 161.973 6.55C162.556 6.25 163.248 6.1 164.048 6.1C164.798 6.1 165.481 6.225 166.098 6.475C166.714 6.725 167.239 7.1 167.673 7.6C168.123 8.08333 168.464 8.68333 168.698 9.4C168.948 10.1167 169.073 10.9333 169.073 11.85C169.073 12.95 168.906 13.9 168.573 14.7C168.256 15.5 167.823 16.1667 167.273 16.7C166.739 17.2167 166.123 17.6 165.423 17.85C164.739 18.1 164.039 18.225 163.323 18.225ZM163.673 7.525C163.306 7.525 162.956 7.575 162.623 7.675C162.306 7.775 162.014 7.90833 161.748 8.075C161.481 8.225 161.239 8.4 161.023 8.6C160.823 8.78333 160.656 8.96667 160.523 9.15V16.025C160.906 16.3083 161.314 16.5167 161.748 16.65C162.198 16.7833 162.648 16.85 163.098 16.85C163.614 16.85 164.123 16.7667 164.623 16.6C165.123 16.4167 165.564 16.1333 165.948 15.75C166.331 15.35 166.639 14.8333 166.873 14.2C167.123 13.5667 167.248 12.7917 167.248 11.875C167.248 10.5083 166.956 9.44167 166.373 8.675C165.789 7.90833 164.889 7.525 163.673 7.525Z" fill="#2B2C30"/>
</svg>
