<svg width="16" height="16" viewBox="0 0 16 16" fill="none" xmlns="http://www.w3.org/2000/svg">
<path fill-rule="evenodd" clip-rule="evenodd" d="M9.78074 10.4716C8.85226 11.2454 7.65791 11.7109 6.35488 11.7109C3.39754 11.7109 1 9.31323 1 6.35543C1 3.39763 3.39754 1 6.35488 1C9.31221 1 11.7098 3.39763 11.7098 6.35543C11.7098 7.65792 11.2448 8.85179 10.4719 9.78012L10.4694 9.77759L9.77808 10.469L9.78074 10.4716ZM10.4903 11.1812C9.3788 12.1348 7.93411 12.7109 6.35488 12.7109C2.84518 12.7109 0 9.86544 0 6.35543C0 2.84542 2.84518 0 6.35488 0C9.86458 0 12.7098 2.84542 12.7098 6.35543C12.7098 7.93412 12.1342 9.37837 11.1815 10.4898L16 15.3086L15.3086 16L10.4903 11.1812Z" fill="#0093FF"/>
</svg>
