<svg width="12" height="9" viewBox="0 0 12 9" fill="none" xmlns="http://www.w3.org/2000/svg">
<path fill-rule="evenodd" clip-rule="evenodd" d="M0.0886001 0.82733C0.0313963 0.973828 0 1.13325 0 1.3V7.7C0 8.41797 0.58203 9 1.3 9H10.7C11.418 9 12 8.41797 12 7.7V1.3C12 1.13325 11.9686 0.973827 11.9114 0.82733L6.1317 5.88457C6.0563 5.95055 5.9437 5.95055 5.8683 5.88457L0.0886001 0.82733ZM0.783538 0.106632C0.941844 0.0380273 1.11648 0 1.3 0H10.7C10.8835 0 11.0582 0.0380273 11.2165 0.106632L6 4.67104L0.783538 0.106632Z" fill="#5CA4FF"/>
</svg>
