<?xml version="1.0" encoding="utf-8"?>
<!-- Generator: Adobe Illustrator 23.0.1, SVG Export Plug-In . SVG Version: 6.00 Build 0)  -->
<svg version="1.1" id="Layer_1" xmlns="http://www.w3.org/2000/svg" xmlns:xlink="http://www.w3.org/1999/xlink" x="0px" y="0px"
	 viewBox="0 0 16 16" style="enable-background:new 0 0 16 16;" xml:space="preserve">
<style type="text/css">
	.st0{fill:none;}
	.st1{fill:#C3C6CA;}
</style>
<g id="ic_phone">
	<rect id="box" class="st0" width="16" height="16"/>
	<path id="Combined-Shape" class="st1" d="M5,0h6c1.1,0,2,0.9,2,2v12c0,1.1-0.9,2-2,2H5c-1.1,0-2-0.9-2-2V2C3,0.9,3.9,0,5,0z M5.5,2
		c-0.6,0-1,0.4-1,1v8c0,0.6,0.4,1,1,1h5c0.6,0,1-0.4,1-1V3c0-0.6-0.4-1-1-1H5.5z M8,15c0.6,0,1-0.4,1-1s-0.4-1-1-1s-1,0.4-1,1
		S7.4,15,8,15z"/>
</g>
</svg>
