<svg width="14" height="20" viewBox="0 0 14 20" fill="none" xmlns="http://www.w3.org/2000/svg">
<path fill-rule="evenodd" clip-rule="evenodd" d="M12 7C12 7.49333 11.737 8.44455 11.0953 9.81333C10.489 11.1068 9.66267 12.5321 8.80973 13.8806C8.17913 14.8776 7.54664 15.8128 7 16.5952C6.45336 15.8128 5.82087 14.8776 5.19027 13.8806C4.33733 12.5321 3.51098 11.1068 2.90466 9.81333C2.26303 8.44455 2 7.49333 2 7C2 4.23858 4.23858 2 7 2C9.76142 2 12 4.23858 12 7ZM14 7C14 9.83152 10.2449 15.489 8.23538 18.3139C7.5012 19.346 7 20 7 20C7 20 6.4988 19.346 5.76462 18.3139C3.75505 15.489 0 9.83152 0 7C0 3.13401 3.13401 0 7 0C10.866 0 14 3.13401 14 7ZM7 9C8.10457 9 9 8.10457 9 7C9 5.89543 8.10457 5 7 5C5.89543 5 5 5.89543 5 7C5 8.10457 5.89543 9 7 9Z" fill="#5CA4FF"/>
</svg>
