<?xml version="1.0" encoding="utf-8"?>
<!-- Generator: Adobe Illustrator 23.0.1, SVG Export Plug-In . SVG Version: 6.00 Build 0)  -->
<svg version="1.1" id="Layer_1" xmlns="http://www.w3.org/2000/svg" xmlns:xlink="http://www.w3.org/1999/xlink" x="0px" y="0px"
	 viewBox="0 0 20 20" style="enable-background:new 0 0 20 20;" xml:space="preserve">
<style type="text/css">
	.st0{fill:none;}
	.st1{fill:#C3C6CA;}
</style>
<g id="ic_skype">
	<rect id="box" class="st0" width="20" height="20"/>
	<path id="path" class="st1" d="M10,15C7.2,15,6,13.6,6,12.6c0-0.2,0.1-0.5,0.3-0.7c0.2-0.2,0.4-0.3,0.7-0.2c1.2,0,0.9,1.8,3.1,1.8
		c1.1,0,1.8-0.7,1.8-1.3c0-0.4-0.2-0.8-1-1l-2.5-0.6C6.4,10,6,8.9,6,7.9C6,5.8,8,5,9.9,5c1.7,0,3.7,0.9,3.7,2.2c0,0.5-0.5,0.8-1,0.8
		c-1,0-0.8-1.4-2.9-1.4c-1,0-1.6,0.5-1.6,1.1s0.8,0.9,1.5,1l1.8,0.4c2,0.5,2.5,1.6,2.5,2.7C14,13.7,12.7,15,10,15 M17.7,11.4
		c0.1-0.5,0.1-0.9,0.1-1.4c0-2.3-1-4.5-2.8-6s-4.1-2.1-6.4-1.7C7.9,1.9,7.1,1.7,6.3,1.7c-1.7,0-3.2,0.9-4,2.3s-0.8,3.2,0,4.6
		c-0.5,2.5,0.3,5.1,2.2,6.9c1.8,1.8,4.4,2.6,6.9,2.2c0.7,0.4,1.5,0.6,2.3,0.6c1.7,0,3.2-0.9,4-2.3S18.5,12.8,17.7,11.4"/>
</g>
</svg>
