<svg width="12" height="12" viewBox="0 0 12 12" fill="none" xmlns="http://www.w3.org/2000/svg">
<g clip-path="url(#clip0)">
<path d="M11.6545 7.2728C12.5235 3.3678 9.1025 -0.179698 5.085 0.501302C2.904 -0.852198 0 0.677302 0 3.2723C0 3.8758 0.1665 4.4408 0.456 4.9278C-0.3515 8.8418 3.0975 12.3383 7.1115 11.6108C9.949 13.1113 13.0845 10.1188 11.6545 7.2728ZM7.8355 9.6278C6.7815 10.0613 5.047 10.0638 3.9975 9.5143C2.501 8.7163 2.235 6.9198 3.526 6.9198C4.499 6.9198 4.191 8.0543 5.1735 8.5168C5.6245 8.7253 6.594 8.7468 7.1575 8.3668C7.714 7.9943 7.663 7.4083 7.3605 7.1283C6.559 6.3883 4.2655 6.6823 3.217 5.3868C2.7615 4.8248 2.6755 3.8333 3.2355 3.1143C4.2115 1.8583 7.0755 1.7818 8.307 2.7303C9.444 3.6103 9.137 4.7783 8.2195 4.7783C7.116 4.7783 7.696 3.3343 5.9145 3.3343C4.623 3.3343 4.115 4.2528 5.0245 4.6998C6.2575 5.3123 9.3995 5.1078 9.3995 7.5013C9.397 8.4973 8.7865 9.2398 7.8355 9.6278Z" fill="#5CA4FF"/>
</g>
<defs>
<clipPath id="clip0">
<rect width="12" height="12" fill="white"/>
</clipPath>
</defs>
</svg>
