<svg width="22" height="22" viewBox="0 0 22 22" fill="none" xmlns="http://www.w3.org/2000/svg">
<g clip-path="url(#clip0)">
<path d="M17.5443 13.9279L18.507 19.3795C18.5439 19.5903 18.3817 19.7833 18.1678 19.7833H17.774C17.6349 19.7833 17.5095 19.6997 17.456 19.5713L15.1333 13.928H17.5443V13.9279Z" fill="#CCE3FF"/>
<path d="M18.0309 16.6834H16.2674L15.1333 13.9279H17.5444L18.0309 16.6834Z" fill="#80B8FF"/>
<path d="M4.45575 13.9279L3.49304 19.3795C3.45617 19.5903 3.61838 19.7833 3.83232 19.7833H4.22608C4.36513 19.7833 4.49055 19.6997 4.54405 19.5713L6.86677 13.9279H4.45575Z" fill="#CCE3FF"/>
<path d="M3.96924 16.6834H5.73276L6.86687 13.9279H4.45582L3.96924 16.6834Z" fill="#80B8FF"/>
<path d="M2.79035 4.62348L4.11147 12.5501H17.8889L19.21 4.62348C19.4199 3.36385 18.4486 2.2171 17.1715 2.2171H4.82883C3.55176 2.21715 2.5804 3.36381 2.79035 4.62348Z" fill="#CCE3FF"/>
<path d="M5.23804 5.70858L4.65766 2.22656C3.46683 2.32393 2.58992 3.42084 2.79033 4.62336L4.1114 12.55H17.8888L18.4055 9.45008H9.6548C7.46588 9.45017 5.59786 7.86767 5.23804 5.70858Z" fill="#80B8FF"/>
<path d="M21.6277 7.65902C21.4297 6.83255 20.6119 6.2682 19.7671 6.36037C18.8938 6.45563 18.3296 7.18507 18.1467 8.02924L17.1967 11.8611L4.79997 11.8496L3.85277 8.02924C3.66985 7.18507 3.10567 6.45563 2.23242 6.36037C1.38756 6.2682 0.569782 6.8326 0.371825 7.65902C0.134724 8.64876 0.775774 9.57796 1.70987 9.76178C1.83603 9.78662 1.93447 9.88575 1.96661 10.0103L3.15551 14.6165C3.31252 15.2248 3.86127 15.6499 4.48952 15.6499H17.51C18.1383 15.6499 18.687 15.2249 18.844 14.6165L20.0329 10.0103C20.065 9.88575 20.1635 9.78662 20.2896 9.76178C21.2237 9.57796 21.8648 8.64872 21.6277 7.65902Z" fill="#CCE3FF"/>
<path d="M16.5106 10.4833H5.48868C5.10823 10.4833 4.7998 10.7917 4.7998 11.1722V12.5499C4.7998 12.9303 5.10823 13.2387 5.48868 13.2387H16.5106C16.891 13.2387 17.1995 12.9303 17.1995 12.5499V11.1722C17.1995 10.7917 16.891 10.4833 16.5106 10.4833Z" fill="#CCE3FF"/>
<path d="M17.0274 14.6167H5.51136C4.8884 14.6167 4.343 14.1987 4.181 13.5972L2.57367 7.62785C2.42354 7.07037 2.00945 6.63957 1.48781 6.45386C0.949667 6.64232 0.509495 7.08429 0.371824 7.65922C0.134077 8.65167 0.779296 9.58323 1.71752 9.76344C1.84105 9.78716 1.93516 9.88865 1.96657 10.0104L3.15547 14.6166C3.31248 15.225 3.86123 15.6501 4.48948 15.6501H17.0274C17.3128 15.6501 17.5441 15.4188 17.5441 15.1334C17.5441 14.848 17.3127 14.6167 17.0274 14.6167Z" fill="#80B8FF"/>
<path d="M16.5106 12.2056H5.48868C5.10823 12.2056 4.7998 11.8971 4.7998 11.5167V12.55C4.7998 12.9304 5.10823 13.2389 5.48868 13.2389H16.5106C16.891 13.2389 17.1995 12.9304 17.1995 12.55V11.5167C17.1995 11.8971 16.891 12.2056 16.5106 12.2056Z" fill="#80B8FF"/>
<path d="M21.9413 7.5842C21.7077 6.60872 20.7371 5.93055 19.7324 6.04025C19.5764 6.05726 19.4264 6.0922 19.2833 6.14298L19.5277 4.67646C19.6434 3.98243 19.4489 3.2765 18.9941 2.7396C18.5393 2.20275 17.875 1.89484 17.1713 1.89484H4.82874C4.12512 1.89484 3.46078 2.20275 3.006 2.7396C2.55118 3.2765 2.35666 3.98243 2.47237 4.67646L2.71678 6.14298C2.57365 6.0922 2.4236 6.05722 2.26759 6.0402C1.26263 5.93072 0.292312 6.60877 0.0586479 7.58416C-0.0739967 8.13789 0.0200619 8.70315 0.32355 9.17585C0.623214 9.64262 1.10593 9.97154 1.6466 10.0778C1.6466 10.0778 1.65257 10.0826 1.65472 10.091L2.84367 14.6972C2.97545 15.2077 3.33072 15.6133 3.78834 15.8208L3.17564 19.3239C3.14161 19.5184 3.19494 19.7166 3.32195 19.8677C3.44897 20.0188 3.63498 20.1055 3.83238 20.1055H4.22619C4.4962 20.1055 4.73777 19.9445 4.84159 19.6952L6.3928 15.9723H15.6073L17.1585 19.6952C17.2623 19.9445 17.5039 20.1056 17.7739 20.1056H18.1677C18.3651 20.1056 18.5512 20.0189 18.6781 19.8678C18.8051 19.7166 18.8585 19.5184 18.8245 19.3239L18.2118 15.8207C18.6694 15.6132 19.0246 15.2076 19.1564 14.6972L20.3453 10.091C20.3475 10.0826 20.3522 10.0782 20.3522 10.0782C20.8942 9.97154 21.3769 9.64262 21.6765 9.17585C21.9799 8.70319 22.074 8.1379 21.9413 7.5842ZM4.2466 19.4474C4.24316 19.4557 4.23512 19.461 4.22614 19.461H3.83234C3.8295 19.461 3.82202 19.461 3.81536 19.4531C3.8087 19.4452 3.80999 19.4378 3.81051 19.435L4.41637 15.9708C4.44073 15.9718 4.46518 15.9723 4.48976 15.9723H5.69456L4.2466 19.4474ZM18.1896 19.435C18.1901 19.4378 18.1914 19.4452 18.1847 19.4532C18.1781 19.4611 18.1706 19.4611 18.1677 19.4611H17.7739C17.765 19.4611 17.7569 19.4557 17.7534 19.4474L16.3055 15.9724H17.5102C17.5348 15.9724 17.5593 15.9718 17.5837 15.9708L18.1896 19.435ZM21.1341 8.82772C20.9288 9.14757 20.5984 9.3729 20.2277 9.44582C19.9835 9.49386 19.7847 9.68391 19.7211 9.92995L18.5322 14.5362C18.4119 15.0023 17.9916 15.3279 17.5102 15.3279H4.48976C4.00834 15.3279 3.58806 15.0023 3.46775 14.5362L2.27884 9.92991C2.21534 9.68387 2.01652 9.49386 1.77233 9.44582C1.40164 9.37286 1.07125 9.14757 0.865902 8.82772C0.658148 8.50408 0.594039 8.11577 0.68539 7.73429C0.84489 7.06849 1.50923 6.60615 2.19763 6.68087C2.97803 6.76599 3.4017 7.46857 3.538 8.09763C3.53869 8.10073 3.53942 8.10386 3.54015 8.10691L4.4779 11.8891V12.5501C4.4779 13.1076 4.93152 13.5612 5.48904 13.5612H14.1C14.278 13.5612 14.4222 13.4169 14.4222 13.2389C14.4222 13.061 14.278 12.9167 14.1 12.9167H5.48908C5.28691 12.9167 5.12247 12.7522 5.12247 12.5501V11.1723C5.12247 10.9702 5.28696 10.8057 5.48908 10.8057H7.21114C7.38912 10.8057 6.88887 10.6615 6.88887 10.4835C6.88887 10.3055 7.38912 10.1612 7.21114 10.1612H5.48908C5.21537 10.1612 4.96688 10.2707 4.78465 10.4479L4.16689 7.95635C4.04507 7.3981 3.79164 6.93266 3.44613 6.5988L3.10805 4.57041C3.02358 4.06364 3.16559 3.5481 3.49769 3.15614C3.8298 2.76409 4.31492 2.53928 4.82865 2.53928H17.1713C17.6851 2.53928 18.1702 2.76409 18.5023 3.15614C18.8343 3.54819 18.9764 4.06368 18.8919 4.57041L18.5539 6.59867C18.2083 6.93258 17.9548 7.39806 17.833 7.95635L17.2152 10.4479C17.033 10.2706 16.7845 10.1612 16.5109 10.1612H7.21114C7.03316 10.1612 6.88887 10.3055 6.88887 10.4835C6.88887 10.6615 7.03316 10.8057 7.21114 10.8057H16.5109C16.713 10.8057 16.8775 10.9702 16.8775 11.1723V12.5501C16.8775 12.7522 16.713 12.9167 16.5109 12.9167H14.1C13.922 12.9167 14.4222 13.061 14.4222 13.2389C14.4222 13.4169 13.922 13.5612 14.1 13.5612H16.5109C17.0684 13.5612 17.522 13.1076 17.522 12.5501V11.8888L18.4597 8.10691C18.4604 8.10382 18.4612 8.10073 18.4618 8.09763C18.5981 7.46853 19.0218 6.76603 19.8022 6.68087C20.4907 6.6058 21.1549 7.06849 21.3144 7.73429C21.406 8.11577 21.3418 8.50408 21.1341 8.82772Z" fill="#0072FF"/>
<path d="M11.0037 5.63918C11.1817 5.63918 11.3259 5.4949 11.3259 5.31692C11.3259 5.13895 11.1817 4.99466 11.0037 4.99466H11.0002C10.8223 4.99466 10.6797 5.13895 10.6797 5.31692C10.6797 5.4949 10.8257 5.63918 11.0037 5.63918Z" fill="#0072FF"/>
<path d="M9.27809 7.70564C9.45606 7.70564 9.60035 7.56135 9.60035 7.38338C9.60035 7.2054 9.45606 7.06111 9.27809 7.06111H9.27465C9.09667 7.06111 8.9541 7.2054 8.9541 7.38338C8.9541 7.56135 9.10011 7.70564 9.27809 7.70564Z" fill="#0072FF"/>
<path d="M12.7224 7.70564C12.9004 7.70564 13.0447 7.56135 13.0447 7.38338C13.0447 7.2054 12.9004 7.06111 12.7224 7.06111H12.719C12.541 7.06111 12.3984 7.2054 12.3984 7.38338C12.3984 7.56135 12.5444 7.70564 12.7224 7.70564Z" fill="#0072FF"/>
<path d="M14.4475 5.63918C14.6255 5.63918 14.7698 5.4949 14.7698 5.31692C14.7698 5.13895 14.6255 4.99466 14.4475 4.99466H14.4441C14.2661 4.99466 14.1235 5.13895 14.1235 5.31692C14.1236 5.4949 14.2695 5.63918 14.4475 5.63918Z" fill="#0072FF"/>
<path d="M7.55592 5.63918C7.73389 5.63918 7.87818 5.4949 7.87818 5.31692C7.87818 5.13895 7.73389 4.99466 7.55592 4.99466H7.55248C7.3745 4.99466 7.23193 5.13895 7.23193 5.31692C7.23198 5.4949 7.37798 5.63918 7.55592 5.63918Z" fill="#0072FF"/>
</g>
<defs>
<clipPath id="clip0">
<rect width="22" height="22" fill="white"/>
</clipPath>
</defs>
</svg>
