<svg width="24" height="24" viewBox="0 0 24 24" fill="none" xmlns="http://www.w3.org/2000/svg">
<g clip-path="url(#clip0)">
<path d="M10.104 9.10649L8.82307 4.98698C8.67336 4.50559 8.58952 4.00608 8.57374 3.50235L8.51485 1.61142H5.99075L5.93186 3.50235C5.91608 4.00626 5.83224 4.50559 5.68253 4.98698L4.40159 9.10649C4.3526 9.26433 4.32765 9.42876 4.32765 9.5941V13.6578C4.32765 13.7096 4.33004 13.7616 4.33499 13.8132L4.8197 18.9098C4.8375 19.0973 4.82246 19.2863 4.77531 19.4686L4.2939 21.3259C4.16455 21.9971 4.6799 22.6197 5.36459 22.6197H9.14101C9.82588 22.6197 10.341 21.9971 10.2117 21.3259L9.7303 19.4686C9.68315 19.2863 9.6681 19.0973 9.6859 18.9098L10.1706 13.8132C10.1756 13.7616 10.1779 13.7096 10.1779 13.6578V9.5941C10.1781 9.42876 10.153 9.26433 10.104 9.10649Z" fill="white"/>
<path d="M10.2119 21.3261L9.73066 19.4687C9.68333 19.2865 9.66829 19.0974 9.68626 18.9099L10.1708 13.8133C10.1757 13.7617 10.1783 13.7098 10.1783 13.6578V9.59416C10.1783 9.42882 10.1532 9.26457 10.1042 9.10655L8.82325 4.98704C8.67354 4.50565 8.5897 4.00632 8.57392 3.50241L8.51503 1.61166H5.99093L5.93204 3.50241C5.92581 3.69889 5.90911 3.89481 5.88232 4.08909C5.92415 4.39304 5.99057 4.69352 6.08193 4.98704L7.36288 9.10655C7.41186 9.26457 7.43681 9.42882 7.43681 9.59416V13.6578C7.43681 13.7098 7.43443 13.7617 7.42948 13.8133L6.94476 18.9099C6.92697 19.0974 6.94201 19.2865 6.98916 19.4687L7.47057 21.3261C7.59991 21.9972 7.08456 22.6199 6.39988 22.6199H9.14119C9.82606 22.6199 10.3412 21.9972 10.2119 21.3261Z" fill="#CCE3FF"/>
<path d="M10.104 9.10646L8.82305 4.98694C8.7537 4.76428 8.69921 4.5376 8.65848 4.30835H5.84727C5.80635 4.5376 5.75187 4.76428 5.68252 4.98694L4.40157 9.10646C4.35259 9.26429 4.32764 9.42872 4.32764 9.59407V13.6577C4.32764 13.7096 4.33002 13.7616 4.33498 13.8132L4.81969 18.9098C4.83748 19.0973 4.82244 19.2862 4.77529 19.4684L4.5166 20.4667C4.72043 20.7082 5.02884 20.882 5.36457 20.882H9.14099C9.48921 20.882 9.79302 20.7207 9.99116 20.4742L9.73046 19.4684C9.68331 19.2862 9.66827 19.0971 9.68606 18.9098L10.1708 13.8132C10.1757 13.7616 10.1781 13.7096 10.1781 13.6577V9.59407C10.1781 9.42872 10.153 9.26429 10.104 9.10646Z" fill="#E6EEF9"/>
<path d="M10.1609 9.36006C10.1486 9.27418 10.1299 9.1894 10.104 9.10646L9.24998 6.36005L8.82306 4.98694C8.82269 4.98566 8.82232 4.98438 8.82196 4.98291C8.80471 4.92743 8.78838 4.87158 8.77297 4.81555C8.76031 4.76959 8.74857 4.72345 8.7372 4.67712C8.73463 4.66724 8.73188 4.65753 8.72949 4.64764C8.70215 4.5354 8.67867 4.42206 8.65849 4.30835H5.91699C5.95754 4.53742 6.01239 4.7641 6.08174 4.98694L7.36269 9.10646C7.41167 9.26429 7.43681 9.42872 7.43681 9.59407V13.6577C7.43681 13.7096 7.43424 13.7614 7.42928 13.8132L6.94476 18.9098C6.92696 19.0971 6.94182 19.2862 6.98915 19.4684L7.35535 20.882H9.141C9.48921 20.882 9.79303 20.7207 9.99099 20.4742L9.73047 19.4684C9.71983 19.4272 9.71102 19.3857 9.70368 19.3439C9.69469 19.2932 9.68791 19.2423 9.68387 19.191C9.68203 19.1676 9.68075 19.1443 9.67983 19.1209C9.67726 19.0506 9.67928 18.9801 9.68607 18.9098L10.1708 13.8132C10.1757 13.7614 10.1781 13.7096 10.1781 13.6577V9.59407C10.1781 9.5157 10.1721 9.43751 10.1609 9.36006Z" fill="#CCE3FF"/>
<path d="M8.52499 2.2186H5.98035C5.70295 2.2186 5.47803 1.99411 5.47803 1.71726V0.811067C5.47803 0.534211 5.70295 0.309723 5.98035 0.309723H8.52499C8.80257 0.309723 9.0275 0.534211 9.0275 0.811067V1.71726C9.0275 1.99411 8.80257 2.2186 8.52499 2.2186Z" fill="#80B8FF"/>
<path d="M4.32764 9.59424V13.6579C4.32764 13.7097 4.33002 13.7617 4.33498 13.8134L4.37424 14.2263H10.1313L10.1706 13.8134C10.1755 13.7617 10.1781 13.7097 10.1781 13.6579V9.59424C10.1781 9.50525 10.1702 9.41663 10.1559 9.3291H4.34984C4.33534 9.41663 4.32764 9.50525 4.32764 9.59424Z" fill="#CCE3FF"/>
<path d="M10.1707 13.8134C10.1757 13.7617 10.1782 13.7099 10.1782 13.6579V9.59424C10.1782 9.55853 10.1766 9.52301 10.1742 9.48749C10.1738 9.48181 10.1735 9.47632 10.1731 9.47064C10.1705 9.43823 10.1669 9.40582 10.1625 9.3736C10.1612 9.36517 10.1601 9.35657 10.1588 9.34814C10.1579 9.34174 10.1562 9.33551 10.1553 9.3291H7.41472C7.42903 9.41681 7.43674 9.50525 7.43674 9.59424V13.6579C7.43674 13.7099 7.43435 13.7617 7.4294 13.8134L7.39014 14.2265H10.1315L10.1707 13.8134Z" fill="#80B8FF"/>
<path d="M18.5009 20.7823C18.3928 20.8923 18.2422 20.9621 18.0725 20.9621H14.0099C13.8402 20.9621 13.6895 20.8923 13.5815 20.7823C13.5327 21.2325 13.473 21.6165 13.4189 21.9146C13.3523 22.2821 13.6356 22.6197 14.0099 22.6197H18.0725C18.4467 22.6197 18.73 22.2821 18.6634 21.9146C18.6093 21.6165 18.5497 21.2325 18.5009 20.7823Z" fill="white"/>
<path d="M18.6418 21.7932C18.6385 21.7745 18.6352 21.7547 18.6321 21.7353C18.628 21.7121 18.6242 21.6892 18.6203 21.6652C18.6159 21.639 18.6117 21.6119 18.6073 21.5848C18.6045 21.5667 18.6016 21.5491 18.5988 21.5306C18.5941 21.4991 18.5891 21.4665 18.5844 21.4337C18.5822 21.4191 18.58 21.4046 18.5778 21.3896C18.5724 21.3535 18.5673 21.3166 18.562 21.279C18.5603 21.2669 18.5587 21.2549 18.557 21.2426C18.5515 21.2021 18.546 21.1609 18.5407 21.1188C18.5394 21.1095 18.5383 21.1001 18.537 21.0906C18.5313 21.0456 18.5256 21 18.5201 20.9533C18.5194 20.9472 18.5187 20.941 18.5181 20.935C18.5123 20.885 18.5064 20.8343 18.5007 20.7823C18.3926 20.8923 18.242 20.9621 18.0725 20.9621H15.77C15.892 21.9858 16.0625 22.6199 16.0625 22.6199H18.0725C18.4466 22.6199 18.7298 22.2821 18.6632 21.9146C18.6561 21.8756 18.6489 21.8349 18.6418 21.7932Z" fill="#CCE3FF"/>
<path d="M12.7364 9.14111C12.6352 9.14111 12.5438 9.2019 12.5055 9.29565C12.4315 9.47711 12.328 9.83087 12.3071 10.4185H19.7748C19.7539 9.83087 19.6505 9.47711 19.5765 9.29565C19.5384 9.2019 19.4468 9.14111 19.3455 9.14111H12.7364Z" fill="white"/>
<path d="M21.5783 22.2838H2.47418C2.1999 22.2838 1.97754 22.5058 1.97754 22.7795V23.1007C1.97754 23.3744 2.1999 23.5965 2.47418 23.5965H21.5783C21.8527 23.5965 22.0751 23.3744 22.0751 23.1007V22.7795C22.0749 22.5058 21.8525 22.2838 21.5783 22.2838Z" fill="#80B8FF"/>
<path d="M21.5782 21.9273H19.0251C19.0228 21.9018 19.0191 21.8766 19.0145 21.8511C18.8044 20.693 18.4206 17.6688 19.3924 14.6045C19.8568 13.1408 20.1059 11.8689 20.1335 10.8241C20.1373 10.6753 20.1362 10.5372 20.1318 10.4081V10.4057C20.1318 10.4037 20.1316 10.4019 20.1314 10.3999C20.1305 10.3702 20.129 10.3413 20.1276 10.3125C20.127 10.3017 20.1265 10.2907 20.1257 10.2801C20.1241 10.2499 20.1223 10.2202 20.1201 10.1911C20.1195 10.1842 20.119 10.177 20.1184 10.1702C20.0916 9.82381 20.0371 9.55922 19.9779 9.36275L19.977 9.36C19.9727 9.34591 19.9683 9.33217 19.9641 9.31881C19.9614 9.31057 19.9588 9.30251 19.9562 9.29463C19.9527 9.28438 19.9494 9.27431 19.946 9.26424C19.9421 9.25307 19.9382 9.24245 19.9344 9.23183C19.9318 9.22505 19.9293 9.2181 19.9269 9.21132C19.9203 9.19393 19.9137 9.17708 19.9072 9.16133C19.903 9.1509 19.8983 9.14064 19.8935 9.13057C19.8916 9.12691 19.8902 9.12306 19.8883 9.1194C19.8865 9.11556 19.8843 9.11208 19.8823 9.10823C19.7854 8.92348 19.601 8.8019 19.3915 8.78633C19.3866 8.78597 19.3814 8.78597 19.3763 8.78578C19.366 8.78523 19.3557 8.7845 19.3455 8.7845H12.7362C12.6434 8.7845 12.5542 8.80538 12.474 8.84346C12.3406 8.90682 12.2328 9.01833 12.1742 9.16133L12.172 9.16719C12.1665 9.18074 12.161 9.19503 12.1553 9.20986C12.1522 9.21828 12.1489 9.22725 12.1458 9.23622C12.1427 9.24446 12.1396 9.25289 12.1366 9.26168C12.1324 9.27339 12.1284 9.28566 12.1242 9.29811C12.1225 9.30324 12.1209 9.30837 12.1192 9.31368C12.0537 9.51528 11.9917 9.7958 11.9629 10.1737C11.9625 10.1785 11.9622 10.1832 11.9618 10.188C11.9594 10.2188 11.9574 10.2503 11.9556 10.2823C11.9552 10.2909 11.9546 10.2997 11.9543 10.3085C11.9526 10.3391 11.9511 10.3696 11.95 10.4013L11.9499 10.4059V10.4077C11.9453 10.5368 11.9444 10.6751 11.9482 10.8243C11.9755 11.8689 12.2249 13.1408 12.689 14.6045C13.661 17.6688 13.2772 20.6932 13.0672 21.8511C13.0626 21.8766 13.0589 21.902 13.0563 21.9273H10.5324C10.5939 21.7125 10.606 21.4836 10.5625 21.2588C10.561 21.2514 10.5596 21.2441 10.5576 21.2368L10.0763 19.3796C10.0395 19.2369 10.0277 19.0902 10.0417 18.9438L10.4867 14.2636L10.4869 14.2619L10.5262 13.8472C10.5322 13.7846 10.5354 13.7209 10.5354 13.6579V9.5942C10.5354 9.39296 10.5049 9.19338 10.4451 9.00093L9.16415 4.88142C9.14782 4.82887 9.13241 4.77595 9.11773 4.72285C9.10544 4.67817 9.09407 4.63313 9.08288 4.58772C9.08104 4.58076 9.07921 4.5738 9.07737 4.56684C9.05187 4.46119 9.0293 4.35426 9.01004 4.24622C8.96564 3.99738 8.93886 3.7447 8.93097 3.49146L8.89959 2.48841C9.18635 2.34906 9.38486 2.05628 9.38486 1.71735V0.811159C9.38467 0.338013 8.99903 -0.046875 8.52496 -0.046875H5.98032C5.50625 -0.046875 5.12079 0.338013 5.12079 0.811159V1.71735C5.12079 2.05628 5.31911 2.34906 5.60587 2.48841L5.57468 3.49128C5.56679 3.74488 5.53982 3.9972 5.49524 4.24659C5.47598 4.35444 5.45359 4.46137 5.42809 4.56666C5.42626 4.5738 5.42442 4.58076 5.42259 4.5879C5.4114 4.63313 5.39984 4.67835 5.38755 4.72303C5.3736 4.7732 5.35911 4.82319 5.3437 4.873C5.34278 4.87574 5.34205 4.87867 5.34131 4.88142L5.01163 5.9416C4.9531 6.12965 5.0586 6.32942 5.24701 6.38783C5.43561 6.44606 5.63559 6.34096 5.69411 6.15291L6.0238 5.09272C6.04508 5.02387 6.06508 4.95448 6.08398 4.8849C6.08599 4.87757 6.08783 4.87007 6.08966 4.86256C6.10691 4.79829 6.12305 4.73384 6.1381 4.66902L6.13901 4.66517H8.36663L8.36718 4.66755C8.38241 4.73365 8.39892 4.79957 8.41635 4.86512C8.41819 4.87153 8.41965 4.87794 8.4213 4.88435C8.4402 4.95411 8.4602 5.02369 8.48166 5.09272L9.68812 8.97237H4.81734L5.69005 6.16519C5.74858 5.97714 5.43543 6.44624 5.24701 6.38783C5.05841 6.32942 5.07015 5.75355 5.01163 5.9416L4.06019 9.00093C4.00038 9.19319 3.97011 9.39278 3.97011 9.5942V13.6579C3.97011 13.7209 3.97304 13.7844 3.97909 13.847L4.01854 14.2625L4.46381 18.9436C4.47775 19.0901 4.46601 19.2367 4.42913 19.3794L3.94772 21.2368C3.94589 21.2439 3.94424 21.2513 3.94277 21.2586C3.89947 21.4834 3.91158 21.7123 3.97304 21.9273H2.47414C2.00319 21.9273 1.62012 22.3096 1.62012 22.7796V23.1008C1.62012 23.5707 2.00319 23.9532 2.47414 23.9532H21.5782C22.0492 23.9532 22.4323 23.5708 22.4323 23.1008V22.7796C22.4323 22.3096 22.0492 21.9273 21.5782 21.9273ZM6.25827 3.95197C6.27368 3.80622 6.28413 3.6601 6.28872 3.51343L6.31808 2.5752H8.18739L8.21656 3.51343C8.22115 3.6601 8.2316 3.80622 8.24701 3.95197H6.25827ZM8.67008 1.71735C8.67008 1.79572 8.60715 1.85962 8.529 1.86164H8.5279C8.52386 1.86182 8.51964 1.86182 8.5156 1.862H5.98912C5.98454 1.86182 5.98105 1.86182 5.97738 1.86182C5.89886 1.86017 5.8352 1.79609 5.8352 1.71735V0.811159C5.8352 0.731325 5.90033 0.666322 5.98032 0.666322H8.52496C8.60495 0.666322 8.67008 0.731142 8.67008 0.811159V1.71735ZM12.6621 10.7752H13.5414C13.7388 10.7752 13.8986 10.6156 13.8986 10.4185C13.8986 10.2217 13.7386 10.062 13.5414 10.062H12.6916C12.6927 10.0523 12.6938 10.0424 12.6951 10.0329C12.6969 10.0181 12.6988 10.0033 12.7008 9.98879C12.7028 9.97341 12.705 9.95821 12.7072 9.94338C12.7094 9.92873 12.7116 9.91445 12.714 9.90035C12.7162 9.8868 12.7184 9.87325 12.7206 9.86025C12.7232 9.84615 12.7257 9.83242 12.7283 9.81905C12.7305 9.80715 12.7327 9.79525 12.7351 9.78389C12.7378 9.77016 12.7406 9.75716 12.7433 9.74434C12.7455 9.73409 12.7477 9.72365 12.75 9.71376C12.7531 9.70076 12.756 9.6885 12.7591 9.67623C12.7611 9.66762 12.7633 9.65865 12.7654 9.65041C12.7687 9.63778 12.7718 9.62624 12.7751 9.61452C12.7769 9.60738 12.7789 9.60006 12.781 9.59328C12.7844 9.58083 12.7879 9.56929 12.7914 9.55794C12.7931 9.55281 12.7945 9.54732 12.7962 9.54238C12.8011 9.52645 12.8061 9.51162 12.8109 9.4977H19.2708C19.2756 9.51143 19.2805 9.52626 19.2855 9.54201C19.2877 9.54897 19.2899 9.55703 19.2923 9.56435C19.295 9.57351 19.2978 9.58248 19.3005 9.59218C19.3031 9.60115 19.3057 9.61123 19.3084 9.62075C19.3108 9.63008 19.3134 9.63906 19.3159 9.64894C19.3187 9.65938 19.3214 9.67073 19.3242 9.68209C19.3266 9.69179 19.329 9.7015 19.3312 9.71175C19.3341 9.72383 19.3369 9.73684 19.3396 9.74947C19.3418 9.75991 19.344 9.77034 19.3462 9.78115C19.349 9.79488 19.3517 9.80916 19.3543 9.82363C19.3565 9.83461 19.3585 9.84578 19.3605 9.85714C19.3633 9.87252 19.3658 9.88845 19.3684 9.90456C19.3702 9.9161 19.3721 9.92782 19.3739 9.9399C19.3765 9.95693 19.379 9.97451 19.3814 9.99245C19.3831 10.0044 19.3846 10.0164 19.386 10.0287C19.3875 10.0395 19.3888 10.0509 19.3901 10.062H13.5414C13.344 10.062 13.8986 10.2217 13.8986 10.4185C13.8986 10.6156 13.344 10.7752 13.5414 10.7752H19.4194C19.4025 11.5646 19.2378 12.7295 18.7112 14.3894C17.9728 16.7176 17.9642 18.9808 18.1212 20.6001C18.106 20.6033 18.0898 20.6054 18.0722 20.6054H14.0094C13.9918 20.6054 13.9757 20.6033 13.9606 20.6001C14.1175 18.9808 14.1089 16.7176 13.3704 14.3894C12.8439 12.7295 12.6791 11.5646 12.6621 10.7752ZM18.3023 21.9273H13.7792C13.8122 21.7416 13.8456 21.5347 13.877 21.3086C13.9206 21.3146 13.9645 21.3186 14.0094 21.3186H18.0721C18.117 21.3186 18.161 21.3146 18.2045 21.3086C18.2361 21.5347 18.2693 21.7416 18.3023 21.9273ZM4.6847 9.68575H9.82058V13.6579C9.82058 13.6983 9.81857 13.7393 9.81471 13.7796L9.80627 13.8697H4.69901L4.69057 13.7796C4.68671 13.7393 4.6847 13.6983 4.6847 13.6579V9.68575ZM9.38449 19.5579L9.59437 20.3683C9.46631 20.4694 9.3078 20.5254 9.14085 20.5254H5.36443C5.20849 20.5254 5.04851 20.4645 4.91384 20.3577L5.12097 19.5579C5.17877 19.3347 5.19711 19.1054 5.17528 18.8762L4.76689 14.5829H9.73839L9.33018 18.8762C9.30835 19.1054 9.32652 19.3349 9.38449 19.5579ZM4.64287 21.4034L4.72653 21.0801C4.92705 21.1824 5.14611 21.2386 5.36443 21.2386H9.14085C9.36688 21.2386 9.58502 21.1866 9.78132 21.0898L9.8626 21.4034C9.8958 21.5889 9.85654 21.7731 9.756 21.9273H4.74928C4.64874 21.7731 4.60966 21.5891 4.64287 21.4034ZM21.7177 23.1008C21.7177 23.1775 21.6551 23.24 21.5782 23.24H2.47414C2.39727 23.24 2.33471 23.1775 2.33471 23.1008V22.7796C2.33471 22.7029 2.39727 22.6405 2.47414 22.6405H21.5782C21.6551 22.6405 21.7177 22.7029 21.7177 22.7796V23.1008Z" fill="#0072FF"/>
<path d="M19.643 21.7655H12.3569C12.2707 21.7655 12.2007 21.6955 12.2007 21.6092V21.0096C12.2007 20.9234 12.2707 20.8534 12.3569 20.8534H19.643C19.7293 20.8534 19.7993 20.9234 19.7993 21.0096V21.6092C19.7992 21.6955 19.7293 21.7655 19.643 21.7655Z" fill="white"/>
<path d="M15.0798 8.33069H13.2275V6.98431C13.2275 6.57031 13.5631 6.23471 13.9771 6.23471H14.3302C14.7442 6.23471 15.0798 6.57031 15.0798 6.98431V8.33069Z" fill="#80B8FF"/>
<path d="M14.151 7.50359C14.3266 7.50359 14.469 7.36121 14.469 7.18559C14.469 7.00996 14.3266 6.86758 14.151 6.86758C13.9754 6.86758 13.833 7.00996 13.833 7.18559C13.833 7.36121 13.9754 7.50359 14.151 7.50359Z" fill="#E2E8ED"/>
<path d="M19.643 9.24285H12.3569C12.2707 9.24285 12.2007 9.17288 12.2007 9.0866V8.487C12.2007 8.40072 12.2707 8.33075 12.3569 8.33075H19.643C19.7293 8.33075 19.7993 8.40072 19.7993 8.487V9.0866C19.7992 9.17288 19.7293 9.24285 19.643 9.24285Z" fill="white"/>
<path d="M19.7995 8.4871V9.08629C19.7995 9.17273 19.7294 9.24282 19.643 9.24282H17.5928V8.3306H19.643C19.7294 8.3306 19.7995 8.40066 19.7995 8.4871Z" fill="#CCE3FF"/>
<path d="M19.7995 21.0096V21.6088C19.7995 21.6952 19.7294 21.7653 19.643 21.7653H17.5928V20.8531H19.643C19.7294 20.8531 19.7995 20.9232 19.7995 21.0096Z" fill="#CCE3FF"/>
<path d="M19.2053 9.2428H16.4058H15.5947H12.7953L11.8353 10.6174C11.8157 10.6455 11.8052 10.6789 11.8052 10.7132V12.8413V17.2547V19.3828C11.8052 19.417 11.8157 19.4505 11.8353 19.4786L12.7953 20.8531H15.5947H16.4058H19.2053L20.1653 19.4785C20.1849 19.4504 20.1954 19.417 20.1954 19.3827V17.2546V12.8413V10.7132C20.1954 10.6789 20.1848 10.6455 20.1653 10.6174L19.2053 9.2428Z" fill="#CCE3FF"/>
<path d="M20.195 10.7133V19.3829C20.195 19.4171 20.1844 19.4506 20.1646 19.4787L19.2048 20.853H17.5923L18.5524 19.4787C18.5721 19.4505 18.5825 19.4171 18.5825 19.3829V10.7133C18.5825 10.6789 18.5721 10.6454 18.5524 10.6175L17.5923 9.24292H19.2048L20.1646 10.6175C20.1844 10.6454 20.195 10.6789 20.195 10.7133Z" fill="#80B8FF"/>
<path d="M13.359 10.6502C13.359 10.6502 12.5764 12.4318 13.0147 15.5672C13.0147 15.5672 13.5156 18.3621 13.359 19.4142H15.2998C15.2998 19.4142 15.7069 18.2672 15.0592 15.5683C14.6819 13.9964 14.7265 12.1182 15.2583 10.7548C15.2718 10.7201 15.2857 10.6852 15.2998 10.6502H13.359Z" fill="white"/>
<path d="M20.4296 10.6503C20.4296 10.5817 20.4001 10.5202 20.3532 10.4773L19.6547 9.47702C19.8648 9.47052 20.0338 9.29799 20.0338 9.08633V8.48726C20.0338 8.27148 19.8583 8.09595 19.6425 8.09595H15.3141V6.98569C15.3141 6.44219 14.8719 6 14.3284 6H13.978C13.4345 6 12.9923 6.44219 12.9923 6.98569V8.09595H12.357C12.1412 8.09595 11.9656 8.27148 11.9656 8.48726V9.0863C11.9656 9.29796 12.1347 9.47049 12.3448 9.47699L11.6461 10.4774C11.5993 10.5203 11.5698 10.5818 11.5698 10.6503C11.5698 10.6595 11.5705 10.6686 11.5715 10.6776C11.5705 10.6894 11.5698 10.7012 11.5698 10.7132V19.3828C11.5698 19.3888 11.5702 19.3948 11.5705 19.4007C11.5703 19.4052 11.5698 19.4097 11.5698 19.4142C11.5698 19.449 11.5776 19.482 11.5912 19.5117C11.6033 19.5474 11.6203 19.5815 11.6423 19.613L12.3448 20.619C12.1347 20.6255 11.9656 20.798 11.9656 21.0097V21.6087C11.9656 21.8245 12.1412 22 12.357 22H19.6425C19.8583 22 20.0338 21.8245 20.0338 21.6087V21.0097C20.0338 20.798 19.8648 20.6255 19.6547 20.619L20.3573 19.6129C20.3792 19.5814 20.3961 19.5474 20.4082 19.5118C20.4218 19.482 20.4296 19.4491 20.4296 19.4142C20.4296 19.4096 20.4292 19.4052 20.4289 19.4007C20.4292 19.3947 20.4296 19.3888 20.4296 19.3828V10.7132C20.4296 10.7013 20.4289 10.6894 20.4279 10.6776C20.4289 10.6687 20.4296 10.6596 20.4296 10.6503ZM18.1754 19.1795C18.0457 19.1795 17.9406 19.2846 17.9406 19.4143C17.9406 19.5439 18.0457 19.649 18.1754 19.649H19.7592L19.0823 20.6184H12.9171L12.2401 19.649H13.3584H15.2993H18.1754C18.3051 19.649 17.9406 19.5439 17.9406 19.4143C17.9406 19.2846 18.3051 19.1795 18.1754 19.1795H15.5936C15.6812 18.6631 15.7615 17.4911 15.2869 15.5136C15.1496 14.9413 15.0675 14.3101 15.0498 13.6883C15.046 13.5587 14.9391 13.4571 14.8083 13.4603C14.6787 13.464 14.5767 13.5721 14.5804 13.7017C14.5994 14.3648 14.6835 15.0112 14.8303 15.6231C15.3189 17.659 15.1919 18.7902 15.1156 19.1795H13.6164C13.68 17.9891 13.2739 15.6862 13.2461 15.5304C12.8927 12.9966 13.358 11.3565 13.521 10.8851H14.9602C14.8417 11.2309 14.7493 11.6093 14.6847 12.0133C14.6642 12.1414 14.7514 12.2618 14.8794 12.2823C15.0076 12.3028 15.1279 12.2156 15.1483 12.0875C15.2185 11.6489 15.3235 11.2451 15.4598 10.8851H19.9601V19.1795H18.1754ZM15.2993 10.4155H13.3585H12.2621L12.9171 9.47765H19.0823L19.7373 10.4155H15.2993ZM13.025 10.8851C12.8171 11.5451 12.4422 13.1719 12.7816 15.5998C12.782 15.6028 12.7825 15.6058 12.783 15.6087C12.7876 15.6346 13.2181 18.0556 13.1465 19.1795H12.0394V10.8851H13.025ZM13.4618 6.98569C13.4618 6.7011 13.6933 6.46957 13.9779 6.46957H14.3283C14.6129 6.46957 14.8445 6.7011 14.8445 6.98569V8.09595H13.4618L13.4618 6.98569ZM12.4352 8.56555H13.2271H15.0793H19.5642V9.00808H19.2047H12.7947H12.4352V8.56555ZM19.5642 21.5305H12.4352V21.088H12.7947H19.2047H19.5642V21.5305Z" fill="#0072FF"/>
<path d="M14.1509 6.6326C13.8461 6.6326 13.5981 6.88057 13.5981 7.18538C13.5981 7.4902 13.8461 7.73817 14.1509 7.73817C14.4557 7.73817 14.7037 7.4902 14.7037 7.18538C14.7037 6.88057 14.4557 6.6326 14.1509 6.6326ZM14.1509 7.2686C14.1051 7.2686 14.0677 7.23126 14.0677 7.18538C14.0677 7.13948 14.1051 7.10216 14.1509 7.10216C14.1968 7.10216 14.2341 7.13948 14.2341 7.18538C14.2341 7.23126 14.1968 7.2686 14.1509 7.2686Z" fill="#0072FF"/>
</g>
<defs>
<clipPath id="clip0">
<rect width="24" height="24" fill="white"/>
</clipPath>
</defs>
</svg>
