<svg width="24" height="24" viewBox="0 0 24 24" fill="none" xmlns="http://www.w3.org/2000/svg">
<g clip-path="url(#clip0)">
<path d="M1.99989 6.39996H21.9999C22.8835 6.39996 23.5999 7.11631 23.5999 7.99995V20.8C23.5999 21.6836 22.8835 22.3999 21.9999 22.3999H1.99989C1.11625 22.3999 0.399902 21.6836 0.399902 20.8V7.99995C0.399855 7.11631 1.1162 6.39996 1.99989 6.39996Z" fill="#80B8FF"/>
<path d="M1.99989 6.39996H20.7999C21.6835 6.39996 22.3999 7.11631 22.3999 7.99995V20.8C22.3999 21.6836 21.6835 22.3999 20.7999 22.3999H1.99989C1.11625 22.3999 0.399902 21.6836 0.399902 20.8V7.99995C0.399855 7.11631 1.1162 6.39996 1.99989 6.39996Z" fill="#E6F1FF"/>
<path d="M16.7998 13.1995V15.5995C16.7991 15.8202 16.6204 15.9988 16.3998 15.9995H13.5998C13.3792 16.0002 13.2005 16.1788 13.1998 16.3995V19.1995C13.1992 19.4201 13.0205 19.5988 12.7998 19.5995H10.3998C10.1792 19.5988 10.0005 19.4201 9.99985 19.1995V16.3995C9.9992 16.1788 9.82051 16.0002 9.59987 15.9995H6.79989C6.57925 15.9988 6.40056 15.8202 6.3999 15.5995V13.1995C6.40056 12.9789 6.57925 12.8002 6.79989 12.7995H9.59977C9.82042 12.7989 9.9991 12.6202 9.99976 12.3996V9.59957C10.0004 9.37893 10.1791 9.20024 10.3997 9.19958H12.7997C13.0204 9.20024 13.1991 9.37893 13.1997 9.59957V12.3995C13.2004 12.6201 13.3791 12.7988 13.5997 12.7995H16.3997C16.6204 12.8001 16.7991 12.9789 16.7998 13.1995Z" fill="#71C285"/>
<path d="M5.99982 5.59985V6.39987H2.7998V5.59985C2.80112 5.15857 3.15849 4.80115 3.59982 4.79984H5.1998C5.64113 4.80115 5.99855 5.15857 5.99982 5.59985Z" fill="#37474F"/>
<path d="M21.2 5.59985V6.39987H18V5.59985C18.0013 5.15857 18.3587 4.80115 18.8 4.79984H20.4C20.8413 4.80115 21.1987 5.15857 21.2 5.59985Z" fill="#37474F"/>
<path d="M16.0001 4.39977V6.39978H14.4001V4.39977C14.3994 4.17912 14.2207 4.00044 14.0001 3.99978H9.60007C9.37943 4.00044 9.20074 4.17912 9.20008 4.39977V6.39978H7.6001V4.39977C7.60052 3.29534 8.49569 2.40017 9.60011 2.39975H14.0001C15.1045 2.40017 15.9997 3.29539 16.0001 4.39977Z" fill="#71C285"/>
<path d="M16.7998 13.1995V15.5995C16.7991 15.8202 16.6204 15.9988 16.3998 15.9995H13.5998C13.3792 16.0002 13.2005 16.1788 13.1998 16.3995V19.1995C13.1992 19.4201 13.0205 19.5988 12.7998 19.5995H10.3998C10.1792 19.5988 10.0005 19.4201 9.99985 19.1995V16.3995C9.9992 16.1788 9.82051 16.0002 9.59987 15.9995H6.79989C6.57925 15.9988 6.40056 15.8202 6.3999 15.5995V13.1995C6.40056 12.9789 6.57925 12.8002 6.79989 12.7995H9.59977C9.82042 12.7989 9.9991 12.6202 9.99976 12.3996V9.59957C10.0004 9.37893 10.1791 9.20024 10.3997 9.19958H12.7997C13.0204 9.20024 13.1991 9.37893 13.1997 9.59957V12.3995C13.2004 12.6201 13.3791 12.7988 13.5997 12.7995H16.3997C16.6204 12.8001 16.7991 12.9789 16.7998 13.1995Z" fill="#CCE3FF"/>
<path d="M5.99982 5.59985V6.39987H2.7998V5.59985C2.80112 5.15857 3.15849 4.80115 3.59982 4.79984H5.1998C5.64113 4.80115 5.99855 5.15857 5.99982 5.59985Z" fill="#80B8FF"/>
<path d="M21.2 5.59985V6.39987H18V5.59985C18.0013 5.15857 18.3587 4.80115 18.8 4.79984H20.4C20.8413 4.80115 21.1987 5.15857 21.2 5.59985Z" fill="#80B8FF"/>
<path d="M4.79982 5.59985V6.39987H2.7998V5.59985C2.80112 5.15857 3.15849 4.80115 3.59982 4.79984H3.9998C4.44113 4.80115 4.79851 5.15857 4.79982 5.59985Z" fill="#607D8B"/>
<path d="M20 5.59985V6.39987H18V5.59985C18.0013 5.15857 18.3587 4.80115 18.8 4.79984H19.2C19.6413 4.80115 19.9987 5.15857 20 5.59985Z" fill="#607D8B"/>
<path d="M4.79982 5.59985V6.39987H2.7998V5.59985C2.80112 5.15857 3.15849 4.80115 3.59982 4.79984H3.9998C4.44113 4.80115 4.79851 5.15857 4.79982 5.59985Z" fill="#CCE3FF"/>
<path d="M20 5.59985V6.39987H18V5.59985C18.0013 5.15857 18.3587 4.80115 18.8 4.79984H19.2C19.6413 4.80115 19.9987 5.15857 20 5.59985Z" fill="#CCE3FF"/>
<path d="M16.0001 4.39977V6.39978H14.4001V4.39977C14.3994 4.17912 14.2207 4.00044 14.0001 3.99978H9.60007C9.37943 4.00044 9.20074 4.17912 9.20008 4.39977V6.39978H7.6001V4.39977C7.60052 3.29534 8.49569 2.40017 9.60011 2.39975H14.0001C15.1045 2.40017 15.9997 3.29539 16.0001 4.39977Z" fill="#80B8FF"/>
<path d="M22 6.00003H21.6V5.60005C21.5993 4.93761 21.0624 4.40075 20.4 4.40005H18.8C18.1376 4.40075 17.6007 4.93761 17.6 5.60005V6.00003H16.4V4.4C16.3986 3.07513 15.3249 2.00145 14 2H9.6C8.27513 2.00145 7.20145 3.07513 7.2 4.4V5.99998H6.39998V5.6C6.39928 4.93756 5.86242 4.4007 5.19998 4.4H3.6C2.93756 4.4007 2.4007 4.93756 2.4 5.6V5.99998H2.00002C0.895969 6.0013 0.0013125 6.896 0 8V20.8C0.0013125 21.9041 0.895969 22.7987 2.00002 22.8H22C23.1041 22.7987 23.9987 21.9041 24 20.8V8C23.9987 6.896 23.104 6.0013 22 6.00003ZM18.4 5.6C18.4001 5.37913 18.5791 5.20016 18.8 5.20002H20.4C20.6209 5.20016 20.7998 5.37917 20.8 5.6V5.99998H18.4V5.6ZM8.00002 4.4C8.00091 3.51669 8.71673 2.80086 9.6 2.80002H14C14.8833 2.80091 15.5992 3.51673 15.6 4.4V5.99998H14.8V4.4C14.7994 3.95839 14.4416 3.60059 14 3.59998H9.6C9.15839 3.60055 8.80059 3.95839 8.79998 4.4V5.99998H7.99997V4.4H8.00002ZM14 6.00003H9.6V4.4H14V6.00003ZM3.20002 5.6C3.20016 5.37913 3.37917 5.20016 3.6 5.20002H5.19998C5.42086 5.20016 5.59983 5.37917 5.59997 5.6V5.99998H3.19997V5.6H3.20002ZM23.2 20.8C23.1993 21.4625 22.6624 21.9993 22 22H2.00002C1.33758 21.9993 0.800719 21.4625 0.800016 20.8V8C0.800719 7.33756 1.33758 6.8007 2.00002 6.8H22C22.6625 6.8007 23.1993 7.33756 23.2 8V20.8H23.2Z" fill="#0072FF"/>
<path d="M16.4 12.3996H13.6V9.59964C13.5995 9.15803 13.2416 8.80023 12.8 8.79962H10.4C9.95841 8.80018 9.60061 9.15803 9.6 9.59964V12.3996H6.80002C6.35841 12.4002 6.00061 12.758 6 13.1996V15.5996C6.00056 16.0412 6.35841 16.399 6.80002 16.3996H9.6V19.1996C9.60056 19.6412 9.95841 19.999 10.4 19.9996H12.8C13.2416 19.9991 13.5994 19.6412 13.6 19.1996V16.3996H16.4C16.8416 16.3991 17.1994 16.0412 17.2 15.5996V13.1996C17.1994 12.758 16.8416 12.4002 16.4 12.3996ZM16.4 15.5996H13.6C13.1584 15.6002 12.8006 15.958 12.8 16.3996V19.1996H10.4V16.3996C10.3995 15.958 10.0416 15.6002 9.6 15.5996H6.80002V13.1996H9.6C10.0416 13.1991 10.3994 12.8412 10.4 12.3996V9.59964H12.8V12.3996C12.8006 12.8412 13.1584 13.199 13.6 13.1996L16.4 13.1988V15.5996Z" fill="#0072FF"/>
</g>
<defs>
<clipPath id="clip0">
<rect width="24" height="24" fill="white"/>
</clipPath>
</defs>
</svg>
