<svg width="24" height="24" viewBox="0 0 24 24" fill="none" xmlns="http://www.w3.org/2000/svg">
<path d="M19.1798 0.375977H11.9999C11.5572 0.375977 11.1982 0.734852 11.1982 1.17763V2.78099L19.2556 1.24124C19.4639 1.20445 19.6158 1.02351 19.6158 0.811961C19.6158 0.571117 19.4205 0.375977 19.1798 0.375977Z" fill="#E6F1FF"/>
<path d="M14.8539 6.71934L12.9659 5.5394C12.6144 5.31965 12.4007 4.93429 12.4007 4.51968V3.58279H9.99573V4.51964C9.99573 4.93425 9.78212 5.31961 9.43056 5.53936L7.54262 6.71929C7.07383 7.01226 6.78906 7.52611 6.78906 8.0789V22.8228C6.78906 23.2656 7.14803 23.6245 7.59072 23.6245H14.8058C15.2485 23.6245 15.6074 23.2655 15.6074 22.8228V8.07895C15.6074 7.52615 15.3227 7.01226 14.8539 6.71934Z" fill="#E6F1FF"/>
<path d="M12.6205 5.19678C12.5226 5.05475 12.4534 4.89439 12.4214 4.72386C12.4196 4.71411 12.4168 4.70454 12.4153 4.69475C12.4061 4.63737 12.4007 4.57901 12.4007 4.51958V3.58278H9.99573V4.51962C9.99573 4.93423 9.78212 5.31959 9.43061 5.53934L7.54262 6.71928C7.07383 7.01225 6.78906 7.52609 6.78906 8.07889V22.8228C6.78906 23.2656 7.14794 23.6245 7.59072 23.6245H9.92284C9.74176 23.6245 9.5949 23.2655 9.5949 22.8228V8.07893C9.5949 7.52614 9.71139 7.01225 9.90315 6.71933C9.90315 6.71933 10.4486 5.88481 10.625 5.6149C10.6574 5.56536 10.7156 5.53929 10.774 5.54914C10.9122 5.57239 11.0532 5.58697 11.1983 5.58697C11.718 5.58697 12.2031 5.44311 12.6205 5.19678Z" fill="#80B8FF"/>
<path d="M18.4536 4.26417L11.5991 1.97929L11.1982 3.58265L18.7158 5.46206C18.932 5.51611 19.1227 5.31018 19.0523 5.09873L18.9343 4.74473C18.8586 4.51786 18.6806 4.33983 18.4536 4.26417Z" fill="#80B8FF"/>
<path d="M8.79349 1.1776C6.35102 1.1776 4.38123 3.17607 4.38428 5.61854C4.38644 7.36322 4.56766 9.08007 4.75947 10.8967C4.96909 12.8836 5.18594 14.9379 5.18594 17.211V19.2151C5.18594 19.4365 5.36542 19.616 5.58677 19.616H6.38842C6.60977 19.616 6.78925 19.4365 6.78925 19.2151V17.211C6.78925 14.8537 6.56791 12.7568 6.35392 10.7287C6.16595 8.94816 5.98839 7.26638 5.9875 5.59922C5.98675 4.04907 7.24319 2.78091 8.79339 2.78091H11.1984V1.1776H8.79349Z" fill="#CCE3FF"/>
<path d="M13.2026 18.8144H9.19423C8.75145 18.8144 8.39258 18.4555 8.39258 18.0128V13.2027C8.39258 12.7599 8.75145 12.401 9.19423 12.401H13.2026C13.6453 12.401 14.0042 12.7599 14.0042 13.2027V18.0127C14.0042 18.4555 13.6452 18.8144 13.2026 18.8144Z" fill="white"/>
<path d="M12.8017 13.6286H9.59506V12.401H9.19423C8.7515 12.401 8.39258 12.7599 8.39258 13.2027V18.0127C8.39258 18.4554 8.75155 18.8144 9.19423 18.8144H9.59506V16.4093H12.4009C12.6222 16.4093 12.8017 16.2299 12.8017 16.0085C12.8017 15.7872 12.6222 15.6077 12.4009 15.6077H9.59506V14.806H12.8017C13.0231 14.806 13.2026 14.6265 13.2026 14.4052V14.0294C13.2026 13.8081 13.0231 13.6286 12.8017 13.6286Z" fill="#E6F1FF"/>
<path d="M11.1986 4.38432C12.0841 4.38432 12.8019 3.66647 12.8019 2.78096C12.8019 1.89545 12.0841 1.1776 11.1986 1.1776C10.3131 1.1776 9.59521 1.89545 9.59521 2.78096C9.59521 3.66647 10.3131 4.38432 11.1986 4.38432Z" fill="#CCE3FF"/>
<path d="M5.18608 17.2111V19.2153C5.18608 19.4366 5.36557 19.6161 5.58691 19.6161H6.38857C6.60991 19.6161 6.78939 19.4366 6.78939 19.2153V17.2111C6.78939 16.9403 6.78578 16.6737 6.78025 16.4094H5.18604V17.2111H5.18608Z" fill="#E6F1FF"/>
<path d="M6.73645 15.2068H5.12793C5.15484 15.7297 5.17068 16.2647 5.17682 16.8102H6.78449C6.77873 16.263 6.76227 15.7289 6.73645 15.2068Z" fill="#CCE3FF"/>
<path d="M19.9916 0.811734C19.9916 0.364172 19.6274 0 19.1798 0H11.9999C11.4821 0 11.0415 0.336187 10.8843 0.801656H8.79326C7.5199 0.801656 6.32144 1.29952 5.41859 2.2035C4.50752 3.11569 4.00671 4.32863 4.0083 5.61891C4.01051 7.38441 4.19271 9.10955 4.38593 10.9394C4.59443 12.9155 4.80996 14.9589 4.80996 17.2109V19.215C4.80996 19.6433 5.15834 19.9917 5.58659 19.9917H6.41332V22.8225C6.41332 23.4718 6.94151 24 7.59077 24H14.8058C15.4551 24 15.9833 23.4718 15.9833 22.8225V8.07862C15.9833 7.39181 15.6356 6.76439 15.0531 6.40031L13.1651 5.22038C12.9218 5.06831 12.7766 4.80623 12.7766 4.51931V4.45777L19.1289 5.95242C19.1575 5.95913 19.1863 5.96241 19.215 5.96241C19.3192 5.96241 19.4204 5.91891 19.4925 5.84006C19.5843 5.73947 19.6146 5.59706 19.5715 5.46783L19.1707 4.26534C19.1333 4.15312 19.0452 4.06509 18.933 4.02764L14.327 2.49234L19.3209 1.61105C19.7096 1.54247 19.9916 1.20633 19.9916 0.811734ZM12.4258 2.78081C12.4258 3.45769 11.8751 4.00838 11.1983 4.00838C10.5214 4.00838 9.97071 3.45764 9.97071 2.78081C9.97071 2.10398 10.5214 1.55325 11.1983 1.55325C11.8751 1.55325 12.4258 2.10394 12.4258 2.78081ZM5.52616 15.5825H6.37863C6.39021 15.863 6.39907 16.1468 6.40493 16.4342H5.55302C5.54698 16.147 5.53798 15.8632 5.52616 15.5825ZM6.44674 7.71539C6.39574 7.00191 6.36359 6.29822 6.36316 5.59894C6.36284 4.94855 6.61568 4.3358 7.07515 3.87356C7.5348 3.41123 8.14498 3.15661 8.79321 3.15661H9.2553C9.31362 3.45877 9.44074 3.73673 9.6199 3.97331V4.51941C9.6199 4.80628 9.47463 5.06841 9.23135 5.22047L7.34341 6.40041C6.86566 6.69895 6.54626 7.17488 6.44674 7.71539ZM9.6476 1.55325C9.45401 1.79728 9.31666 2.08767 9.25545 2.40502H8.7933C8.64959 2.40502 8.50751 2.41533 8.3674 2.43412V1.57608C8.50798 1.56131 8.65005 1.55325 8.7933 1.55325H9.6476ZM4.75985 5.61797C4.75849 4.52859 5.18126 3.50461 5.95034 2.73459C6.42401 2.26036 6.99415 1.91887 7.6158 1.72861V2.63142C7.21868 2.79052 6.85376 3.03028 6.54218 3.34373C5.94166 3.94781 5.6112 4.74881 5.61166 5.59927C5.61255 7.28705 5.7911 8.97792 5.98057 10.7722C6.11848 12.0796 6.25905 13.4164 6.34113 14.8309H5.48787C5.4063 13.4509 5.2684 12.1405 5.13298 10.857C4.94224 9.05062 4.76201 7.34433 4.75985 5.61797ZM6.38824 19.2401H5.58659C5.57276 19.2401 5.56155 19.2289 5.56155 19.215V17.2109C5.56155 17.2024 5.56141 17.1942 5.56141 17.1858H6.41318C6.41318 17.1943 6.41332 17.2025 6.41332 17.2109V19.215C6.41327 19.2289 6.40207 19.2401 6.38824 19.2401ZM14.6547 7.03767C15.016 7.26352 15.2316 7.65262 15.2316 8.07862V22.8225C15.2316 23.0574 15.0406 23.2485 14.8057 23.2485H7.59073C7.35588 23.2485 7.16482 23.0574 7.16482 22.8225V8.07862C7.16482 7.65258 7.38054 7.26342 7.74176 7.03767L9.6297 5.85773C10.0777 5.57775 10.3507 5.10225 10.3696 4.57753C10.6219 4.6943 10.9024 4.75997 11.1982 4.75997C11.4939 4.75997 11.7745 4.6943 12.0267 4.57748C12.0457 5.1023 12.3188 5.5777 12.7667 5.85769L14.6547 7.03767ZM18.6455 5.06662L12.938 3.72366C13.0727 3.47616 13.1557 3.19669 13.1734 2.90006L18.517 4.68127L18.6455 5.06662ZM19.1903 0.870984L13 1.96341C12.7568 1.42964 12.2837 1.02211 11.7077 0.868547C11.784 0.796266 11.8867 0.751594 11.9999 0.751594H19.1798C19.213 0.751594 19.24 0.778594 19.24 0.811781C19.24 0.840938 19.2191 0.865875 19.1903 0.870984Z" fill="#0072FF"/>
<path d="M11.2025 2.4052H11.1985C10.991 2.4052 10.8247 2.57343 10.8247 2.78099C10.8247 2.98856 10.9949 3.15679 11.2025 3.15679C11.41 3.15679 11.5783 2.98851 11.5783 2.78099C11.5783 2.57348 11.4101 2.4052 11.2025 2.4052Z" fill="#0072FF"/>
<path d="M8.01709 13.2021V18.0121C8.01709 18.6614 8.54528 19.1896 9.19454 19.1896H13.2029C13.8521 19.1896 14.3803 18.6614 14.3803 18.0121V13.2021C14.3803 12.5528 13.8521 12.0246 13.2029 12.0246H9.19454C8.54528 12.0246 8.01709 12.5529 8.01709 13.2021ZM13.6288 13.2021V18.0121C13.6288 18.247 13.4377 18.438 13.2029 18.438H9.19454C8.9597 18.438 8.76864 18.247 8.76864 18.0121V13.2021C8.76864 12.9672 8.9597 12.7762 9.19454 12.7762H13.2029C13.4377 12.7762 13.6288 12.9673 13.6288 13.2021Z" fill="#0072FF"/>
<path d="M9.99543 14.3796H12.4004C12.608 14.3796 12.7762 14.2113 12.7762 14.0038C12.7762 13.7962 12.608 13.628 12.4004 13.628H9.99543C9.78791 13.628 9.61963 13.7962 9.61963 14.0038C9.61968 14.2113 9.78791 14.3796 9.99543 14.3796Z" fill="#0072FF"/>
<path d="M14.0042 21.6455H13.2025C12.9949 21.6455 12.8267 21.8137 12.8267 22.0213C12.8267 22.2288 12.9949 22.3971 13.2025 22.3971H14.0042C14.2117 22.3971 14.38 22.2288 14.38 22.0213C14.38 21.8137 14.2117 21.6455 14.0042 21.6455Z" fill="#0072FF"/>
<path d="M13.7014 21.6455H8.39289C8.18537 21.6455 8.01709 21.8137 8.01709 22.0213C8.01709 22.2288 8.18532 22.3971 8.39289 22.3971H14C14.2075 22.3971 13 22.2075 13 22C13 21.7924 13.9089 21.6455 13.7014 21.6455Z" fill="#0072FF"/>
</svg>
