<svg width="17" height="24" viewBox="0 0 17 24" fill="none" xmlns="http://www.w3.org/2000/svg">
<mask id="path-1-inside-1" fill="white">
<path fill-rule="evenodd" clip-rule="evenodd" d="M7.00397 0H4.74073C4.17707 6.73272e-05 4.03451 1.74717 3.99846 2.63094C3.9872 2.90686 4.21011 3.13039 4.48625 3.13039H7.00397H7.00417H9.52189C9.79803 3.13039 10.0209 2.90686 10.0097 2.63094C9.97363 1.74717 9.83107 6.73272e-05 9.26741 0H7.00417H7.00397Z"/>
</mask>
<path fill-rule="evenodd" clip-rule="evenodd" d="M7.00397 0H4.74073C4.17707 6.73272e-05 4.03451 1.74717 3.99846 2.63094C3.9872 2.90686 4.21011 3.13039 4.48625 3.13039H7.00397H7.00417H9.52189C9.79803 3.13039 10.0209 2.90686 10.0097 2.63094C9.97363 1.74717 9.83107 6.73272e-05 9.26741 0H7.00417H7.00397Z" fill="#CCE3FF"/>
<path d="M4.74073 0V-1H4.74061L4.74073 0ZM9.26741 0L9.26753 -1H9.26741V0ZM4.74073 1H7.00397V-1H4.74073V1ZM4.99762 2.67171C5.01513 2.2426 5.05753 1.64924 5.15192 1.18218C5.20097 0.939492 5.25035 0.803261 5.27753 0.751461C5.33178 0.648082 5.19079 0.999946 4.74085 1L4.74061 -1C4.00884 -0.999913 3.63866 -0.429635 3.50652 -0.177795C3.34732 0.125625 3.25312 0.481418 3.19156 0.785981C3.06475 1.41344 3.01784 2.13552 2.99929 2.59018L4.99762 2.67171ZM7.00397 2.13039H4.48625V4.13039H7.00397V2.13039ZM7.00397 4.13039H7.00417V2.13039H7.00397V4.13039ZM7.00417 4.13039H9.52189V2.13039H7.00417V4.13039ZM11.0089 2.59018C10.9903 2.13552 10.9434 1.41344 10.8166 0.785981C10.755 0.481418 10.6608 0.125625 10.5016 -0.177795C10.3695 -0.429635 9.9993 -0.999913 9.26753 -1L9.26729 1C8.81735 0.999946 8.67636 0.648083 8.73061 0.751461C8.75779 0.803261 8.80717 0.939492 8.85622 1.18218C8.95061 1.64924 8.99301 2.2426 9.01052 2.67171L11.0089 2.59018ZM9.26741 -1H7.00417V1H9.26741V-1ZM7.00417 -1H7.00397V1H7.00417V-1ZM9.52189 4.13039C10.3434 4.13039 11.0442 3.45649 11.0089 2.59018L9.01052 2.67171C8.99769 2.35722 9.25263 2.13039 9.52189 2.13039V4.13039ZM2.99929 2.59018C2.96394 3.45649 3.66471 4.13039 4.48625 4.13039V2.13039C4.75551 2.13039 5.01046 2.35722 4.99762 2.67171L2.99929 2.59018Z" fill="#0072FF" mask="url(#path-1-inside-1)"/>
<path fill-rule="evenodd" clip-rule="evenodd" d="M3.98611 2.08696H7.00439H7.00452H10.0228C12.3039 2.08696 13.7571 20.1153 14.0075 23.4671C14.0291 23.756 13.8003 24 13.5106 24H7.00452H7.00439H0.49831C0.20865 24 -0.0201724 23.756 0.00141081 23.4671C0.157283 21.3811 0.779005 13.61 1.77627 8.03839L0.0622158 5.37146C0.0194427 5.30491 0.0672278 5.21739 0.14634 5.21739H2.36887C2.84648 3.32713 3.38782 2.08696 3.98611 2.08696Z" fill="#E6F1FF"/>
<path d="M11.5317 19.826C11.0288 12 11.0288 9.39127 8.51385 2.60866H10.5257L11.0288 4.17388L13.5436 20.8695L13.5 23.4998H0.5C0.5 23.4998 1.28641 19.826 2.98091 19.826H11.5317Z" fill="#80B8FF"/>
<mask id="path-5-inside-2" fill="white">
<path fill-rule="evenodd" clip-rule="evenodd" d="M7.00439 2.08696H3.98611C3.38782 2.08696 2.84648 3.32713 2.36887 5.21739H0.14634C0.0672278 5.21739 0.0194427 5.30491 0.0622158 5.37146L1.77627 8.03839C0.779005 13.61 0.157283 21.3811 0.00141081 23.4671C-0.0201724 23.756 0.20865 24 0.49831 24H7.00439H7.00452H13.5106C13.8003 24 14.0291 23.756 14.0075 23.4671C13.9357 22.5066 13.7652 20.3407 13.5047 17.7391H14.175C14.6935 17.7391 15.1259 17.3429 15.1712 16.8264L16.0019 7.34818C16.0531 6.76368 15.5924 6.26087 15.0057 6.26087H11.8837C11.3492 3.79663 10.7253 2.08696 10.0228 2.08696H7.00452H7.00439ZM13.4022 16.7391C13.0771 13.6378 12.6346 10.0891 12.0881 7.26087L15.0057 7.26087L14.175 16.7391H13.4022Z"/>
</mask>
<path d="M2.36887 5.21739V6.21739H3.14763L3.3384 5.46237L2.36887 5.21739ZM0.0622158 5.37146L0.903452 4.83079H0.903452L0.0622158 5.37146ZM1.77627 8.03839L2.76062 8.21458L2.82981 7.82805L2.6175 7.49772L1.77627 8.03839ZM0.00141081 23.4671L-0.995809 23.3926L0.00141081 23.4671ZM14.0075 23.4671L13.0103 23.5416L14.0075 23.4671ZM13.5047 17.7391V16.7391H12.3995L12.5097 17.8388L13.5047 17.7391ZM15.1712 16.8264L14.175 16.7391V16.7391L15.1712 16.8264ZM16.0019 7.34818L15.0057 7.26087V7.26087L16.0019 7.34818ZM11.8837 6.26087L10.9064 6.47284L11.0774 7.26087H11.8837V6.26087ZM12.0881 7.26087V6.26087H10.8764L11.1063 7.45057L12.0881 7.26087ZM13.4022 16.7391L12.4077 16.8434L12.5016 17.7391H13.4022V16.7391ZM15.0057 7.26087L16.0019 7.34818L16.0972 6.26087H15.0057V7.26087ZM14.175 16.7391V17.7391H15.0912L15.1712 16.8264L14.175 16.7391ZM3.98611 3.08696H7.00439V1.08696H3.98611V3.08696ZM3.3384 5.46237C3.57186 4.53838 3.8062 3.83696 4.02884 3.38615C4.14147 3.15811 4.22517 3.04832 4.2637 3.00885C4.30274 2.96888 4.20703 3.08696 3.98611 3.08696V1.08696C3.46604 1.08696 3.07831 1.36007 2.83265 1.61169C2.58648 1.86382 2.39282 2.18222 2.23563 2.5005C1.91863 3.14235 1.64349 4.00614 1.39934 4.97242L3.3384 5.46237ZM0.14634 6.21739H2.36887V4.21739H0.14634V6.21739ZM0.903452 4.83079C1.28841 5.42976 0.858343 6.21739 0.14634 6.21739V4.21739C-0.723887 4.21739 -1.24953 5.18006 -0.779021 5.91213L0.903452 4.83079ZM2.6175 7.49772L0.903452 4.83079L-0.779021 5.91213L0.935029 8.57906L2.6175 7.49772ZM0.998631 23.5416C1.15474 21.4523 1.77357 13.7292 2.76062 8.21458L0.791909 7.8622C-0.21556 13.4908 -0.840178 21.3098 -0.995809 23.3926L0.998631 23.5416ZM0.49831 23C0.783914 23 1.02086 23.2441 0.998631 23.5416L-0.995809 23.3926C-1.06121 24.2678 -0.366614 25 0.49831 25V23ZM7.00439 23H0.49831V25H7.00439V23ZM7.00452 23H7.00439V25H7.00452V23ZM13.5106 23H7.00452V25H13.5106V23ZM13.0103 23.5416C12.9881 23.2441 13.225 23 13.5106 23V25C14.3755 25 15.0701 24.2678 15.0047 23.3926L13.0103 23.5416ZM12.5097 17.8388C12.7691 20.4294 12.9389 22.5864 13.0103 23.5416L15.0047 23.3926C14.9325 22.4267 14.7613 20.2519 14.4997 17.6395L12.5097 17.8388ZM13.5047 18.7391H14.175V16.7391H13.5047V18.7391ZM14.175 18.7391C15.2119 18.7391 16.0769 17.9467 16.1674 16.9137L14.175 16.7391V18.7391ZM16.1674 16.9137L16.9981 7.43549L15.0057 7.26087L14.175 16.7391L16.1674 16.9137ZM16.9981 7.43549C17.1005 6.26649 16.1792 5.26087 15.0057 5.26087V7.26087L15.0057 7.26087L16.9981 7.43549ZM15.0057 5.26087H11.8837V7.26087H15.0057V5.26087ZM10.0228 3.08696C9.76409 3.08696 9.68046 2.92948 9.7665 3.03273C9.84099 3.12214 9.95613 3.30999 10.095 3.63889C10.3689 4.28729 10.643 5.25818 10.9064 6.47284L12.861 6.0489C12.59 4.79932 12.2848 3.68325 11.9375 2.86076C11.7658 2.45422 11.5598 2.06063 11.303 1.75247C11.0578 1.45815 10.6328 1.08696 10.0228 1.08696V3.08696ZM7.00452 3.08696H10.0228V1.08696H7.00452V3.08696ZM7.00439 3.08696H7.00452V1.08696H7.00439V3.08696ZM11.1063 7.45057C11.6444 10.2355 12.0833 13.7498 12.4077 16.8434L14.3968 16.6349C14.0708 13.5259 13.6248 9.94271 13.07 7.07118L11.1063 7.45057ZM15.0057 6.26087L12.0881 6.26087V8.26087L15.0057 8.26087V6.26087ZM15.1712 16.8264L16.0019 7.34818L14.0095 7.17357L13.1788 16.6518L15.1712 16.8264ZM13.4022 17.7391H14.175V15.7391H13.4022V17.7391Z" fill="#0072FF" mask="url(#path-5-inside-2)"/>
<rect x="0.96875" y="20.8695" width="12.0717" height="1.04348" fill="#0072FF"/>
<rect x="5.49854" y="7.84779" width="3.01195" height="9.34783" rx="1.50597" fill="#CCE3FF" stroke="#0072FF"/>
<path d="M7.5075 14.6087C7.5075 15.6521 6.50152 15.5634 5.99854 15.5634V16.6956H8.01048L8.51347 15.5634V8.34779L7.5075 7.82605V14.6087Z" fill="#80B8FF"/>
<rect x="5.49854" y="7.84779" width="3.01195" height="9.34783" rx="1.50597" stroke="#0072FF"/>
</svg>
