<svg width="24" height="24" viewBox="0 0 24 24" fill="none" xmlns="http://www.w3.org/2000/svg">
<path d="M12.8 3.73333L10.6667 5.86667H10.1333C9.95555 5.51111 10.1333 5.33333 9.06667 5.33333H7.46667C7.04 5.33333 6.93333 5.68889 6.93333 5.86667L7.46667 6.93333C7.64444 8.88889 8 13.0133 8 13.8667C8 14.72 9.06667 12.2667 11.7333 12.2667C13.8667 12.2667 15.4667 13.8667 15.4667 13.8667C15.4667 13.8667 17.0667 11.2 19.7333 11.2C22.4 11.2 22.7556 11.9111 23.4667 12.2667V24C20.8 24 18.1333 22.9333 17.0667 22.4C15.7867 23.2533 12.2667 23.4667 10.6667 23.4667C8 23.4667 4.44444 21.1556 3.2 20.2667L1.6 19.2C1.42222 19.2 0.96 19.0933 0.533333 18.6667C0.106667 18.24 0 17.7778 0 17.6C1.24444 13.1556 3.73333 4.16 3.73333 3.73333C3.73333 3.30667 4.08889 2.84444 4.26667 2.66667L10.6667 0C11.2 0.711111 12.3733 2.24 12.8 2.66667C13.2267 3.09333 12.9778 3.55556 12.8 3.73333Z" fill="#CCE3FF"/>
<mask id="mask0" mask-type="alpha" maskUnits="userSpaceOnUse" x="0" y="0" width="24" height="24">
<path d="M12.8 3.73333L10.6667 5.86667H10.1333C9.95555 5.51111 10.1333 5.33333 9.06667 5.33333H7.46667C7.04 5.33333 6.93333 5.68889 6.93333 5.86667L7.46667 6.93333C7.64444 8.88889 8 13.0133 8 13.8667C8 14.72 9.06667 12.2667 11.7333 12.2667C13.8667 12.2667 15.4667 13.8667 15.4667 13.8667C15.4667 13.8667 17.0667 11.2 19.7333 11.2C22.4 11.2 22.7556 11.9111 23.4667 12.2667V24C20.8 24 18.1333 22.9333 17.0667 22.4C15.7867 23.2533 12.2667 23.4667 10.6667 23.4667C8 23.4667 4.44444 21.1556 3.2 20.2667L1.6 19.2C1.42222 19.2 0.96 19.0933 0.533333 18.6667C0.106667 18.24 0 17.7778 0 17.6C1.24444 13.1556 3.73333 4.16 3.73333 3.73333C3.73333 3.30667 4.08889 2.84444 4.26667 2.66667L10.6667 0C11.2 0.711111 12.3733 2.24 12.8 2.66667C13.2267 3.09333 12.9778 3.55556 12.8 3.73333Z" fill="#C4C4C4"/>
</mask>
<g mask="url(#mask0)">
<path d="M11.7333 13.8663C10.4533 13.8663 8.71111 14.5774 8 14.933L8.53333 10.133H15.4667V14.933C14.7556 14.5774 13.0133 13.8663 11.7333 13.8663Z" fill="#E6F1FF"/>
<path d="M9.59974 4.26649L12.7997 2.13316C13.8664 3.55538 15.9997 6.50649 15.9997 6.93316C15.9997 7.35983 12.0886 7.11094 10.1331 6.93316L9.06641 5.86649L9.59974 4.26649Z" fill="#E6F1FF"/>
<path d="M12.2665 1.60009C10.4887 1.77786 6.7198 2.56009 5.86647 4.26675C5.01314 5.97342 2.66647 12.2668 3.1998 17.0668C3.36415 18.5459 5.93368 21.3652 6.75966 21.8077C6.92517 21.845 6.99408 21.8668 6.93314 21.8668C6.89038 21.8668 6.83164 21.8462 6.75966 21.8077C5.76649 21.5838 1.29506 20.8001 0.533137 20.8001L-3.2002 16.0001L1.06647 1.06675L5.33314 -1.06658H11.1998L13.3331 8.67844e-05L12.2665 1.60009Z" fill="#80B8FF"/>
</g>
<path d="M6.3999 17.6C7.9999 20.2667 11.1999 20.8 14.9332 20.2667" stroke="#0072FF" stroke-width="0.8"/>
<path fill-rule="evenodd" clip-rule="evenodd" d="M7.46667 6.93333C7.61236 8.53592 7.87744 11.5951 7.96839 13.1169L7.9763 13.2533C7.99143 13.523 8 13.7342 8 13.8667C8 14.1364 8.10656 14.0758 8.33652 13.8667C8.37523 13.8315 8.41743 13.7921 8.46321 13.7493C8.52698 13.6898 8.59769 13.6238 8.67555 13.5537C8.71133 13.5214 8.74862 13.4883 8.78745 13.4546C9.38323 12.9366 10.3398 12.2667 11.7333 12.2667C13.0632 12.2667 14.1859 12.8885 14.8428 13.3568C15.2397 13.6397 15.4667 13.8667 15.4667 13.8667C15.4667 13.8667 15.6319 13.5913 15.9446 13.2176C16.6051 12.4282 17.9235 11.2 19.7333 11.2C21.8458 11.2 22.5079 11.6463 23.0454 12.0085C23.1864 12.1035 23.3189 12.1928 23.4667 12.2667V23.2V24C23.1995 24 22.9323 23.9893 22.6667 23.9695C20.2817 23.7916 18.0265 22.8799 17.0667 22.4C15.7867 23.2533 12.2667 23.4667 10.6667 23.4667C8 23.4667 4.44444 21.1556 3.2 20.2667L1.6 19.2C1.42222 19.2 0.96 19.0933 0.533333 18.6667C0.106667 18.24 0 17.7778 0 17.6C1.24444 13.1556 3.73333 4.16 3.73333 3.73333C3.73333 3.30667 4.08889 2.84444 4.26667 2.66667L10.6667 0C11.2 0.711111 12.3733 2.24 12.8 2.66667C13.2267 3.09333 12.9778 3.55556 12.8 3.73333L10.6667 5.86667H10.1333C10.1007 5.80142 10.0801 5.74217 10.0615 5.6889L10.0615 5.68889C9.9789 5.45185 9.9376 5.33333 9.06667 5.33333H7.46667C7.04 5.33333 6.93333 5.68889 6.93333 5.86667L7.46667 6.93333ZM7.71237 13.3487L7.7167 13.3456C7.71372 13.3478 7.71231 13.3488 7.71237 13.3487ZM8.8 13.8678C8.80002 13.8719 8.80013 13.8738 8.80018 13.8737C8.80022 13.8737 8.80023 13.8728 8.80016 13.8711C8.80013 13.8702 8.80008 13.8691 8.8 13.8678ZM16.1524 14.2787L16.1527 14.2783L16.1611 14.2648C16.1699 14.2509 16.1845 14.2283 16.2048 14.198C16.2455 14.1375 16.3087 14.047 16.3932 13.9367C16.5632 13.715 16.8148 13.4192 17.1381 13.1253C17.7943 12.5288 18.6769 12 19.7333 12C20.9977 12 21.6355 12.169 22.0144 12.3337C22.2062 12.4171 22.3551 12.5093 22.5146 12.6156C22.537 12.6306 22.5611 12.6469 22.5866 12.6642C22.6014 12.6742 22.6167 12.6845 22.6325 12.6951C22.6436 12.7026 22.655 12.7103 22.6667 12.7181V12.759L23.4666 12.7997V23.183L22.6667 23.1049V23.1671C20.4505 22.9897 18.3305 22.1375 17.4244 21.6845L17.0092 21.4768L16.6229 21.7344C16.4127 21.8745 16.0534 22.0208 15.5491 22.1527C15.058 22.2812 14.484 22.3825 13.8843 22.4599C12.6845 22.6147 11.4394 22.6667 10.6667 22.6667C9.52658 22.6667 8.10955 22.1603 6.75777 21.4845C5.4295 20.8203 4.26641 20.0453 3.66499 19.6157L3.65449 19.6082L3.64376 19.601L2.04376 18.5344L1.84222 18.4H1.61198L1.61215 18.3999C1.61216 18.3998 1.61069 18.3995 1.60782 18.399C1.59347 18.3962 1.54413 18.3869 1.46891 18.3554C1.36584 18.3122 1.23293 18.2349 1.09902 18.101C0.965112 17.9671 0.887766 17.8342 0.84462 17.7311C0.831762 17.7004 0.822592 17.674 0.816054 17.6525C1.43795 15.4302 2.34561 12.1613 3.10525 9.37009C3.49438 7.94033 3.84534 6.63349 4.09929 5.6562C4.22611 5.16815 4.32977 4.75832 4.40212 4.455C4.43815 4.30399 4.46774 4.17383 4.48878 4.0712L4.49008 4.06487C4.50414 3.9964 4.53333 3.85428 4.53333 3.73333C4.53333 3.73356 4.53333 3.73355 4.53335 3.73331C4.53351 3.73115 4.53498 3.71063 4.54901 3.6694C4.56429 3.6245 4.58945 3.5698 4.62494 3.50876C4.66306 3.44319 4.70548 3.38326 4.74363 3.3346L10.4026 0.976691C10.6282 1.27237 10.8889 1.61028 11.145 1.9352C11.5336 2.42818 11.9455 2.93544 12.2022 3.19975L10.5009 4.90103C10.4798 4.88101 10.4572 4.86127 10.4331 4.84197C10.2231 4.67394 9.98358 4.60918 9.78724 4.57712C9.58689 4.54441 9.34697 4.53333 9.06667 4.53333H7.46667C6.9926 4.53333 6.61909 4.74878 6.39077 5.06589C6.19182 5.34221 6.13333 5.64976 6.13333 5.86667V6.05552L6.21779 6.22444L6.68357 7.156C6.86723 9.18719 7.2 13.0803 7.2 13.8667C7.2 13.9473 7.20465 14.0768 7.24486 14.2141C7.28306 14.3446 7.40137 14.6363 7.7386 14.7794C8.05861 14.9151 8.33722 14.8125 8.43808 14.7682C8.55455 14.717 8.64662 14.6492 8.69897 14.6085C8.79699 14.5324 8.90807 14.4286 8.99949 14.3431L9.02398 14.3203C9.13273 14.2188 9.2493 14.1106 9.38281 13.9979C9.91257 13.5505 10.6674 13.0667 11.7333 13.0667C12.6033 13.0667 13.3926 13.3952 13.9884 13.7527C14.2822 13.929 14.5172 14.1053 14.6767 14.2358C14.7562 14.3009 14.8161 14.3538 14.8543 14.3887C14.8734 14.4061 14.887 14.419 14.8949 14.4265L14.9022 14.4335L14.9024 14.4337L14.9028 14.4342L15.6255 15.1569L16.1514 14.2803L16.1518 14.2798L16.1518 14.2797L16.1519 14.2795L16.1523 14.2788L16.1524 14.2787Z" fill="#0072FF"/>
</svg>
