<svg width="24" height="24" viewBox="0 0 24 24" fill="none" xmlns="http://www.w3.org/2000/svg">
<g clip-path="url(#clip0)">
<path d="M8.44892 10.4494C8.44892 10.4494 6.80105 10.3925 6.81059 8.64109C6.81628 7.60728 7.89046 7.22971 8.35645 7.17991C8.46084 7.16874 8.5157 7.06309 8.45718 6.9849C8.05319 6.4451 7.08211 4.83103 9.10866 3.94406C10.9079 3.15671 11.8555 2.38253 11.6227 1.38589C11.4858 0.800135 10.9692 0.551111 10.6679 0.453882C10.6211 0.438867 10.6292 0.377527 10.6787 0.373498C11.3937 0.314355 13.5322 0.266564 13.8756 1.75888C14.0798 2.64621 13.6292 3.5524 13.3892 3.87851C13.3324 3.9556 13.3854 4.05923 13.4876 4.07223C14.0433 4.14236 15.2897 3.87888 15.6205 5.02585C15.8423 5.79453 15.5435 6.49637 15.2738 6.75913C15.1936 6.83732 15.2534 6.96476 15.3719 6.96915C15.8915 6.98856 16.7868 7.15372 17.0701 8.03062C17.7318 10.0801 15.6768 10.4494 15.6768 10.4494H8.44892Z" fill="#CCE3FF"/>
<path d="M17.0699 8.03043C16.7867 7.15371 15.8915 6.98837 15.3718 6.96914C15.2533 6.96475 15.1935 6.83731 15.2736 6.75912C15.5433 6.49637 15.8424 5.79452 15.6204 5.02584C15.2896 3.87887 14.0431 4.14236 13.4874 4.07223C13.3852 4.05923 13.3322 3.95559 13.3891 3.8785C13.6291 3.55239 14.0796 2.6462 13.8755 1.75887C13.532 0.266557 11.3936 0.314531 10.6786 0.373491C10.6291 0.377519 10.621 0.43886 10.6678 0.454057C10.969 0.551287 11.4857 0.80031 11.6225 1.38588C11.7348 1.86654 11.5719 2.29519 11.1721 2.69875C11.0725 3.22463 11.2413 4.37417 12.3296 4.86929C14.7372 5.96463 13.1499 7.27127 13.7584 7.96377C15.3244 9.74558 12.9677 10.4494 12.9677 10.4494H15.6769C15.6767 10.4494 17.7317 10.0799 17.0699 8.03043Z" fill="#78B3FF"/>
<path d="M8 10L11.5223 23.1082C11.6678 23.6493 12.4371 23.6493 12.5826 23.1082L16.1049 10H8Z" fill="white"/>
<path d="M13.3848 10.1344L10.6597 20.2762L11.4566 23.2425C11.6021 23.7836 12.3714 23.7836 12.5169 23.2425L16.0392 10.1344H13.3848Z" fill="#CCE3FF"/>
<path d="M15.263 12.3168H8.71056C7.90313 12.3168 7.24854 11.6637 7.24854 10.8578V10.4021C7.24854 10.2543 7.3687 10.1344 7.51694 10.1344H16.4566C16.6048 10.1344 16.725 10.2543 16.725 10.4021V10.8578C16.725 11.6637 16.0704 12.3168 15.263 12.3168Z" fill="#E6F1FF"/>
<path d="M16.4564 10.1344H14.0156V10.8578C14.0156 11.6637 13.3611 12.3168 12.5537 12.3168H15.2627C16.0702 12.3168 16.7248 11.6637 16.7248 10.8578V10.4021C16.7248 10.2543 16.6046 10.1344 16.4564 10.1344Z" fill="#78B3FF"/>
<path d="M17.4052 7.92284C17.1839 7.23729 16.6014 6.78868 15.7806 6.6563C16.0055 6.24706 16.1595 5.62285 15.9591 4.92869C15.621 3.757 14.4978 3.7418 13.8872 3.73668C14.145 3.24137 14.3982 2.45915 14.219 1.6804C14.0957 1.14481 13.6977 0.443335 12.5023 0.143591C11.7886 -0.0353037 11.0351 -0.00857027 10.6495 0.0232902C10.4609 0.0390372 10.3086 0.184973 10.2871 0.370276C10.2655 0.557776 10.3774 0.729895 10.5596 0.788855C10.8366 0.878211 11.1867 1.06846 11.2795 1.46598C11.3923 1.94938 11.2316 2.63127 8.96711 3.62242C8.2006 3.95787 7.73148 4.43175 7.57315 5.03068C7.38657 5.73582 7.68139 6.42979 7.97237 6.89891C7.73056 6.96611 7.45518 7.08074 7.20806 7.25414C6.72059 7.59636 6.46117 8.07537 6.45805 8.63952C6.4542 9.34173 6.6883 9.81011 6.96588 10.1186C6.92167 10.2038 6.89635 10.3001 6.89635 10.4023V10.858C6.89635 11.6915 7.4638 12.395 8.23325 12.6047L11.1164 23.3339C11.2235 23.7324 11.5734 24.0003 11.9867 24.0003C12.4003 24.0003 12.7501 23.7324 12.8571 23.3338L15.7402 12.6047C16.5099 12.395 17.0773 11.6915 17.0773 10.858V10.4023C17.0773 10.3036 17.0535 10.2106 17.0122 10.1278C17.4142 9.7213 17.7622 9.02807 17.4052 7.92284ZM12.1766 23.1517C12.1414 23.2829 12.0322 23.2969 11.9869 23.2969C11.9416 23.2969 11.8323 23.2829 11.797 23.1517L11.2467 21.1035C11.6875 21.2885 12.1353 21.4631 12.5869 21.6252L12.1766 23.1517ZM13.3636 18.734C13.2593 18.6953 13.155 18.6563 13.0525 18.6169C12.8709 18.5474 12.667 18.6376 12.5971 18.8189C12.5272 19.0002 12.6177 19.2036 12.7995 19.2734C12.925 19.3215 13.0525 19.3691 13.1805 19.4158L12.7701 20.9433C12.1752 20.7282 11.5864 20.4912 11.0138 20.2365L10.4778 18.2414C10.7315 18.3705 10.988 18.4954 11.2448 18.6149C11.2931 18.6373 11.3437 18.6479 11.3934 18.6479C11.5262 18.6479 11.6534 18.5726 11.713 18.4446C11.7952 18.2685 11.7189 18.0592 11.5424 17.9774C11.099 17.7712 10.6581 17.5482 10.2288 17.3149L9.6573 15.1881C10.939 16.0011 12.3172 16.6846 13.7691 17.2259L13.3636 18.734ZM13.9522 16.5436C12.3195 15.9291 10.7843 15.129 9.38155 14.1624L8.98014 12.6688H9.87911C11.2347 13.6423 12.7369 14.4462 14.3507 15.0612L13.9522 16.5436ZM14.5341 14.3781C13.3304 13.9144 12.192 13.3417 11.1347 12.6688H14.9935L14.5341 14.3781ZM16.3378 9.78301H8.74732C8.74732 9.78301 8.15751 9.92437 8.15751 10.1186C8.15751 10.3129 8.55266 10.4863 8.74732 10.4863H16.3726V10.858C16.3726 11.4185 15.9531 11.8829 15.4109 11.9552C15.3861 11.9583 15.361 11.9611 15.337 11.9627L15.3346 11.9629C15.3102 11.9645 15.2863 11.9653 15.2632 11.9653H8.71063C8.68733 11.9653 8.66348 11.9645 8.63908 11.9629L8.63669 11.9627C8.61266 11.9611 8.58826 11.9587 8.56349 11.9554C8.02135 11.8831 7.60104 11.4185 7.60104 10.858V10.4863H8.74732C8.94197 10.4863 9.09975 10.3288 9.09975 10.1346C9.09975 9.9403 8.94197 9.78301 8.74732 9.78301H7.63241C7.31795 9.53234 7.15999 9.14947 7.16274 8.64336C7.16714 7.84154 8.07602 7.56377 8.39378 7.52971C8.40864 7.52825 8.42277 7.52513 8.43727 7.5222C8.57927 7.69615 8.74053 7.88347 8.86639 8.00158C8.93445 8.0653 9.02105 8.09679 9.10764 8.09679C9.20158 8.09679 9.29514 8.05962 9.36449 7.98601C9.49769 7.84429 9.4909 7.62181 9.3489 7.48888C9.15736 7.30925 8.79924 6.85021 8.67265 6.68193C8.45616 6.37065 8.10905 5.75999 8.25453 5.21013C8.35526 4.8289 8.69026 4.5114 9.25019 4.2664C10.6893 3.63652 12.2984 2.73088 11.9658 1.30613C11.9108 1.0712 11.8106 0.879127 11.6875 0.722388C12.4518 0.786292 13.3479 1.03696 13.5322 1.83787C13.6816 2.4868 13.4137 3.15074 13.2152 3.49827C13.0791 3.72331 12.6349 4.34019 12.1812 4.5504C12.0047 4.63225 11.928 4.84135 12.01 5.0175C12.0697 5.14567 12.197 5.22111 12.3298 5.22111C12.3795 5.22111 12.43 5.21068 12.4781 5.18834C12.8481 5.01695 13.1752 4.69853 13.4141 4.41563C13.4238 4.41746 13.4334 4.42003 13.4433 4.42112C13.5711 4.43742 13.7174 4.43852 13.8722 4.4398C14.5839 4.44584 15.1016 4.49821 15.2821 5.12334C15.4333 5.64757 15.2865 6.10991 15.1396 6.35802C15.0664 6.45653 14.6618 6.98754 14.138 7.41655C13.9876 7.53978 13.9658 7.76134 14.0892 7.91149C14.1588 7.99626 14.2599 8.04021 14.3617 8.04021C14.4404 8.04021 14.5195 8.01403 14.585 7.96038C14.8471 7.74559 15.0798 7.51213 15.2652 7.30815C15.2957 7.31511 15.3269 7.31951 15.3588 7.32079C15.8721 7.33983 16.5275 7.49712 16.7346 8.13854C16.9731 8.87755 16.8434 9.41662 16.3378 9.78301Z" fill="#0072FF"/>
</g>
<defs>
<clipPath id="clip0">
<rect width="24" height="24" fill="white"/>
</clipPath>
</defs>
</svg>
