<svg width="24" height="24" viewBox="0 0 24 24" fill="none" xmlns="http://www.w3.org/2000/svg">
<path d="M1.29356 10.9542C0.784356 12.5232 0.484068 14.1525 0.400391 15.7999C0.400391 19.7997 0.800286 20.1996 2.40023 20.1996C6.24025 20.1996 5.20664 16.2399 7.00781 15.2319L9.99091 14.9999H14.0093L16.9924 15.2319C18.7935 16.2399 17.7601 20.1996 21.5999 20.1996C23.1999 20.1996 23.6 19.7997 23.6 15.7999C23.5161 14.1525 23.2158 12.5232 22.7068 10.9542L21.2112 7.43997C20.6055 6.45269 19.92 5.79993 19.2 5.79993C17.6001 5.79993 18 6.5999 14.8001 6.5999H9.20009C6.0002 6.5999 6.40028 5.79993 4.80033 5.79993C4.08019 5.79993 3.39466 6.45269 2.78914 7.43997L1.29356 10.9542Z" fill="#E6F1FF"/>
<path d="M23.5995 15.7997C23.5995 19.7996 23.1994 20.1995 21.5994 20.1995C21.4081 20.2004 21.2171 20.1883 21.0274 20.1636C22.1074 20.0035 22.3994 19.2116 22.3994 15.7997C22.3148 14.1529 22.0151 12.5245 21.5075 10.9557L20.0114 7.4398C19.5274 6.65576 18.9996 6.08375 18.4395 5.8838C18.6883 5.82374 18.9435 5.79555 19.1995 5.79976C19.9195 5.79976 20.6035 6.45178 21.2114 7.4398L22.7074 10.9557C23.2149 12.5245 23.5149 14.1529 23.5995 15.7997Z" fill="#CCE3FF"/>
<path d="M10.3998 13.7999C10.3998 14.9044 9.50439 15.8 8.39974 15.8C7.29527 15.8 6.3999 14.9044 6.3999 13.7999C6.3999 12.6955 7.29527 11.7999 8.39974 11.7999C9.50439 11.7999 10.3998 12.6955 10.3998 13.7999Z" fill="#80B8FF"/>
<path d="M17.5996 13.7999C17.5996 14.9044 16.7041 15.8 15.5996 15.8C14.4952 15.8 13.5996 14.9044 13.5996 13.7999C13.5996 12.6955 14.4952 11.7999 15.5996 11.7999C16.7041 11.7999 17.5996 12.6955 17.5996 13.7999Z" fill="#80B8FF"/>
<path d="M7.59954 10.1998C7.6043 11.8928 6.28962 13.2964 4.59996 13.4025C2.91048 13.5085 1.43064 12.28 1.22374 10.5999C1.1917 10.3342 1.1917 10.0656 1.22374 9.79991C1.43064 8.11958 2.91048 6.89133 4.59996 6.99717C6.28962 7.10318 7.6043 8.50685 7.59954 10.1998Z" fill="#80B8FF"/>
<path d="M22.7999 10.1994C22.7999 11.9667 21.3671 13.3993 19.5998 13.3993C17.8325 13.3993 16.3999 11.9667 16.3999 10.1994C16.3999 8.43207 17.8325 6.99948 19.5998 6.99948C21.3671 6.99948 22.7999 8.43207 22.7999 10.1994Z" fill="#80B8FF"/>
<path d="M18.4 10.1997C18.4 10.752 17.9523 11.1997 17.3998 11.1997C16.8476 11.1997 16.3999 10.752 16.3999 10.1997C16.3999 9.64749 16.8476 9.1998 17.3998 9.1998C17.9523 9.1998 18.4 9.64749 18.4 10.1997Z" fill="#E3E7F2"/>
<path d="M20.5997 7.99942C20.5997 8.55167 20.152 8.99954 19.5995 8.99954C19.0473 8.99954 18.5996 8.55167 18.5996 7.99942C18.5996 7.44717 19.0473 6.99948 19.5995 6.99948C20.152 6.99948 20.5997 7.44717 20.5997 7.99942Z" fill="#E3E7F2"/>
<path d="M22.7994 10.1997C22.7994 10.752 22.3517 11.1997 21.7993 11.1997C21.247 11.1997 20.7993 10.752 20.7993 10.1997C20.7993 9.64749 21.247 9.1998 21.7993 9.1998C22.3517 9.1998 22.7994 9.64749 22.7994 10.1997Z" fill="#E3E7F2"/>
<path d="M20.5997 12.3998C20.5997 12.9521 20.152 13.3997 19.5995 13.3997C19.0473 13.3997 18.5996 12.9521 18.5996 12.3998C18.5996 11.8476 19.0473 11.3999 19.5995 11.3999C20.152 11.3999 20.5997 11.8476 20.5997 12.3998Z" fill="#E3E7F2"/>
<path d="M9.19971 6.59961H14.7997V9.3996C14.7997 9.84143 14.4415 10.1996 13.9997 10.1996H9.99986C9.55804 10.1996 9.19971 9.84143 9.19971 9.3996V6.59961Z" fill="#E3E7F2"/>
<path d="M18.1919 15.2319C17.9927 15.4242 17.7556 15.5728 17.4956 15.6682C18.5871 17.0281 18.2128 20.0041 21.2911 20.1881C21.3907 20.1945 21.4931 20.1982 21.5995 20.1982C21.8051 20.2004 22.0104 20.1883 22.2143 20.1617C19.0668 19.7734 19.8948 16.185 18.1919 15.2319Z" fill="white"/>
<path d="M2.40023 20.1994C2.59597 20.1994 2.79134 20.1873 2.98543 20.1632C1.89633 20.0083 1.60026 19.2251 1.60026 15.7997C1.68412 14.1541 1.98404 12.5269 2.49233 10.9597C2.46285 10.8411 2.44015 10.721 2.42422 10.5997C2.39236 10.3341 2.39236 10.0654 2.42422 9.79977C2.54891 8.81029 3.12824 7.93597 3.99066 7.43537C4.47075 6.65169 5.00504 6.08499 5.56588 5.8845C5.31522 5.82426 5.05796 5.79569 4.80033 5.79972C4.08019 5.79972 3.39594 6.45138 2.79079 7.43537C1.92838 7.93597 1.34904 8.81029 1.22435 9.79977C1.19231 10.0654 1.19231 10.3341 1.22435 10.5997C1.2401 10.721 1.2628 10.8411 1.29228 10.9597C0.783989 12.5269 0.484251 14.1541 0.400391 15.7997C0.400391 19.7995 0.800285 20.1994 2.40023 20.1994Z" fill="#CCE3FF"/>
<path d="M18.7358 5.82886C18.698 5.83362 18.6612 5.83911 18.6257 5.84515L18.5653 5.85632C17.6397 6.03723 17.4874 6.5999 14.7998 6.5999H15.9999C18.5572 6.5999 18.8169 6.08996 19.6341 5.8847C19.4953 5.83179 19.3482 5.80304 19.1997 5.79993C19.1097 5.79993 19.0276 5.80322 18.9489 5.80798C18.9174 5.80798 18.8881 5.81311 18.8584 5.81549C18.8165 5.81952 18.7749 5.82355 18.7358 5.82886Z" fill="white"/>
<path d="M2.39992 20.5995C2.16189 20.6021 1.92404 20.5864 1.68838 20.5527C1.40897 20.5186 1.14274 20.4144 0.914412 20.25C0.795029 20.161 0.68883 20.0557 0.598744 19.9371C0.451713 19.719 0.341852 19.478 0.273188 19.2239C0.237483 19.1096 0.209469 18.9932 0.189328 18.8751C0.0509024 17.9935 -0.0115355 17.1014 0.00292963 16.2088L0 15.7997H0.799973L0.802902 16.202C0.788987 17.0435 0.845931 17.8845 0.973187 18.7163C1.0023 19.0531 1.15006 19.3687 1.38993 19.6068C1.70065 19.7683 2.05166 19.8353 2.39992 19.7996V20.5995Z" fill="#0072FF"/>
<path d="M0.746847 19.3708C0.645224 19.4123 0.56832 19.4979 0.537558 19.6031C0.512289 19.7295 0.542319 19.8606 0.620322 19.9631C0.84133 20.25 1.15829 20.4476 1.51314 20.5196C1.8052 20.5771 2.10238 20.604 2.39992 20.5996V19.7996C2.16408 19.8035 1.92824 19.7842 1.69607 19.7419C1.52065 19.7137 1.363 19.6189 1.25606 19.4772C1.20351 19.412 1.12844 19.3691 1.04568 19.3572C0.947348 19.3281 0.842062 19.3329 0.746847 19.3708Z" fill="#0072FF"/>
<path d="M0.799988 15.8H0L0.00292969 16.2091L0.00732421 16.6132C0.0111695 16.834 0.193542 17.01 0.414368 17.006C0.635376 17.0019 0.811157 16.8197 0.807312 16.5987L0.802917 16.2023L0.799988 15.8Z" fill="#0072FF"/>
<path d="M0.093499 18.2456C0.107964 18.3547 0.162347 18.4545 0.246392 18.5256L0.31231 18.5657C0.336297 18.5777 0.361931 18.5864 0.388299 18.5911C0.412102 18.5994 0.437188 18.6038 0.462456 18.6039C0.48919 18.6045 0.515923 18.603 0.54229 18.5995C0.64666 18.5805 0.740777 18.5252 0.808343 18.4435C0.937249 18.2745 0.911248 18.0341 0.749199 17.8964C0.707818 17.8642 0.660943 17.84 0.610772 17.8248C0.56115 17.8082 0.508599 17.8012 0.456414 17.8043C0.350762 17.8137 0.252801 17.8635 0.183221 17.9437C0.115838 18.0292 0.0837944 18.1372 0.093499 18.2456Z" fill="#0072FF"/>
<path d="M21.5996 20.5996C18.9377 20.5996 18.343 18.8356 17.8649 17.4184C17.5886 16.5985 17.3496 15.8904 16.7969 15.581C16.6866 15.5193 16.6119 15.4092 16.5955 15.284C16.579 15.1585 16.6227 15.0329 16.7134 14.9449C17.3357 14.3481 17.3749 13.366 16.802 12.7215C16.2291 12.0769 15.2489 12.0008 14.5833 12.5492C13.9178 13.0975 13.8048 14.074 14.3277 14.7597C14.4187 14.881 14.4334 15.043 14.3655 15.1785C14.2977 15.3142 14.1593 15.3997 14.0079 15.3997H9.99115C9.83954 15.3997 9.70111 15.3142 9.63336 15.1785C9.56562 15.043 9.58008 14.881 9.67108 14.7597C9.88293 14.4844 9.99847 14.1471 9.99993 13.7997C10.0016 13.0721 9.51197 12.4349 8.80831 12.2491C8.10465 12.0634 7.36436 12.3758 7.00658 13.0095C6.6488 13.6432 6.76379 14.4384 7.28636 14.9449C7.37681 15.0329 7.42058 15.1585 7.4041 15.284C7.38762 15.4092 7.31291 15.5193 7.20268 15.581C6.6499 15.8904 6.41113 16.5985 6.13465 17.4184C5.65675 18.8356 5.06186 20.5996 2.39992 20.5996C2.1791 20.5996 2.00002 20.4205 2.00002 20.1995C2.00002 19.9787 2.1791 19.7996 2.39992 19.7996C4.48765 19.7996 4.91995 18.5196 5.37643 17.1628C5.62563 16.4241 5.88197 15.6645 6.42633 15.1629C6.07203 14.6514 5.93049 14.022 6.03193 13.4081C4.38566 14.2454 2.373 13.7011 1.37327 12.1482C1.04441 13.3396 0.852157 14.5647 0.799973 15.7998C0.799973 16.0206 0.620899 16.1997 0.400078 16.1997C0.179074 16.1997 0 16.0206 0 15.7998C0.0851424 14.1127 0.391472 12.4442 0.910749 10.837C0.963483 10.6647 1.12498 10.549 1.30515 10.5543C1.48514 10.5596 1.6395 10.6846 1.68198 10.8599C1.9656 12.0345 2.97028 12.895 4.17473 12.9948C5.37899 13.0946 6.51166 12.4113 6.98479 11.2991C7.45793 10.1871 7.16478 8.89719 6.2577 8.09868C5.35061 7.30017 4.03374 7.1731 2.99079 7.78338C2.83241 7.87585 2.63154 7.84893 2.50319 7.71783C2.37502 7.58691 2.35213 7.38531 2.44807 7.22913C3.19312 6.01553 3.98485 5.39994 4.80002 5.39994C5.32387 5.3884 5.84315 5.50174 6.31464 5.73026C6.82678 5.95034 7.40794 6.19991 9.19978 6.19991H14.7998C16.5918 6.19991 17.173 5.95034 17.6849 5.73026C18.1566 5.50174 18.6757 5.3884 19.1997 5.39994C20.0149 5.39994 20.8064 6.01553 21.5517 7.22913C21.6474 7.38531 21.6247 7.58691 21.4964 7.71783C21.3682 7.84893 21.1671 7.87585 21.0088 7.78338C19.9662 7.1753 18.6513 7.30365 17.7461 8.10198C16.8408 8.90048 16.5491 10.1892 17.0221 11.2995C17.4952 12.41 18.6268 13.0922 19.8296 12.9923C21.0326 12.8925 22.036 12.033 22.3196 10.8599C22.3621 10.6846 22.5162 10.5596 22.6964 10.5543C22.8753 10.5532 23.0344 10.6672 23.0908 10.837C23.6095 12.4444 23.9151 14.1129 23.9995 15.7998C23.9995 19.5768 23.7007 20.5996 21.5996 20.5996ZM17.5734 15.1629C18.1178 15.6645 18.3734 16.4241 18.6233 17.1628C19.0796 18.5196 19.5121 19.7996 21.5996 19.7996C22.7964 19.7996 23.1996 19.7996 23.1996 15.7998C23.1476 14.5647 22.9553 13.3396 22.6265 12.1482C21.6265 13.7011 19.6139 14.2454 17.9676 13.4081C18.0691 14.022 17.9277 14.6514 17.5734 15.1629ZM10.6595 14.5997H13.3393C13.2465 14.3432 13.1993 14.0726 13.1998 13.7997C13.1998 13.0507 13.5496 12.3445 14.1454 11.8905C14.7412 11.4366 15.5148 11.2869 16.2369 11.4857C15.8136 10.379 15.9621 9.13485 16.6339 8.15874C17.3057 7.1828 18.4148 6.59981 19.5996 6.59981C19.7602 6.59981 19.9206 6.61079 20.0797 6.63258C19.8512 6.38283 19.537 6.22829 19.1997 6.19991C18.7839 6.18874 18.3719 6.27993 17.9997 6.46541C17.4465 6.70344 16.7566 6.99989 14.7998 6.99989H9.19978C7.24315 6.99989 6.55304 6.70344 5.99989 6.46541C5.62782 6.27993 5.21566 6.18874 4.80002 6.19991C4.46256 6.22829 4.14836 6.38283 3.92003 6.63258C4.07896 6.61079 4.23936 6.59981 4.39994 6.59981C5.58479 6.59981 6.69403 7.1828 7.36583 8.15874C8.03745 9.13485 8.18594 10.379 7.76261 11.4857C8.48495 11.2869 9.25855 11.4366 9.85437 11.8905C10.4502 12.3445 10.7999 13.0507 10.7999 13.7997C10.8001 14.0726 10.7525 14.3434 10.6595 14.5997Z" fill="#0072FF"/>
<path d="M8.39992 16.1996C7.07463 16.1996 6 15.1251 6 13.7996C6 12.4742 7.07463 11.3997 8.39992 11.3997C9.7254 11.3997 10.8 12.4742 10.8 13.7996C10.7986 15.1246 9.72485 16.1983 8.39992 16.1996ZM8.39992 12.1997C7.51627 12.1997 6.79997 12.916 6.79997 13.7996C6.79997 14.6833 7.51627 15.3996 8.39992 15.3996C9.28357 15.3996 10 14.6833 10 13.7996C10 12.916 9.28357 12.1997 8.39992 12.1997Z" fill="#0072FF"/>
<path d="M4.40026 13.7998C2.41214 13.7998 0.800293 12.1879 0.800293 10.1998C0.800293 8.21167 2.41214 6.59982 4.40026 6.59982C6.38838 6.59982 8.00023 8.21167 8.00023 10.1998C7.99785 12.187 6.38747 13.7974 4.40026 13.7998ZM4.40026 7.3998C2.85397 7.3998 1.60027 8.6535 1.60027 10.1998C1.60027 11.7463 2.85397 12.9998 4.40026 12.9998C5.94656 12.9998 7.20026 11.7463 7.20026 10.1998C7.19843 8.65423 5.94583 7.40163 4.40026 7.3998Z" fill="#0072FF"/>
<path d="M19.5993 13.7998C17.6112 13.7998 15.9995 12.1879 15.9995 10.1998C15.9995 8.21167 17.6112 6.59982 19.5993 6.59982C21.5876 6.59982 23.1993 8.21167 23.1993 10.1998C23.1969 12.187 21.5865 13.7974 19.5993 13.7998ZM19.5993 7.3998C18.053 7.3998 16.7995 8.6535 16.7995 10.1998C16.7995 11.7463 18.053 12.9998 19.5993 12.9998C21.1458 12.9998 22.3993 11.7463 22.3993 10.1998C22.3975 8.65423 21.145 7.40163 19.5993 7.3998Z" fill="#0072FF"/>
<path d="M15.6001 16.1996C14.2746 16.1996 13.2002 15.1251 13.2002 13.7996C13.2002 12.4742 14.2746 11.3997 15.6001 11.3997C16.9256 11.3997 18 12.4742 18 13.7996C17.9988 15.1246 16.925 16.1983 15.6001 16.1996ZM15.6001 12.1997C14.7165 12.1997 14.0002 12.916 14.0002 13.7996C14.0002 14.6833 14.7165 15.3996 15.6001 15.3996C16.4838 15.3996 17.2001 14.6833 17.2001 13.7996C17.2001 12.916 16.4838 12.1997 15.6001 12.1997Z" fill="#0072FF"/>
<path d="M17.1994 11.3998C16.5367 11.3998 15.9995 10.8626 15.9995 10.1998C15.9995 9.53711 16.5367 8.99988 17.1994 8.99988C17.8622 8.99988 18.3995 9.53711 18.3995 10.1998C18.3995 10.8626 17.8622 11.3998 17.1994 11.3998ZM17.1994 9.79987C16.9786 9.79987 16.7995 9.97894 16.7995 10.1998C16.7995 10.4208 16.9786 10.5999 17.1994 10.5999C17.4204 10.5999 17.5995 10.4208 17.5995 10.1998C17.5995 9.97894 17.4204 9.79987 17.1994 9.79987Z" fill="#0072FF"/>
<path d="M19.5993 8.99997C18.9366 8.99997 18.3994 8.46255 18.3994 7.7999C18.3994 7.13705 18.9366 6.59982 19.5993 6.59982C20.2621 6.59982 20.7994 7.13705 20.7994 7.7999C20.7994 8.46255 20.2621 8.99997 19.5993 8.99997ZM19.5993 7.39981C19.3785 7.39981 19.1994 7.57889 19.1994 7.7999C19.1994 8.02072 19.3785 8.1998 19.5993 8.1998C19.8203 8.1998 19.9994 8.02072 19.9994 7.7999C19.9994 7.57889 19.8203 7.39981 19.5993 7.39981Z" fill="#0072FF"/>
<path d="M21.9994 11.3998C21.3365 11.3998 20.7993 10.8626 20.7993 10.1998C20.7993 9.53711 21.3365 8.99988 21.9994 8.99988C22.662 8.99988 23.1993 9.53711 23.1993 10.1998C23.1993 10.8626 22.662 11.3998 21.9994 11.3998ZM21.9994 9.79987C21.7784 9.79987 21.5993 9.97894 21.5993 10.1998C21.5993 10.4208 21.7784 10.5999 21.9994 10.5999C22.2202 10.5999 22.3993 10.4208 22.3993 10.1998C22.3993 9.97894 22.2202 9.79987 21.9994 9.79987Z" fill="#0072FF"/>
<path d="M19.5993 13.7997C18.9366 13.7997 18.3994 13.2625 18.3994 12.5996C18.3994 11.937 18.9366 11.3997 19.5993 11.3997C20.2621 11.3997 20.7994 11.937 20.7994 12.5996C20.7994 13.2625 20.2621 13.7997 19.5993 13.7997ZM19.5993 12.1997C19.3785 12.1997 19.1994 12.3788 19.1994 12.5996C19.1994 12.8206 19.3785 12.9997 19.5993 12.9997C19.8203 12.9997 19.9994 12.8206 19.9994 12.5996C19.9994 12.3788 19.8203 12.1997 19.5993 12.1997Z" fill="#0072FF"/>
<path d="M4.39989 9.39983C4.17907 9.39983 4 9.22075 4 8.99993V6.9999C4 6.7789 4.17907 6.59982 4.39989 6.59982C4.6209 6.59982 4.79997 6.7789 4.79997 6.9999V8.99993C4.79997 9.22075 4.6209 9.39983 4.39989 9.39983Z" fill="#0072FF"/>
<path d="M2.80035 10.6001H1.20038C0.97937 10.6001 0.800293 10.421 0.800293 10.2C0.800293 9.97919 0.97937 9.80011 1.20038 9.80011H2.80035C3.02118 9.80011 3.20026 9.97919 3.20026 10.2C3.20026 10.421 3.02118 10.6001 2.80035 10.6001Z" fill="#0072FF"/>
<path d="M7.59998 10.6001H6C5.77917 10.6001 5.6001 10.421 5.6001 10.2C5.6001 9.97919 5.77917 9.80011 6 9.80011H7.59998C7.82098 9.80011 8.00006 9.97919 8.00006 10.2C8.00006 10.421 7.82098 10.6001 7.59998 10.6001Z" fill="#0072FF"/>
<path d="M4.3999 13.7997C4.17908 13.7997 4 13.6206 4 13.3996V11.7996C4 11.5788 4.17908 11.3997 4.3999 11.3997C4.62091 11.3997 4.79999 11.5788 4.79999 11.7996V13.3996C4.79999 13.6206 4.62091 13.7997 4.3999 13.7997Z" fill="#0072FF"/>
<path d="M13.9997 10.5999H9.99986C9.33703 10.5999 8.7998 10.0627 8.7998 9.39985V6.59985C8.7998 6.37903 8.97888 6.19995 9.1997 6.19995H14.7997C15.0205 6.19995 15.1996 6.37903 15.1996 6.59985V9.39985C15.1996 10.0627 14.6624 10.5999 13.9997 10.5999ZM9.59978 6.99993V9.39985C9.59978 9.62086 9.77885 9.79993 9.99986 9.79993H13.9997C14.2205 9.79993 14.3996 9.62086 14.3996 9.39985V6.99993H9.59978Z" fill="#0072FF"/>
<path d="M4.3999 4.59998C4.17908 4.59998 4 4.4209 4 4.19989V3.3999C4 3.17908 4.17908 3 4.3999 3C4.62091 3 4.79999 3.17908 4.79999 3.3999V4.19989C4.79999 4.4209 4.62091 4.59998 4.3999 4.59998Z" fill="#0072FF"/>
<path d="M2.79992 5.39995C2.73803 5.39995 2.67687 5.38548 2.62157 5.35784L1.82158 4.95793C1.62383 4.85924 1.54363 4.61882 1.64232 4.42107C1.74102 4.22331 1.98143 4.14311 2.17919 4.24199L2.97918 4.64189C3.14544 4.72484 3.23278 4.91124 3.18993 5.09197C3.14727 5.27269 2.98558 5.40032 2.79992 5.39995Z" fill="#0072FF"/>
<path d="M19.5996 4.59998C19.3788 4.59998 19.1997 4.4209 19.1997 4.19989V3.3999C19.1997 3.17908 19.3788 3 19.5996 3C19.8206 3 19.9997 3.17908 19.9997 3.3999V4.19989C19.9997 4.4209 19.8206 4.59998 19.5996 4.59998Z" fill="#0072FF"/>
<path d="M21.1996 5.39995C21.0139 5.40032 20.8524 5.27269 20.8096 5.09197C20.7669 4.91124 20.8542 4.72484 21.0205 4.64189L21.8205 4.24199C22.0182 4.14311 22.2585 4.22331 22.3573 4.42107C22.456 4.61882 22.3758 4.85924 22.1781 4.95793L21.3781 5.35784C21.3226 5.38548 21.2617 5.39995 21.1996 5.39995Z" fill="#0072FF"/>
<path d="M8.79999 13.7997C8.79999 14.0206 8.62091 14.1996 8.3999 14.1996C8.17908 14.1996 8 14.0206 8 13.7997C8 13.5787 8.17908 13.3997 8.3999 13.3997C8.62091 13.3997 8.79999 13.5787 8.79999 13.7997Z" fill="#0072FF"/>
<path d="M15.9994 13.7997C15.9994 14.0206 15.8203 14.1996 15.5993 14.1996C15.3785 14.1996 15.1992 14.0206 15.1992 13.7997C15.1992 13.5787 15.3785 13.3997 15.5993 13.3997C15.8203 13.3997 15.9994 13.5787 15.9994 13.7997Z" fill="#0072FF"/>
</svg>
