<svg width="24" height="24" viewBox="0 0 24 24" fill="none" xmlns="http://www.w3.org/2000/svg">
<g clip-path="url(#clip0)">
<path d="M10.3927 0.482044C8.24999 0.515735 3.95969 4.73595 3.42489 8.08587C3.39444 8.27612 2.72792 16.1671 2.59766 17.7672H6.35499C6.36894 17.5469 6.35499 16.7803 6.35499 16.2894C6.35499 15.611 5.6426 15.4502 5.66224 15.1422C5.6804 14.8586 6.68376 14.5385 6.68376 13.7858C6.68376 13.0328 5.75617 12.8356 5.77507 12.5427C5.79635 12.2136 6.73073 12.1173 6.73073 11.3453C6.73073 10.5734 6.11447 10.7296 6.02623 9.80963C5.97926 9.32074 6.12805 8.69213 6.18602 8.56231C6.18841 8.55737 6.19061 8.55206 6.193 8.54693C6.54983 7.74401 7.61447 7.56878 8.21238 8.21331L9.5957 9.70471L13.3061 0.470325C13.3061 0.470325 11.7303 0.460987 10.3927 0.482044Z" fill="#CCE3FF"/>
<path d="M13.3093 0.492249L9.60059 9.70411L10.1113 9.90498C10.7946 10.1738 11.5666 9.83888 11.8359 9.15718L14.5695 2.41431C14.8387 1.73242 14.5033 0.961915 13.8201 0.693115L13.3093 0.492249Z" fill="#80B8FF"/>
<path d="M2.59766 17.7678H6.35499V19.6428H2.59766V17.7678Z" fill="#80B8FF"/>
<path d="M13.9814 0.257019C13.9814 0.257019 13.4049 0.0028689 13.302 0.00231958C13.2862 0.00231958 11.7148 -0.00683571 10.395 0.0140384C9.02159 0.0358279 7.2242 1.42523 5.99995 2.71814C4.3607 4.44959 3.27184 6.37934 3.01242 8.01283C2.97665 8.23878 2.28957 16.4467 2.18555 17.7301C2.18518 17.7356 2.18408 19.643 2.18408 19.643C2.18408 19.9019 2.39323 20.1117 2.65118 20.1117H4.05211V23.5316C4.05211 23.7905 4.26126 24.0003 4.51921 24.0003C4.77716 24.0003 4.98631 23.7905 4.98631 23.5316V20.1117H6.38724C6.64519 20.1117 6.85434 19.9019 6.85434 19.643C6.85434 19.643 6.85434 16.4523 6.85434 16.2901C6.85434 15.7122 6.51768 15.3806 6.29037 15.1765C6.29771 15.1706 7.18127 14.5784 7.18127 13.7863C7.18127 13.1477 6.76205 12.7858 6.46209 12.561C6.7637 12.3654 7.22805 12.019 7.22805 11.3461C7.22805 10.7788 6.97469 10.5128 6.78976 10.3187C6.64299 10.1647 6.55456 10.0718 6.52539 9.7657C6.4742 9.22956 6.56758 8.4087 7.21594 8.30048C7.47041 8.258 7.71643 8.3426 7.89164 8.53248L9.26707 10.0239C9.32578 10.0874 9.40008 10.1317 9.48062 10.155C9.84718 10.3 10.2035 10.4663 10.6054 10.4663C11.3187 10.4663 11.9943 10.0354 12.27 9.33283L14.9899 2.58612C15.3516 1.6651 14.8992 0.620118 13.9814 0.257019ZM5.92032 19.1742H3.1181V18.2367H5.92032V19.1742ZM9.45108 8.84339L8.57688 7.89564C8.19032 7.47651 7.62433 7.28223 7.06275 7.3758C6.60372 7.45234 6.21019 7.72425 5.94858 8.10676C5.62201 8.58412 5.54165 9.28999 5.59541 9.85523C5.65558 10.4849 5.93188 10.7748 6.11461 10.9667C6.25239 11.1112 6.29385 11.1549 6.29385 11.3461C6.29385 11.5387 6.17112 11.6369 5.89115 11.8146C5.67044 11.9547 5.3681 12.1466 5.34461 12.5134C5.32095 12.884 5.60403 13.092 5.83134 13.259C6.09003 13.4492 6.24725 13.5796 6.24725 13.7865C6.24725 14.009 6.02838 14.1958 5.74218 14.4168C5.50166 14.6026 5.2527 14.7949 5.23252 15.1131C5.20995 15.4676 5.45377 15.6848 5.63173 15.8433C5.83244 16.0219 5.92032 16.1182 5.92032 16.2901C5.92032 16.4547 5.92583 17.1557 5.92638 17.2992H3.15809C3.35697 14.8833 3.89818 8.46455 3.93561 8.15546C4.16421 6.72669 5.18867 4.9361 6.67693 3.36396C8.03016 1.93482 9.53016 0.965272 10.4097 0.951356C11.1771 0.939271 12.0302 0.937257 12.6096 0.937806L9.45108 8.84339ZM14.1224 2.23859L11.4026 8.9853C11.2298 9.42549 10.7324 9.64247 10.2935 9.46906L10.2229 9.44105L13.5625 1.09912L13.6388 1.12933C14.0775 1.30292 14.2936 1.80225 14.1224 2.23859Z" fill="#0072FF"/>
<path d="M19.3066 10.9778C19.3066 10.9778 16.3989 9.48186 16.3974 9.48113C16.1703 9.3643 15.8848 9.45732 15.7689 9.68456C15.6528 9.91234 15.7458 10.1994 15.9716 10.3155C15.9716 10.3155 18.8786 11.8113 18.8806 11.8122C19.1076 11.9291 19.3932 11.8362 19.5092 11.6088C19.6255 11.381 19.5328 11.0943 19.3066 10.9778Z" fill="#0072FF"/>
<path d="M17.9154 13.374C17.9154 13.374 15.226 11.5117 15.2243 11.5108C15.015 11.3656 14.7187 11.4198 14.5747 11.6301C14.4284 11.8425 14.4818 12.1355 14.6937 12.2822C14.6937 12.2822 17.3806 14.1425 17.3848 14.1455C17.5917 14.2888 17.8924 14.2317 18.0344 14.0259C18.1806 13.8131 18.1269 13.5207 17.9154 13.374Z" fill="#0072FF"/>
<path d="M20.24 8.47812C20.24 8.47812 17.1806 7.324 17.1796 7.32364C16.9417 7.23391 16.6678 7.35897 16.5781 7.59738C16.4893 7.83377 16.6177 8.113 16.8514 8.20126C16.8514 8.20126 19.9074 9.35428 19.9112 9.35574C20.149 9.44546 20.4238 9.31912 20.5128 9.082C20.6018 8.84488 20.4745 8.56656 20.24 8.47812Z" fill="#0072FF"/>
<path d="M20.842 6.36848C20.842 6.36848 17.7853 5.21528 17.7818 5.214C17.5442 5.12446 17.2689 5.25117 17.1802 5.48774C17.0896 5.72962 17.2124 6.00043 17.4534 6.09144C17.4534 6.09144 20.5099 7.24464 20.5134 7.24592C20.7512 7.33564 21.026 7.2093 21.115 6.97217C21.2054 6.73048 21.0831 6.45948 20.842 6.36848Z" fill="#0072FF"/>
<path d="M21.5715 3.86112C21.5715 3.86112 18.429 2.95841 18.4284 2.95823C18.1875 2.88902 17.9213 3.0333 17.8512 3.27976C17.7817 3.52384 17.929 3.79008 18.1716 3.85929C18.1716 3.85929 21.3116 4.76164 21.3147 4.76255C21.5554 4.83177 21.8216 4.68766 21.8918 4.44102C21.9628 4.19255 21.819 3.93235 21.5715 3.86112Z" fill="#0072FF"/>
<path d="M13.8783 10.8282C13.8783 11.087 13.668 11.297 13.4086 11.297C13.1492 11.297 12.939 11.087 12.939 10.8282C12.939 10.5693 13.1492 10.3595 13.4086 10.3595C13.668 10.3595 13.8783 10.5693 13.8783 10.8282Z" fill="#0072FF"/>
<path d="M15.0057 9.04695C15.0057 9.30568 14.7955 9.5157 14.5361 9.5157C14.2767 9.5157 14.0664 9.30568 14.0664 9.04695C14.0664 8.78804 14.2767 8.5782 14.5361 8.5782C14.7955 8.5782 15.0057 8.78804 15.0057 9.04695Z" fill="#0072FF"/>
<path d="M15.7572 7.12506C15.7572 7.38379 15.547 7.59381 15.2875 7.59381C15.0281 7.59381 14.8179 7.38379 14.8179 7.12506C14.8179 6.86615 15.0281 6.65631 15.2875 6.65631C15.547 6.65631 15.7572 6.86615 15.7572 7.12506Z" fill="#0072FF"/>
<path d="M16.368 5.01567C16.368 5.2744 16.1578 5.48442 15.8984 5.48442C15.639 5.48442 15.4287 5.2744 15.4287 5.01567C15.4287 4.75676 15.639 4.54692 15.8984 4.54692C16.1578 4.54692 16.368 4.75676 16.368 5.01567Z" fill="#0072FF"/>
<path d="M16.9784 2.90627C16.9784 3.165 16.7681 3.37502 16.5087 3.37502C16.2493 3.37502 16.0391 3.165 16.0391 2.90627C16.0391 2.64736 16.2493 2.43752 16.5087 2.43752C16.7681 2.43752 16.9784 2.64736 16.9784 2.90627Z" fill="#0072FF"/>
</g>
<defs>
<clipPath id="clip0">
<rect width="24" height="24" fill="white"/>
</clipPath>
</defs>
</svg>
