<svg width="24" height="24" viewBox="0 0 24 24" fill="none" xmlns="http://www.w3.org/2000/svg">
<g clip-path="url(#clip0)">
<rect x="1.00098" y="20.0344" width="26.9184" height="5.608" rx="1" transform="rotate(-45 1.00098 20.0344)" fill="#E6F1FF"/>
<path d="M13.6895 7.34522L19.3271 1.7076C19.7176 1.31707 20.3508 1.31708 20.7413 1.7076L23.2925 4.25884C23.6831 4.64937 23.6831 5.28253 23.2925 5.67306L17.6549 11.3107L13.6895 7.34522Z" fill="#CCE3FF"/>
<path d="M7.34473 21.621L5.67256 23.2932C5.28204 23.6837 4.64887 23.6837 4.25835 23.2932L1.7071 20.742C1.31658 20.3514 1.31658 19.7183 1.7071 19.3277L3.37927 17.6556L7.34473 21.621Z" fill="#CCE3FF"/>
<mask id="mask0" mask-type="alpha" maskUnits="userSpaceOnUse" x="1" y="1" width="24" height="23">
<rect x="1.00098" y="20.0344" width="26.9184" height="5.608" rx="1" transform="rotate(-45 1.00098 20.0344)" fill="#E6F1FF"/>
<path d="M13.6895 7.34522L19.3271 1.7076C19.7176 1.31707 20.3508 1.31708 20.7413 1.7076L23.2925 4.25884C23.6831 4.64937 23.6831 5.28253 23.2925 5.67306L17.6549 11.3107L13.6895 7.34522Z" fill="#CCE3FF"/>
<path d="M7.34473 21.621L5.67256 23.2932C5.28204 23.6837 4.64887 23.6837 4.25835 23.2932L1.7071 20.742C1.31658 20.3514 1.31658 19.7183 1.7071 19.3277L3.37927 17.6556L7.34473 21.621Z" fill="#CCE3FF"/>
</mask>
<g mask="url(#mask0)">
<rect x="15.2759" y="8.93163" width="8.9728" height="3.3648" transform="rotate(-45 15.2759 8.93163)" fill="#80B8FF"/>
<rect x="2.58643" y="21.621" width="3.3648" height="3.3648" transform="rotate(-45 2.58643 21.621)" fill="#80B8FF"/>
<rect x="4.96582" y="19.2419" width="14.5808" height="3.3648" transform="rotate(-45 4.96582 19.2419)" fill="#CCE3FF"/>
</g>
<path fill-rule="evenodd" clip-rule="evenodd" d="M19.8935 2.27303C19.916 2.25055 19.9425 2.23455 19.9707 2.22501C20.0403 2.20176 20.1202 2.21786 20.1756 2.27329L22.7269 4.82453C22.805 4.90263 22.805 5.02927 22.7269 5.10737L17.6549 10.1793L14.8211 7.34546L19.8935 2.27303ZM19.3271 1.7076C19.4378 1.5969 19.568 1.51758 19.7066 1.46964C20.0572 1.34809 20.462 1.42732 20.742 1.70735L23.2933 4.25859C23.6838 4.64911 23.6838 5.28228 23.2933 5.6728L5.67331 23.2928C5.63432 23.3318 5.59292 23.3669 5.54957 23.3981C5.15874 23.6799 4.61022 23.6449 4.25851 23.2932L1.70726 20.742C1.31674 20.3514 1.31674 19.7183 1.70726 19.3277L2.81375 18.2213L3.37943 17.6556L3.37951 17.6557L13.6897 7.34546L13.6895 7.34522L14.2552 6.77954L19.3271 1.7076ZM5.08213 22.7487C5.00402 22.8044 4.89487 22.7972 4.82478 22.7271L2.27354 20.1759C2.19544 20.0977 2.19544 19.9711 2.27354 19.893L3.37951 18.787L6.21352 21.621L5.10703 22.7275C5.09919 22.7354 5.09086 22.7424 5.08213 22.7487ZM6.77928 21.0554L6.7792 21.0554L3.9452 18.2213L14.2554 7.91115L17.0892 10.745L17.0895 10.7452L6.77928 21.0554Z" fill="#0072FF"/>
<path d="M1.81401 4.08728C2.37481 4.83501 3.15993 7.00344 1.81401 9.69528C0.468087 12.3871 2.00094 14.5555 2.93561 15.3033" stroke="#0072FF" stroke-width="0.8"/>
<path d="M3.88719 5.20971C4.26807 5.73312 4.8013 7.25102 3.88719 9.13531C2.97308 11.0196 4.01415 12.5375 4.64894 13.0609" stroke="#0072FF" stroke-width="0.8"/>
</g>
<defs>
<clipPath id="clip0">
<rect width="24" height="24" fill="white"/>
</clipPath>
</defs>
</svg>
