<svg width="22" height="22" viewBox="0 0 22 22" fill="none" xmlns="http://www.w3.org/2000/svg">
<path d="M11 0C4.9347 0 0 4.9347 0 11C0 17.0653 4.9347 22 11 22C17.0653 22 22 17.0653 22 11C22 4.9347 17.0653 0 11 0Z" fill="#0072FF"/>
<path d="M20.819 8.74146L18.1224 9.12689L16.1011 5.48885L17.2824 3.12656C19.0306 4.52437 20.3008 6.48925 20.819 8.74146Z" fill="#E6F1FF"/>
<path d="M13.2575 18.7026L10.687 17.2341L12.2169 14.1743L15.2976 13.7894L16.3952 16.3496L13.2575 18.7026Z" fill="#E6F1FF"/>
<path d="M9.78609 16.9856L5.73745 17.3905L3.7168 14.1575L4.91236 10.9693L8.95512 10.565L11.3799 13.7981L9.78609 16.9856Z" fill="#E6F1FF"/>
<path d="M7.75278 4.23106L10.0077 6.11004L8.8252 9.65677L4.99337 10.0399L4.60889 6.19598L7.75278 4.23106Z" fill="#E6F1FF"/>
<path d="M15.3102 12.864L12.1235 13.2623L9.67725 10.0005L10.8815 6.38775L15.3278 5.98358L17.3432 9.61126L15.3102 12.864Z" fill="#80B8FF"/>
<path d="M16.5313 2.57895L15.2874 5.06667L10.6893 5.48467L8.2915 3.48649L8.72033 1.18638C9.45411 1.01592 10.2149 0.916748 10.9998 0.916748C13.042 0.916748 14.9415 1.53124 16.5313 2.57895Z" fill="#E6F1FF"/>
<path d="M7.73521 1.46974L7.3781 3.38494L3.99401 5.50004H2.56006C3.77818 3.63717 5.5946 2.20545 7.73521 1.46974Z" fill="#80B8FF"/>
<path d="M2.02961 6.41675H3.71003L4.11639 10.4807L2.92267 13.6639L1.1717 13.2236C1.00962 12.5071 0.916504 11.7649 0.916504 11.0001C0.916504 9.34898 1.32312 7.79372 2.02961 6.41675Z" fill="#E6F1FF"/>
<path d="M1.46094 14.2414L2.91728 14.6076L5.04157 18.0066V19.1161C3.39647 17.905 2.13254 16.2118 1.46094 14.2414Z" fill="#80B8FF"/>
<path d="M5.9585 19.7189V18.2897L9.98346 17.8872L12.8335 19.5158V20.908C12.238 21.018 11.627 21.0832 11.0001 21.0832C9.16263 21.0833 7.44371 20.5812 5.9585 19.7189Z" fill="#E6F1FF"/>
<path d="M13.75 20.6924V19.4789L17.0744 16.9856L18.8622 17.2975C17.5681 18.9101 15.7903 20.1125 13.75 20.6924Z" fill="#616161"/>
<path d="M13.75 20.6924V19.4789L17.0744 16.9856L18.8622 17.2975C17.5681 18.9101 15.7903 20.1125 13.75 20.6924Z" fill="#80B8FF"/>
<path d="M19.4578 16.4706L17.2813 16.0909L16.0986 13.3313L18.1503 10.0487L20.981 9.64432C21.0412 10.0889 21.0831 10.5391 21.0831 10.9999C21.0831 13.0168 20.4818 14.893 19.4578 16.4706Z" fill="white"/>
<path d="M12.8335 20.9082V19.516L11.0612 18.5032C10.3049 18.685 9.51974 18.7917 8.7085 18.7917C7.75266 18.7917 6.83428 18.6433 5.9585 18.3928V19.7191C7.44371 20.5813 9.16263 21.0834 11.0001 21.0834C11.6269 21.0834 12.238 21.0182 12.8335 20.9082Z" fill="#CCE3FF"/>
<path opacity="0.4" d="M2.8125 16.8547C3.43314 17.7193 4.18402 18.4844 5.04185 19.1159V18.088C4.2422 17.7726 3.49759 17.3537 2.8125 16.8547Z" fill="#0072FF"/>
<path d="M12.2607 18.1333L13.2575 18.7027L16.3952 16.3498L16.0657 15.5811C15.018 16.7018 13.721 17.5808 12.2607 18.1333Z" fill="#CCE3FF"/>
<path d="M21.0834 10.9999C21.0834 10.5391 21.0415 10.0889 20.9814 9.64432L18.7042 9.96959C18.478 11.7697 17.7754 13.4195 16.7271 14.7967L17.2817 16.0909L19.4582 16.4706C20.4821 14.893 21.0834 13.0168 21.0834 10.9999Z" fill="#CCE3FF"/>
<path d="M20.8189 8.7415C20.3008 6.4893 19.0306 4.52442 17.2823 3.12665L17.1968 3.29766C18.2013 4.86151 18.7915 6.71475 18.7915 8.70842C18.7915 8.8182 18.7785 8.92472 18.775 9.03365L20.8189 8.7415Z" fill="#CCE3FF"/>
</svg>
