<svg width="20" height="20" viewBox="0 0 20 20" fill="none" xmlns="http://www.w3.org/2000/svg">
<path fill-rule="evenodd" clip-rule="evenodd" d="M9.99002 0.833252C4.93002 0.833252 0.83252 4.93992 0.83252 9.99992C0.83252 15.0599 4.93002 19.1666 9.99002 19.1666C15.0592 19.1666 19.1659 15.0599 19.1659 9.99992C19.1659 4.93992 15.0592 0.833252 9.99002 0.833252ZM9.99972 17.3332C5.94806 17.3332 2.66639 14.0515 2.66639 9.99983C2.66639 5.94816 5.94806 2.6665 9.99972 2.6665C14.0514 2.6665 17.3331 5.94816 17.3331 9.99983C17.3331 14.0515 14.0514 17.3332 9.99972 17.3332ZM9.7427 5.4165H9.7977C10.1644 5.4165 10.4577 5.70983 10.4577 6.0765V10.2382L14.0052 12.3465C14.326 12.5298 14.4269 12.9423 14.2344 13.254C14.051 13.5657 13.6477 13.6573 13.336 13.474L9.53187 11.1915C9.2477 11.0265 9.0827 10.724 9.0827 10.4032V6.0765C9.0827 5.70983 9.37603 5.4165 9.7427 5.4165Z" fill="#8E9AB2"/>
</svg>
