<svg width="20" height="14" viewBox="0 0 20 14" fill="none" xmlns="http://www.w3.org/2000/svg">
<path d="M3.00488 4.53113V12.8636C3.00488 13.1971 3.27527 13.4675 3.60883 13.4675C3.92777 13.4675 4.19176 13.2195 4.2116 12.9012L4.73414 4.53109H3.00488V4.53113Z" fill="#8E9AB2"/>
<path d="M15.2658 4.53113L15.7883 12.9012C15.8082 13.2196 16.0722 13.4676 16.3911 13.4676C16.7247 13.4676 16.9951 13.1972 16.9951 12.8636V4.53113H15.2658Z" fill="#8E9AB2"/>
<path d="M1.36719 2.30191V3.82797C1.36719 4.21629 1.68199 4.53109 2.07031 4.53109H17.9297C18.318 4.53109 18.6328 4.21629 18.6328 3.82797V2.30191H1.36719Z" fill="#8E9AB2"/>
<path d="M19.2383 0.518749H0.761719C0.502852 0.518749 0.292969 0.728632 0.292969 0.987499V1.83316C0.292969 2.09203 0.502852 2.30191 0.761719 2.30191H19.2383C19.4971 2.30191 19.707 2.09203 19.707 1.83316V0.987499C19.707 0.728632 19.4971 0.518749 19.2383 0.518749V0.518749Z" fill="#8E9AB2"/>
<path d="M17.0826 2.30195V3.82801C17.0826 4.21633 16.7678 4.53113 16.3795 4.53113H17.9297C18.318 4.53113 18.6328 4.21633 18.6328 3.82801V2.30195H17.0826Z" fill="#8E9AB2"/>
<path d="M3.00488 5.6384H4.66504L4.73418 4.53113H3.00488V5.6384Z" fill="#8E9AB2"/>
<path d="M15.3349 5.6384H16.9951V4.53113H15.2658L15.3349 5.6384Z" fill="#8E9AB2"/>
</svg>
