<svg width="24" height="24" viewBox="0 0 24 24" fill="none" xmlns="http://www.w3.org/2000/svg">
<g clip-path="url(#clip0)">
<path d="M1.99989 6.3999H21.9999C22.8835 6.3999 23.5999 7.11625 23.5999 7.99989V20.7999C23.5999 21.6835 22.8835 22.3999 21.9999 22.3999H1.99989C1.11625 22.3999 0.399902 21.6835 0.399902 20.7999V7.99989C0.399855 7.11625 1.1162 6.3999 1.99989 6.3999Z" fill="#80B8FF"/>
<path d="M1.99989 6.3999H20.7999C21.6835 6.3999 22.3999 7.11625 22.3999 7.99989V20.7999C22.3999 21.6835 21.6835 22.3999 20.7999 22.3999H1.99989C1.11625 22.3999 0.399902 21.6835 0.399902 20.7999V7.99989C0.399855 7.11625 1.1162 6.3999 1.99989 6.3999Z" fill="#E6F1FF"/>
<path d="M16.8 13.1994V15.5994C16.7994 15.82 16.6207 15.9987 16.4 15.9994H13.6C13.3794 16 13.2007 16.1787 13.2001 16.3994V19.1993C13.1994 19.42 13.0207 19.5987 12.8001 19.5993H10.4001C10.1794 19.5987 10.0008 19.42 10.0001 19.1993V16.3994C9.99944 16.1787 9.82075 16 9.60011 15.9994H6.80013C6.57949 15.9987 6.4008 15.82 6.40015 15.5994V13.1994C6.4008 12.9788 6.57949 12.8001 6.80013 12.7994H9.60002C9.82066 12.7988 9.99935 12.6201 10 12.3994V9.59945C10.0007 9.37881 10.1793 9.20012 10.4 9.19946H12.8C13.0206 9.20012 13.1993 9.37881 13.2 9.59945V12.3994C13.2006 12.62 13.3793 12.7987 13.6 12.7994H16.3999C16.6207 12.8 16.7994 12.9788 16.8 13.1994Z" fill="#71C285"/>
<path d="M5.9997 5.59982V6.39984H2.79968V5.59982C2.801 5.15854 3.15837 4.80112 3.5997 4.7998H5.19968C5.64101 4.80112 5.99843 5.15854 5.9997 5.59982Z" fill="#37474F"/>
<path d="M21.2 5.59982V6.39984H18V5.59982C18.0013 5.15854 18.3587 4.80112 18.8 4.7998H20.4C20.8413 4.80112 21.1987 5.15854 21.2 5.59982Z" fill="#37474F"/>
<path d="M15.9999 4.39967V6.39969H14.3999V4.39967C14.3993 4.17903 14.2206 4.00035 14 3.99969H9.59994C9.3793 4.00035 9.20062 4.17903 9.19996 4.39967V6.39969H7.59998V4.39967C7.6004 3.29525 8.49557 2.40008 9.59999 2.39966H14C15.1043 2.40008 15.9996 3.2953 15.9999 4.39967Z" fill="#71C285"/>
<path d="M16.8 13.1994V15.5994C16.7994 15.82 16.6207 15.9987 16.4 15.9994H13.6C13.3794 16 13.2007 16.1787 13.2001 16.3994V19.1993C13.1994 19.42 13.0207 19.5987 12.8001 19.5993H10.4001C10.1794 19.5987 10.0008 19.42 10.0001 19.1993V16.3994C9.99944 16.1787 9.82075 16 9.60011 15.9994H6.80013C6.57949 15.9987 6.4008 15.82 6.40015 15.5994V13.1994C6.4008 12.9788 6.57949 12.8001 6.80013 12.7994H9.60002C9.82066 12.7988 9.99935 12.6201 10 12.3994V9.59945C10.0007 9.37881 10.1793 9.20012 10.4 9.19946H12.8C13.0206 9.20012 13.1993 9.37881 13.2 9.59945V12.3994C13.2006 12.62 13.3793 12.7987 13.6 12.7994H16.3999C16.6207 12.8 16.7994 12.9788 16.8 13.1994Z" fill="#CCE3FF"/>
<path d="M5.9997 5.59982V6.39984H2.79968V5.59982C2.801 5.15854 3.15837 4.80112 3.5997 4.7998H5.19968C5.64101 4.80112 5.99843 5.15854 5.9997 5.59982Z" fill="#80B8FF"/>
<path d="M21.2 5.59982V6.39984H18V5.59982C18.0013 5.15854 18.3587 4.80112 18.8 4.7998H20.4C20.8413 4.80112 21.1987 5.15854 21.2 5.59982Z" fill="#80B8FF"/>
<path d="M4.7997 5.59982V6.39984H2.79968V5.59982C2.801 5.15854 3.15837 4.80112 3.5997 4.7998H3.99968C4.44101 4.80112 4.79839 5.15854 4.7997 5.59982Z" fill="#607D8B"/>
<path d="M20 5.59982V6.39984H18V5.59982C18.0013 5.15854 18.3587 4.80112 18.8 4.7998H19.2C19.6413 4.80112 19.9987 5.15854 20 5.59982Z" fill="#607D8B"/>
<path d="M4.7997 5.59982V6.39984H2.79968V5.59982C2.801 5.15854 3.15837 4.80112 3.5997 4.7998H3.99968C4.44101 4.80112 4.79839 5.15854 4.7997 5.59982Z" fill="#CCE3FF"/>
<path d="M20 5.59982V6.39984H18V5.59982C18.0013 5.15854 18.3587 4.80112 18.8 4.7998H19.2C19.6413 4.80112 19.9987 5.15854 20 5.59982Z" fill="#CCE3FF"/>
<path d="M15.9999 4.39967V6.39969H14.3999V4.39967C14.3993 4.17903 14.2206 4.00035 14 3.99969H9.59994C9.3793 4.00035 9.20062 4.17903 9.19996 4.39967V6.39969H7.59998V4.39967C7.6004 3.29525 8.49557 2.40008 9.59999 2.39966H14C15.1043 2.40008 15.9996 3.2953 15.9999 4.39967Z" fill="#80B8FF"/>
<path d="M22 6.00003H21.6V5.60005C21.5993 4.93761 21.0624 4.40075 20.4 4.40005H18.8C18.1376 4.40075 17.6007 4.93761 17.6 5.60005V6.00003H16.4V4.4C16.3986 3.07513 15.3249 2.00145 14 2H9.6C8.27513 2.00145 7.20145 3.07513 7.2 4.4V5.99998H6.39998V5.6C6.39928 4.93756 5.86242 4.4007 5.19998 4.4H3.6C2.93756 4.4007 2.4007 4.93756 2.4 5.6V5.99998H2.00002C0.895969 6.0013 0.0013125 6.896 0 8V20.8C0.0013125 21.9041 0.895969 22.7987 2.00002 22.8H22C23.1041 22.7987 23.9987 21.9041 24 20.8V8C23.9987 6.896 23.104 6.0013 22 6.00003ZM18.4 5.6C18.4001 5.37913 18.5791 5.20016 18.8 5.20002H20.4C20.6209 5.20016 20.7998 5.37917 20.8 5.6V5.99998H18.4V5.6ZM8.00002 4.4C8.00091 3.51669 8.71673 2.80086 9.6 2.80002H14C14.8833 2.80091 15.5992 3.51673 15.6 4.4V5.99998H14.8V4.4C14.7994 3.95839 14.4416 3.60059 14 3.59998H9.6C9.15839 3.60055 8.80059 3.95839 8.79998 4.4V5.99998H7.99997V4.4H8.00002ZM14 6.00003H9.6V4.4H14V6.00003ZM3.20002 5.6C3.20016 5.37913 3.37917 5.20016 3.6 5.20002H5.19998C5.42086 5.20016 5.59983 5.37917 5.59997 5.6V5.99998H3.19997V5.6H3.20002ZM23.2 20.8C23.1993 21.4625 22.6624 21.9993 22 22H2.00002C1.33758 21.9993 0.800719 21.4625 0.800016 20.8V8C0.800719 7.33756 1.33758 6.8007 2.00002 6.8H22C22.6625 6.8007 23.1993 7.33756 23.2 8V20.8H23.2Z" fill="#0072FF"/>
<path d="M16.4 12.3996H13.6V9.59958C13.5995 9.15797 13.2416 8.80017 12.8 8.79956H10.4C9.95841 8.80012 9.60061 9.15797 9.6 9.59958V12.3996H6.80002C6.35841 12.4001 6.00061 12.758 6 13.1996V15.5996C6.00056 16.0412 6.35841 16.399 6.80002 16.3996H9.6V19.1996C9.60056 19.6412 9.95841 19.999 10.4 19.9996H12.8C13.2416 19.999 13.5994 19.6412 13.6 19.1996V16.3996H16.4C16.8416 16.399 17.1994 16.0412 17.2 15.5996V13.1996C17.1994 12.758 16.8416 12.4001 16.4 12.3996ZM16.4 15.5996H13.6C13.1584 15.6001 12.8006 15.958 12.8 16.3996V19.1996H10.4V16.3996C10.3995 15.958 10.0416 15.6002 9.6 15.5996H6.80002V13.1996H9.6C10.0416 13.199 10.3994 12.8412 10.4 12.3996V9.59958H12.8V12.3996C12.8006 12.8412 13.1584 13.199 13.6 13.1996L16.4 13.1988V15.5996Z" fill="#0072FF"/>
</g>
<defs>
<clipPath id="clip0">
<rect width="24" height="24" fill="white"/>
</clipPath>
</defs>
</svg>
