<svg width="24" height="24" viewBox="0 0 24 24" fill="none" xmlns="http://www.w3.org/2000/svg">
<g clip-path="url(#clip0)">
<path d="M19.1392 15.1941L20.1895 21.1413C20.2297 21.3712 20.0527 21.5818 19.8194 21.5818H19.3898C19.2381 21.5818 19.1013 21.4906 19.0429 21.3506L16.509 15.1941H19.1392V15.1941Z" fill="#CCE3FF"/>
<path d="M19.6701 18.2H17.7463L16.509 15.1941H19.1393L19.6701 18.2Z" fill="#80B8FF"/>
<path d="M4.86088 15.1941L3.81065 21.1413C3.77043 21.3712 3.94739 21.5818 4.18078 21.5818H4.61034C4.76203 21.5818 4.89885 21.4905 4.95721 21.3505L7.49108 15.1941H4.86088Z" fill="#CCE3FF"/>
<path d="M4.33008 18.2H6.25392L7.49113 15.1941H4.86089L4.33008 18.2Z" fill="#80B8FF"/>
<path d="M3.04417 5.04384L4.48539 13.6911H19.5153L20.9565 5.04384C21.1855 3.6697 20.1258 2.4187 18.7327 2.4187H5.26797C3.8748 2.41875 2.81514 3.66965 3.04417 5.04384Z" fill="#CCE3FF"/>
<path d="M5.71438 6.22752L5.08124 2.42896C3.78215 2.53517 2.82552 3.7318 3.04415 5.04364L4.48532 13.6909H19.5152L20.0789 10.3092H10.5327C8.14476 10.3093 6.10691 8.58289 5.71438 6.22752Z" fill="#80B8FF"/>
<path d="M23.5938 8.35518C23.3779 7.45358 22.4857 6.83793 21.5641 6.93847C20.6114 7.0424 19.996 7.83815 19.7965 8.75906L18.76 12.9393L5.23633 12.9267L4.20302 8.75906C4.00347 7.83815 3.388 7.0424 2.43536 6.93847C1.51371 6.83793 0.621581 7.45363 0.405628 8.35518C0.146971 9.4349 0.846299 10.4486 1.86531 10.6491C2.00294 10.6762 2.11033 10.7843 2.14539 10.9202L3.44238 15.9451C3.61366 16.6088 4.2123 17.0725 4.89766 17.0725H19.1018C19.7872 17.0725 20.3858 16.6088 20.5571 15.9451L21.8541 10.9202C21.8891 10.7843 21.9965 10.6762 22.1342 10.6491C23.1532 10.4486 23.8525 9.43485 23.5938 8.35518Z" fill="#CCE3FF"/>
<path d="M18.0115 11.4363H5.98758C5.57255 11.4363 5.23608 11.7727 5.23608 12.1878V13.6907C5.23608 14.1058 5.57255 14.4422 5.98758 14.4422H18.0115C18.4265 14.4422 18.763 14.1058 18.763 13.6907V12.1878C18.763 11.7727 18.4265 11.4363 18.0115 11.4363Z" fill="#CCE3FF"/>
<path d="M18.5754 15.9455H6.01239C5.3328 15.9455 4.73781 15.4895 4.56109 14.8333L2.80764 8.32125C2.64386 7.71309 2.19213 7.24312 1.62306 7.04053C1.036 7.24612 0.555813 7.72828 0.405626 8.35546C0.146266 9.43814 0.850141 10.4544 1.87366 10.651C2.00842 10.6769 2.11108 10.7876 2.14534 10.9204L3.44233 15.9454C3.61361 16.609 4.21225 17.0728 4.89761 17.0728H18.5754C18.8867 17.0728 19.139 16.8204 19.139 16.5091C19.139 16.1978 18.8866 15.9455 18.5754 15.9455Z" fill="#80B8FF"/>
<path d="M18.0115 13.3152H5.98758C5.57255 13.3152 5.23608 12.9788 5.23608 12.5637V13.691C5.23608 14.106 5.57255 14.4425 5.98758 14.4425H18.0115C18.4265 14.4425 18.763 14.106 18.763 13.691V12.5637C18.763 12.9788 18.4265 13.3152 18.0115 13.3152Z" fill="#80B8FF"/>
<path d="M23.936 8.27372C23.6811 7.20956 22.6222 6.46973 21.5263 6.5894C21.3561 6.60797 21.1924 6.64608 21.0363 6.70148L21.303 5.10164C21.4291 4.34451 21.217 3.5744 20.7208 2.9887C20.2247 2.40304 19.5 2.06714 18.7324 2.06714H5.26771C4.50014 2.06714 3.7754 2.40304 3.27928 2.9887C2.7831 3.5744 2.5709 4.34451 2.69714 5.10164L2.96376 6.70148C2.80762 6.64608 2.64393 6.60792 2.47373 6.58936C1.37742 6.46992 0.318886 7.20961 0.0639795 8.27367C-0.0807236 8.87775 0.0218857 9.49439 0.352964 10.0101C0.67987 10.5193 1.20646 10.8781 1.79629 10.994C1.79629 10.994 1.80281 10.9992 1.80515 11.0084L3.10218 16.0334C3.24595 16.5903 3.63351 17.0328 4.13273 17.259L3.46434 21.0807C3.42721 21.2928 3.48539 21.5091 3.62395 21.6739C3.76251 21.8388 3.96543 21.9333 4.18078 21.9333H4.61039C4.90495 21.9333 5.16848 21.7576 5.28173 21.4858L6.97396 17.4244H17.0262L18.7184 21.4858C18.8317 21.7577 19.0952 21.9334 19.3897 21.9334H19.8194C20.0347 21.9334 20.2376 21.8388 20.3761 21.674C20.5147 21.5091 20.5729 21.2929 20.5358 21.0807L19.8674 17.259C20.3666 17.0326 20.7541 16.5902 20.8979 16.0333L22.1948 11.0084C22.1972 10.9992 22.2024 10.9944 22.2024 10.9944C22.7937 10.8781 23.3203 10.5193 23.6471 10.0101C23.9781 9.49444 24.0807 8.87775 23.936 8.27372ZM4.63265 21.2154C4.6289 21.2244 4.62014 21.2303 4.61034 21.2303H4.18073C4.17764 21.2303 4.16948 21.2302 4.16221 21.2216C4.15495 21.213 4.15635 21.2049 4.15692 21.2019L4.81785 17.4227C4.84443 17.4238 4.8711 17.4244 4.89792 17.4244H6.21225L4.63265 21.2154ZM19.8432 21.2019C19.8437 21.2049 19.8451 21.213 19.8379 21.2217C19.8306 21.2303 19.8225 21.2303 19.8194 21.2303H19.3897C19.38 21.2303 19.3712 21.2244 19.3674 21.2154L17.7878 17.4245H19.1021C19.1289 17.4245 19.1556 17.4239 19.1822 17.4227L19.8432 21.2019ZM23.0554 9.63028C22.8314 9.97922 22.471 10.225 22.0666 10.3046C21.8002 10.357 21.5833 10.5643 21.514 10.8327L20.217 15.8577C20.0857 16.3662 19.6272 16.7213 19.102 16.7213H4.89792C4.37273 16.7213 3.91425 16.3662 3.783 15.8577L2.48601 10.8327C2.41673 10.5643 2.19984 10.357 1.93345 10.3046C1.52906 10.225 1.16864 9.97922 0.94462 9.63028C0.71798 9.27722 0.648042 8.85361 0.747698 8.43745C0.921698 7.71112 1.64643 7.20675 2.39742 7.28826C3.24876 7.38112 3.71095 8.14758 3.85964 8.83383C3.86039 8.8372 3.86118 8.84062 3.86198 8.84395L4.88498 12.9699V13.691C4.88498 14.2993 5.37984 14.7941 5.98804 14.7941H15.3818C15.5759 14.7941 15.7334 14.6367 15.7334 14.4425C15.7334 14.2484 15.5759 14.091 15.3818 14.091H5.98809C5.76754 14.091 5.58815 13.9115 5.58815 13.691V12.1881C5.58815 11.9675 5.76759 11.7881 5.98809 11.7881H7.8667C8.06085 11.7881 7.51514 11.6307 7.51514 11.4366C7.51514 11.2424 8.06085 11.085 7.8667 11.085H5.98809C5.6895 11.085 5.41842 11.2044 5.21962 11.3978L4.5457 8.6797C4.41281 8.0707 4.13634 7.56295 3.75942 7.19873L3.3906 4.98595C3.29845 4.43311 3.45337 3.8707 3.81567 3.44311C4.17796 3.01542 4.70718 2.77017 5.26762 2.77017H18.7323C19.2928 2.77017 19.822 3.01542 20.1843 3.44311C20.5465 3.8708 20.7015 4.43315 20.6093 4.98595L20.2406 7.19859C19.8636 7.56286 19.5871 8.07065 19.4542 8.6797L18.7802 11.3977C18.5814 11.2044 18.3104 11.085 18.0119 11.085H7.8667C7.67254 11.085 7.51514 11.2424 7.51514 11.4366C7.51514 11.6307 7.67254 11.7881 7.8667 11.7881H18.0119C18.2324 11.7881 18.4118 11.9675 18.4118 12.1881V13.691C18.4118 13.9116 18.2324 14.091 18.0119 14.091H15.3818C15.1876 14.091 15.7334 14.2484 15.7334 14.4425C15.7334 14.6367 15.1876 14.7941 15.3818 14.7941H18.0119C18.6201 14.7941 19.1149 14.2992 19.1149 13.691V12.9696L20.1378 8.84395C20.1387 8.84058 20.1395 8.8372 20.1402 8.83383C20.2889 8.14753 20.7511 7.38117 21.6024 7.28826C22.3535 7.20637 23.0781 7.71112 23.2521 8.43745C23.352 8.85361 23.282 9.27722 23.0554 9.63028Z" fill="#0072FF"/>
<path d="M12.0038 6.15185C12.198 6.15185 12.3554 5.99444 12.3554 5.80029C12.3554 5.60614 12.198 5.44873 12.0038 5.44873H12.0001C11.8059 5.44873 11.6504 5.60614 11.6504 5.80029C11.6504 5.99444 11.8097 6.15185 12.0038 6.15185Z" fill="#0072FF"/>
<path d="M10.1215 8.40625C10.3157 8.40625 10.4731 8.24884 10.4731 8.05469C10.4731 7.86053 10.3157 7.70312 10.1215 7.70312H10.1178C9.9236 7.70312 9.76807 7.86053 9.76807 8.05469C9.76807 8.24884 9.92735 8.40625 10.1215 8.40625Z" fill="#0072FF"/>
<path d="M13.8788 8.40625C14.073 8.40625 14.2304 8.24884 14.2304 8.05469C14.2304 7.86053 14.073 7.70312 13.8788 7.70312H13.8751C13.6809 7.70312 13.5254 7.86053 13.5254 8.05469C13.5254 8.24884 13.6846 8.40625 13.8788 8.40625Z" fill="#0072FF"/>
<path d="M15.7612 6.15185C15.9553 6.15185 16.1127 5.99444 16.1127 5.80029C16.1127 5.60614 15.9553 5.44873 15.7612 5.44873H15.7574C15.5632 5.44873 15.4077 5.60614 15.4077 5.80029C15.4078 5.99444 15.567 6.15185 15.7612 6.15185Z" fill="#0072FF"/>
<path d="M8.24284 6.15185C8.437 6.15185 8.5944 5.99444 8.5944 5.80029C8.5944 5.60614 8.437 5.44873 8.24284 5.44873H8.23909C8.04494 5.44873 7.8894 5.60614 7.8894 5.80029C7.88945 5.99444 8.04873 6.15185 8.24284 6.15185Z" fill="#0072FF"/>
</g>
<defs>
<clipPath id="clip0">
<rect width="24" height="24" fill="white"/>
</clipPath>
</defs>
</svg>
