<svg width="24" height="24" viewBox="0 0 24 24" fill="none" xmlns="http://www.w3.org/2000/svg">
<g clip-path="url(#clip0)">
<path d="M10.1041 9.1064L8.82319 4.98688C8.67348 4.5055 8.58964 4.00599 8.57386 3.50226L8.51497 1.61133H5.99088L5.93198 3.50226C5.91621 4.00617 5.83236 4.5055 5.68266 4.98688L4.40171 9.1064C4.35273 9.26424 4.32778 9.42867 4.32778 9.59401V13.6577C4.32778 13.7095 4.33016 13.7615 4.33511 13.8131L4.81983 18.9097C4.83762 19.0972 4.82258 19.2862 4.77543 19.4685L4.29402 21.3258C4.16468 21.9971 4.68003 22.6196 5.36471 22.6196H9.14113C9.826 22.6196 10.3412 21.9971 10.2118 21.3258L9.73042 19.4685C9.68327 19.2862 9.66823 19.0972 9.68602 18.9097L10.1707 13.8131C10.1757 13.7615 10.1781 13.7095 10.1781 13.6577V9.59401C10.1783 9.42867 10.1531 9.26424 10.1041 9.1064Z" fill="white"/>
<path d="M10.2118 21.326L9.73054 19.4686C9.68321 19.2864 9.66816 19.0973 9.68614 18.9098L10.1707 13.8132C10.1756 13.7616 10.1782 13.7097 10.1782 13.6577V9.59407C10.1782 9.42873 10.1531 9.26448 10.1041 9.10646L8.82313 4.98695C8.67342 4.50556 8.58958 4.00623 8.5738 3.50232L8.51491 1.61157H5.99081L5.93192 3.50232C5.92568 3.6988 5.90899 3.89472 5.8822 4.08899C5.92403 4.39295 5.99045 4.69343 6.08181 4.98695L7.36276 9.10646C7.41174 9.26448 7.43669 9.42873 7.43669 9.59407V13.6577C7.43669 13.7097 7.43431 13.7616 7.42935 13.8132L6.94464 18.9098C6.92685 19.0973 6.94189 19.2864 6.98904 19.4686L7.47045 21.326C7.59979 21.9971 7.08444 22.6199 6.39975 22.6199H9.14107C9.82594 22.6199 10.3411 21.9971 10.2118 21.326Z" fill="#CCE3FF"/>
<path d="M10.1041 9.10646L8.82317 4.98694C8.75382 4.76428 8.69933 4.5376 8.65861 4.30835H5.84739C5.80648 4.5376 5.75199 4.76428 5.68264 4.98694L4.40169 9.10646C4.35271 9.26429 4.32776 9.42872 4.32776 9.59407V13.6577C4.32776 13.7096 4.33014 13.7616 4.3351 13.8132L4.81981 18.9098C4.8376 19.0973 4.82256 19.2862 4.77541 19.4684L4.51673 20.4667C4.72055 20.7082 5.02896 20.882 5.3647 20.882H9.14111C9.48933 20.882 9.79315 20.7207 9.99129 20.4742L9.73058 19.4684C9.68343 19.2862 9.66839 19.0971 9.68619 18.9098L10.1709 13.8132C10.1759 13.7616 10.1782 13.7096 10.1782 13.6577V9.59407C10.1782 9.42872 10.1531 9.26429 10.1041 9.10646Z" fill="#E6EEF9"/>
<path d="M10.161 9.36006C10.1487 9.27418 10.13 9.1894 10.1041 9.10646L9.2501 6.36005L8.82318 4.98694C8.82281 4.98566 8.82245 4.98438 8.82208 4.98291C8.80483 4.92743 8.7885 4.87158 8.77309 4.81555C8.76043 4.76959 8.74869 4.72345 8.73732 4.67712C8.73475 4.66724 8.732 4.65753 8.72961 4.64764C8.70228 4.5354 8.67879 4.42206 8.65861 4.30835H5.91711C5.95766 4.53742 6.01252 4.7641 6.08186 4.98694L7.36281 9.10646C7.41179 9.26429 7.43693 9.42872 7.43693 9.59407V13.6577C7.43693 13.7096 7.43436 13.7614 7.42941 13.8132L6.94488 18.9098C6.92708 19.0971 6.94194 19.2862 6.98928 19.4684L7.35547 20.882H9.14112C9.48934 20.882 9.79315 20.7207 9.99111 20.4742L9.73059 19.4684C9.71995 19.4272 9.71114 19.3857 9.70381 19.3439C9.69482 19.2932 9.68803 19.2423 9.68399 19.191C9.68216 19.1676 9.68087 19.1443 9.67996 19.1209C9.67739 19.0506 9.6794 18.9801 9.68619 18.9098L10.1709 13.8132C10.1759 13.7614 10.1782 13.7096 10.1782 13.6577V9.59407C10.1782 9.5157 10.1722 9.43751 10.161 9.36006Z" fill="#CCE3FF"/>
<path d="M8.52512 2.21869H5.98047C5.70308 2.21869 5.47815 1.9942 5.47815 1.71735V0.811158C5.47815 0.534302 5.70308 0.309814 5.98047 0.309814H8.52512C8.8027 0.309814 9.02762 0.534302 9.02762 0.811158V1.71735C9.02762 1.9942 8.8027 2.21869 8.52512 2.21869Z" fill="#80B8FF"/>
<path d="M4.32776 9.59424V13.6579C4.32776 13.7097 4.33014 13.7617 4.3351 13.8134L4.37436 14.2263H10.1315L10.1707 13.8134C10.1757 13.7617 10.1782 13.7097 10.1782 13.6579V9.59424C10.1782 9.50525 10.1703 9.41663 10.156 9.3291H4.34996C4.33546 9.41663 4.32776 9.50525 4.32776 9.59424Z" fill="#CCE3FF"/>
<path d="M10.1707 13.8134C10.1757 13.7617 10.1782 13.7099 10.1782 13.6579V9.59424C10.1782 9.55853 10.1766 9.52301 10.1742 9.48749C10.1738 9.48181 10.1735 9.47632 10.1731 9.47064C10.1705 9.43823 10.1669 9.40582 10.1625 9.3736C10.1612 9.36517 10.1601 9.35657 10.1588 9.34814C10.1579 9.34174 10.1562 9.33551 10.1553 9.3291H7.41472C7.42903 9.41681 7.43674 9.50525 7.43674 9.59424V13.6579C7.43674 13.7099 7.43435 13.7617 7.4294 13.8134L7.39014 14.2265H10.1315L10.1707 13.8134Z" fill="#80B8FF"/>
<path d="M18.5007 20.7822C18.3927 20.8923 18.2421 20.962 18.0724 20.962H14.0097C13.84 20.962 13.6894 20.8923 13.5814 20.7822C13.5325 21.2325 13.4729 21.6165 13.4188 21.9146C13.3522 22.282 13.6355 22.6197 14.0097 22.6197H18.0724C18.4466 22.6197 18.7299 22.282 18.6633 21.9146C18.6092 21.6165 18.5495 21.2325 18.5007 20.7822Z" fill="white"/>
<path d="M18.6419 21.7932C18.6386 21.7745 18.6353 21.7547 18.6322 21.7353C18.6281 21.712 18.6243 21.6892 18.6204 21.6652C18.616 21.639 18.6118 21.6119 18.6074 21.5848C18.6047 21.5667 18.6017 21.5491 18.599 21.5306C18.5942 21.4991 18.5892 21.4665 18.5845 21.4337C18.5823 21.4191 18.5801 21.4046 18.5779 21.3896C18.5726 21.3535 18.5674 21.3165 18.5621 21.279C18.5604 21.2669 18.5588 21.2548 18.5571 21.2426C18.5516 21.2021 18.5461 21.1609 18.5408 21.1188C18.5395 21.1094 18.5384 21.1001 18.5371 21.0906C18.5315 21.0455 18.5258 20.9999 18.5203 20.9532C18.5195 20.9472 18.5188 20.941 18.5182 20.9349C18.5124 20.8849 18.5065 20.8342 18.5008 20.7822C18.3928 20.8923 18.2421 20.962 18.0726 20.962H15.7701C15.8921 21.9858 16.0626 22.6199 16.0626 22.6199H18.0726C18.4467 22.6199 18.73 22.282 18.6634 21.9146C18.6562 21.8756 18.6491 21.8349 18.6419 21.7932Z" fill="#CCE3FF"/>
<path d="M12.7364 9.14111C12.6352 9.14111 12.5438 9.2019 12.5055 9.29565C12.4315 9.47711 12.328 9.83087 12.3071 10.4185H19.7748C19.7539 9.83087 19.6505 9.47711 19.5765 9.29565C19.5384 9.2019 19.4468 9.14111 19.3455 9.14111H12.7364Z" fill="white"/>
<path d="M21.5785 22.2839H2.47442C2.20014 22.2839 1.97778 22.5059 1.97778 22.7796V23.1008C1.97778 23.3745 2.20014 23.5966 2.47442 23.5966H21.5785C21.853 23.5966 22.0753 23.3745 22.0753 23.1008V22.7796C22.0751 22.5059 21.8528 22.2839 21.5785 22.2839Z" fill="#80B8FF"/>
<path d="M21.5784 21.9273H19.0253C19.0229 21.9018 19.0192 21.8766 19.0146 21.8511C18.8046 20.693 18.4208 17.6688 19.3926 14.6045C19.8569 13.1408 20.1061 11.8689 20.1336 10.8241C20.1374 10.6753 20.1363 10.5372 20.1319 10.4081V10.4057C20.1319 10.4037 20.1317 10.4019 20.1316 10.3999C20.1306 10.3702 20.1292 10.3413 20.1277 10.3125C20.1272 10.3017 20.1266 10.2907 20.1259 10.2801C20.1242 10.2499 20.1224 10.2202 20.1202 10.1911C20.1196 10.1842 20.1191 10.177 20.1185 10.1702C20.0917 9.82381 20.0373 9.55922 19.978 9.36275L19.9771 9.36C19.9729 9.34591 19.9685 9.33217 19.9642 9.31881C19.9615 9.31057 19.9589 9.30251 19.9563 9.29463C19.9529 9.28438 19.9496 9.27431 19.9461 9.26424C19.9422 9.25307 19.9384 9.24245 19.9345 9.23183C19.9319 9.22505 19.9294 9.2181 19.927 9.21132C19.9204 9.19393 19.9138 9.17708 19.9074 9.16133C19.9031 9.1509 19.8984 9.14064 19.8936 9.13057C19.8918 9.12691 19.8903 9.12306 19.8885 9.1194C19.8866 9.11556 19.8844 9.11208 19.8824 9.10823C19.7855 8.92348 19.6012 8.8019 19.3916 8.78633C19.3867 8.78597 19.3816 8.78597 19.3764 8.78578C19.3661 8.78523 19.3559 8.7845 19.3456 8.7845H12.7363C12.6435 8.7845 12.5543 8.80538 12.4741 8.84346C12.3408 8.90682 12.2329 9.01833 12.1744 9.16133L12.1722 9.16719C12.1667 9.18074 12.1612 9.19503 12.1555 9.20986C12.1523 9.21828 12.149 9.22725 12.1459 9.23622C12.1428 9.24446 12.1397 9.25289 12.1368 9.26168C12.1325 9.27339 12.1285 9.28566 12.1243 9.29811C12.1226 9.30324 12.121 9.30837 12.1193 9.31368C12.0538 9.51528 11.9918 9.7958 11.963 10.1737C11.9626 10.1785 11.9623 10.1832 11.9619 10.188C11.9595 10.2188 11.9575 10.2503 11.9557 10.2823C11.9553 10.2909 11.9548 10.2997 11.9544 10.3085C11.9527 10.3391 11.9513 10.3696 11.9502 10.4013L11.95 10.4059V10.4077C11.9454 10.5368 11.9445 10.6751 11.9483 10.8243C11.9757 11.8689 12.225 13.1408 12.6892 14.6045C13.6612 17.6688 13.2773 20.6932 13.0673 21.8511C13.0627 21.8766 13.059 21.902 13.0565 21.9273H10.5325C10.594 21.7125 10.6061 21.4836 10.5626 21.2588C10.5612 21.2514 10.5597 21.2441 10.5577 21.2368L10.0765 19.3796C10.0396 19.2369 10.0278 19.0902 10.0418 18.9438L10.4869 14.2636L10.487 14.2619L10.5263 13.8472C10.5324 13.7846 10.5355 13.7209 10.5355 13.6579V9.5942C10.5355 9.39296 10.505 9.19338 10.4452 9.00093L9.16427 4.88142C9.14794 4.82887 9.13253 4.77595 9.11786 4.72285C9.10556 4.67817 9.09419 4.63313 9.083 4.58772C9.08116 4.58076 9.07933 4.5738 9.07749 4.56684C9.05199 4.46119 9.02943 4.35426 9.01016 4.24622C8.96576 3.99738 8.93898 3.7447 8.93109 3.49146L8.89972 2.48841C9.18647 2.34906 9.38498 2.05628 9.38498 1.71735V0.811159C9.3848 0.338013 8.99915 -0.046875 8.52508 -0.046875H5.98044C5.50637 -0.046875 5.12091 0.338013 5.12091 0.811159V1.71735C5.12091 2.05628 5.31924 2.34906 5.60599 2.48841L5.5748 3.49128C5.56691 3.74488 5.53994 3.9972 5.49536 4.24659C5.4761 4.35444 5.45372 4.46137 5.42821 4.56666C5.42638 4.5738 5.42455 4.58076 5.42271 4.5879C5.41152 4.63313 5.39996 4.67835 5.38767 4.72303C5.37373 4.7732 5.35923 4.82319 5.34382 4.873C5.3429 4.87574 5.34217 4.87867 5.34144 4.88142L5.01175 5.9416C4.95323 6.12965 5.05872 6.32942 5.24714 6.38783C5.43574 6.44606 5.63571 6.34096 5.69424 6.15291L6.02392 5.09272C6.0452 5.02387 6.0652 4.95448 6.0841 4.8849C6.08612 4.87757 6.08795 4.87007 6.08979 4.86256C6.10703 4.79829 6.12318 4.73384 6.13822 4.66902L6.13914 4.66517H8.36675L8.3673 4.66755C8.38253 4.73365 8.39904 4.79957 8.41647 4.86512C8.41831 4.87153 8.41978 4.87794 8.42143 4.88435C8.44032 4.95411 8.46032 5.02369 8.48179 5.09272L9.68824 8.97237H4.81746L5.69017 6.16519C5.7487 5.97714 5.43555 6.44624 5.24714 6.38783C5.05853 6.32942 5.07028 5.75355 5.01175 5.9416L4.06031 9.00093C4.0005 9.19319 3.97023 9.39278 3.97023 9.5942V13.6579C3.97023 13.7209 3.97316 13.7844 3.97922 13.847L4.01866 14.2625L4.46393 18.9436C4.47787 19.0901 4.46613 19.2367 4.42925 19.3794L3.94784 21.2368C3.94601 21.2439 3.94436 21.2513 3.94289 21.2586C3.89959 21.4834 3.9117 21.7123 3.97316 21.9273H2.47426C2.00331 21.9273 1.62024 22.3096 1.62024 22.7796V23.1008C1.62024 23.5707 2.00331 23.9532 2.47426 23.9532H21.5784C22.0493 23.9532 22.4324 23.5708 22.4324 23.1008V22.7796C22.4324 22.3096 22.0493 21.9273 21.5784 21.9273ZM6.25839 3.95197C6.2738 3.80622 6.28426 3.6601 6.28884 3.51343L6.3182 2.5752H8.18751L8.21668 3.51343C8.22127 3.6601 8.23173 3.80622 8.24714 3.95197H6.25839ZM8.6702 1.71735C8.6702 1.79572 8.60728 1.85962 8.52912 1.86164H8.52802C8.52398 1.86182 8.51976 1.86182 8.51573 1.862H5.98925C5.98466 1.86182 5.98117 1.86182 5.97751 1.86182C5.89898 1.86017 5.83532 1.79609 5.83532 1.71735V0.811159C5.83532 0.731325 5.90045 0.666322 5.98044 0.666322H8.52508C8.60507 0.666322 8.6702 0.731142 8.6702 0.811159V1.71735ZM12.6622 10.7752H13.5415C13.7389 10.7752 13.8987 10.6156 13.8987 10.4185C13.8987 10.2217 13.7388 10.062 13.5415 10.062H12.6917C12.6928 10.0523 12.6939 10.0424 12.6952 10.0329C12.6971 10.0181 12.6989 10.0033 12.7009 9.98879C12.7029 9.97341 12.7051 9.95821 12.7073 9.94338C12.7095 9.92873 12.7117 9.91445 12.7141 9.90035C12.7163 9.8868 12.7185 9.87325 12.7207 9.86025C12.7233 9.84615 12.7259 9.83242 12.7284 9.81905C12.7306 9.80715 12.7328 9.79525 12.7352 9.78389C12.738 9.77016 12.7407 9.75716 12.7435 9.74434C12.7457 9.73409 12.7479 9.72365 12.7501 9.71376C12.7532 9.70076 12.7561 9.6885 12.7592 9.67623C12.7613 9.66762 12.7635 9.65865 12.7655 9.65041C12.7688 9.63778 12.7719 9.62624 12.7752 9.61452C12.777 9.60738 12.7791 9.60006 12.7811 9.59328C12.7846 9.58083 12.788 9.56929 12.7915 9.55794C12.7932 9.55281 12.7947 9.54732 12.7963 9.54238C12.8013 9.52645 12.8062 9.51162 12.811 9.4977H19.2709C19.2757 9.51143 19.2807 9.52626 19.2856 9.54201C19.2878 9.54897 19.29 9.55703 19.2924 9.56435C19.2951 9.57351 19.2979 9.58248 19.3006 9.59218C19.3032 9.60115 19.3058 9.61123 19.3085 9.62075C19.3109 9.63008 19.3135 9.63906 19.3161 9.64894C19.3188 9.65938 19.3216 9.67073 19.3243 9.68209C19.3267 9.69179 19.3291 9.7015 19.3313 9.71175C19.3342 9.72383 19.337 9.73684 19.3397 9.74947C19.3419 9.75991 19.3441 9.77034 19.3463 9.78115C19.3491 9.79488 19.3518 9.80916 19.3544 9.82363C19.3566 9.83461 19.3586 9.84578 19.3606 9.85714C19.3634 9.87252 19.366 9.88845 19.3685 9.90456C19.3704 9.9161 19.3722 9.92782 19.374 9.9399C19.3766 9.95693 19.3792 9.97451 19.3816 9.99245C19.3832 10.0044 19.3847 10.0164 19.3861 10.0287C19.3876 10.0395 19.3889 10.0509 19.3902 10.062H13.5415C13.3441 10.062 13.8987 10.2217 13.8987 10.4185C13.8987 10.6156 13.3441 10.7752 13.5415 10.7752H19.4195C19.4027 11.5646 19.2379 12.7295 18.7114 14.3894C17.9729 16.7176 17.9643 18.9808 18.1213 20.6001C18.1061 20.6033 18.09 20.6054 18.0724 20.6054H14.0096C13.9919 20.6054 13.9758 20.6033 13.9607 20.6001C14.1176 18.9808 14.109 16.7176 13.3705 14.3894C12.844 12.7295 12.6793 11.5646 12.6622 10.7752ZM18.3024 21.9273H13.7793C13.8123 21.7416 13.8457 21.5347 13.8771 21.3086C13.9208 21.3146 13.9646 21.3186 14.0096 21.3186H18.0722C18.1171 21.3186 18.1612 21.3146 18.2046 21.3086C18.2362 21.5347 18.2694 21.7416 18.3024 21.9273ZM4.68482 9.68575H9.82071V13.6579C9.82071 13.6983 9.81869 13.7393 9.81483 13.7796L9.8064 13.8697H4.69913L4.69069 13.7796C4.68684 13.7393 4.68482 13.6983 4.68482 13.6579V9.68575ZM9.38461 19.5579L9.59449 20.3683C9.46644 20.4694 9.30792 20.5254 9.14097 20.5254H5.36455C5.20861 20.5254 5.04863 20.4645 4.91397 20.3577L5.1211 19.5579C5.17889 19.3347 5.19723 19.1054 5.1754 18.8762L4.76701 14.5829H9.73851L9.33031 18.8762C9.30847 19.1054 9.32664 19.3349 9.38461 19.5579ZM4.64299 21.4034L4.72665 21.0801C4.92717 21.1824 5.14623 21.2386 5.36455 21.2386H9.14097C9.367 21.2386 9.58514 21.1866 9.78144 21.0898L9.86272 21.4034C9.89593 21.5889 9.85666 21.7731 9.75613 21.9273H4.7494C4.64886 21.7731 4.60978 21.5891 4.64299 21.4034ZM21.7178 23.1008C21.7178 23.1775 21.6552 23.24 21.5784 23.24H2.47426C2.39739 23.24 2.33483 23.1775 2.33483 23.1008V22.7796C2.33483 22.7029 2.39739 22.6405 2.47426 22.6405H21.5784C21.6552 22.6405 21.7178 22.7029 21.7178 22.7796V23.1008Z" fill="#0072FF"/>
<path d="M19.6431 21.7656H12.3571C12.2708 21.7656 12.2008 21.6956 12.2008 21.6094V21.0098C12.2008 20.9235 12.2708 20.8535 12.3571 20.8535H19.6431C19.7294 20.8535 19.7994 20.9235 19.7994 21.0098V21.6094C19.7994 21.6956 19.7294 21.7656 19.6431 21.7656Z" fill="white"/>
<path d="M15.0796 8.3306H13.2274V6.98422C13.2274 6.57021 13.563 6.23462 13.977 6.23462H14.33C14.7441 6.23462 15.0796 6.57021 15.0796 6.98422V8.3306Z" fill="#80B8FF"/>
<path d="M14.1511 7.50368C14.3268 7.50368 14.4691 7.36131 14.4691 7.18568C14.4691 7.01005 14.3268 6.86768 14.1511 6.86768C13.9755 6.86768 13.8331 7.01005 13.8331 7.18568C13.8331 7.36131 13.9755 7.50368 14.1511 7.50368Z" fill="#E2E8ED"/>
<path d="M19.6431 9.24291H12.3571C12.2708 9.24291 12.2008 9.17294 12.2008 9.08666V8.48706C12.2008 8.40078 12.2708 8.33081 12.3571 8.33081H19.6431C19.7294 8.33081 19.7994 8.40078 19.7994 8.48706V9.08666C19.7994 9.17294 19.7294 9.24291 19.6431 9.24291Z" fill="white"/>
<path d="M19.7993 8.48707V9.08626C19.7993 9.1727 19.7292 9.24279 19.6428 9.24279H17.5925V8.33057H19.6428C19.7292 8.33057 19.7993 8.40063 19.7993 8.48707Z" fill="#CCE3FF"/>
<path d="M19.7993 21.0095V21.6087C19.7993 21.6952 19.7292 21.7653 19.6428 21.7653H17.5925V20.853H19.6428C19.7292 20.853 19.7993 20.9231 19.7993 21.0095Z" fill="#CCE3FF"/>
<path d="M19.205 9.24292H16.4056H15.5945H12.795L11.8351 10.6175C11.8154 10.6456 11.8049 10.6791 11.8049 10.7133V12.8414V17.2548V19.3829C11.8049 19.4172 11.8155 19.4506 11.8351 19.4787L12.795 20.8533H15.5945H16.4056H19.205L20.165 19.4787C20.1846 19.4506 20.1951 19.4171 20.1951 19.3829V17.2547V12.8414V10.7133C20.1951 10.679 20.1846 10.6456 20.165 10.6175L19.205 9.24292Z" fill="#CCE3FF"/>
<path d="M20.1951 10.7133V19.3829C20.1951 19.4171 20.1845 19.4506 20.1648 19.4787L19.2049 20.853H17.5924L18.5525 19.4787C18.5723 19.4505 18.5826 19.4171 18.5826 19.3829V10.7133C18.5826 10.6789 18.5723 10.6454 18.5525 10.6175L17.5924 9.24292H19.2049L20.1648 10.6175C20.1845 10.6454 20.1951 10.6789 20.1951 10.7133Z" fill="#80B8FF"/>
<path d="M13.3588 10.6501C13.3588 10.6501 12.5761 12.4318 13.0144 15.5671C13.0144 15.5671 13.5153 18.362 13.3588 19.4141H15.2996C15.2996 19.4141 15.7067 18.2671 15.0589 15.5682C14.6817 13.9963 14.7263 12.1181 15.258 10.7547C15.2716 10.72 15.2854 10.6851 15.2996 10.6501H13.3588Z" fill="white"/>
<path d="M20.4299 10.6503C20.4299 10.5817 20.4003 10.5202 20.3535 10.4773L19.6549 9.47702C19.865 9.47052 20.0341 9.29799 20.0341 9.08633V8.48726C20.0341 8.27148 19.8585 8.09595 19.6427 8.09595H15.3143V6.98569C15.3143 6.44219 14.8721 6 14.3286 6H13.9782C13.4347 6 12.9925 6.44219 12.9925 6.98569V8.09595H12.3572C12.1414 8.09595 11.9659 8.27148 11.9659 8.48726V9.0863C11.9659 9.29796 12.1349 9.47049 12.345 9.47699L11.6464 10.4774C11.5996 10.5203 11.5701 10.5818 11.5701 10.6503C11.5701 10.6595 11.5708 10.6686 11.5718 10.6776C11.5708 10.6894 11.5701 10.7012 11.5701 10.7132V19.3828C11.5701 19.3888 11.5705 19.3948 11.5708 19.4007C11.5705 19.4052 11.5701 19.4097 11.5701 19.4142C11.5701 19.449 11.5778 19.482 11.5915 19.5117C11.6036 19.5474 11.6205 19.5815 11.6425 19.613L12.345 20.619C12.1349 20.6255 11.9659 20.798 11.9659 21.0097V21.6087C11.9659 21.8245 12.1414 22 12.3572 22H19.6427C19.8585 22 20.0341 21.8245 20.0341 21.6087V21.0097C20.0341 20.798 19.865 20.6255 19.6549 20.619L20.3575 19.6129C20.3794 19.5814 20.3963 19.5474 20.4084 19.5118C20.4221 19.482 20.4299 19.4491 20.4299 19.4142C20.4299 19.4096 20.4294 19.4052 20.4292 19.4007C20.4294 19.3947 20.4299 19.3888 20.4299 19.3828V10.7132C20.4299 10.7013 20.4292 10.6894 20.4282 10.6776C20.4292 10.6687 20.4299 10.6596 20.4299 10.6503ZM18.1757 19.1795C18.046 19.1795 17.9409 19.2846 17.9409 19.4143C17.9409 19.5439 18.046 19.649 18.1757 19.649H19.7595L19.0825 20.6184H12.9173L12.2404 19.649H13.3587H15.2995H18.1757C18.3054 19.649 17.9409 19.5439 17.9409 19.4143C17.9409 19.2846 18.3054 19.1795 18.1757 19.1795H15.5938C15.6814 18.6631 15.7617 17.4911 15.2872 15.5136C15.1498 14.9413 15.0678 14.3101 15.05 13.6883C15.0463 13.5587 14.9393 13.4571 14.8086 13.4603C14.679 13.464 14.5769 13.5721 14.5806 13.7017C14.5996 14.3648 14.6837 15.0112 14.8306 15.6231C15.3192 17.659 15.1921 18.7902 15.1158 19.1795H13.6167C13.6803 17.9891 13.2741 15.6862 13.2463 15.5304C12.893 12.9966 13.3583 11.3565 13.5212 10.8851H14.9604C14.842 11.2309 14.7495 11.6093 14.6849 12.0133C14.6644 12.1414 14.7516 12.2618 14.8797 12.2823C15.0078 12.3028 15.1281 12.2156 15.1486 12.0875C15.2187 11.6489 15.3237 11.2451 15.46 10.8851H19.9603V19.1795H18.1757ZM15.2995 10.4155H13.3587H12.2624L12.9174 9.47765H19.0825L19.7375 10.4155H15.2995ZM13.0252 10.8851C12.8173 11.5451 12.4424 13.1719 12.7818 15.5998C12.7822 15.6028 12.7827 15.6058 12.7833 15.6087C12.7879 15.6346 13.2183 18.0556 13.1468 19.1795H12.0397V10.8851H13.0252ZM13.462 6.98569C13.462 6.7011 13.6936 6.46957 13.9782 6.46957H14.3286C14.6132 6.46957 14.8447 6.7011 14.8447 6.98569V8.09595H13.4621L13.462 6.98569ZM12.4354 8.56555H13.2273H15.0795H19.5645V9.00808H19.205H12.795H12.4354V8.56555ZM19.5645 21.5305H12.4354V21.088H12.795H19.205H19.5645V21.5305Z" fill="#0072FF"/>
<path d="M14.1512 6.63257C13.8464 6.63257 13.5984 6.88054 13.5984 7.18535C13.5984 7.49017 13.8464 7.73814 14.1512 7.73814C14.456 7.73814 14.704 7.49017 14.704 7.18535C14.704 6.88054 14.456 6.63257 14.1512 6.63257ZM14.1512 7.26857C14.1053 7.26857 14.068 7.23123 14.068 7.18535C14.068 7.13945 14.1053 7.10213 14.1512 7.10213C14.197 7.10213 14.2344 7.13945 14.2344 7.18535C14.2344 7.23123 14.197 7.26857 14.1512 7.26857Z" fill="#0072FF"/>
</g>
<defs>
<clipPath id="clip0">
<rect width="24" height="24" fill="white"/>
</clipPath>
</defs>
</svg>
