<svg width="24" height="24" viewBox="0 0 24 24" fill="none" xmlns="http://www.w3.org/2000/svg">
<path d="M19.18 0.375977H12.0001C11.5574 0.375977 11.1985 0.734852 11.1985 1.17763V2.78099L19.2559 1.24124C19.4641 1.20445 19.616 1.02351 19.616 0.811961C19.616 0.571117 19.4208 0.375977 19.18 0.375977Z" fill="#E6F1FF"/>
<path d="M14.8539 6.71931L12.9659 5.53937C12.6144 5.31962 12.4007 4.93426 12.4007 4.51965V3.58276H9.99573V4.51961C9.99573 4.93422 9.78212 5.31958 9.43056 5.53933L7.54262 6.71926C7.07383 7.01223 6.78906 7.52608 6.78906 8.07887V22.8228C6.78906 23.2655 7.14803 23.6245 7.59072 23.6245H14.8058C15.2485 23.6245 15.6074 23.2655 15.6074 22.8228V8.07892C15.6074 7.52612 15.3227 7.01223 14.8539 6.71931Z" fill="#E6F1FF"/>
<path d="M12.6205 5.19676C12.5226 5.05473 12.4534 4.89437 12.4214 4.72384C12.4196 4.71409 12.4168 4.70453 12.4153 4.69473C12.4061 4.63736 12.4007 4.579 12.4007 4.51956V3.58276H9.99573V4.51961C9.99573 4.93422 9.78212 5.31958 9.43061 5.53933L7.54262 6.71926C7.07383 7.01223 6.78906 7.52608 6.78906 8.07887V22.8228C6.78906 23.2656 7.14794 23.6244 7.59072 23.6244H9.92284C9.74176 23.6244 9.5949 23.2655 9.5949 22.8228V8.07892C9.5949 7.52612 9.71139 7.01223 9.90315 6.71931C9.90315 6.71931 10.4486 5.88479 10.625 5.61489C10.6574 5.56534 10.7156 5.53928 10.774 5.54912C10.9122 5.57237 11.0532 5.58695 11.1983 5.58695C11.718 5.58695 12.2031 5.44309 12.6205 5.19676Z" fill="#80B8FF"/>
<path d="M18.4539 4.26412L11.5993 1.97925L11.1985 3.58261L18.7161 5.46201C18.9323 5.51606 19.1229 5.31014 19.0525 5.09869L18.9345 4.74469C18.8588 4.51781 18.6808 4.33978 18.4539 4.26412Z" fill="#80B8FF"/>
<path d="M8.79324 1.17749C6.35077 1.17749 4.38099 3.17596 4.38404 5.61843C4.38619 7.36312 4.56741 9.07996 4.75922 10.8966C4.96885 12.8835 5.18569 14.9378 5.18569 17.2108V19.215C5.18569 19.4364 5.36518 19.6159 5.58652 19.6159H6.38818C6.60952 19.6159 6.78901 19.4364 6.78901 19.215V17.2108C6.78901 14.8536 6.56766 12.7566 6.35368 10.7286C6.16571 8.94805 5.98815 7.26627 5.98726 5.59912C5.98651 4.04896 7.24294 2.7808 8.79315 2.7808H11.1982V1.17749H8.79324Z" fill="#CCE3FF"/>
<path d="M13.2026 18.8145H9.19423C8.75145 18.8145 8.39258 18.4556 8.39258 18.0129V13.2028C8.39258 12.76 8.75145 12.4011 9.19423 12.4011H13.2026C13.6453 12.4011 14.0042 12.76 14.0042 13.2028V18.0128C14.0042 18.4556 13.6452 18.8145 13.2026 18.8145Z" fill="white"/>
<path d="M12.8015 13.6287H9.59482V12.4011H9.19399C8.75126 12.4011 8.39233 12.76 8.39233 13.2028V18.0128C8.39233 18.4555 8.7513 18.8145 9.19399 18.8145H9.59482V16.4095H12.4007C12.622 16.4095 12.8015 16.23 12.8015 16.0086C12.8015 15.7873 12.622 15.6078 12.4007 15.6078H9.59482V14.8061H12.8015C13.0228 14.8061 13.2023 14.6267 13.2023 14.4053V14.0295C13.2024 13.8082 13.0229 13.6287 12.8015 13.6287Z" fill="#E6F1FF"/>
<path d="M11.1986 4.38421C12.0841 4.38421 12.8019 3.66636 12.8019 2.78085C12.8019 1.89534 12.0841 1.17749 11.1986 1.17749C10.3131 1.17749 9.59521 1.89534 9.59521 2.78085C9.59521 3.66636 10.3131 4.38421 11.1986 4.38421Z" fill="#CCE3FF"/>
<path d="M5.18584 17.2111V19.2153C5.18584 19.4366 5.36532 19.6161 5.58667 19.6161H6.38832C6.60966 19.6161 6.78915 19.4366 6.78915 19.2153V17.2111C6.78915 16.9402 6.78554 16.6737 6.78001 16.4094H5.18579V17.2111H5.18584Z" fill="#E6F1FF"/>
<path d="M6.73645 15.2068H5.12793C5.15484 15.7297 5.17068 16.2647 5.17682 16.8101H6.78449C6.77873 16.263 6.76227 15.7289 6.73645 15.2068Z" fill="#CCE3FF"/>
<path d="M19.9916 0.811734C19.9916 0.364172 19.6274 0 19.1798 0H11.9999C11.4821 0 11.0415 0.336187 10.8843 0.801656H8.79326C7.5199 0.801656 6.32144 1.29952 5.41859 2.2035C4.50752 3.11569 4.00671 4.32863 4.0083 5.61891C4.01051 7.38441 4.19271 9.10955 4.38593 10.9394C4.59443 12.9155 4.80996 14.9589 4.80996 17.2109V19.215C4.80996 19.6433 5.15834 19.9917 5.58659 19.9917H6.41332V22.8225C6.41332 23.4718 6.94151 24 7.59077 24H14.8058C15.4551 24 15.9833 23.4718 15.9833 22.8225V8.07862C15.9833 7.39181 15.6356 6.76439 15.0531 6.40031L13.1651 5.22038C12.9218 5.06831 12.7766 4.80623 12.7766 4.51931V4.45777L19.1289 5.95242C19.1575 5.95913 19.1863 5.96241 19.215 5.96241C19.3192 5.96241 19.4204 5.91891 19.4925 5.84006C19.5843 5.73947 19.6146 5.59706 19.5715 5.46783L19.1707 4.26534C19.1333 4.15312 19.0452 4.06509 18.933 4.02764L14.327 2.49234L19.3209 1.61105C19.7096 1.54247 19.9916 1.20633 19.9916 0.811734ZM12.4258 2.78081C12.4258 3.45769 11.8751 4.00838 11.1983 4.00838C10.5214 4.00838 9.97071 3.45764 9.97071 2.78081C9.97071 2.10398 10.5214 1.55325 11.1983 1.55325C11.8751 1.55325 12.4258 2.10394 12.4258 2.78081ZM5.52616 15.5825H6.37863C6.39021 15.863 6.39907 16.1468 6.40493 16.4342H5.55302C5.54698 16.147 5.53798 15.8632 5.52616 15.5825ZM6.44674 7.71539C6.39574 7.00191 6.36359 6.29822 6.36316 5.59894C6.36284 4.94855 6.61568 4.3358 7.07515 3.87356C7.5348 3.41123 8.14498 3.15661 8.79321 3.15661H9.2553C9.31362 3.45877 9.44074 3.73673 9.6199 3.97331V4.51941C9.6199 4.80628 9.47463 5.06841 9.23135 5.22047L7.34341 6.40041C6.86566 6.69895 6.54626 7.17488 6.44674 7.71539ZM9.6476 1.55325C9.45401 1.79728 9.31666 2.08767 9.25545 2.40502H8.7933C8.64959 2.40502 8.50751 2.41533 8.3674 2.43412V1.57608C8.50798 1.56131 8.65005 1.55325 8.7933 1.55325H9.6476ZM4.75985 5.61797C4.75849 4.52859 5.18126 3.50461 5.95034 2.73459C6.42401 2.26036 6.99415 1.91887 7.6158 1.72861V2.63142C7.21868 2.79052 6.85376 3.03028 6.54218 3.34373C5.94166 3.94781 5.6112 4.74881 5.61166 5.59927C5.61255 7.28705 5.7911 8.97792 5.98057 10.7722C6.11848 12.0796 6.25905 13.4164 6.34113 14.8309H5.48787C5.4063 13.4509 5.2684 12.1405 5.13298 10.857C4.94224 9.05062 4.76201 7.34433 4.75985 5.61797ZM6.38824 19.2401H5.58659C5.57276 19.2401 5.56155 19.2289 5.56155 19.215V17.2109C5.56155 17.2024 5.56141 17.1942 5.56141 17.1858H6.41318C6.41318 17.1943 6.41332 17.2025 6.41332 17.2109V19.215C6.41327 19.2289 6.40207 19.2401 6.38824 19.2401ZM14.6547 7.03767C15.016 7.26352 15.2316 7.65262 15.2316 8.07862V22.8225C15.2316 23.0574 15.0406 23.2485 14.8057 23.2485H7.59073C7.35588 23.2485 7.16482 23.0574 7.16482 22.8225V8.07862C7.16482 7.65258 7.38054 7.26342 7.74176 7.03767L9.6297 5.85773C10.0777 5.57775 10.3507 5.10225 10.3696 4.57753C10.6219 4.6943 10.9024 4.75997 11.1982 4.75997C11.4939 4.75997 11.7745 4.6943 12.0267 4.57748C12.0457 5.1023 12.3188 5.5777 12.7667 5.85769L14.6547 7.03767ZM18.6455 5.06662L12.938 3.72366C13.0727 3.47616 13.1557 3.19669 13.1734 2.90006L18.517 4.68127L18.6455 5.06662ZM19.1903 0.870984L13 1.96341C12.7568 1.42964 12.2837 1.02211 11.7077 0.868547C11.784 0.796266 11.8867 0.751594 11.9999 0.751594H19.1798C19.213 0.751594 19.24 0.778594 19.24 0.811781C19.24 0.840938 19.2191 0.865875 19.1903 0.870984Z" fill="#0072FF"/>
<path d="M11.2023 2.40527H11.1982C10.9907 2.40527 10.8245 2.57351 10.8245 2.78107C10.8245 2.98863 10.9947 3.15687 11.2022 3.15687C11.4098 3.15687 11.5781 2.98859 11.5781 2.78107C11.5781 2.57355 11.4098 2.40527 11.2023 2.40527Z" fill="#0072FF"/>
<path d="M8.01685 13.2021V18.0121C8.01685 18.6614 8.54503 19.1896 9.1943 19.1896H13.2026C13.8519 19.1896 14.3801 18.6614 14.3801 18.0121V13.2021C14.3801 12.5528 13.8519 12.0247 13.2026 12.0247H9.1943C8.54503 12.0247 8.01685 12.5529 8.01685 13.2021ZM13.6285 13.2021V18.0121C13.6285 18.247 13.4375 18.438 13.2026 18.438H9.1943C8.95945 18.438 8.76839 18.247 8.76839 18.0121V13.2021C8.76839 12.9673 8.95945 12.7762 9.1943 12.7762H13.2026C13.4375 12.7763 13.6285 12.9673 13.6285 13.2021Z" fill="#0072FF"/>
<path d="M9.99567 14.3795H12.4007C12.6082 14.3795 12.7765 14.2113 12.7765 14.0037C12.7765 13.7962 12.6082 13.6279 12.4007 13.6279H9.99567C9.78815 13.6279 9.61987 13.7962 9.61987 14.0037C9.61992 14.2113 9.78815 14.3795 9.99567 14.3795Z" fill="#0072FF"/>
<path d="M14.0042 21.6455H13.2025C12.9949 21.6455 12.8267 21.8137 12.8267 22.0213C12.8267 22.2289 12.9949 22.3971 13.2025 22.3971H14.0042C14.2117 22.3971 14.38 22.2289 14.38 22.0213C14.38 21.8137 14.2117 21.6455 14.0042 21.6455Z" fill="#0072FF"/>
<path d="M13.7011 21.6455H8.39264C8.18513 21.6455 8.01685 21.8137 8.01685 22.0213C8.01685 22.2289 8.18508 22.3971 8.39264 22.3971H13.9998C14.2073 22.3971 12.9998 22.2076 12.9998 22C12.9998 21.7924 13.9086 21.6455 13.7011 21.6455Z" fill="#0072FF"/>
</svg>
