<svg width="26" height="24" viewBox="0 0 26 24" fill="none" xmlns="http://www.w3.org/2000/svg">
<rect x="1" y="11.9172" width="24" height="1.98619" rx="0.993094" fill="#E6F1FF" stroke="#0072FF"/>
<rect x="1" y="17.8757" width="24" height="1.98619" rx="0.993094" fill="#E6F1FF" stroke="#0072FF"/>
<path fill-rule="evenodd" clip-rule="evenodd" d="M9.25005 6.70342C9.25005 7.65291 8.47309 8.43443 7.50005 8.43443C6.52701 8.43443 5.75005 7.65291 5.75005 6.70342C5.75005 5.75393 6.52701 4.97241 7.50005 4.97241C8.47309 4.97241 9.25005 5.75393 9.25005 6.70342ZM9.54961 8.52432C9.98518 8.04113 10.25 7.40299 10.25 6.70342C10.25 5.19513 9.01883 3.97241 7.50005 3.97241C5.98127 3.97241 4.75005 5.19513 4.75005 6.70342C4.75005 7.40299 5.01491 8.04113 5.45049 8.52432C3.54032 8.55081 2 10.1075 2 12.024V12.8963C2 14.0008 2.8953 14.8962 3.99975 14.8963L5.6665 24.0001H9.33317L10.9999 14.8963H11C12.1046 14.8963 13 14.0009 13 12.8963V12.024C13 10.1075 11.4597 8.55086 9.54961 8.52432ZM4.9834 14.7162L4.83331 13.8964L3.99987 13.8963C3.44765 13.8963 3 13.4486 3 12.8963V12.024C3 10.6433 4.11929 9.52398 5.5 9.52398H9.5C10.8807 9.52398 12 10.6433 12 12.024V12.8963C12 13.4486 11.5523 13.8963 11 13.8963H10.9999H10.1664L10.0163 14.7162L8.49963 23.0001H6.50004L4.9834 14.7162Z" fill="black"/>
<path fill-rule="evenodd" clip-rule="evenodd" d="M9.54961 8.52432C9.98518 8.04113 10.25 7.40299 10.25 6.70342C10.25 5.19513 9.01883 3.97241 7.50005 3.97241C5.98127 3.97241 4.75005 5.19513 4.75005 6.70342C4.75005 7.40299 5.01491 8.04113 5.45049 8.52432C3.54032 8.55081 2 10.1075 2 12.024V12.8963C2 14.0008 2.8953 14.8962 3.99975 14.8963L5.6665 24.0001H9.33317L10.9999 14.8963H11C12.1046 14.8963 13 14.0009 13 12.8963V12.024C13 10.1075 11.4597 8.55086 9.54961 8.52432Z" fill="#E6F1FF"/>
<mask id="mask0" mask-type="alpha" maskUnits="userSpaceOnUse" x="2" y="3" width="11" height="22">
<path fill-rule="evenodd" clip-rule="evenodd" d="M9.54961 8.52432C9.98518 8.04113 10.25 7.40299 10.25 6.70342C10.25 5.19513 9.01883 3.97241 7.50005 3.97241C5.98127 3.97241 4.75005 5.19513 4.75005 6.70342C4.75005 7.40299 5.01491 8.04113 5.45049 8.52432C3.54032 8.55081 2 10.1075 2 12.024V12.8963C2 14.0008 2.8953 14.8962 3.99975 14.8963L5.6665 24.0001H9.33317L10.9999 14.8963H11C12.1046 14.8963 13 14.0009 13 12.8963V12.024C13 10.1075 11.4597 8.55086 9.54961 8.52432Z" fill="#E6F1FF"/>
</mask>
<g mask="url(#mask0)">
<path d="M6 22.3445C8.5 22.3445 10.5 11.917 9.5 8.93774L14.5 9.43429L12 25.3238H6V22.3445Z" fill="#CCE3FF"/>
<path d="M5.9869 8.83619C3.57209 9.47877 4.35783 20.065 6.10022 22.6857L1.14118 23.4913L-0.585112 7.50061L5.21044 5.95842L5.9869 8.83619Z" fill="white"/>
</g>
<ellipse cx="7.5" cy="6.45515" rx="2.5" ry="2.48274" fill="#E6F1FF"/>
<path fill-rule="evenodd" clip-rule="evenodd" d="M9.25005 6.70342C9.25005 7.65291 8.47309 8.43443 7.50005 8.43443C6.52701 8.43443 5.75005 7.65291 5.75005 6.70342C5.75005 5.75393 6.52701 4.97241 7.50005 4.97241C8.47309 4.97241 9.25005 5.75393 9.25005 6.70342ZM9.54961 8.52432C9.98518 8.04113 10.25 7.40299 10.25 6.70342C10.25 5.19513 9.01883 3.97241 7.50005 3.97241C5.98127 3.97241 4.75005 5.19513 4.75005 6.70342C4.75005 7.40299 5.01491 8.04113 5.45049 8.52432C3.54032 8.55081 2 10.1075 2 12.024V12.8963C2 14.0008 2.8953 14.8962 3.99975 14.8963L5.6665 24.0001H9.33317L10.9999 14.8963H11C12.1046 14.8963 13 14.0009 13 12.8963V12.024C13 10.1075 11.4597 8.55086 9.54961 8.52432ZM4.9834 14.7162L4.83331 13.8964L3.99987 13.8963C3.44765 13.8963 3 13.4486 3 12.8963V12.024C3 10.6433 4.11929 9.52398 5.5 9.52398H9.5C10.8807 9.52398 12 10.6433 12 12.024V12.8963C12 13.4486 11.5523 13.8963 11 13.8963H10.9999H10.1664L10.0163 14.7162L8.49963 23.0001H6.50004L4.9834 14.7162Z" fill="#0072FF"/>
<path fill-rule="evenodd" clip-rule="evenodd" d="M20.25 2.73101C20.25 3.6805 19.4731 4.46202 18.5 4.46202C17.527 4.46202 16.75 3.6805 16.75 2.73101C16.75 1.78152 17.527 1 18.5 1C19.4731 1 20.25 1.78152 20.25 2.73101ZM20.5496 4.55194C20.9852 4.06875 21.25 3.4306 21.25 2.73101C21.25 1.22271 20.0188 0 18.5 0C16.9813 0 15.75 1.22271 15.75 2.73101C15.75 3.4306 16.0149 4.06875 16.4505 4.55194C14.5403 4.57841 13 6.13512 13 8.0516V8.92395C13 10.0284 13.8953 10.9238 14.9997 10.924L16.6665 20.0278H20.3332L21.9999 10.924H22C23.1046 10.924 24 10.0285 24 8.92396V8.0516C24 6.13516 22.4597 4.57846 20.5496 4.55194ZM15.9834 10.7439L15.8333 9.92406L14.9999 9.92395C14.4476 9.92389 14 9.4762 14 8.92395V8.0516C14 6.67089 15.1193 5.5516 16.5 5.5516H20.5C21.8807 5.5516 23 6.67089 23 8.0516V8.92396C23 9.47624 22.5523 9.92395 22 9.92395H21.9999H21.1664L21.0163 10.7439L19.4996 19.0278H17.5L15.9834 10.7439Z" fill="black"/>
<path fill-rule="evenodd" clip-rule="evenodd" d="M20.5496 4.55194C20.9852 4.06875 21.25 3.4306 21.25 2.73101C21.25 1.22271 20.0188 0 18.5 0C16.9813 0 15.75 1.22271 15.75 2.73101C15.75 3.4306 16.0149 4.06875 16.4505 4.55194C14.5403 4.57841 13 6.13512 13 8.0516V8.92395C13 10.0284 13.8953 10.9238 14.9997 10.924L16.6665 20.0278H20.3332L21.9999 10.924H22C23.1046 10.924 24 10.0285 24 8.92396V8.0516C24 6.13516 22.4597 4.57846 20.5496 4.55194Z" fill="#E6F1FF"/>
<mask id="mask1" mask-type="alpha" maskUnits="userSpaceOnUse" x="13" y="0" width="11" height="21">
<path fill-rule="evenodd" clip-rule="evenodd" d="M16.4504 4.55194C16.0148 4.06875 15.75 3.4306 15.75 2.73101C15.75 1.22271 16.9812 0 18.5 0C20.0187 0 21.25 1.22271 21.25 2.73101C21.25 3.4306 20.9851 4.06875 20.5495 4.55194C22.4597 4.57841 24 6.13512 24 8.0516V8.92395C24 10.0284 23.1047 10.9238 22.0003 10.924L20.3335 20.0278H16.6668L15.0001 10.924H15C13.8954 10.924 13 10.0285 13 8.92396V8.0516C13 6.13516 14.5403 4.57846 16.4504 4.55194Z" fill="#E6F1FF"/>
</mask>
<g mask="url(#mask1)">
<path d="M20 18.3723C17.5 18.3723 15.5 7.94486 16.5 4.96558L11.5 5.46212L14 21.3516H20V18.3723Z" fill="#CCE3FF"/>
<path d="M20.0131 4.86402C22.4279 5.5066 21.6422 16.0928 19.8998 18.7136L24.8588 19.5191L26.5851 3.52844L20.7896 1.98625L20.0131 4.86402Z" fill="white"/>
</g>
<ellipse cx="18.5" cy="2.48274" rx="2.5" ry="2.48274" fill="#E6F1FF"/>
<path fill-rule="evenodd" clip-rule="evenodd" d="M20.25 2.73101C20.25 3.6805 19.4731 4.46202 18.5 4.46202C17.527 4.46202 16.75 3.6805 16.75 2.73101C16.75 1.78152 17.527 1 18.5 1C19.4731 1 20.25 1.78152 20.25 2.73101ZM20.5496 4.55194C20.9852 4.06875 21.25 3.4306 21.25 2.73101C21.25 1.22271 20.0188 0 18.5 0C16.9813 0 15.75 1.22271 15.75 2.73101C15.75 3.4306 16.0149 4.06875 16.4505 4.55194C14.5403 4.57841 13 6.13512 13 8.0516V8.92395C13 10.0284 13.8953 10.9238 14.9997 10.924L16.6665 20.0278H20.3332L21.9999 10.924H22C23.1046 10.924 24 10.0285 24 8.92396V8.0516C24 6.13516 22.4597 4.57846 20.5496 4.55194ZM15.9834 10.7439L15.8333 9.92406L14.9999 9.92395C14.4476 9.92389 14 9.4762 14 8.92395V8.0516C14 6.67089 15.1193 5.5516 16.5 5.5516H20.5C21.8807 5.5516 23 6.67089 23 8.0516V8.92396C23 9.47624 22.5523 9.92395 22 9.92395H21.9999H21.1664L21.0163 10.7439L19.4996 19.0278H17.5L15.9834 10.7439Z" fill="#0072FF"/>
</svg>
