<svg width="24" height="24" viewBox="0 0 24 24" fill="none" xmlns="http://www.w3.org/2000/svg">
<path d="M12 0C5.38331 0 0 5.38331 0 12C0 18.6167 5.38331 24 12 24C18.6167 24 24 18.6167 24 12C24 5.38331 18.6167 0 12 0Z" fill="#0072FF"/>
<path d="M22.7117 9.53623L19.7699 9.9567L17.5648 5.98794L18.8535 3.41089C20.7607 4.93578 22.1464 7.07928 22.7117 9.53623Z" fill="#E6F1FF"/>
<path d="M14.4629 20.403L11.6587 18.801L13.3276 15.4631L16.6885 15.0432L17.8858 17.8362L14.4629 20.403Z" fill="#E6F1FF"/>
<path d="M10.6759 18.5299L6.25915 18.9716L4.05481 15.4447L5.35906 11.9667L9.76934 11.5256L12.4145 15.0526L10.6759 18.5299Z" fill="#E6F1FF"/>
<path d="M8.45778 4.61572L10.9177 6.66552L9.62769 10.5347L5.44751 10.9526L5.02808 6.75927L8.45778 4.61572Z" fill="#E6F1FF"/>
<path d="M16.7021 14.0334L13.2257 14.468L10.557 10.9096L11.8707 6.96849L16.7213 6.52759L18.9199 10.4851L16.7021 14.0334Z" fill="#80B8FF"/>
<path d="M18.0343 2.81331L16.6773 5.52719L11.6612 5.98319L9.04541 3.80336L9.51322 1.29414C10.3137 1.10819 11.1437 1 11.9999 1C14.2278 1 16.3 1.67036 18.0343 2.81331Z" fill="#E6F1FF"/>
<path d="M8.43822 1.60327L8.04865 3.69258L4.35691 5.99996H2.7926C4.12146 3.96774 6.10301 2.40587 8.43822 1.60327Z" fill="#80B8FF"/>
<path d="M2.21442 7H4.04761L4.4909 11.4334L3.18867 14.906L1.27851 14.4256C1.1017 13.6441 1.00012 12.8343 1.00012 12C1.00012 10.1988 1.4437 8.50216 2.21442 7Z" fill="#E6F1FF"/>
<path d="M1.59399 15.5361L3.18273 15.9356L5.50014 19.6436V20.8539C3.70548 19.5328 2.32665 17.6857 1.59399 15.5361Z" fill="#80B8FF"/>
<path d="M6.49988 21.5117V19.9525L10.8908 19.5134L13.9999 21.2901V22.8089C13.3503 22.9289 12.6837 23 11.9999 23C9.9953 23 8.12011 22.4523 6.49988 21.5117Z" fill="#E6F1FF"/>
<path d="M15 22.5736V21.2498L18.6266 18.5298L20.577 18.8701C19.1652 20.6292 17.2258 21.9409 15 22.5736Z" fill="#616161"/>
<path d="M15 22.5736V21.2498L18.6266 18.5298L20.577 18.8701C19.1652 20.6292 17.2258 21.9409 15 22.5736Z" fill="#80B8FF"/>
<path d="M21.2269 17.9679L18.8525 17.5537L17.5624 14.5432L19.8005 10.9621L22.8886 10.521C22.9542 11.006 22.9999 11.4971 22.9999 11.9998C23 14.2 22.344 16.2468 21.2269 17.9679Z" fill="white"/>
<path d="M13.9999 22.8091V21.2903L12.0665 20.1854C11.2414 20.3837 10.3849 20.5002 9.49988 20.5002C8.45714 20.5002 7.45528 20.3383 6.49988 20.0649V21.5118C8.12011 22.4524 9.9953 23.0002 11.9999 23.0002C12.6836 23.0002 13.3503 22.9291 13.9999 22.8091Z" fill="#CCE3FF"/>
<path opacity="0.4" d="M3.06799 18.387C3.74506 19.3302 4.5642 20.1648 5.50001 20.8538V19.7324C4.62766 19.3884 3.81537 18.9314 3.06799 18.387Z" fill="#0072FF"/>
<path d="M13.3756 19.7817L14.463 20.4029L17.8859 17.8361L17.5264 16.9976C16.3836 18.2201 14.9687 19.179 13.3756 19.7817Z" fill="#CCE3FF"/>
<path d="M23.0001 11.9998C23.0001 11.4971 22.9544 11.006 22.8888 10.521L20.4045 10.8758C20.1578 12.8396 19.3913 14.6394 18.2477 16.1418L18.8527 17.5536L21.2271 17.9678C22.3441 16.2468 23.0001 14.2 23.0001 11.9998Z" fill="#CCE3FF"/>
<path d="M22.7117 9.53619C22.1464 7.07923 20.7607 4.93573 18.8536 3.41089L18.7603 3.59745C19.8561 5.30347 20.4999 7.32519 20.4999 9.50009C20.4999 9.61986 20.4858 9.73606 20.482 9.85489L22.7117 9.53619Z" fill="#CCE3FF"/>
</svg>
