<svg width="24" height="24" viewBox="0 0 24 24" fill="none" xmlns="http://www.w3.org/2000/svg">
<g clip-path="url(#clip0)">
<path d="M8.4488 10.4495C8.4488 10.4495 6.80093 10.3926 6.81047 8.64115C6.81615 7.60734 7.89033 7.22977 8.35633 7.17997C8.46072 7.1688 8.51558 7.06315 8.45705 6.98496C8.05307 6.44516 7.08199 4.83109 9.10853 3.94412C10.9078 3.15677 11.8554 2.3826 11.6225 1.38595C11.4857 0.800196 10.969 0.551172 10.6678 0.453943C10.621 0.438928 10.6291 0.377588 10.6786 0.373559C11.3936 0.314416 13.532 0.266625 13.8755 1.75894C14.0797 2.64627 13.6291 3.55246 13.3891 3.87857C13.3322 3.95566 13.3853 4.0593 13.4874 4.0723C14.0432 4.14243 15.2896 3.87894 15.6204 5.02591C15.8422 5.79459 15.5433 6.49643 15.2737 6.75919C15.1935 6.83738 15.2533 6.96482 15.3718 6.96921C15.8914 6.98862 16.7867 7.15378 17.0699 8.03068C17.7317 10.0802 15.6767 10.4495 15.6767 10.4495H8.4488Z" fill="#CCE3FF"/>
<path d="M17.0698 8.03043C16.7865 7.15371 15.8914 6.98837 15.3717 6.96914C15.2531 6.96475 15.1933 6.83731 15.2735 6.75912C15.5432 6.49637 15.8422 5.79452 15.6203 5.02584C15.2895 3.87887 14.043 4.14236 13.4873 4.07223C13.3851 4.05923 13.3321 3.95559 13.389 3.8785C13.6289 3.55239 14.0795 2.6462 13.8753 1.75887C13.5319 0.266557 11.3934 0.314531 10.6785 0.373491C10.6289 0.377519 10.6209 0.43886 10.6676 0.454057C10.9689 0.551287 11.4855 0.80031 11.6224 1.38588C11.7347 1.86654 11.5718 2.29519 11.172 2.69875C11.0724 3.22463 11.2412 4.37417 12.3295 4.86929C14.7371 5.96463 13.1497 7.27127 13.7583 7.96377C15.3243 9.74558 12.9676 10.4494 12.9676 10.4494H15.6768C15.6766 10.4494 17.7316 10.0799 17.0698 8.03043Z" fill="#78B3FF"/>
<path d="M8 10L11.5223 23.1082C11.6678 23.6493 12.4371 23.6493 12.5826 23.1082L16.1049 10H8Z" fill="white"/>
<path d="M13.3848 10.1343L10.6597 20.2761L11.4566 23.2425C11.6021 23.7835 12.3714 23.7835 12.5169 23.2425L16.0392 10.1343H13.3848Z" fill="#CCE3FF"/>
<path d="M15.2628 12.3167H8.71044C7.90301 12.3167 7.24841 11.6636 7.24841 10.8577V10.402C7.24841 10.2542 7.36858 10.1343 7.51682 10.1343H16.4565C16.6047 10.1343 16.7249 10.2542 16.7249 10.402V10.8577C16.7249 11.6636 16.0703 12.3167 15.2628 12.3167Z" fill="#E6F1FF"/>
<path d="M16.4565 10.1343H14.0157V10.8577C14.0157 11.6636 13.3613 12.3167 12.5538 12.3167H15.2629C16.0703 12.3167 16.7249 11.6636 16.7249 10.8577V10.402C16.7249 10.2542 16.6047 10.1343 16.4565 10.1343Z" fill="#78B3FF"/>
<path d="M17.405 7.9229C17.1838 7.23735 16.6013 6.78874 15.7805 6.65636C16.0054 6.24712 16.1593 5.62291 15.959 4.92875C15.6209 3.75706 14.4977 3.74186 13.8871 3.73674C14.1449 3.24144 14.3981 2.45921 14.2188 1.68046C14.0955 1.14487 13.6976 0.443396 12.5022 0.143652C11.7885 -0.0352427 11.035 -0.00850924 10.6494 0.0233512C10.4608 0.0390983 10.3085 0.185034 10.287 0.370337C10.2654 0.557837 10.3773 0.729956 10.5595 0.788916C10.8365 0.878272 11.1865 1.06852 11.2794 1.46604C11.3922 1.94944 11.2315 2.63133 8.96699 3.62248C8.20047 3.95793 7.73136 4.43181 7.57303 5.03075C7.38644 5.73589 7.68127 6.42986 7.97224 6.89897C7.73044 6.96617 7.45506 7.0808 7.20793 7.2542C6.72047 7.59642 6.46105 8.07543 6.45793 8.63958C6.45408 9.34179 6.68818 9.81017 6.96576 10.1187C6.92155 10.2038 6.89623 10.3002 6.89623 10.4023V10.8581C6.89623 11.6916 7.46368 12.3951 8.23313 12.6047L11.1163 23.334C11.2234 23.7324 11.5733 24.0003 11.9866 24.0003C12.4001 24.0003 12.75 23.7324 12.857 23.3338L15.7401 12.6047C16.5097 12.3951 17.0772 11.6916 17.0772 10.8581V10.4023C17.0772 10.3036 17.0533 10.2106 17.0121 10.1279C17.414 9.72136 17.7621 9.02813 17.405 7.9229ZM12.1765 23.1518C12.1413 23.2829 12.0321 23.297 11.9868 23.297C11.9415 23.297 11.8321 23.2829 11.7969 23.1518L11.2465 21.1036C11.6874 21.2885 12.1352 21.4632 12.5867 21.6253L12.1765 23.1518ZM13.3635 18.734C13.2591 18.6954 13.1549 18.6564 13.0524 18.617C12.8707 18.5474 12.6669 18.6377 12.597 18.819C12.5271 19.0002 12.6176 19.2037 12.7994 19.2734C12.9249 19.3216 13.0524 19.3692 13.1804 19.4159L12.77 20.9434C12.175 20.7282 11.5863 20.4913 11.0137 20.2366L10.4776 18.2415C10.7314 18.3706 10.9878 18.4954 11.2447 18.615C11.2929 18.6373 11.3436 18.648 11.3933 18.648C11.5261 18.648 11.6533 18.5727 11.7129 18.4447C11.7951 18.2686 11.7188 18.0593 11.5423 17.9774C11.0988 17.7712 10.658 17.5482 10.2287 17.3149L9.65718 15.1882C10.9389 16.0012 12.317 16.6847 13.769 17.226L13.3635 18.734ZM13.9521 16.5437C12.3194 15.9292 10.7842 15.129 9.38143 14.1624L8.98001 12.6688H9.87899C11.2346 13.6424 12.7368 14.4462 14.3506 15.0613L13.9521 16.5437ZM14.534 14.3781C13.3303 13.9145 12.1919 13.3417 11.1346 12.6688H14.9934L14.534 14.3781ZM16.3377 9.78307H8.7472C8.7472 9.78307 8.15739 9.92443 8.15739 10.1187C8.15739 10.313 8.55254 10.4864 8.7472 10.4864H16.3725V10.8581C16.3725 11.4186 15.9529 11.8829 15.4108 11.9553C15.386 11.9584 15.3609 11.9611 15.3369 11.9628L15.3345 11.9629C15.3101 11.9646 15.2862 11.9653 15.2631 11.9653H8.7105C8.6872 11.9653 8.66335 11.9646 8.63895 11.9629L8.63657 11.9628C8.61253 11.9611 8.58813 11.9587 8.56337 11.9554C8.02123 11.8831 7.60091 11.4186 7.60091 10.8581V10.4864H8.7472C8.94185 10.4864 9.09963 10.3289 9.09963 10.1346C9.09963 9.94036 8.94185 9.78307 8.7472 9.78307H7.63229C7.31783 9.5324 7.15987 9.14953 7.16262 8.64342C7.16702 7.8416 8.0759 7.56383 8.39366 7.52977C8.40852 7.52831 8.42265 7.52519 8.43714 7.52226C8.57914 7.69622 8.74041 7.88353 8.86627 8.00164C8.93433 8.06536 9.02093 8.09685 9.10752 8.09685C9.20145 8.09685 9.29502 8.05968 9.36437 7.98607C9.49757 7.84435 9.49078 7.62187 9.34878 7.48894C9.15724 7.30931 8.79912 6.85027 8.67253 6.68199C8.45604 6.37071 8.10893 5.76006 8.25441 5.21019C8.35513 4.82896 8.69014 4.51146 9.25007 4.26646C10.6892 3.63658 12.2983 2.73094 11.9657 1.30619C11.9107 1.07127 11.8105 0.879188 11.6874 0.722449C12.4517 0.786353 13.3477 1.03702 13.5321 1.83793C13.6815 2.48686 13.4136 3.1508 13.2151 3.49833C13.079 3.72337 12.6348 4.34025 12.1811 4.55046C12.0046 4.63231 11.9279 4.84141 12.0099 5.01756C12.0695 5.14574 12.1969 5.22117 12.3297 5.22117C12.3794 5.22117 12.4299 5.21074 12.4779 5.1884C12.848 5.01701 13.1751 4.69859 13.414 4.41569C13.4237 4.41752 13.4332 4.42009 13.4431 4.42119C13.571 4.43748 13.7172 4.43858 13.8721 4.43986C14.5837 4.44591 15.1015 4.49827 15.282 5.1234C15.4332 5.64763 15.2864 6.10997 15.1395 6.35808C15.0662 6.45659 14.6617 6.9876 14.1379 7.41661C13.9875 7.53984 13.9656 7.7614 14.0891 7.91155C14.1587 7.99633 14.2597 8.04027 14.3616 8.04027C14.4403 8.04027 14.5193 8.01409 14.5848 7.96044C14.847 7.74565 15.0796 7.51219 15.2651 7.30821C15.2956 7.31517 15.3268 7.31957 15.3587 7.32085C15.872 7.33989 16.5274 7.49718 16.7345 8.1386C16.973 8.87761 16.8433 9.41668 16.3377 9.78307Z" fill="#0072FF"/>
</g>
<defs>
<clipPath id="clip0">
<rect width="24" height="24" fill="white"/>
</clipPath>
</defs>
</svg>
