<svg width="17" height="24" viewBox="0 0 17 24" fill="none" xmlns="http://www.w3.org/2000/svg">
<mask id="path-1-inside-1" fill="white">
<path fill-rule="evenodd" clip-rule="evenodd" d="M7.00422 0H4.74097C4.17732 6.73272e-05 4.03476 1.74717 3.9987 2.63094C3.98744 2.90686 4.21035 3.13039 4.48649 3.13039H7.00422H7.00441H9.52214C9.79828 3.13039 10.0212 2.90686 10.0099 2.63094C9.97387 1.74717 9.83131 6.73272e-05 9.26766 0H7.00441H7.00422Z"/>
</mask>
<path fill-rule="evenodd" clip-rule="evenodd" d="M7.00422 0H4.74097C4.17732 6.73272e-05 4.03476 1.74717 3.9987 2.63094C3.98744 2.90686 4.21035 3.13039 4.48649 3.13039H7.00422H7.00441H9.52214C9.79828 3.13039 10.0212 2.90686 10.0099 2.63094C9.97387 1.74717 9.83131 6.73272e-05 9.26766 0H7.00441H7.00422Z" fill="#CCE3FF"/>
<path d="M4.74097 0V-1H4.74085L4.74097 0ZM9.26766 0L9.26778 -1H9.26766V0ZM4.74097 1H7.00422V-1H4.74097V1ZM4.99787 2.67171C5.01538 2.2426 5.05777 1.64924 5.15217 1.18218C5.20122 0.939492 5.2506 0.803261 5.27778 0.751461C5.33202 0.648082 5.19103 0.999946 4.74109 1L4.74085 -1C4.00908 -0.999913 3.63891 -0.429635 3.50677 -0.177795C3.34756 0.125625 3.25336 0.481418 3.19181 0.785981C3.06499 1.41344 3.01808 2.13552 2.99953 2.59018L4.99787 2.67171ZM7.00422 2.13039H4.48649V4.13039H7.00422V2.13039ZM7.00422 4.13039H7.00441V2.13039H7.00422V4.13039ZM7.00441 4.13039H9.52214V2.13039H7.00441V4.13039ZM11.0091 2.59018C10.9905 2.13552 10.9436 1.41344 10.8168 0.785981C10.7553 0.481418 10.6611 0.125625 10.5019 -0.177795C10.3697 -0.429635 9.99955 -0.999913 9.26778 -1L9.26754 1C8.81759 0.999946 8.67661 0.648083 8.73085 0.751461C8.75803 0.803261 8.80741 0.939492 8.85646 1.18218C8.95085 1.64924 8.99325 2.2426 9.01076 2.67171L11.0091 2.59018ZM9.26766 -1H7.00441V1H9.26766V-1ZM7.00441 -1H7.00422V1H7.00441V-1ZM9.52214 4.13039C10.3437 4.13039 11.0444 3.45649 11.0091 2.59018L9.01076 2.67171C8.99793 2.35722 9.25288 2.13039 9.52214 2.13039V4.13039ZM2.99953 2.59018C2.96419 3.45649 3.66495 4.13039 4.48649 4.13039V2.13039C4.75575 2.13039 5.0107 2.35722 4.99787 2.67171L2.99953 2.59018Z" fill="#0072FF" mask="url(#path-1-inside-1)"/>
<path fill-rule="evenodd" clip-rule="evenodd" d="M3.98611 2.08691H7.00439H7.00452H10.0228C12.3039 2.08691 13.7571 20.1153 14.0075 23.4671C14.0291 23.7559 13.8003 24 13.5106 24H7.00452H7.00439H0.49831C0.20865 24 -0.0201724 23.7559 0.00141081 23.4671C0.157283 21.381 0.779005 13.61 1.77627 8.03834L0.0622158 5.37142C0.0194427 5.30486 0.0672278 5.21735 0.14634 5.21735H2.36887C2.84648 3.32708 3.38782 2.08691 3.98611 2.08691Z" fill="#E6F1FF"/>
<path d="M11.5314 19.826C11.0285 11.9999 11.0285 9.39125 8.51361 2.60864H10.5255L11.0285 4.17386L13.5434 20.8695L13.4998 23.4998H0.499756C0.499756 23.4998 1.28617 19.826 2.98067 19.826H11.5314Z" fill="#80B8FF"/>
<mask id="path-5-inside-2" fill="white">
<path fill-rule="evenodd" clip-rule="evenodd" d="M7.00439 2.08691H3.98611C3.38782 2.08691 2.84648 3.32708 2.36887 5.21735H0.14634C0.0672278 5.21735 0.0194427 5.30486 0.0622158 5.37142L1.77627 8.03834C0.779005 13.61 0.157283 21.381 0.00141081 23.4671C-0.0201724 23.7559 0.20865 24 0.49831 24H7.00439H7.00452H13.5106C13.8003 24 14.0291 23.7559 14.0075 23.4671C13.9357 22.5065 13.7652 20.3406 13.5047 17.7391H14.175C14.6935 17.7391 15.1259 17.3429 15.1712 16.8264L16.0019 7.34813C16.0531 6.76363 15.5924 6.26083 15.0057 6.26083H11.8837C11.3492 3.79658 10.7253 2.08691 10.0228 2.08691H7.00452H7.00439ZM13.4022 16.7391C13.0771 13.6378 12.6346 10.089 12.0881 7.26083L15.0057 7.26083L14.175 16.7391H13.4022Z"/>
</mask>
<path d="M2.36887 5.21735V6.21735H3.14763L3.3384 5.46232L2.36887 5.21735ZM0.0622158 5.37142L0.903452 4.83075H0.903452L0.0622158 5.37142ZM1.77627 8.03834L2.76062 8.21453L2.82981 7.82801L2.6175 7.49768L1.77627 8.03834ZM0.00141081 23.4671L-0.995809 23.3926L0.00141081 23.4671ZM14.0075 23.4671L13.0103 23.5416L14.0075 23.4671ZM13.5047 17.7391V16.7391H12.3995L12.5097 17.8387L13.5047 17.7391ZM15.1712 16.8264L14.175 16.7391V16.7391L15.1712 16.8264ZM16.0019 7.34813L15.0057 7.26083V7.26083L16.0019 7.34813ZM11.8837 6.26083L10.9064 6.4728L11.0774 7.26083H11.8837V6.26083ZM12.0881 7.26083V6.26083H10.8764L11.1063 7.45052L12.0881 7.26083ZM13.4022 16.7391L12.4077 16.8434L12.5016 17.7391H13.4022V16.7391ZM15.0057 7.26083L16.0019 7.34813L16.0972 6.26083H15.0057V7.26083ZM14.175 16.7391V17.7391H15.0912L15.1712 16.8264L14.175 16.7391ZM3.98611 3.08691H7.00439V1.08691H3.98611V3.08691ZM3.3384 5.46232C3.57186 4.53833 3.8062 3.83691 4.02884 3.3861C4.14147 3.15806 4.22517 3.04827 4.2637 3.00881C4.30274 2.96883 4.20703 3.08691 3.98611 3.08691V1.08691C3.46604 1.08691 3.07831 1.36002 2.83265 1.61164C2.58648 1.86378 2.39282 2.18217 2.23563 2.50046C1.91863 3.1423 1.64349 4.0061 1.39934 4.97238L3.3384 5.46232ZM0.14634 6.21735H2.36887V4.21735H0.14634V6.21735ZM0.903452 4.83075C1.28841 5.42972 0.858343 6.21735 0.14634 6.21735V4.21735C-0.723887 4.21735 -1.24953 5.18001 -0.779021 5.91208L0.903452 4.83075ZM2.6175 7.49768L0.903452 4.83075L-0.779021 5.91208L0.935029 8.57901L2.6175 7.49768ZM0.998631 23.5416C1.15474 21.4523 1.77357 13.7291 2.76062 8.21453L0.791909 7.86216C-0.21556 13.4908 -0.840178 21.3097 -0.995809 23.3926L0.998631 23.5416ZM0.49831 23C0.783914 23 1.02086 23.2441 0.998631 23.5416L-0.995809 23.3926C-1.06121 24.2678 -0.366614 25 0.49831 25V23ZM7.00439 23H0.49831V25H7.00439V23ZM7.00452 23H7.00439V25H7.00452V23ZM13.5106 23H7.00452V25H13.5106V23ZM13.0103 23.5416C12.9881 23.2441 13.225 23 13.5106 23V25C14.3755 25 15.0701 24.2678 15.0047 23.3926L13.0103 23.5416ZM12.5097 17.8387C12.7691 20.4293 12.9389 22.5864 13.0103 23.5416L15.0047 23.3926C14.9325 22.4266 14.7613 20.2519 14.4997 17.6395L12.5097 17.8387ZM13.5047 18.7391H14.175V16.7391H13.5047V18.7391ZM14.175 18.7391C15.2119 18.7391 16.0769 17.9466 16.1674 16.9137L14.175 16.7391V18.7391ZM16.1674 16.9137L16.9981 7.43544L15.0057 7.26083L14.175 16.7391L16.1674 16.9137ZM16.9981 7.43544C17.1005 6.26644 16.1792 5.26083 15.0057 5.26083V7.26083L15.0057 7.26083L16.9981 7.43544ZM15.0057 5.26083H11.8837V7.26083H15.0057V5.26083ZM10.0228 3.08691C9.76409 3.08691 9.68046 2.92943 9.7665 3.03269C9.84099 3.12209 9.95613 3.30994 10.095 3.63884C10.3689 4.28725 10.643 5.25813 10.9064 6.4728L12.861 6.04886C12.59 4.79928 12.2848 3.68321 11.9375 2.86072C11.7658 2.45417 11.5598 2.06059 11.303 1.75242C11.0578 1.45811 10.6328 1.08691 10.0228 1.08691V3.08691ZM7.00452 3.08691H10.0228V1.08691H7.00452V3.08691ZM7.00439 3.08691H7.00452V1.08691H7.00439V3.08691ZM11.1063 7.45052C11.6444 10.2354 12.0833 13.7498 12.4077 16.8434L14.3968 16.6348C14.0708 13.5258 13.6248 9.94267 13.07 7.07113L11.1063 7.45052ZM15.0057 6.26083L12.0881 6.26083V8.26083L15.0057 8.26083V6.26083ZM15.1712 16.8264L16.0019 7.34813L14.0095 7.17352L13.1788 16.6518L15.1712 16.8264ZM13.4022 17.7391H14.175V15.7391H13.4022V17.7391Z" fill="#0072FF" mask="url(#path-5-inside-2)"/>
<rect x="0.968506" y="20.8696" width="12.0717" height="1.04348" fill="#0072FF"/>
<rect x="5.49829" y="7.8479" width="3.01195" height="9.34783" rx="1.50597" fill="#CCE3FF" stroke="#0072FF"/>
<path d="M7.50725 14.6085C7.50725 15.652 6.50128 15.5632 5.99829 15.5632V16.6955H8.01024L8.51323 15.5632V8.34767L7.50725 7.82593V14.6085Z" fill="#80B8FF"/>
<rect x="5.49829" y="7.8479" width="3.01195" height="9.34783" rx="1.50597" stroke="#0072FF"/>
</svg>
