<svg width="9" height="9" viewBox="0 0 9 9" fill="none" xmlns="http://www.w3.org/2000/svg">
<path fill-rule="evenodd" clip-rule="evenodd" d="M9 0.527142L8.99987 0.538796L8.99987 3.69C8.99987 3.98113 8.76386 4.21714 8.47273 4.21714C8.1816 4.21714 7.94559 3.98113 7.94559 3.69L7.94559 1.79982L4.8998 4.84561C4.69393 5.05148 4.36017 5.05148 4.1543 4.84562C3.94844 4.63975 3.94844 4.30599 4.1543 4.10012L7.20014 1.05428L5.31 1.05428C5.01887 1.05428 4.78286 0.818274 4.78286 0.527142C4.78286 0.23601 5.01887 0 5.31 0H8.47273H8.47286C8.76399 0 9 0.23601 9 0.527142ZM3 2H1V8H7V6H7.00184C7.00062 5.85042 7 5.68421 7 5.5C7 5.22386 7.22386 5 7.5 5C7.77614 5 8 5.22386 8 5.5C8 5.68421 7.99938 5.85042 7.99816 6H8V8C8 8.55228 7.55228 9 7 9H1C0.447715 9 0 8.55228 0 8V2C0 1.44772 0.447715 1 1 1H3V1.00137C3.15183 1.00046 3.31811 1 3.49988 1C3.77602 1 3.99988 1.22386 3.99988 1.5C3.99988 1.77614 3.77602 2 3.49988 2C3.31572 2 3.14955 1.99938 3 1.99817V2Z" fill="#8891A3"/>
</svg>
