<svg width="24" height="18" viewBox="0 0 24 18" fill="none" xmlns="http://www.w3.org/2000/svg">
<path d="M1.29356 7.95437C0.784356 9.52337 0.484068 11.1526 0.400391 12.8C0.400391 16.7998 0.800286 17.1997 2.40023 17.1997C6.24025 17.1997 5.20664 13.24 7.00781 12.232L9.99091 12H14.0093L16.9924 12.232C18.7935 13.24 17.7601 17.1997 21.5999 17.1997C23.1999 17.1997 23.6 16.7998 23.6 12.8C23.5161 11.1526 23.2158 9.52337 22.7068 7.95437L21.2112 4.44009C20.6055 3.45281 19.92 2.80005 19.2 2.80005C17.6001 2.80005 18 3.60002 14.8001 3.60002H9.20009C6.0002 3.60002 6.40028 2.80005 4.80033 2.80005C4.08019 2.80005 3.39466 3.45281 2.78914 4.44009L1.29356 7.95437Z" fill="#E6F1FF"/>
<path d="M23.5995 12.7997C23.5995 16.7995 23.1994 17.1994 21.5994 17.1994C21.4081 17.2003 21.2171 17.1883 21.0274 17.1635C22.1074 17.0035 22.3994 16.2116 22.3994 12.7997C22.3148 11.1528 22.0151 9.52452 21.5075 7.9557L20.0114 4.43977C19.5274 3.65573 18.9996 3.08372 18.4395 2.88377C18.6883 2.82371 18.9435 2.79552 19.1995 2.79973C19.9195 2.79973 20.6035 3.45175 21.2114 4.43977L22.7074 7.9557C23.2149 9.52452 23.5149 11.1528 23.5995 12.7997Z" fill="#CCE3FF"/>
<path d="M10.3998 10.8001C10.3998 11.9045 9.50439 12.8001 8.39974 12.8001C7.29527 12.8001 6.3999 11.9045 6.3999 10.8001C6.3999 9.6956 7.29527 8.80005 8.39974 8.80005C9.50439 8.80005 10.3998 9.6956 10.3998 10.8001Z" fill="#80B8FF"/>
<path d="M17.5996 10.8001C17.5996 11.9045 16.7041 12.8001 15.5996 12.8001C14.4952 12.8001 13.5996 11.9045 13.5996 10.8001C13.5996 9.6956 14.4952 8.80005 15.5996 8.80005C16.7041 8.80005 17.5996 9.6956 17.5996 10.8001Z" fill="#80B8FF"/>
<path d="M7.59954 7.19972C7.6043 8.89268 6.28962 10.2963 4.59996 10.4024C2.91048 10.5084 1.43064 9.27994 1.22374 7.5998C1.1917 7.33412 1.1917 7.0655 1.22374 6.79982C1.43064 5.11949 2.91048 3.89124 4.59996 3.99708C6.28962 4.10309 7.6043 5.50675 7.59954 7.19972Z" fill="#80B8FF"/>
<path d="M22.7999 7.19941C22.7999 8.96671 21.3671 10.3993 19.5998 10.3993C17.8325 10.3993 16.3999 8.96671 16.3999 7.19941C16.3999 5.4321 17.8325 3.99951 19.5998 3.99951C21.3671 3.99951 22.7999 5.4321 22.7999 7.19941Z" fill="#80B8FF"/>
<path d="M18.4 7.19965C18.4 7.75189 17.9523 8.19959 17.3998 8.19959C16.8476 8.19959 16.3999 7.75189 16.3999 7.19965C16.3999 6.6474 16.8476 6.19971 17.3998 6.19971C17.9523 6.19971 18.4 6.6474 18.4 7.19965Z" fill="#E3E7F2"/>
<path d="M20.5997 4.99945C20.5997 5.5517 20.152 5.99957 19.5995 5.99957C19.0473 5.99957 18.5996 5.5517 18.5996 4.99945C18.5996 4.4472 19.0473 3.99951 19.5995 3.99951C20.152 3.99951 20.5997 4.4472 20.5997 4.99945Z" fill="#E3E7F2"/>
<path d="M22.7994 7.19965C22.7994 7.75189 22.3517 8.19959 21.7993 8.19959C21.247 8.19959 20.7993 7.75189 20.7993 7.19965C20.7993 6.6474 21.247 6.19971 21.7993 6.19971C22.3517 6.19971 22.7994 6.6474 22.7994 7.19965Z" fill="#E3E7F2"/>
<path d="M20.5997 9.39984C20.5997 9.95209 20.152 10.3998 19.5995 10.3998C19.0473 10.3998 18.5996 9.95209 18.5996 9.39984C18.5996 8.8476 19.0473 8.3999 19.5995 8.3999C20.152 8.3999 20.5997 8.8476 20.5997 9.39984Z" fill="#E3E7F2"/>
<path d="M9.19971 3.59961H14.7997V6.3996C14.7997 6.84143 14.4415 7.19958 13.9997 7.19958H9.99986C9.55804 7.19958 9.19971 6.84143 9.19971 6.3996V3.59961Z" fill="#E3E7F2"/>
<path d="M18.1919 12.2319C17.9927 12.4242 17.7556 12.5729 17.4956 12.6683C18.5871 14.0282 18.2128 17.0041 21.2911 17.1881C21.3907 17.1946 21.4931 17.1982 21.5995 17.1982C21.8051 17.2004 22.0104 17.1883 22.2143 17.1618C19.0668 16.7734 19.8948 13.185 18.1919 12.2319Z" fill="white"/>
<path d="M2.40023 17.1994C2.59597 17.1994 2.79134 17.1873 2.98543 17.1631C1.89633 17.0082 1.60026 16.2251 1.60026 12.7996C1.68412 11.1541 1.98404 9.52686 2.49233 7.95969C2.46285 7.84104 2.44015 7.72092 2.42422 7.59971C2.39236 7.33403 2.39236 7.06542 2.42422 6.79974C2.54891 5.81025 3.12824 4.93594 3.99066 4.43534C4.47075 3.65166 5.00504 3.08496 5.56588 2.88447C5.31522 2.82423 5.05796 2.79566 4.80033 2.79969C4.08019 2.79969 3.39594 3.45135 2.79079 4.43534C1.92838 4.93594 1.34904 5.81025 1.22435 6.79974C1.19231 7.06542 1.19231 7.33403 1.22435 7.59971C1.2401 7.72092 1.2628 7.84104 1.29228 7.95969C0.783989 9.52686 0.484251 11.1541 0.400391 12.7996C0.400391 16.7995 0.800285 17.1994 2.40023 17.1994Z" fill="#CCE3FF"/>
<path d="M18.736 2.82898C18.6983 2.83374 18.6615 2.83923 18.626 2.84528L18.5655 2.85644C17.64 3.03735 17.4876 3.60002 14.8 3.60002H16.0001C18.5575 3.60002 18.8171 3.09008 19.6343 2.88483C19.4955 2.83191 19.3485 2.80316 19.2 2.80005C19.1099 2.80005 19.0279 2.80334 18.9491 2.80811C18.9176 2.80811 18.8883 2.81323 18.8587 2.81561C18.8168 2.81964 18.7752 2.82367 18.736 2.82898Z" fill="white"/>
<path d="M2.39992 17.5996C2.16189 17.6022 1.92404 17.5865 1.68838 17.5528C1.40897 17.5187 1.14274 17.4145 0.914412 17.2501C0.795029 17.1611 0.68883 17.0558 0.598744 16.9372C0.451713 16.7191 0.341852 16.4781 0.273188 16.224C0.237483 16.1097 0.209469 15.9933 0.189328 15.8752C0.0509024 14.9935 -0.0115355 14.1015 0.00292963 13.2089L0 12.7998H0.799973L0.802902 13.2021C0.788987 14.0436 0.845931 14.8846 0.973187 15.7164C1.0023 16.0532 1.15006 16.3688 1.38993 16.6069C1.70065 16.7684 2.05166 16.8354 2.39992 16.7997V17.5996Z" fill="#0072FF"/>
<path d="M0.746847 16.3708C0.645224 16.4123 0.56832 16.4978 0.537558 16.6031C0.512289 16.7295 0.542319 16.8606 0.620322 16.9631C0.84133 17.25 1.15829 17.4476 1.51314 17.5195C1.8052 17.577 2.10238 17.604 2.39992 17.5996V16.7996C2.16408 16.8034 1.92824 16.7842 1.69607 16.7419C1.52065 16.7137 1.363 16.6189 1.25606 16.4771C1.20351 16.412 1.12844 16.3691 1.04568 16.3572C0.947348 16.3281 0.842062 16.3329 0.746847 16.3708Z" fill="#0072FF"/>
<path d="M0.799988 12.8H0L0.00292969 13.2091L0.00732421 13.6132C0.0111695 13.8341 0.193542 14.01 0.414368 14.006C0.635376 14.002 0.811157 13.8198 0.807312 13.5988L0.802917 13.2023L0.799988 12.8Z" fill="#0072FF"/>
<path d="M0.093499 15.2457C0.107964 15.3548 0.162347 15.4546 0.246392 15.5257L0.31231 15.5658C0.336297 15.5779 0.361931 15.5865 0.388299 15.5912C0.412102 15.5995 0.437188 15.6039 0.462456 15.6041C0.48919 15.6046 0.515923 15.6031 0.54229 15.5997C0.64666 15.5806 0.740777 15.5253 0.808343 15.4437C0.937249 15.2746 0.911248 15.0342 0.749199 14.8965C0.707818 14.8643 0.660943 14.8401 0.610772 14.8249C0.56115 14.8083 0.508599 14.8013 0.456414 14.8044C0.350762 14.8138 0.252801 14.8636 0.183221 14.9438C0.115838 15.0293 0.0837944 15.1373 0.093499 15.2457Z" fill="#0072FF"/>
<path d="M21.5996 17.5996C18.9377 17.5996 18.343 15.8356 17.8649 14.4184C17.5886 13.5985 17.3496 12.8904 16.7969 12.581C16.6866 12.5193 16.6119 12.4092 16.5955 12.284C16.579 12.1586 16.6227 12.033 16.7134 11.9449C17.3357 11.3482 17.3749 10.366 16.802 9.72149C16.2291 9.07697 15.2489 9.0008 14.5833 9.54919C13.9178 10.0976 13.8048 11.0741 14.3277 11.7598C14.4187 11.881 14.4334 12.043 14.3655 12.1785C14.2977 12.3142 14.1593 12.3997 14.0079 12.3997H9.99115C9.83954 12.3997 9.70111 12.3142 9.63336 12.1785C9.56562 12.043 9.58008 11.881 9.67108 11.7598C9.88293 11.4844 9.99847 11.1471 9.99993 10.7998C10.0016 10.0721 9.51197 9.43493 8.80831 9.24908C8.10465 9.06342 7.36436 9.37579 7.00658 10.0095C6.6488 10.6432 6.76379 11.4384 7.28636 11.9449C7.37681 12.033 7.42058 12.1586 7.4041 12.284C7.38762 12.4092 7.31291 12.5193 7.20268 12.581C6.6499 12.8904 6.41113 13.5985 6.13465 14.4184C5.65675 15.8356 5.06186 17.5996 2.39992 17.5996C2.1791 17.5996 2.00002 17.4206 2.00002 17.1996C2.00002 16.9787 2.1791 16.7997 2.39992 16.7997C4.48765 16.7997 4.91995 15.5196 5.37643 14.1628C5.62563 13.4242 5.88197 12.6645 6.42633 12.163C6.07203 11.6514 5.93049 11.0221 6.03193 10.4081C4.38566 11.2454 2.373 10.7011 1.37327 9.1482C1.04441 10.3396 0.852157 11.5648 0.799973 12.7998C0.799973 13.0206 0.620899 13.1997 0.400078 13.1997C0.179074 13.1997 0 13.0206 0 12.7998C0.0851424 11.1127 0.391472 9.44427 0.910749 7.837C0.963483 7.6647 1.12498 7.54898 1.30515 7.55429C1.48514 7.5596 1.6395 7.68466 1.68198 7.85989C1.9656 9.03449 2.97028 9.89507 4.17473 9.99486C5.37899 10.0947 6.51166 9.41131 6.98479 8.29915C7.45793 7.18717 7.16478 5.89722 6.2577 5.09871C5.35061 4.3002 4.03374 4.17313 2.99079 4.78341C2.83241 4.87588 2.63154 4.84896 2.50319 4.71786C2.37502 4.58694 2.35213 4.38535 2.44807 4.22916C3.19312 3.01556 3.98485 2.39997 4.80002 2.39997C5.32387 2.38843 5.84315 2.50177 6.31464 2.73029C6.82678 2.95037 7.40794 3.19994 9.19978 3.19994H14.7998C16.5918 3.19994 17.173 2.95037 17.6849 2.73029C18.1566 2.50177 18.6757 2.38843 19.1997 2.39997C20.0149 2.39997 20.8064 3.01556 21.5517 4.22916C21.6474 4.38535 21.6247 4.58694 21.4964 4.71786C21.3682 4.84896 21.1671 4.87588 21.0088 4.78341C19.9662 4.17533 18.6513 4.30368 17.7461 5.10201C16.8408 5.90051 16.5491 7.18919 17.0221 8.29952C17.4952 9.41003 18.6268 10.0923 19.8296 9.9923C21.0326 9.89251 22.036 9.03302 22.3196 7.85989C22.3621 7.68466 22.5162 7.5596 22.6964 7.55429C22.8753 7.55319 23.0344 7.66727 23.0908 7.837C23.6095 9.44445 23.9151 11.1129 23.9995 12.7998C23.9995 16.5768 23.7007 17.5996 21.5996 17.5996ZM17.5734 12.163C18.1178 12.6645 18.3734 13.4242 18.6233 14.1628C19.0796 15.5196 19.5121 16.7997 21.5996 16.7997C22.7964 16.7997 23.1996 16.7997 23.1996 12.7998C23.1476 11.5648 22.9553 10.3396 22.6265 9.1482C21.6265 10.7011 19.6139 11.2454 17.9676 10.4081C18.0691 11.0221 17.9277 11.6514 17.5734 12.163ZM10.6595 11.5997H13.3393C13.2465 11.3432 13.1993 11.0726 13.1998 10.7998C13.1998 10.0507 13.5496 9.34448 14.1454 8.89057C14.7412 8.43666 15.5148 8.28688 16.2369 8.48573C15.8136 7.37906 15.9621 6.13489 16.6339 5.15877C17.3057 4.18283 18.4148 3.59984 19.5996 3.59984C19.7602 3.59984 19.9206 3.61082 20.0797 3.63261C19.8512 3.38286 19.537 3.22832 19.1997 3.19994C18.7839 3.18877 18.3719 3.27996 17.9997 3.46544C17.4465 3.70347 16.7566 3.99992 14.7998 3.99992H9.19978C7.24315 3.99992 6.55304 3.70347 5.99989 3.46544C5.62782 3.27996 5.21566 3.18877 4.80002 3.19994C4.46256 3.22832 4.14836 3.38286 3.92003 3.63261C4.07896 3.61082 4.23936 3.59984 4.39994 3.59984C5.58479 3.59984 6.69403 4.18283 7.36583 5.15877C8.03745 6.13489 8.18594 7.37906 7.76261 8.48573C8.48495 8.28688 9.25855 8.43666 9.85437 8.89057C10.4502 9.34448 10.7999 10.0507 10.7999 10.7998C10.8001 11.0726 10.7525 11.3434 10.6595 11.5997Z" fill="#0072FF"/>
<path d="M8.39992 13.1995C7.07463 13.1995 6 12.1251 6 10.7996C6 9.4741 7.07463 8.39966 8.39992 8.39966C9.7254 8.39966 10.8 9.4741 10.8 10.7996C10.7986 12.1245 9.72485 13.1982 8.39992 13.1995ZM8.39992 9.19963C7.51627 9.19963 6.79997 9.91593 6.79997 10.7996C6.79997 11.6832 7.51627 12.3995 8.39992 12.3995C9.28357 12.3995 10 11.6832 10 10.7996C10 9.91593 9.28357 9.19963 8.39992 9.19963Z" fill="#0072FF"/>
<path d="M4.40002 10.7998C2.4119 10.7998 0.800049 9.18794 0.800049 7.19982C0.800049 5.2117 2.4119 3.59985 4.40002 3.59985C6.38814 3.59985 7.99999 5.2117 7.99999 7.19982C7.99761 9.18703 6.38722 10.7974 4.40002 10.7998ZM4.40002 4.39983C2.85372 4.39983 1.60002 5.65353 1.60002 7.19982C1.60002 8.7463 2.85372 9.99982 4.40002 9.99982C5.94631 9.99982 7.20001 8.7463 7.20001 7.19982C7.19818 5.65426 5.94558 4.40166 4.40002 4.39983Z" fill="#0072FF"/>
<path d="M19.5993 10.7998C17.6112 10.7998 15.9995 9.18794 15.9995 7.19982C15.9995 5.2117 17.6112 3.59985 19.5993 3.59985C21.5876 3.59985 23.1993 5.2117 23.1993 7.19982C23.1969 9.18703 21.5865 10.7974 19.5993 10.7998ZM19.5993 4.39983C18.053 4.39983 16.7995 5.65353 16.7995 7.19982C16.7995 8.7463 18.053 9.99982 19.5993 9.99982C21.1458 9.99982 22.3993 8.7463 22.3993 7.19982C22.3975 5.65426 21.145 4.40166 19.5993 4.39983Z" fill="#0072FF"/>
<path d="M15.5999 13.1995C14.2744 13.1995 13.2 12.1251 13.2 10.7996C13.2 9.4741 14.2744 8.39966 15.5999 8.39966C16.9253 8.39966 17.9998 9.4741 17.9998 10.7996C17.9985 12.1245 16.9248 13.1982 15.5999 13.1995ZM15.5999 9.19963C14.7162 9.19963 13.9999 9.91593 13.9999 10.7996C13.9999 11.6832 14.7162 12.3995 15.5999 12.3995C16.4835 12.3995 17.1998 11.6832 17.1998 10.7996C17.1998 9.91593 16.4835 9.19963 15.5999 9.19963Z" fill="#0072FF"/>
<path d="M17.1994 8.39996C16.5367 8.39996 15.9995 7.86273 15.9995 7.19989C15.9995 6.53723 16.5367 6 17.1994 6C17.8622 6 18.3995 6.53723 18.3995 7.19989C18.3995 7.86273 17.8622 8.39996 17.1994 8.39996ZM17.1994 6.79999C16.9786 6.79999 16.7995 6.97906 16.7995 7.19989C16.7995 7.4209 16.9786 7.59998 17.1994 7.59998C17.4204 7.59998 17.5995 7.4209 17.5995 7.19989C17.5995 6.97906 17.4204 6.79999 17.1994 6.79999Z" fill="#0072FF"/>
<path d="M19.5995 6C18.9369 6 18.3997 5.46259 18.3997 4.79993C18.3997 4.13708 18.9369 3.59985 19.5995 3.59985C20.2624 3.59985 20.7996 4.13708 20.7996 4.79993C20.7996 5.46259 20.2624 6 19.5995 6ZM19.5995 4.39984C19.3787 4.39984 19.1996 4.57892 19.1996 4.79993C19.1996 5.02075 19.3787 5.19983 19.5995 5.19983C19.8206 5.19983 19.9996 5.02075 19.9996 4.79993C19.9996 4.57892 19.8206 4.39984 19.5995 4.39984Z" fill="#0072FF"/>
<path d="M21.9996 8.39996C21.3368 8.39996 20.7996 7.86273 20.7996 7.19989C20.7996 6.53723 21.3368 6 21.9996 6C22.6623 6 23.1995 6.53723 23.1995 7.19989C23.1995 7.86273 22.6623 8.39996 21.9996 8.39996ZM21.9996 6.79999C21.7786 6.79999 21.5995 6.97906 21.5995 7.19989C21.5995 7.4209 21.7786 7.59998 21.9996 7.59998C22.2205 7.59998 22.3995 7.4209 22.3995 7.19989C22.3995 6.97906 22.2205 6.79999 21.9996 6.79999Z" fill="#0072FF"/>
<path d="M19.5995 10.7996C18.9369 10.7996 18.3997 10.2624 18.3997 9.59955C18.3997 8.93689 18.9369 8.39966 19.5995 8.39966C20.2624 8.39966 20.7996 8.93689 20.7996 9.59955C20.7996 10.2624 20.2624 10.7996 19.5995 10.7996ZM19.5995 9.19965C19.3787 9.19965 19.1996 9.37872 19.1996 9.59955C19.1996 9.82056 19.3787 9.99963 19.5995 9.99963C19.8206 9.99963 19.9996 9.82056 19.9996 9.59955C19.9996 9.37872 19.8206 9.19965 19.5995 9.19965Z" fill="#0072FF"/>
<path d="M4.39989 6.39986C4.17907 6.39986 4 6.22078 4 5.99996V3.99993C4 3.77893 4.17907 3.59985 4.39989 3.59985C4.6209 3.59985 4.79997 3.77893 4.79997 3.99993V5.99996C4.79997 6.22078 4.6209 6.39986 4.39989 6.39986Z" fill="#0072FF"/>
<path d="M2.80011 7.60004H1.20013C0.979126 7.60004 0.800049 7.42096 0.800049 7.19995C0.800049 6.97913 0.979126 6.80005 1.20013 6.80005H2.80011C3.02094 6.80005 3.20001 6.97913 3.20001 7.19995C3.20001 7.42096 3.02094 7.60004 2.80011 7.60004Z" fill="#0072FF"/>
<path d="M7.59998 7.60004H6C5.77917 7.60004 5.6001 7.42096 5.6001 7.19995C5.6001 6.97913 5.77917 6.80005 6 6.80005H7.59998C7.82098 6.80005 8.00006 6.97913 8.00006 7.19995C8.00006 7.42096 7.82098 7.60004 7.59998 7.60004Z" fill="#0072FF"/>
<path d="M4.3999 10.7996C4.17908 10.7996 4 10.6205 4 10.3995V8.79956C4 8.57874 4.17908 8.39966 4.3999 8.39966C4.62091 8.39966 4.79999 8.57874 4.79999 8.79956V10.3995C4.79999 10.6205 4.62091 10.7996 4.3999 10.7996Z" fill="#0072FF"/>
<path d="M14 7.5999H10.0001C9.33727 7.5999 8.80005 7.06268 8.80005 6.39985V3.59985C8.80005 3.37903 8.97912 3.19995 9.19994 3.19995H14.7999C15.0208 3.19995 15.1998 3.37903 15.1998 3.59985V6.39985C15.1998 7.06268 14.6626 7.5999 14 7.5999ZM9.60002 3.99993V6.39985C9.60002 6.62086 9.7791 6.79993 10.0001 6.79993H14C14.2208 6.79993 14.3999 6.62086 14.3999 6.39985V3.99993H9.60002Z" fill="#0072FF"/>
<path d="M4.3999 1.59998C4.17908 1.59998 4 1.4209 4 1.19989V0.399902C4 0.179077 4.17908 0 4.3999 0C4.62091 0 4.79999 0.179077 4.79999 0.399902V1.19989C4.79999 1.4209 4.62091 1.59998 4.3999 1.59998Z" fill="#0072FF"/>
<path d="M2.79992 2.40001C2.73803 2.40001 2.67687 2.38555 2.62157 2.3579L1.82158 1.95799C1.62383 1.8593 1.54363 1.61888 1.64232 1.42113C1.74102 1.22337 1.98143 1.14317 2.17919 1.24205L2.97918 1.64195C3.14544 1.7249 3.23278 1.9113 3.18993 2.09203C3.14727 2.27275 2.98558 2.40038 2.79992 2.40001Z" fill="#0072FF"/>
<path d="M19.5999 1.59998C19.379 1.59998 19.2 1.4209 19.2 1.19989V0.399902C19.2 0.179077 19.379 0 19.5999 0C19.8209 0 19.9999 0.179077 19.9999 0.399902V1.19989C19.9999 1.4209 19.8209 1.59998 19.5999 1.59998Z" fill="#0072FF"/>
<path d="M21.1996 2.40001C21.0139 2.40038 20.8524 2.27275 20.8096 2.09203C20.7669 1.9113 20.8542 1.7249 21.0205 1.64195L21.8205 1.24205C22.0182 1.14317 22.2585 1.22337 22.3573 1.42113C22.456 1.61888 22.3758 1.8593 22.1781 1.95799L21.3781 2.3579C21.3226 2.38555 21.2617 2.40001 21.1996 2.40001Z" fill="#0072FF"/>
<path d="M8.79999 10.7997C8.79999 11.0206 8.62091 11.1996 8.3999 11.1996C8.17908 11.1996 8 11.0206 8 10.7997C8 10.5787 8.17908 10.3997 8.3999 10.3997C8.62091 10.3997 8.79999 10.5787 8.79999 10.7997Z" fill="#0072FF"/>
<path d="M15.9996 10.7997C15.9996 11.0206 15.8206 11.1996 15.5995 11.1996C15.3787 11.1996 15.1995 11.0206 15.1995 10.7997C15.1995 10.5787 15.3787 10.3997 15.5995 10.3997C15.8206 10.3997 15.9996 10.5787 15.9996 10.7997Z" fill="#0072FF"/>
</svg>
