<svg width="24" height="24" viewBox="0 0 24 24" fill="none" xmlns="http://www.w3.org/2000/svg">
<g clip-path="url(#clip0)">
<path d="M10.3928 0.482044C8.25011 0.515735 3.95981 4.73595 3.42502 8.08587C3.39456 8.27612 2.72804 16.1671 2.59778 17.7672H6.35512C6.36906 17.5469 6.35512 16.7803 6.35512 16.2894C6.35512 15.611 5.64273 15.4502 5.66236 15.1422C5.68052 14.8586 6.68388 14.5385 6.68388 13.7858C6.68388 13.0328 5.75629 12.8356 5.77519 12.5427C5.79647 12.2136 6.73085 12.1173 6.73085 11.3453C6.73085 10.5734 6.1146 10.7296 6.02635 9.80963C5.97938 9.32074 6.12817 8.69213 6.18615 8.56231C6.18853 8.55737 6.19073 8.55206 6.19312 8.54693C6.54996 7.74401 7.6146 7.56878 8.2125 8.21331L9.59582 9.70471L13.3062 0.470325C13.3062 0.470325 11.7304 0.460987 10.3928 0.482044Z" fill="#CCE3FF"/>
<path d="M13.3093 0.492188L9.60059 9.70405L10.1113 9.90492C10.7946 10.1737 11.5666 9.83882 11.8359 9.15711L14.5695 2.41425C14.8387 1.73236 14.5033 0.961854 13.8201 0.693054L13.3093 0.492188Z" fill="#80B8FF"/>
<path d="M2.59778 17.7678H6.35512V19.6428H2.59778V17.7678Z" fill="#80B8FF"/>
<path d="M13.9815 0.256943C13.9815 0.256943 13.405 0.0027926 13.3021 0.00224329C13.2863 0.00224329 11.715 -0.00691201 10.3951 0.0139621C9.02172 0.0357516 7.22432 1.42516 6.00007 2.71807C4.36082 4.44951 3.27196 6.37926 3.01254 8.01275C2.97677 8.2387 2.2897 16.4466 2.18567 17.73C2.1853 17.7355 2.1842 19.6429 2.1842 19.6429C2.1842 19.9018 2.39335 20.1116 2.6513 20.1116H4.05223V23.5315C4.05223 23.7904 4.26138 24.0003 4.51933 24.0003C4.77728 24.0003 4.98643 23.7904 4.98643 23.5315V20.1116H6.38736C6.64531 20.1116 6.85446 19.9018 6.85446 19.6429C6.85446 19.6429 6.85446 16.4523 6.85446 16.29C6.85446 15.7122 6.5178 15.3806 6.29049 15.1764C6.29783 15.1705 7.18139 14.5784 7.18139 13.7863C7.18139 13.1476 6.76218 12.7858 6.46221 12.5609C6.76383 12.3654 7.22817 12.0189 7.22817 11.346C7.22817 10.7787 6.97481 10.5127 6.78988 10.3186C6.64311 10.1646 6.55468 10.0718 6.52551 9.76562C6.47432 9.22949 6.5677 8.40862 7.21607 8.30041C7.47053 8.25793 7.71655 8.34252 7.89176 8.5324L9.26719 10.0238C9.3259 10.0873 9.4002 10.1316 9.48074 10.1549C9.8473 10.2999 10.2036 10.4662 10.6056 10.4662C11.3189 10.4662 11.9944 10.0353 12.2701 9.33276L14.99 2.58605C15.3518 1.66503 14.8993 0.620042 13.9815 0.256943ZM5.92044 19.1741H3.11822V18.2366H5.92044V19.1741ZM9.4512 8.84332L8.577 7.89556C8.19044 7.47643 7.62446 7.28216 7.06287 7.37572C6.60385 7.45226 6.21032 7.72417 5.9487 8.10668C5.62213 8.58404 5.54177 9.28991 5.59553 9.85516C5.65571 10.4849 5.932 10.7747 6.11473 10.9666C6.25251 11.1111 6.29398 11.1548 6.29398 11.346C6.29398 11.5386 6.17124 11.6368 5.89127 11.8146C5.67057 11.9546 5.36822 12.1465 5.34473 12.5133C5.32107 12.8839 5.60415 13.0919 5.83146 13.2589C6.09015 13.4492 6.24738 13.5795 6.24738 13.7864C6.24738 14.0089 6.0285 14.1957 5.7423 14.4167C5.50178 14.6025 5.25282 14.7948 5.23264 15.113C5.21007 15.4675 5.4539 15.6847 5.63186 15.8433C5.83256 16.0218 5.92044 16.1181 5.92044 16.29C5.92044 16.4547 5.92595 17.1556 5.9265 17.2991H3.15821C3.35709 14.8832 3.89831 8.46447 3.93573 8.15539C4.16433 6.72661 5.18879 4.93602 6.67705 3.36388C8.03028 1.93474 9.53028 0.965196 10.4098 0.95128C11.1772 0.939195 12.0303 0.937181 12.6097 0.93773L9.4512 8.84332ZM14.1226 2.23851L11.4027 8.98522C11.2299 9.42541 10.7325 9.64239 10.2937 9.46899L10.223 9.44097L13.5626 1.09905L13.6389 1.12926C14.0776 1.30284 14.2937 1.80217 14.1226 2.23851Z" fill="#0072FF"/>
<path d="M19.3066 10.9779C19.3066 10.9779 16.3989 9.48194 16.3974 9.48121C16.1703 9.36439 15.8848 9.45741 15.7689 9.68464C15.6528 9.91242 15.7458 10.1995 15.9716 10.3156C15.9716 10.3156 18.8786 11.8114 18.8806 11.8123C19.1076 11.9292 19.3932 11.8363 19.5092 11.6089C19.6255 11.3811 19.5328 11.0944 19.3066 10.9779Z" fill="#0072FF"/>
<path d="M17.9155 13.374C17.9155 13.374 15.2261 11.5116 15.2244 11.5107C15.0151 11.3655 14.7188 11.4197 14.5748 11.6301C14.4286 11.8425 14.482 12.1355 14.6939 12.2821C14.6939 12.2821 17.3807 14.1425 17.3849 14.1454C17.5918 14.2888 17.8925 14.2317 18.0345 14.0259C18.1808 13.8131 18.127 13.5207 17.9155 13.374Z" fill="#0072FF"/>
<path d="M20.24 8.47802C20.24 8.47802 17.1806 7.32391 17.1796 7.32354C16.9417 7.23382 16.6678 7.35888 16.5781 7.59729C16.4893 7.83368 16.6177 8.11291 16.8514 8.20117C16.8514 8.20117 19.9074 9.35418 19.9112 9.35565C20.149 9.44537 20.4238 9.31903 20.5128 9.08191C20.6018 8.84478 20.4745 8.56646 20.24 8.47802Z" fill="#0072FF"/>
<path d="M20.8418 6.36837C20.8418 6.36837 17.7851 5.21517 17.7816 5.21389C17.544 5.12435 17.2686 5.25106 17.18 5.48763C17.0894 5.72951 17.2121 6.00033 17.4532 6.09133C17.4532 6.09133 20.5097 7.24453 20.5132 7.24581C20.7509 7.33553 21.0258 7.20919 21.1148 6.97207C21.2052 6.73037 21.0828 6.45937 20.8418 6.36837Z" fill="#0072FF"/>
<path d="M21.5714 3.86115C21.5714 3.86115 18.4288 2.95844 18.4283 2.95825C18.1874 2.88904 17.9212 3.03333 17.8511 3.27979C17.7816 3.52387 17.9289 3.7901 18.1714 3.85932C18.1714 3.85932 21.3114 4.76166 21.3146 4.76258C21.5553 4.83179 21.8215 4.68769 21.8917 4.44104C21.9627 4.19257 21.8189 3.93238 21.5714 3.86115Z" fill="#0072FF"/>
<path d="M13.8785 10.8281C13.8785 11.0869 13.6683 11.2969 13.4089 11.2969C13.1495 11.2969 12.9392 11.0869 12.9392 10.8281C12.9392 10.5692 13.1495 10.3594 13.4089 10.3594C13.6683 10.3594 13.8785 10.5692 13.8785 10.8281Z" fill="#0072FF"/>
<path d="M15.006 9.04688C15.006 9.3056 14.7957 9.51563 14.5363 9.51563C14.2769 9.51563 14.0667 9.3056 14.0667 9.04688C14.0667 8.78796 14.2769 8.57812 14.5363 8.57812C14.7957 8.57812 15.006 8.78796 15.006 9.04688Z" fill="#0072FF"/>
<path d="M15.7572 7.125C15.7572 7.38373 15.547 7.59375 15.2875 7.59375C15.0281 7.59375 14.8179 7.38373 14.8179 7.125C14.8179 6.86609 15.0281 6.65625 15.2875 6.65625C15.547 6.65625 15.7572 6.86609 15.7572 7.125Z" fill="#0072FF"/>
<path d="M16.368 5.01563C16.368 5.27435 16.1578 5.48438 15.8984 5.48438C15.639 5.48438 15.4287 5.27435 15.4287 5.01563C15.4287 4.75671 15.639 4.54688 15.8984 4.54688C16.1578 4.54688 16.368 4.75671 16.368 5.01563Z" fill="#0072FF"/>
<path d="M16.9784 2.90625C16.9784 3.16498 16.7681 3.375 16.5087 3.375C16.2493 3.375 16.0391 3.16498 16.0391 2.90625C16.0391 2.64734 16.2493 2.4375 16.5087 2.4375C16.7681 2.4375 16.9784 2.64734 16.9784 2.90625Z" fill="#0072FF"/>
</g>
<defs>
<clipPath id="clip0">
<rect width="24" height="24" fill="white"/>
</clipPath>
</defs>
</svg>
