<svg width="26" height="17" viewBox="0 0 26 17" fill="none" xmlns="http://www.w3.org/2000/svg">
<rect x="2.5" y="3.39999" width="1.6" height="13" rx="0.4" fill="#CCE3FF" stroke="#0072FF" stroke-width="0.8"/>
<rect x="21.5" y="3.39999" width="1.6" height="13" rx="0.4" fill="#CCE3FF" stroke="#0072FF" stroke-width="0.8"/>
<rect x="4.1001" y="11" width="17.4" height="1.6" rx="0.4" fill="#CCE3FF" stroke="#0072FF" stroke-width="0.8"/>
<path d="M21.0999 6L21.1001 3.72435L9.60033 11L11.5999 11L21.0999 6Z" fill="#80B8FF"/>
<path d="M4.5 6L4.5 3.5L15.9996 11L14 11L4.5 6Z" fill="#80B8FF"/>
<path fill-rule="evenodd" clip-rule="evenodd" d="M11.0226 9.51706L8.4541 11H10.0541L11.7186 10.039L11.0226 9.51706ZM12.5806 8.61756L13.3847 9.07706L21.2003 4.56475V3.64099L12.5806 8.61756ZM12.4145 10.561L11.6541 11H12.9999V11.1468L13.2541 11H12.9999L12.4145 10.561ZM14.993 9.99606L14.1889 9.53656L21.2003 5.48851V6.41227L14.993 9.99606Z" fill="#0072FF"/>
<path fill-rule="evenodd" clip-rule="evenodd" d="M13 11.1466L4 5.95048V5.02672L14.346 11H13V11.1466ZM17.546 11L4.2 3.29467L4 3.1792V4.44108L4.14641 4.18749L15.946 11H17.546Z" fill="#0072FF"/>
<rect x="1" y="1" width="24" height="2.4" rx="0.4" fill="#E6F1FF" stroke="#0072FF" stroke-width="0.8"/>
</svg>
