<svg width="29" height="13" viewBox="0 0 29 13" fill="none" xmlns="http://www.w3.org/2000/svg">
<path opacity="0.7" d="M4.34233 12H7.04688L9.14347 4.94318H9.23438L11.331 12H14.0412L17.4219 0.363636H14.3196L12.5582 8.00568H12.4616L10.456 0.363636H7.92188L5.91619 7.98864H5.8196L4.06392 0.363636H0.955966L4.34233 12ZM28.5994 4.57955C28.3153 1.79545 26.2415 0.204545 23.429 0.204545C20.3267 0.204545 17.9119 2.33523 17.9119 6.18182C17.9119 10.0114 20.2699 12.1591 23.429 12.1591C26.6222 12.1591 28.3892 9.98864 28.5994 7.92614L25.7585 7.90909C25.5597 9.02841 24.7188 9.69318 23.4858 9.69318C21.8267 9.69318 20.7812 8.49432 20.7812 6.18182C20.7812 3.96023 21.804 2.67045 23.5028 2.67045C24.7812 2.67045 25.6165 3.41477 25.7585 4.57955H28.5994Z" fill="#0072FF"/>
</svg>
