<svg width="60" height="67" viewBox="0 0 60 67" fill="none" xmlns="http://www.w3.org/2000/svg">
<path fill-rule="evenodd" clip-rule="evenodd" d="M34.2205 48.0077C38.9018 48.4966 42.2692 44.2942 42.2703 37.0594C42.2716 27.9624 36.9501 17.5158 30.3843 13.7263C23.8186 9.93685 18.4949 14.2395 18.4936 23.3365C18.4925 31.3263 22.5973 40.3571 28.0448 45.0044L28.626 52.1105L34.2205 48.0077Z" fill="#E5E5E5"/>
<path fill-rule="evenodd" clip-rule="evenodd" d="M30.8292 47.7928C36.354 49.5628 40.5387 45.266 40.5398 37.2007C40.5411 28.1037 35.2196 17.6572 28.6538 13.8677C22.0881 10.0782 16.7644 14.3808 16.7631 23.4778C16.762 31.5427 20.9444 40.6683 26.4684 45.2757L28.6479 52.5763L30.8292 47.7928Z" fill="white"/>
<g opacity="0.9">
<path d="M27.0471 27.494L26.3918 24.1939C26.3153 23.8083 26.2724 23.4292 26.2644 23.0673L26.2345 21.7088L24.9424 20.9631L24.912 22.2868C24.9039 22.6395 24.8609 22.9689 24.7842 23.2661L24.128 25.8094C24.1029 25.9068 24.0901 26.0161 24.0901 26.1334L24.0896 29.0155C24.0896 29.0522 24.0908 29.0898 24.0933 29.1279L24.3409 32.8858C24.35 33.024 24.3422 33.1536 24.3181 33.269L24.0714 34.444C24.0051 34.8819 24.2689 35.4757 24.6194 35.678L26.5525 36.7936C26.9031 36.996 27.1669 36.7066 27.1007 36.1923L26.8545 34.7329C26.8304 34.5896 26.8227 34.4511 26.8319 34.3234L27.0806 30.8519C27.0831 30.8168 27.0844 30.7806 27.0844 30.7438L27.0848 27.8617C27.085 27.7445 27.0721 27.6205 27.0471 27.494Z" fill="#FFAC30"/>
<path d="M27.1008 36.1924L26.8547 34.7329C26.8305 34.5897 26.8228 34.4511 26.832 34.3235L27.0806 30.8519C27.0832 30.8168 27.0845 30.7808 27.0845 30.7439L27.085 27.8618C27.085 27.7445 27.0722 27.6206 27.0471 27.494L26.3919 24.1939C26.3153 23.8083 26.2725 23.4293 26.2644 23.0673L26.2345 21.7089L24.9424 20.9632L24.9121 22.2868C24.9089 22.4243 24.9003 22.5583 24.8865 22.6882C24.9079 22.9161 24.9419 23.1489 24.9886 23.384L25.6438 26.6842C25.6689 26.8107 25.6817 26.9346 25.6816 27.0519L25.6811 29.934C25.6811 29.9708 25.6799 30.0069 25.6774 30.0421L25.4286 33.5135C25.4195 33.6413 25.4272 33.7799 25.4513 33.923L25.6975 35.3826C25.7636 35.8967 25.4998 36.1862 25.1493 35.9839L26.5526 36.7938C26.9031 36.9961 27.1669 36.7066 27.1008 36.1924Z" fill="#FFAC30"/>
<path d="M27.047 27.4941L26.3918 24.1939C26.3563 24.0155 26.3285 23.8386 26.3076 23.664L24.8686 22.8335C24.8476 22.984 24.8197 23.1287 24.7842 23.2661L24.128 25.8094C24.1029 25.9069 24.0901 26.0161 24.0901 26.1334L24.0896 29.0155C24.0896 29.0522 24.0908 29.0898 24.0933 29.1279L24.3408 32.8858C24.3499 33.024 24.3422 33.1536 24.318 33.2689L24.1855 33.9005C24.2898 34.132 24.4477 34.3464 24.6195 34.4456L26.5527 35.5612C26.7309 35.6641 26.8865 35.6394 26.9879 35.5232L26.8546 34.7328C26.8305 34.5897 26.8228 34.4511 26.8319 34.3235L27.0807 30.852C27.0832 30.8168 27.0844 30.7807 27.0844 30.7439L27.0849 27.8618C27.0849 27.7445 27.0721 27.6205 27.047 27.4941Z" fill="#FFAC30"/>
<path d="M27.0761 27.6907C27.0698 27.6261 27.0603 27.5605 27.047 27.494L26.6102 25.2938L26.3918 24.1939C26.3916 24.1928 26.3914 24.1918 26.3913 24.1907C26.3824 24.1462 26.3741 24.1018 26.3662 24.0575C26.3597 24.0212 26.3537 23.985 26.3479 23.9488C26.3466 23.941 26.3452 23.9333 26.344 23.9256C26.33 23.8379 26.318 23.7506 26.3077 23.664L24.9043 22.854C24.925 23.0285 24.9531 23.2055 24.9886 23.384L25.6438 26.6841C25.6688 26.8106 25.6817 26.9346 25.6817 27.0519L25.6812 29.934C25.6812 29.9707 25.6798 30.0067 25.6773 30.042L25.4287 33.5135C25.4195 33.6411 25.4271 33.7797 25.4513 33.9229L25.6386 35.0336L26.5527 35.5612C26.7309 35.664 26.8865 35.6394 26.9878 35.5231L26.8546 34.7327C26.8492 34.7004 26.8447 34.6683 26.8409 34.6365C26.8363 34.5979 26.8328 34.5598 26.8308 34.5222C26.8298 34.5051 26.8292 34.4882 26.8287 34.4713C26.8274 34.4207 26.8285 34.3713 26.8319 34.3234L27.0807 30.8519C27.0832 30.8166 27.0844 30.7806 27.0844 30.7438L27.0849 27.8617C27.0849 27.8061 27.0819 27.7489 27.0761 27.6907Z" fill="#FFAC30"/>
<path d="M26.2394 22.1424L24.9368 21.3907C24.7948 21.3087 24.6797 21.0831 24.6798 20.8867L24.6799 20.244C24.6799 20.0476 24.7951 19.9549 24.9371 20.0368L26.2397 20.7886C26.3818 20.8706 26.4969 21.0963 26.4968 21.2926L26.4967 21.9353C26.4967 22.1317 26.3815 22.2244 26.2394 22.1424Z" fill="#FFAC30"/>
<path d="M24.0899 26.1336L24.0895 29.0157C24.0894 29.0524 24.0907 29.09 24.0932 29.1281L24.1132 29.4325L27.0603 31.1334L27.0804 30.8521C27.083 30.817 27.0843 30.7808 27.0843 30.7441L27.0848 27.862C27.0848 27.7989 27.0808 27.7337 27.0734 27.6674L24.1013 25.9521C24.0939 26.0099 24.0899 26.0705 24.0899 26.1336Z" fill="#FFAC30"/>
<path d="M27.0806 30.8521C27.0831 30.8169 27.0844 30.7809 27.0844 30.7441L27.0849 27.862C27.0849 27.8366 27.0841 27.8109 27.0829 27.785C27.0827 27.7809 27.0825 27.7769 27.0823 27.7728C27.081 27.749 27.0791 27.725 27.0769 27.7008C27.0762 27.6945 27.0756 27.688 27.075 27.6817C27.0745 27.6769 27.0737 27.6719 27.0732 27.6671L25.6703 26.8575C25.6776 26.9239 25.6815 26.9889 25.6815 27.052L25.6811 29.9341C25.681 29.971 25.6798 30.0071 25.6773 30.0422L25.6571 30.3236L27.0604 31.1335L27.0806 30.8521Z" fill="#FFAC30"/>
<path d="M32.9191 40.2297L23.1398 34.5858C22.9994 34.5048 22.8855 34.5965 22.8855 34.7906L22.8855 35.0184C22.8854 35.2126 22.9992 35.4358 23.1396 35.5168L32.919 41.1607C33.0595 41.2418 33.1733 41.15 33.1734 40.9558L33.1734 40.7281C33.1733 40.5338 33.0595 40.3108 32.9191 40.2297Z" fill="#FFAC30"/>
<path d="M25.079 22.7021C25.0869 22.6033 25.0923 22.5027 25.0946 22.4001L25.1098 21.7433L26.0667 22.2956L26.0815 22.9696C26.0838 23.075 26.0891 23.1817 26.097 23.2896L25.079 22.7021ZM26.3139 21.8298C26.3138 21.8853 26.2816 21.9121 26.2416 21.8904L26.2411 21.8901C26.239 21.889 26.2368 21.8878 26.2348 21.8867L24.9415 21.1403C24.9391 21.1388 24.9373 21.1378 24.9354 21.1367C24.8953 21.1123 24.8627 21.0481 24.8627 20.9922L24.8628 20.3495C24.8628 20.2929 24.8961 20.2661 24.9371 20.2897L26.2397 21.0415C26.2806 21.0651 26.314 21.1303 26.314 21.187L26.3139 21.8298ZM24.2728 26.3038L26.9018 27.8211L26.9014 30.6383C26.9014 30.667 26.9003 30.6955 26.8984 30.7229L26.894 30.7843L24.2796 29.2755L24.2753 29.2091C24.2733 29.1794 24.2723 29.1497 24.2723 29.121L24.2728 26.3038ZM26.6774 34.694L26.7848 35.3308C26.7192 35.3647 26.6381 35.3576 26.5526 35.3082L24.6195 34.1926C24.5396 34.1465 24.4577 34.056 24.3888 33.9405L24.495 33.4344C24.5246 33.2932 24.534 33.136 24.5228 32.967L24.3143 29.8014L26.8592 31.2701L26.6497 34.1945C26.6385 34.3506 26.6478 34.5187 26.6774 34.694ZM24.25 34.6021L24.2929 34.3975C24.3955 34.5293 24.5076 34.6339 24.6194 34.6984L26.5525 35.8141C26.6682 35.8808 26.7799 35.9084 26.8804 35.8977L26.922 36.1442C26.9389 36.2855 26.9188 36.4046 26.8673 36.4842L24.3044 35.0051C24.253 34.866 24.233 34.724 24.25 34.6021ZM32.9903 40.8504C32.9903 40.9048 32.9583 40.9306 32.919 40.9079L23.1396 35.2639C23.1003 35.2412 23.0682 35.1785 23.0682 35.1241L23.0683 34.8963C23.0683 34.8419 23.1003 34.8161 23.1397 34.8388L32.919 40.4827C32.9584 40.5054 32.9904 40.5682 32.9904 40.6226L32.9903 40.8504Z" fill="#FFAC30"/>
<path d="M31.7056 30.9886L30.2725 30.1616L29.8573 29.9219L28.4243 29.0949L27.9327 29.7862C27.9227 29.8003 27.9173 29.821 27.9173 29.8453L27.9171 31.3546L27.9165 34.4847L27.9163 35.9941C27.9163 36.0184 27.9217 36.0452 27.9317 36.0709L28.4229 37.3294L29.856 38.1564L30.2712 38.3961L31.7042 39.2231L32.1958 38.5318C32.2058 38.5177 32.2112 38.4971 32.2112 38.4727L32.2115 36.9634L32.212 33.8333L32.2122 32.324C32.2122 32.2997 32.2069 32.2728 32.1968 32.2471L31.7056 30.9886Z" fill="#FFAC30"/>
<path d="M32.3324 32.3488C32.3324 32.3002 32.3173 32.2478 32.2933 32.2035L31.9359 31.2877C32.0434 31.3452 32.13 31.2727 32.13 31.1226L32.1301 30.6977C32.1301 30.5447 32.0403 30.3683 31.9298 30.3046L29.7141 29.0258C29.7141 29.0258 29.7519 29.0482 29.4737 28.8876L28.5256 28.3399L28.2004 28.1522C28.0899 28.0885 28 28.1611 28 28.3142L27.9999 28.739C27.9999 28.8891 28.0864 29.0614 28.194 29.1281L27.8362 29.6312C27.8122 29.6478 27.7971 29.6827 27.7971 29.7313C27.7971 29.7379 27.7975 29.7445 27.798 29.7512C27.7975 29.7592 27.7971 29.7675 27.7971 29.7759L27.7961 35.9247C27.7961 35.929 27.7963 35.9333 27.7964 35.9377C27.7963 35.9408 27.7961 35.9438 27.7961 35.947C27.7961 35.9717 27.8001 35.9974 27.807 36.0225C27.8132 36.0514 27.8219 36.0806 27.8331 36.1094L28.1926 37.0304C28.0851 36.973 27.9985 37.0454 27.9985 37.1955L27.9984 37.6204C27.9984 37.7734 28.0882 37.9498 28.1987 38.0135L31.9282 40.1659C32.0386 40.2296 32.1285 40.157 32.1285 40.0039L32.1286 39.5791C32.1286 39.429 32.0421 39.2567 31.9345 39.19L32.2943 38.684C32.3056 38.6682 32.3142 38.649 32.3204 38.6274C32.3274 38.6103 32.3314 38.5892 32.3314 38.5645C32.3314 38.5612 32.3312 38.558 32.331 38.5547C32.3312 38.5505 32.3314 38.5464 32.3314 38.5422L32.3324 32.3934C32.3324 32.3849 32.3321 32.3763 32.3316 32.3676C32.3321 32.3616 32.3324 32.3553 32.3324 32.3488ZM31.1775 37.732C31.1111 37.6937 31.0573 37.7372 31.0573 37.8292C31.0573 37.9211 31.1111 38.0268 31.1774 38.0651L31.9882 38.533L31.6415 39.0205L28.4856 37.1991L28.1392 36.3116L28.7116 36.642L29.7051 37.2154L31.1774 38.0651C31.2438 38.1034 31.0573 37.9211 31.0573 37.8292C31.0573 37.7372 31.2439 37.7703 31.1775 37.732L29.8559 36.9693C29.9008 36.6289 29.942 35.8214 29.6993 34.2787C29.6291 33.8322 29.5872 33.3603 29.5781 32.9141C29.5762 32.821 29.5215 32.7174 29.4546 32.6811C29.3882 32.6454 29.336 32.6919 29.3379 32.7849C29.3475 33.2608 29.3905 33.7441 29.4656 34.2215C29.7155 35.8098 29.6503 36.5745 29.6112 36.8281L28.8438 36.3852C28.8765 35.5597 28.6688 33.8064 28.6546 33.6877C28.474 31.7863 28.7124 30.7605 28.7959 30.4743L29.5326 30.8995C29.4719 31.1097 29.4246 31.3508 29.3914 31.6182C29.3809 31.703 29.4256 31.8142 29.4911 31.8665C29.5567 31.919 29.6183 31.8926 29.6288 31.8078C29.6648 31.5175 29.7185 31.2621 29.7884 31.0471L32.092 32.3766L32.0911 38.2593L31.1775 37.732ZM29.7063 30.6666L28.7127 30.0932L28.1515 29.7693L28.4869 29.2977L31.6429 31.119L31.9781 31.9777L29.7063 30.6666ZM28.542 30.3277C28.4355 30.7344 28.2434 31.7774 28.4168 33.5997C28.417 33.6019 28.4173 33.6042 28.4176 33.6064C28.4199 33.6262 28.64 35.4704 28.6032 36.2463L28.0365 35.9193L28.0375 30.0366L28.542 30.3277ZM28.7659 28.4786C28.6203 28.3946 28.7495 28.4688 28.7659 28.4786V28.4786ZM28.2404 28.5084L28.6457 28.7423L29.5939 29.2895L31.8897 30.6145L31.8896 30.9284L31.7056 30.8222L28.4243 28.9285L28.2403 28.8223L28.2404 28.5084ZM31.8882 39.8098L28.2388 37.7037L28.2389 37.3898L28.4229 37.496L31.7042 39.3897L31.8882 39.4959L31.8882 39.8098Z" fill="#FFAC30"/>
</g>
</svg>
