<svg width="60" height="67" viewBox="0 0 60 67" fill="none" xmlns="http://www.w3.org/2000/svg">
<path fill-rule="evenodd" clip-rule="evenodd" d="M34.2205 48.0077C38.9018 48.4966 42.2692 44.2942 42.2703 37.0594C42.2716 27.9624 36.9501 17.5158 30.3843 13.7263C23.8186 9.93685 18.4949 14.2395 18.4936 23.3365C18.4925 31.3263 22.5973 40.3571 28.0448 45.0044L28.626 52.1105L34.2205 48.0077Z" fill="#E5E5E5"/>
<path fill-rule="evenodd" clip-rule="evenodd" d="M30.8292 47.7928C36.354 49.5628 40.5387 45.266 40.5398 37.2007C40.5411 28.1037 35.2196 17.6572 28.6538 13.8677C22.0881 10.0782 16.7644 14.3808 16.7631 23.4778C16.762 31.5427 20.9444 40.6683 26.4684 45.2757L28.6479 52.5763L30.8292 47.7928Z" fill="white"/>
<g opacity="0.9">
<rect width="13.4842" height="1.33754" rx="0.668772" transform="matrix(0.866104 0.499864 -0.000157412 1 21.5098 26.5586)" fill="#0072FF"/>
<rect width="13.4842" height="1.33754" rx="0.668772" transform="matrix(0.866104 0.499864 -0.000157412 1 21.5094 31.2269)" fill="#0072FF"/>
<path fill-rule="evenodd" clip-rule="evenodd" d="M25.1455 25.1638C25.1455 25.4478 25.0613 25.6284 24.9564 25.712C24.8531 25.7943 24.7496 25.7745 24.6733 25.7305C24.597 25.6865 24.4935 25.5868 24.3902 25.3852C24.2854 25.1806 24.2013 24.9029 24.2014 24.6189C24.2014 24.335 24.2856 24.1544 24.3904 24.0708C24.4938 23.9884 24.5973 24.0082 24.6736 24.0522C24.7498 24.0963 24.8534 24.196 24.9566 24.3975C25.0615 24.6022 25.1456 24.8799 25.1455 25.1638ZM25.6044 26.7496C25.8555 26.5602 26.0115 26.182 26.0116 25.6637C26.0118 24.648 25.4128 23.4788 24.6737 23.0522C23.9347 22.6257 23.3354 23.1033 23.3352 24.119C23.3352 24.6373 23.4911 25.1955 23.742 25.6746C22.7363 25.4087 21.9964 26.0429 21.9962 27.3034C21.9961 28.0099 22.4026 28.8414 22.9604 29.3555L23.7791 36.0248L25.5634 37.0545L26.3841 31.3316C26.942 31.4615 27.3489 31.0993 27.349 30.3927C27.3492 29.1323 26.6098 27.6445 25.6044 26.7496ZM23.8166 29.6987L23.7338 29.0247L23.2082 28.5402C23.0073 28.355 22.8623 28.0556 22.8623 27.8033C22.8625 26.8474 23.5338 26.4598 24.3617 26.9376L24.9841 27.2969C25.812 27.7747 26.483 28.937 26.4829 29.8929C26.4828 30.1452 26.3377 30.2772 26.1367 30.2304L25.6109 30.108L25.5279 30.6864L24.8197 35.6252L24.5231 35.4541L23.8166 29.6987Z" fill="#0072FF"/>
<path fill-rule="evenodd" clip-rule="evenodd" d="M25.6044 26.7496C25.8555 26.5602 26.0115 26.182 26.0116 25.6637C26.0118 24.648 25.4128 23.4788 24.6737 23.0522C23.9347 22.6257 23.3354 23.1033 23.3352 24.119C23.3352 24.6373 23.4911 25.1955 23.742 25.6746C22.7363 25.4087 21.9964 26.0429 21.9962 27.3034C21.9961 28.0099 22.4026 28.8414 22.9604 29.3555L23.7791 36.0248L25.5634 37.0545L26.3841 31.3316C26.942 31.4615 27.3489 31.0993 27.349 30.3927C27.3492 29.1323 26.6098 27.6445 25.6044 26.7496Z" fill="#0072FF"/>
<mask id="mask0" mask-type="alpha" maskUnits="userSpaceOnUse" x="21" y="22" width="7" height="16">
<path fill-rule="evenodd" clip-rule="evenodd" d="M25.6044 26.7496C25.8555 26.5602 26.0115 26.182 26.0116 25.6637C26.0118 24.648 25.4128 23.4788 24.6737 23.0522C23.9347 22.6257 23.3354 23.1033 23.3352 24.119C23.3352 24.6373 23.4911 25.1955 23.742 25.6746C22.7363 25.4087 21.9964 26.0429 21.9962 27.3034C21.9961 28.0099 22.4026 28.8414 22.9604 29.3555L23.7791 36.0248L25.5634 37.0545L26.3841 31.3316C26.942 31.4615 27.3489 31.0993 27.349 30.3927C27.3492 29.1323 26.6098 27.6445 25.6044 26.7496Z" fill="#0072FF"/>
</mask>
<g mask="url(#mask0)">
<path d="M23.9419 35.003C25.1585 35.7051 26.1328 29.2447 25.6465 26.9575L28.0795 28.6961L26.8613 38.6944L23.9416 37.0093L23.9419 35.003Z" fill="#0072FF"/>
<path d="M23.9362 25.9044C22.761 25.659 23.1423 33.0087 23.9899 35.2629L21.5766 34.4126L20.7383 23.1593L23.5587 23.7484L23.9362 25.9044Z" fill="#0072FF"/>
</g>
<ellipse rx="1.40461" ry="1.67193" transform="matrix(0.866104 0.499864 -0.000157403 1 24.6734 24.7244)" fill="#0072FF"/>
<path fill-rule="evenodd" clip-rule="evenodd" d="M25.1455 25.1638C25.1455 25.4478 25.0613 25.6284 24.9564 25.712C24.8531 25.7943 24.7496 25.7745 24.6733 25.7305C24.597 25.6865 24.4935 25.5868 24.3902 25.3852C24.2854 25.1806 24.2013 24.9029 24.2014 24.6189C24.2014 24.335 24.2856 24.1544 24.3904 24.0708C24.4938 23.9884 24.5973 24.0082 24.6736 24.0522C24.7498 24.0963 24.8534 24.196 24.9566 24.3975C25.0615 24.6022 25.1456 24.8799 25.1455 25.1638ZM25.6044 26.7496C25.8555 26.5602 26.0115 26.182 26.0116 25.6637C26.0118 24.648 25.4128 23.4788 24.6737 23.0522C23.9347 22.6257 23.3354 23.1033 23.3352 24.119C23.3352 24.6373 23.4911 25.1955 23.742 25.6746C22.7363 25.4087 21.9964 26.0429 21.9962 27.3034C21.9961 28.0099 22.4026 28.8414 22.9604 29.3555L23.7791 36.0248L25.5634 37.0545L26.3841 31.3316C26.942 31.4615 27.3489 31.0993 27.349 30.3927C27.3492 29.1323 26.6098 27.6445 25.6044 26.7496ZM23.8166 29.6987L23.7338 29.0247L23.2082 28.5402C23.0073 28.355 22.8623 28.0556 22.8623 27.8033C22.8625 26.8474 23.5338 26.4598 24.3617 26.9376L24.9841 27.2969C25.812 27.7747 26.483 28.937 26.4829 29.8929C26.4828 30.1452 26.3377 30.2772 26.1367 30.2304L25.6109 30.108L25.5279 30.6864L24.8197 35.6252L24.5231 35.4541L23.8166 29.6987Z" fill="#0072FF"/>
<path fill-rule="evenodd" clip-rule="evenodd" d="M30.4973 25.5608C30.4973 25.8447 30.4131 26.0253 30.3083 26.1089C30.2049 26.1913 30.1014 26.1715 30.0251 26.1274C29.9489 26.0834 29.8453 25.9837 29.7421 25.7821C29.6372 25.5775 29.5531 25.2998 29.5532 25.0159C29.5532 24.7319 29.6374 24.5513 29.7423 24.4677C29.8456 24.3854 29.9491 24.4052 30.0254 24.4492C30.1017 24.4932 30.2052 24.5929 30.3085 24.7945C30.4133 24.9991 30.4974 25.2768 30.4973 25.5608ZM30.9567 27.1462C31.2075 26.9567 31.3634 26.5786 31.3634 26.0606C31.3636 25.0449 30.7646 23.8757 30.0255 23.4492C29.2865 23.0226 28.6872 23.5003 28.6871 24.516C28.687 25.0341 28.8428 25.5922 29.0936 26.0713C28.0885 25.8061 27.3491 26.4402 27.3489 27.7003C27.3488 28.4067 27.7552 29.2381 28.3128 29.7522L29.1316 36.422L30.9159 37.4517L31.7366 31.7285C32.2946 31.8585 32.7015 31.4963 32.7016 30.7896C32.7018 29.5291 31.9623 28.0411 30.9567 27.1462ZM29.169 30.0954L29.0863 29.4216L28.5608 28.9371C28.3599 28.7519 28.2149 28.4524 28.215 28.2002C28.2151 27.2443 28.8864 26.8567 29.7143 27.3346L30.3367 27.6938C31.1647 28.1716 31.8357 29.3339 31.8355 30.2898C31.8355 30.5421 31.6904 30.6742 31.4893 30.6273L30.9634 30.5048L30.8805 31.0833L30.1722 36.0224L29.8756 35.8513L29.169 30.0954Z" fill="#0072FF"/>
<path fill-rule="evenodd" clip-rule="evenodd" d="M30.9567 27.1462C31.2075 26.9567 31.3634 26.5786 31.3634 26.0606C31.3636 25.0449 30.7646 23.8757 30.0255 23.4492C29.2865 23.0226 28.6872 23.5003 28.6871 24.516C28.687 25.0341 28.8428 25.5922 29.0936 26.0713C28.0885 25.8061 27.3491 26.4402 27.3489 27.7003C27.3488 28.4067 27.7552 29.2381 28.3128 29.7522L29.1316 36.422L30.9159 37.4517L31.7366 31.7285C32.2946 31.8585 32.7015 31.4963 32.7016 30.7896C32.7018 29.5291 31.9623 28.0411 30.9567 27.1462Z" fill="#0072FF"/>
<mask id="mask1" mask-type="alpha" maskUnits="userSpaceOnUse" x="27" y="23" width="6" height="15">
<path fill-rule="evenodd" clip-rule="evenodd" d="M29.093 26.0697C28.8428 25.5911 28.6874 25.0338 28.6875 24.5164C28.6877 23.5007 29.2869 23.0231 30.026 23.4496C30.7651 23.8762 31.3641 25.0454 31.3639 26.0611C31.3638 26.5783 31.2084 26.956 30.9582 27.1458C31.9632 28.0408 32.7023 29.5282 32.7021 30.7883C32.702 31.4949 32.2951 31.8571 31.7371 31.7271L30.9163 37.4504L29.1321 36.4206L28.3133 29.7509C27.7556 29.2368 27.3492 28.4054 27.3493 27.699C27.3495 26.4393 28.0884 25.8052 29.093 26.0697Z" fill="#0072FF"/>
</mask>
<g mask="url(#mask1)">
<path d="M30.7541 36.2429C29.5375 35.5408 28.5654 27.957 29.0523 26.2315L26.6192 25.1617L27.8341 36.5641L30.7538 38.2492L30.7541 36.2429Z" fill="#0072FF"/>
<path d="M30.7624 27.1494C31.9374 28.2603 31.5539 35.1686 30.7058 36.4442L33.1188 38.3794L33.9605 28.0957L31.1405 25.4295L30.7624 27.1494Z" fill="#0072FF"/>
</g>
<ellipse rx="1.40461" ry="1.67193" transform="matrix(0.866104 0.499864 -0.000157403 1 30.0263 25.1208)" fill="#0072FF"/>
<path fill-rule="evenodd" clip-rule="evenodd" d="M30.4973 25.5608C30.4973 25.8447 30.4131 26.0253 30.3083 26.1089C30.2049 26.1913 30.1014 26.1715 30.0251 26.1274C29.9489 26.0834 29.8453 25.9837 29.7421 25.7821C29.6372 25.5775 29.5531 25.2998 29.5532 25.0159C29.5532 24.7319 29.6374 24.5513 29.7423 24.4677C29.8456 24.3854 29.9491 24.4052 30.0254 24.4492C30.1017 24.4932 30.2052 24.5929 30.3085 24.7945C30.4133 24.9991 30.4974 25.2768 30.4973 25.5608ZM30.9567 27.1462C31.2075 26.9567 31.3634 26.5786 31.3634 26.0606C31.3636 25.0449 30.7646 23.8757 30.0255 23.4492C29.2865 23.0226 28.6872 23.5003 28.6871 24.516C28.687 25.0341 28.8428 25.5922 29.0936 26.0713C28.0885 25.8061 27.3491 26.4402 27.3489 27.7003C27.3488 28.4067 27.7552 29.2381 28.3128 29.7522L29.1316 36.422L30.9159 37.4517L31.7366 31.7285C32.2946 31.8585 32.7015 31.4963 32.7016 30.7896C32.7018 29.5291 31.9623 28.0411 30.9567 27.1462ZM29.169 30.0954L29.0863 29.4216L28.5608 28.9371C28.3599 28.7519 28.2149 28.4524 28.215 28.2002C28.2151 27.2443 28.8864 26.8567 29.7143 27.3346L30.3367 27.6938C31.1647 28.1716 31.8357 29.3339 31.8355 30.2898C31.8355 30.5421 31.6904 30.6742 31.4893 30.6273L30.9634 30.5048L30.8805 31.0833L30.1722 36.0224L29.8756 35.8513L29.169 30.0954Z" fill="#0072FF"/>
</g>
</svg>
