<svg width="64" height="36" viewBox="0 0 64 36" fill="none" xmlns="http://www.w3.org/2000/svg">
<path opacity="0.5" fill-rule="evenodd" clip-rule="evenodd" d="M56.0822 31.8276C67.296 25.4636 65.4779 14.1138 52.0214 6.47697C38.5649 -1.15982 18.5657 -2.19163 7.35196 4.17236C-3.86179 10.5364 -2.04368 21.8862 11.4128 29.523C24.8693 37.1598 44.8685 38.1916 56.0822 31.8276ZM17.3363 11.9289L19.1882 10.8781L21.0402 9.82715C21.4067 9.6192 22.6389 10.1494 23.5796 10.6145L23.6201 10.5915C25.4866 9.53237 44.3749 18.9011 47.8704 20.6521C48.1717 20.803 48.224 21.0452 47.987 21.1797L42.6634 24.2005L37.34 27.2213C37.103 27.3558 36.6762 27.3261 36.4103 27.1552C34.4898 25.9207 27.3693 21.3028 22.7154 17.7359L18.6947 17.046C18.5944 17.0288 18.5475 16.9578 18.6123 16.9211L20.4308 15.8892C18.9658 14.6144 18.1912 13.6721 18.6808 13.3944L18.7239 13.3699C17.9042 12.8361 16.9699 12.1369 17.3363 11.9289ZM44.5286 19.6538L34.6513 25.2588L35.6757 25.8401L45.5531 20.2352L44.5286 19.6538ZM29.6711 14.9638L35.8913 18.4935C36.979 19.1107 37.1259 20.028 36.2194 20.5424C35.3129 21.0568 33.6963 20.9734 32.6087 20.3562L26.3884 16.8266C25.3008 16.2094 25.1539 15.2921 26.0604 14.7777C26.9669 14.2633 28.5835 14.3466 29.6711 14.9638ZM40.0584 16.2809C40.3742 16.479 40.6807 16.6767 40.9776 16.8735L41.1814 16.7578C41.6056 16.5171 41.5705 16.0956 41.1005 15.7868L32.4749 10.1209C31.943 9.77146 31.0725 9.70524 30.5924 9.97767L28.7513 11.0224C29.1568 11.1415 29.5771 11.2751 30.0097 11.4225L31.5741 10.5348L40.1997 16.2007L40.0584 16.2809Z" fill="#363A42"/>
</svg>
