<svg width="293" height="293" viewBox="0 0 293 293" fill="none" xmlns="http://www.w3.org/2000/svg">
<g clip-path="url(#clip0)">
<path d="M220 187.986V146.155L146.093 185.102L72 146.155V187.885L146.092 228.316L220 187.986Z" fill="black"/>
<path d="M220 122.332V80.5005L146.093 119.448L72 80.5005V122.231L146.092 162.662L220 122.332Z" fill="black"/>
<path d="M220 253.64V211.809L146.093 250.756L72 211.809V253.539L146.092 293.97L220 253.64Z" fill="black"/>
<path d="M116.236 92.3883L145.999 70.7781L175.764 92.4328L164.397 57.4993L194.159 35.9892H157.37L145.999 1L134.63 35.9892H97.841L127.604 57.506L116.236 92.3883Z" fill="black"/>
</g>
<defs>
<clipPath id="clip0">
<rect width="293" height="293" fill="white"/>
</clipPath>
</defs>
</svg>
