<svg width="22" height="24" viewBox="0 0 22 24" fill="none" xmlns="http://www.w3.org/2000/svg">
<path d="M9.10401 9.15337L7.82307 5.03385C7.67336 4.55247 7.58952 4.05295 7.57374 3.54923L7.51485 1.6583H4.99075L4.93186 3.54923C4.91608 4.05314 4.83224 4.55247 4.68253 5.03385L3.40159 9.15337C3.3526 9.31121 3.32765 9.47563 3.32765 9.64098V13.7046C3.32765 13.7565 3.33004 13.8085 3.33499 13.8601L3.8197 18.9567C3.8375 19.1442 3.82246 19.3331 3.77531 19.5155L3.2939 21.3728C3.16455 22.044 3.6799 22.6666 4.36459 22.6666H8.14101C8.82588 22.6666 9.34105 22.044 9.21171 21.3728L8.7303 19.5155C8.68315 19.3331 8.6681 19.1442 8.6859 18.9567L9.17061 13.8601C9.17556 13.8085 9.17795 13.7565 9.17795 13.7046V9.64098C9.17813 9.47563 9.153 9.31121 9.10401 9.15337Z" fill="#ffc061"/>
<path d="M9.21164 21.373L8.73042 19.5156C8.68308 19.3334 8.66804 19.1442 8.68602 18.9567L9.17055 13.8602C9.1755 13.8085 9.17807 13.7567 9.17807 13.7047V9.64105C9.17807 9.4757 9.15294 9.31146 9.10395 9.15344L7.82301 5.03392C7.6733 4.55254 7.58946 4.05321 7.57368 3.5493L7.51479 1.65855H4.99069L4.9318 3.5493C4.92556 3.74577 4.90887 3.9417 4.88208 4.13597C4.92391 4.43993 4.99032 4.7404 5.08169 5.03392L6.36263 9.15344C6.41162 9.31146 6.43657 9.4757 6.43657 9.64105V13.7047C6.43657 13.7567 6.43418 13.8085 6.42923 13.8602L5.94452 18.9567C5.92672 19.1442 5.94177 19.3334 5.98892 19.5156L6.47033 21.373C6.59967 22.0441 6.08432 22.6668 5.39963 22.6668H8.14095C8.82582 22.6668 9.34099 22.0441 9.21164 21.373Z" fill="#ffc061"/>
<path d="M9.10393 9.15332L7.82299 5.03381C7.75364 4.81115 7.69915 4.58447 7.65842 4.35522H4.84721C4.80629 4.58447 4.75181 4.81115 4.68246 5.03381L3.40151 9.15332C3.35253 9.31116 3.32758 9.47559 3.32758 9.64093V13.7046C3.32758 13.7564 3.32996 13.8084 3.33491 13.8601L3.81963 18.9566C3.83742 19.1441 3.82238 19.3331 3.77523 19.5153L3.51654 20.5136C3.72037 20.7551 4.02877 20.9289 4.36451 20.9289H8.14093C8.48915 20.9289 8.79296 20.7675 8.9911 20.5211L8.7304 19.5153C8.68325 19.3331 8.66821 19.1439 8.686 18.9566L9.17071 13.8601C9.17567 13.8084 9.17805 13.7564 9.17805 13.7046V9.64093C9.17805 9.47559 9.15292 9.31116 9.10393 9.15332Z" fill="#ffc061"/>
<path d="M9.16081 9.40692C9.14852 9.32105 9.12981 9.23627 9.10394 9.15332L8.24992 6.40692L7.823 5.03381C7.82263 5.03253 7.82226 5.03124 7.8219 5.02978C7.80465 4.9743 7.78832 4.91845 7.77291 4.86242C7.76025 4.81646 7.74851 4.77032 7.73714 4.72399C7.73457 4.7141 7.73181 4.7044 7.72943 4.69451C7.70209 4.58227 7.67861 4.46893 7.65843 4.35522H4.91693C4.95748 4.58428 5.01233 4.81097 5.08168 5.03381L6.36263 9.15332C6.41161 9.31116 6.43674 9.47559 6.43674 9.64093V13.7046C6.43674 13.7564 6.43418 13.8082 6.42922 13.8601L5.94469 18.9566C5.9269 19.1439 5.94176 19.3331 5.98909 19.5153L6.35529 20.9289H8.14094C8.48915 20.9289 8.79297 20.7675 8.99093 20.5211L8.73041 19.5153C8.71977 19.4741 8.71096 19.4325 8.70362 19.3908C8.69463 19.34 8.68784 19.2891 8.68381 19.2379C8.68197 19.2144 8.68069 19.1912 8.67977 19.1677C8.6772 19.0974 8.67922 19.0269 8.68601 18.9566L9.17072 13.8601C9.17567 13.8082 9.17806 13.7564 9.17806 13.7046V9.64093C9.17806 9.56256 9.172 9.48438 9.16081 9.40692Z" fill="#ffc061"/>
<path d="M7.52487 2.26546H4.98023C4.70283 2.26546 4.47791 2.04098 4.47791 1.76412V0.85793C4.47791 0.581074 4.70283 0.356586 4.98023 0.356586H7.52487C7.80245 0.356586 8.02738 0.581074 8.02738 0.85793V1.76412C8.02738 2.04098 7.80245 2.26546 7.52487 2.26546Z" fill="#ffc061"/>
<path d="M3.32758 9.64112V13.7048C3.32758 13.7566 3.32996 13.8086 3.33491 13.8602L3.37418 14.2731H9.13127L9.17053 13.8602C9.17548 13.8086 9.17805 13.7566 9.17805 13.7048V9.64112C9.17805 9.55213 9.17016 9.46351 9.15585 9.37598H3.34977C3.33528 9.46351 3.32758 9.55213 3.32758 9.64112Z" fill="#ffc061"/>
<path d="M9.17047 13.8602C9.17543 13.8086 9.17799 13.7568 9.17799 13.7048V9.64112C9.17799 9.60541 9.17634 9.56989 9.17396 9.53437C9.17359 9.52869 9.17322 9.5232 9.17286 9.51752C9.17029 9.48511 9.16662 9.4527 9.16222 9.42048C9.16093 9.41205 9.15983 9.40345 9.15855 9.39502C9.15763 9.38861 9.15598 9.38239 9.15506 9.37598H6.41448C6.42879 9.46369 6.43649 9.55213 6.43649 9.64112V13.7048C6.43649 13.7568 6.43411 13.8086 6.42915 13.8602L6.38989 14.2733H9.13121L9.17047 13.8602Z" fill="#ffc061"/>
<path d="M20.5783 22.3307H1.47424C1.19996 22.3307 0.9776 22.5526 0.9776 22.8264V23.1476C0.9776 23.4213 1.19996 23.6434 1.47424 23.6434H20.5783C20.8528 23.6434 21.0751 23.4213 21.0751 23.1476V22.8264C21.075 22.5526 20.8526 22.3307 20.5783 22.3307Z" fill="#ffc061"/>
<path d="M5.25827 3.99885C5.27368 3.8531 5.28413 3.70698 5.28872 3.56031L5.31808 2.62208H7.18739L7.21656 3.56031C7.22115 3.70698 7.2316 3.8531 7.24701 3.99885H5.25827ZM7.67008 1.76422C7.67008 1.84259 7.60715 1.9065 7.529 1.90851H7.5279C7.52386 1.9087 7.51964 1.9087 7.5156 1.90888H4.98912C4.98454 1.9087 4.98105 1.9087 4.97738 1.9087C4.89886 1.90705 4.8352 1.84296 4.8352 1.76422V0.858034C4.8352 0.7782 4.90033 0.713197 4.98032 0.713197H7.52496C7.60495 0.713197 7.67008 0.778017 7.67008 0.858034V1.76422ZM3.6847 9.73262H8.82058V13.7047C8.82058 13.7452 8.81857 13.7862 8.81471 13.8265L8.80627 13.9166H3.69901L3.69057 13.8265C3.68671 13.7862 3.6847 13.7452 3.6847 13.7047V9.73262ZM8.38449 19.6048L8.59437 20.4152C8.46631 20.5163 8.3078 20.5723 8.14085 20.5723H4.36443C4.20849 20.5723 4.04851 20.5113 3.91384 20.4046L4.12097 19.6048C4.17877 19.3816 4.19711 19.1523 4.17528 18.9231L3.76689 14.6298H8.73839L8.33018 18.9231C8.30835 19.1523 8.32652 19.3818 8.38449 19.6048ZM3.64287 21.4503L3.72653 21.1269C3.92705 21.2293 4.14611 21.2855 4.36443 21.2855H8.14085C8.36688 21.2855 8.58502 21.2335 8.78132 21.1366L8.8626 21.4503C8.8958 21.6358 8.85654 21.82 8.756 21.9742H3.74928C3.64874 21.82 3.60966 21.636 3.64287 21.4503ZM20.7177 23.1477C20.7177 23.2244 20.6551 23.2868 20.5782 23.2868H1.47414C1.39727 23.2868 1.33471 23.2244 1.33471 23.1477V22.8265C1.33471 22.7498 1.39727 22.6874 1.47414 22.6874H20.5782C20.6551 22.6874 20.7177 22.7498 20.7177 22.8265V23.1477Z" fill="#ffc061"/>
<path d="M18.2049 10.2897H15.4054H14.5943H11.7949L10.8349 11.6643C10.8153 11.6924 10.8048 11.7258 10.8048 11.7601V13.8882V18.3016V20.4297C10.8048 20.4639 10.8153 20.4974 10.8349 20.5255L11.7949 21.9H14.5943H15.4055H18.2049L19.1649 20.5254C19.1845 20.4973 19.195 20.4639 19.195 20.4296V18.3015V13.8882V11.7601C19.195 11.7258 19.1845 11.6923 19.1649 11.6643L18.2049 10.2897Z" fill="#ffc061"/>
<path d="M19.4297 11.6972C19.4297 11.6286 19.4001 11.5671 19.3533 11.5242L18.6547 10.5239C18.8648 10.5174 19.0339 10.3449 19.0339 10.1332V9.53414C19.0339 9.31836 18.8583 9.14283 18.6426 9.14283H14.3141C14.3141 9.14283 14.388 9.14353 13.8445 9.14353L11.9923 9.14283H11.357C11.1412 9.14283 10.9657 9.31836 10.9657 9.53414V10.1332C10.9657 10.3448 11.1347 10.5174 11.3449 10.5239L10.6462 11.5243C10.5994 11.5672 10.5699 11.6287 10.5699 11.6972C10.5699 11.7064 10.5706 11.7155 10.5716 11.7244C10.5706 11.7362 10.5699 11.7481 10.5699 11.7601V20.4296C10.5699 20.4357 10.5703 20.4416 10.5706 20.4476C10.5703 20.4521 10.5699 20.4566 10.5699 20.4611C10.5699 20.4959 10.5777 20.5289 10.5913 20.5586C10.6034 20.5943 10.6203 20.6284 10.6423 20.6599L11.3449 21.6658C11.1347 21.6723 10.9657 21.8449 10.9657 22.0565V22.6556C10.9657 22.8713 11.1412 23.0469 11.357 23.0469H18.6426C18.8583 23.0469 19.0339 22.8713 19.0339 22.6556V22.0565C19.0339 21.8449 18.8648 21.6723 18.6547 21.6658L19.3573 20.6597C19.3792 20.6283 19.3962 20.5943 19.4082 20.5587C19.4219 20.5289 19.4297 20.496 19.4297 20.4611C19.4297 20.4565 19.4292 20.4521 19.429 20.4476C19.4292 20.4416 19.4297 20.4357 19.4297 20.4296V11.7601C19.4297 11.7482 19.429 11.7363 19.428 11.7245C19.429 11.7155 19.4297 11.7064 19.4297 11.6972ZM17.1755 20.2264C17.0458 20.2264 16.9407 20.3315 16.9407 20.4611C16.9407 20.5908 17.0458 20.6959 17.1755 20.6959H18.7593L18.0823 21.6653H11.9171L11.2402 20.6959H12.3585H14.2993H17.1755C17.3052 20.6959 16.9407 20.5908 16.9407 20.4611C16.9407 20.3315 17.3052 20.2264 17.1755 20.2264H14.5936C14.6812 19.71 14.7616 18.5379 14.287 16.5604C14.1496 15.9882 14.0676 15.357 14.0498 14.7352C14.0461 14.6056 13.9391 14.504 13.8084 14.5072C13.6788 14.5109 13.5767 14.619 13.5804 14.7486C13.5994 15.4117 13.6835 16.0581 13.8304 16.67C14.319 18.7059 14.1919 19.837 14.1157 20.2264H12.6165C12.6801 19.0359 12.2739 16.7331 12.2461 16.5773C11.8928 14.0435 12.3581 12.4034 12.5211 11.932H13.9602C13.8418 12.2778 13.7493 12.6562 13.6847 13.0602C13.6642 13.1883 13.7514 13.3086 13.8795 13.3291C14.0077 13.3497 14.1279 13.2624 14.1484 13.1344C14.2186 12.6958 14.3235 12.2919 14.4598 11.932H18.9601V20.2264H17.1755ZM14.2993 11.4624H12.3585H11.2622L11.9172 10.5245H18.0824L18.7373 11.4624H14.2993ZM12.025 11.932C11.8171 12.592 11.4423 14.2187 11.7816 16.6467C11.782 16.6497 11.7825 16.6527 11.7831 16.6556C11.7877 16.6815 12.2181 19.1025 12.1466 20.2264H11.0395V11.932H12.025ZM12.4619 9.14283C12.1773 9.14283 12.4297 9.14239 12.4619 9.14283V9.14283ZM11.4353 9.61242H12.2271H14.0793H18.5643V10.055H18.2048H11.7948H11.4353V9.61242ZM18.5643 22.5774H11.4353V22.1349H11.7948H18.2048H18.5643V22.5774Z" fill="#ffc061"/>
</svg>
