<svg width="24" height="21" viewBox="0 0 24 21" fill="none" xmlns="http://www.w3.org/2000/svg">
<path fill-rule="evenodd" clip-rule="evenodd" d="M15.6 4.04688H20.4H21.6C22.4836 4.04688 23.2 4.76322 23.2 5.64686V18.4469C23.2 19.3305 22.4836 20.0469 21.6 20.0469H20.4H1.59998C0.716344 20.0469 2.29879e-09 19.3305 2.29879e-09 18.4469V5.64686C-4.68566e-05 4.76322 0.716297 4.04688 1.59998 4.04688H7.20007V2.04689C7.2005 0.942469 8.09567 0.0472969 9.20009 0.046875H13.6001C14.7044 0.0472969 15.5997 0.942515 15.6 2.04689V4.04688ZM8.80006 4.04688V2.04689C8.80071 1.82625 8.9794 1.64756 9.20004 1.64691H13.6001C13.8207 1.64756 13.9994 1.82625 14 2.04689V4.04688H8.80006ZM5.60059 3.14746V3.64746H5.59943H2.60059H2.39941V3.04736C2.40073 2.71636 2.7581 2.44825 3.19943 2.44727H4.79941C5.24074 2.44825 5.59816 2.71636 5.59943 3.04736V3.12085C5.60016 3.12966 5.60055 3.13853 5.60059 3.14746ZM16.3999 10.8466C16.3992 10.626 16.2205 10.4472 15.9998 10.4466H13.1998C12.9792 10.4459 12.8005 10.2672 12.7998 10.0466V7.24666C12.7992 7.02602 12.6205 6.84734 12.3998 6.84668H9.99984C9.7792 6.84734 9.60051 7.02602 9.59986 7.24666V10.0466C9.5992 10.2673 9.42051 10.446 9.19987 10.4466H6.39998C6.17934 10.4473 6.00066 10.626 6 10.8466V13.2466C6.00066 13.4673 6.17934 13.6459 6.39998 13.6466H9.19997C9.42061 13.6473 9.59929 13.8259 9.59995 14.0466V16.8466C9.60061 17.0672 9.77929 17.2459 9.99993 17.2465H12.3999C12.6206 17.2459 12.7993 17.0672 12.7999 16.8466V14.0466C12.8006 13.8259 12.9793 13.6473 13.1999 13.6466H15.9999C16.2205 13.6459 16.3992 13.4673 16.3999 13.2466V10.8466ZM20.8006 3.64746V3.04736C20.7993 2.71636 20.4419 2.44825 20.0006 2.44727H18.4006C17.9593 2.44825 17.6019 2.71636 17.6006 3.04736V3.64746H20.8006Z" fill="#FF2E2E"/>
</svg>
