<svg width="16" height="24" viewBox="0 0 16 24" fill="none" xmlns="http://www.w3.org/2000/svg">
<path fill-rule="evenodd" clip-rule="evenodd" d="M7.61629 0.046875H14.7962C15.0369 0.046875 15.2322 0.242016 15.2322 0.482859C15.2322 0.694406 15.0803 0.875344 14.872 0.912141L8.59761 2.11117L14.0699 3.93527C14.2968 4.01092 14.4748 4.18895 14.5505 4.41583L14.6685 4.76983C14.7389 4.98128 14.5482 5.1872 14.332 5.13316L8.01696 3.55438V4.19058C8.01696 4.60519 8.23057 4.99055 8.58213 5.2103L10.4701 6.39024C10.9389 6.68316 11.2236 7.19705 11.2236 7.74985V22.4937C11.2236 22.9364 10.8647 23.2954 10.422 23.2954H3.20693C2.76424 23.2954 2.40527 22.9365 2.40527 22.4937V7.7498C2.40527 7.19701 2.69004 6.68316 3.15884 6.39019L5.04677 5.21026C5.39833 4.99051 5.61194 4.60515 5.61194 4.19054V3.51273C5.36238 3.23006 5.21094 2.85871 5.21094 2.45199V2.45195H4.40911C2.85891 2.45195 1.60247 3.7201 1.60322 5.27026C1.60411 6.93722 1.78164 8.61881 1.96958 10.3991L1.96964 10.3997L1.96987 10.4019C2.18379 12.4293 2.40497 14.5256 2.40497 16.882V18.8862C2.40497 19.1075 2.22549 19.287 2.00414 19.287H1.20249C0.981144 19.287 0.80166 19.1075 0.80166 18.8862V16.882C0.80166 14.61 0.585019 12.5566 0.375485 10.5705L0.375191 10.5677C0.183378 8.7511 0.00215978 7.03426 3.52993e-06 5.28957C-0.00304335 2.8471 1.96674 0.848633 4.40921 0.848633H6.81413H6.8143L6.81464 0.848633V0.848531C6.81464 0.40575 7.17356 0.046875 7.61629 0.046875ZM4 17.8965V13.1972C4 12.563 4.49803 12.0469 5.11024 12.0469H8.88976C9.50196 12.0469 10 12.5629 10 13.1972V17.8965C10 18.5308 9.50196 19.0469 8.88976 19.0469H5.11024C4.49803 19.0469 4 18.5308 4 17.8965ZM9.29135 17.8965V13.1972C9.29135 12.9678 9.1112 12.7812 8.88976 12.7811H5.11024C4.8888 12.7811 4.70864 12.9678 4.70864 13.1972V17.8965C4.70864 18.126 4.8888 18.3126 5.11024 18.3126H8.88976C9.1112 18.3126 9.29135 18.126 9.29135 17.8965Z" fill="#FF2E2E"/>
</svg>
