<svg width="24" height="25" viewBox="0 0 24 25" fill="none" xmlns="http://www.w3.org/2000/svg">
<rect y="11.964" width="24" height="1.98619" rx="0.993094" fill="#5CA4FF"/>
<rect y="18.9219" width="24" height="1.98619" rx="0.993094" fill="#5CA4FF"/>
<path fill-rule="evenodd" clip-rule="evenodd" d="M8.25005 6.77788C8.25005 7.72737 7.47309 8.50889 6.50005 8.50889C5.52701 8.50889 4.75005 7.72737 4.75005 6.77788C4.75005 5.8284 5.52701 5.04688 6.50005 5.04688C7.47309 5.04688 8.25005 5.8284 8.25005 6.77788ZM8.54961 8.59878C8.98518 8.11559 9.25005 7.47745 9.25005 6.77788C9.25005 5.26959 8.01883 4.04688 6.50005 4.04688C4.98127 4.04688 3.75005 5.26959 3.75005 6.77788C3.75005 7.47745 4.01491 8.11559 4.45049 8.59878C2.54032 8.62527 1 10.182 1 12.0984V12.9708C1 14.0753 1.8953 14.9707 2.99975 14.9708L4.6665 24.0746H8.33317L9.99992 14.9708H10C11.1046 14.9708 12 14.0754 12 12.9708V12.0984C12 10.182 10.4597 8.62532 8.54961 8.59878ZM3.9834 14.7907L3.83331 13.9709L2.99987 13.9708C2.44765 13.9707 2 13.523 2 12.9708V12.0984C2 10.7177 3.11929 9.59844 4.5 9.59844H8.5C9.88071 9.59844 11 10.7177 11 12.0984V12.9708C11 13.5231 10.5523 13.9708 10 13.9708H9.99992H9.16638L9.01627 14.7907L7.49963 23.0746H5.50004L3.9834 14.7907Z" fill="#5CA4FF"/>
<path fill-rule="evenodd" clip-rule="evenodd" d="M8.54961 8.59878C8.98518 8.11559 9.25005 7.47745 9.25005 6.77788C9.25005 5.26959 8.01883 4.04688 6.50005 4.04688C4.98127 4.04688 3.75005 5.26959 3.75005 6.77788C3.75005 7.47745 4.01491 8.11559 4.45049 8.59878C2.54032 8.62527 1 10.182 1 12.0984V12.9708C1 14.0753 1.8953 14.9707 2.99975 14.9708L4.6665 24.0746H8.33317L9.99992 14.9708H10C11.1046 14.9708 12 14.0754 12 12.9708V12.0984C12 10.182 10.4597 8.62532 8.54961 8.59878Z" fill="#5CA4FF"/>
<mask id="mask0" mask-type="alpha" maskUnits="userSpaceOnUse" x="1" y="4" width="11" height="21">
<path fill-rule="evenodd" clip-rule="evenodd" d="M8.54961 8.59878C8.98518 8.11559 9.25005 7.47745 9.25005 6.77788C9.25005 5.26959 8.01883 4.04688 6.50005 4.04688C4.98127 4.04688 3.75005 5.26959 3.75005 6.77788C3.75005 7.47745 4.01491 8.11559 4.45049 8.59878C2.54032 8.62527 1 10.182 1 12.0984V12.9708C1 14.0753 1.8953 14.9707 2.99975 14.9708L4.6665 24.0746H8.33317L9.99992 14.9708H10C11.1046 14.9708 12 14.0754 12 12.9708V12.0984C12 10.182 10.4597 8.62532 8.54961 8.59878Z" fill="#5CA4FF"/>
</mask>
<g mask="url(#mask0)">
<path d="M5 22.4191C7.5 22.4191 9.5 11.9916 8.5 9.01231L13.5 9.50886L11 25.3984H5V22.4191Z" fill="#5CA4FF"/>
<path d="M4.9869 8.91076C2.57209 9.55334 3.35783 20.1396 5.10022 22.7603L0.141178 23.5659L-1.58511 7.57519L4.21044 6.033L4.9869 8.91076Z" fill="#5CA4FF"/>
</g>
<ellipse cx="6.5" cy="6.52961" rx="2.5" ry="2.48274" fill="#5CA4FF"/>
<path fill-rule="evenodd" clip-rule="evenodd" d="M8.25005 6.77788C8.25005 7.72737 7.47309 8.50889 6.50005 8.50889C5.52701 8.50889 4.75005 7.72737 4.75005 6.77788C4.75005 5.8284 5.52701 5.04688 6.50005 5.04688C7.47309 5.04688 8.25005 5.8284 8.25005 6.77788ZM8.54961 8.59878C8.98518 8.11559 9.25005 7.47745 9.25005 6.77788C9.25005 5.26959 8.01883 4.04688 6.50005 4.04688C4.98127 4.04688 3.75005 5.26959 3.75005 6.77788C3.75005 7.47745 4.01491 8.11559 4.45049 8.59878C2.54032 8.62527 1 10.182 1 12.0984V12.9708C1 14.0753 1.8953 14.9707 2.99975 14.9708L4.6665 24.0746H8.33317L9.99992 14.9708H10C11.1046 14.9708 12 14.0754 12 12.9708V12.0984C12 10.182 10.4597 8.62532 8.54961 8.59878ZM3.9834 14.7907L3.83331 13.9709L2.99987 13.9708C2.44765 13.9707 2 13.523 2 12.9708V12.0984C2 10.7177 3.11929 9.59844 4.5 9.59844H8.5C9.88071 9.59844 11 10.7177 11 12.0984V12.9708C11 13.5231 10.5523 13.9708 10 13.9708H9.99992H9.16638L9.01627 14.7907L7.49963 23.0746H5.50004L3.9834 14.7907Z" fill="#5CA4FF"/>
<path fill-rule="evenodd" clip-rule="evenodd" d="M19.25 2.77788C19.25 3.72737 18.4731 4.50889 17.5 4.50889C16.527 4.50889 15.75 3.72737 15.75 2.77788C15.75 1.8284 16.527 1.04688 17.5 1.04688C18.4731 1.04688 19.25 1.8284 19.25 2.77788ZM19.5496 4.59882C19.9852 4.11562 20.25 3.47747 20.25 2.77788C20.25 1.26959 19.0188 0.046875 17.5 0.046875C15.9813 0.046875 14.75 1.26959 14.75 2.77788C14.75 3.47747 15.0149 4.11562 15.4505 4.59882C13.5403 4.62529 12 6.182 12 8.09847V8.97083C12 10.0753 12.8953 10.9707 13.9997 10.9708L15.6665 20.0747H19.3332L20.9999 10.9708H21C22.1046 10.9708 23 10.0754 23 8.97083V8.09848C23 6.18203 21.4597 4.62534 19.5496 4.59882ZM14.9834 10.7907L14.8333 9.97093L13.9999 9.97083C13.4476 9.97076 13 9.52307 13 8.97083V8.09847C13 6.71776 14.1193 5.59848 15.5 5.59848H19.5C20.8807 5.59848 22 6.71776 22 8.09848V8.97083C22 9.52312 21.5523 9.97083 21 9.97083H20.9999H20.1664L20.0163 10.7907L18.4996 19.0747H16.5L14.9834 10.7907Z" fill="#5CA4FF"/>
<path fill-rule="evenodd" clip-rule="evenodd" d="M19.5496 4.59882C19.9852 4.11562 20.25 3.47747 20.25 2.77788C20.25 1.26959 19.0188 0.046875 17.5 0.046875C15.9813 0.046875 14.75 1.26959 14.75 2.77788C14.75 3.47747 15.0149 4.11562 15.4505 4.59882C13.5403 4.62529 12 6.182 12 8.09847V8.97083C12 10.0753 12.8953 10.9707 13.9997 10.9708L15.6665 20.0747H19.3332L20.9999 10.9708H21C22.1046 10.9708 23 10.0754 23 8.97083V8.09848C23 6.18203 21.4597 4.62534 19.5496 4.59882Z" fill="#5CA4FF"/>
<mask id="mask1" mask-type="alpha" maskUnits="userSpaceOnUse" x="12" y="0" width="11" height="21">
<path fill-rule="evenodd" clip-rule="evenodd" d="M15.4504 4.59882C15.0148 4.11562 14.75 3.47747 14.75 2.77788C14.75 1.26959 15.9812 0.046875 17.5 0.046875C19.0187 0.046875 20.25 1.26959 20.25 2.77788C20.25 3.47747 19.9851 4.11562 19.5495 4.59882C21.4597 4.62529 23 6.182 23 8.09847V8.97083C23 10.0753 22.1047 10.9707 21.0003 10.9708L19.3335 20.0747H15.6668L14.0001 10.9708H14C12.8954 10.9708 12 10.0754 12 8.97083V8.09848C12 6.18203 13.5403 4.62534 15.4504 4.59882Z" fill="#5CA4FF"/>
</mask>
<g mask="url(#mask1)">
<path d="M19 18.4191C16.5 18.4191 14.5 7.99163 15.5 5.01235L10.5 5.50889L13 21.3984H19V18.4191Z" fill="#5CA4FF"/>
<path d="M19.0131 4.9108C21.4279 5.55338 20.6422 16.1396 18.8998 18.7604L23.8588 19.5659L25.5851 3.57522L19.7896 2.03303L19.0131 4.9108Z" fill="#5CA4FF"/>
</g>
<ellipse cx="17.5" cy="2.52961" rx="2.5" ry="2.48274" fill="#5CA4FF"/>
<path fill-rule="evenodd" clip-rule="evenodd" d="M19.25 2.77788C19.25 3.72737 18.4731 4.50889 17.5 4.50889C16.527 4.50889 15.75 3.72737 15.75 2.77788C15.75 1.8284 16.527 1.04688 17.5 1.04688C18.4731 1.04688 19.25 1.8284 19.25 2.77788ZM19.5496 4.59882C19.9852 4.11562 20.25 3.47747 20.25 2.77788C20.25 1.26959 19.0188 0.046875 17.5 0.046875C15.9813 0.046875 14.75 1.26959 14.75 2.77788C14.75 3.47747 15.0149 4.11562 15.4505 4.59882C13.5403 4.62529 12 6.182 12 8.09847V8.97083C12 10.0753 12.8953 10.9707 13.9997 10.9708L15.6665 20.0747H19.3332L20.9999 10.9708H21C22.1046 10.9708 23 10.0754 23 8.97083V8.09848C23 6.18203 21.4597 4.62534 19.5496 4.59882ZM14.9834 10.7907L14.8333 9.97093L13.9999 9.97083C13.4476 9.97076 13 9.52307 13 8.97083V8.09847C13 6.71776 14.1193 5.59848 15.5 5.59848H19.5C20.8807 5.59848 22 6.71776 22 8.09848V8.97083C22 9.52312 21.5523 9.97083 21 9.97083H20.9999H20.1664L20.0163 10.7907L18.4996 19.0747H16.5L14.9834 10.7907Z" fill="#5CA4FF"/>
</svg>
