<svg width="24" height="25" viewBox="0 0 24 25" fill="none" xmlns="http://www.w3.org/2000/svg">
<g clip-path="url(#clip0)">
<path fill-rule="evenodd" clip-rule="evenodd" d="M10.6667 5.91354L12.8 3.78021C12.9778 3.60243 13.2267 3.14021 12.8 2.71354C12.3733 2.28687 11.2 0.757986 10.6667 0.046875L4.26667 2.71354C4.08889 2.89132 3.73333 3.35354 3.73333 3.78021C3.73333 4.20687 1.24444 13.2024 0 17.6469C0 17.8247 0.106667 18.2869 0.533333 18.7135C0.96 19.1402 1.42222 19.2469 1.6 19.2469L3.2 20.3135C4.44444 21.2024 8 23.5135 10.6667 23.5135C12.2667 23.5135 15.7867 23.3002 17.0667 22.4469C18.1333 22.9802 20.8 24.0469 23.4667 24.0469V12.3135C23.3189 12.2396 23.1864 12.1504 23.0454 12.0554C22.5079 11.6931 21.8458 11.2469 19.7333 11.2469C17.0667 11.2469 15.4667 13.9135 15.4667 13.9135C15.4667 13.9135 13.8667 12.3135 11.7333 12.3135C10.0514 12.3135 9.00595 13.2895 8.46321 13.7962C8.14545 14.0929 8 14.2287 8 13.9135C8 13.0602 7.64444 8.93576 7.46667 6.98021L6.93333 5.91354C6.93333 5.73576 7.04 5.38021 7.46667 5.38021H9.06667C9.9376 5.38021 9.9789 5.49873 10.0615 5.73576C10.0801 5.78904 10.1007 5.8483 10.1333 5.91354H10.6667ZM6.05691 17.8523C7.79019 20.7411 11.2244 21.247 14.9898 20.7091L14.8767 19.9172C11.1754 20.4459 8.20962 19.8852 6.7429 17.4407L6.05691 17.8523Z" fill="#5CA4FF"/>
</g>
<defs>
<clipPath id="clip0">
<rect y="0.046875" width="24" height="24" fill="white"/>
</clipPath>
</defs>
</svg>
