<svg width="11" height="25" viewBox="0 0 11 25" fill="none" xmlns="http://www.w3.org/2000/svg">
<path d="M2.25906 13.3953C2.22057 13.2669 2.31666 13.1378 2.45063 13.1378H8.45847C8.59244 13.1378 8.68853 13.2669 8.65004 13.3953L5.64612 23.4083C5.5891 23.5984 5.32 23.5984 5.26299 23.4083L2.25906 13.3953Z" fill="#ffc061"/>
<path fill-rule="evenodd" clip-rule="evenodd" d="M1.21996 9.7725C0.70983 9.61742 -0.00641152 9.20424 4.33222e-05 8.1068C0.00601439 7.10163 1.13377 6.73453 1.62301 6.6861C1.73261 6.67524 1.7902 6.57252 1.72876 6.4965C1.30462 5.97166 0.285113 4.4023 2.41273 3.5399C4.30171 2.77436 5.29656 2.02164 5.05213 1.05261C4.90844 0.483079 4.36604 0.240954 4.04977 0.146419C4.00065 0.13182 4.00912 0.0721791 4.06113 0.0682623C4.81175 0.0107577 7.05687 -0.0357089 7.41744 1.41526C7.63182 2.27801 7.15876 3.15909 6.90682 3.47617C6.84711 3.55112 6.90277 3.65189 7.01006 3.66453C7.12272 3.67769 7.26241 3.67877 7.417 3.67995C8.06302 3.68491 8.96917 3.69186 9.2494 4.59172C9.48227 5.3391 9.1685 6.0215 8.88535 6.27698C8.80118 6.353 8.86398 6.47691 8.9884 6.48119C9.53389 6.50006 10.4738 6.66064 10.7712 7.51324C11.2778 8.96604 10.2683 9.55053 9.68405 9.76062C9.77035 9.95983 9.81818 10.1796 9.81818 10.4105C9.81818 11.3142 9.08556 12.0469 8.18182 12.0469H2.72727C1.82353 12.0469 1.09091 11.3142 1.09091 10.4105C1.09091 10.1842 1.13687 9.96856 1.21996 9.7725Z" fill="#ffc061"/>
</svg>
