<svg width="28" height="18" viewBox="0 0 28 18" fill="none" xmlns="http://www.w3.org/2000/svg">
<path fill-rule="evenodd" clip-rule="evenodd" d="M16.6531 1.03046H14.1216L14.1216 1.03016H10.4156L10.4159 3.70631L16.6534 3.70631L16.6531 1.03046ZM17.6531 1.01655L17.6534 3.70631C17.6535 4.25859 17.2058 4.70631 16.6536 4.70631H10.4161C9.86377 4.70631 9.416 4.25859 9.41592 3.70631L9.41556 1.01641C8.87089 0.984142 8.0906 0.8762 7.36141 0.515081C6.32132 0 6.11332 0 5.28131 0C4.4493 0 3.89472 0.686774 3.72143 1.03016L1.56093 6.69605C1.56093 6.69605 0.407996 9.45924 0.0828728 12.3619C-0.332517 16.0705 0.950254 17.3411 1.64359 17.5127C3.64249 18.0278 5.20237 16.9977 5.80348 15.9675C5.80348 15.9675 6.76191 13.3921 7.36301 12.3619C7.96412 11.3318 11.5229 11.3318 11.5229 11.3318H12.9459L12.9459 11.3321H15.546C15.546 11.3321 19.1048 11.3321 19.7062 12.3622C20.3075 13.3924 21.2667 15.9678 21.2667 15.9678C21.8681 16.998 23.4282 18.0281 25.427 17.513C26.1203 17.3414 27.4027 16.0708 26.9863 12.3622C26.6604 9.45954 25.5067 6.69635 25.5067 6.69635L23.3447 1.03046C23.1713 0.68707 22.6165 0.000295075 21.7845 0.000295075C20.9525 0.000295075 20.7445 0.000295075 19.7046 0.515376C18.9766 0.87594 18.1976 0.984104 17.6531 1.01655ZM5.41383 3.53039H6.35526L6.35551 5.41274L8.23757 5.41274L8.2377 6.35406H6.35564L6.35589 8.23699H5.41447L5.41421 6.35406H3.53056L3.53043 5.41274H5.41408L5.41383 3.53039ZM21.9687 4.31157C21.9687 4.7448 21.6175 5.09601 21.1843 5.09601C20.751 5.09601 20.3997 4.7448 20.3996 4.31157C20.3996 3.87834 20.7508 3.52714 21.1841 3.52714C21.6173 3.52714 21.9686 3.87834 21.9687 4.31157ZM19.6165 6.66324C20.0498 6.66324 20.401 6.31203 20.401 5.8788C20.4009 5.44557 20.0496 5.09437 19.6163 5.09437C19.183 5.09437 18.8318 5.44557 18.8319 5.8788C18.832 6.31203 19.1833 6.66324 19.6165 6.66324ZM22.7523 6.66486C23.1856 6.66486 23.5368 6.31366 23.5367 5.88043C23.5366 5.4472 23.1853 5.096 22.7521 5.096C22.3188 5.096 21.9676 5.4472 21.9676 5.88043C21.9677 6.31366 22.319 6.66486 22.7523 6.66486ZM21.1834 8.23555C21.6167 8.23555 21.9679 7.88435 21.9678 7.45112C21.9677 7.01789 21.6165 6.66669 21.1832 6.66669C20.7499 6.66669 20.3987 7.01789 20.3988 7.45112C20.3988 7.88435 20.7501 8.23555 21.1834 8.23555Z" fill="#5CA4FF"/>
</svg>
