<svg width="40" height="40" viewBox="0 0 40 40" fill="none" xmlns="http://www.w3.org/2000/svg">
<g clip-path="url(#clip0)">
<path d="M17.3214 0.803407C13.7503 0.85956 6.59977 7.89326 5.70844 13.4765C5.65768 13.7935 4.54681 26.9451 4.32971 29.612H10.5919C10.6152 29.2449 10.5919 27.9671 10.5919 27.1489C10.5919 26.0183 9.40463 25.7503 9.43734 25.237C9.46762 24.7643 11.1399 24.2309 11.1399 22.9763C11.1399 21.7214 9.5939 21.3927 9.62539 20.9044C9.66086 20.356 11.2182 20.1955 11.2182 18.9089C11.2182 17.6223 10.1911 17.8826 10.044 16.3494C9.96572 15.5346 10.2137 14.4869 10.3103 14.2705C10.3143 14.2623 10.318 14.2534 10.3219 14.2449C10.9167 12.9067 12.6911 12.6146 13.6876 13.6889L15.9931 16.1745L22.1771 0.783876C22.1771 0.783876 19.5508 0.768312 17.3214 0.803407Z" fill="#5CA4FF"/>
<path d="M22.1822 0.820412L16.001 16.1735L16.8522 16.5083C17.9909 16.9563 19.2776 16.3981 19.7265 15.262L24.2825 4.02385C24.7311 2.88737 24.1721 1.60319 23.0334 1.15519L22.1822 0.820412Z" fill="#5CA4FF"/>
<path d="M4.32971 29.613H10.5919V32.738H4.32971V29.613Z" fill="#5CA4FF"/>
<path d="M23.3024 0.428354C23.3024 0.428354 22.3416 0.00477005 22.1701 0.00385453C22.1438 0.00385453 19.5249 -0.0114043 17.3251 0.0233858C15.0361 0.0597017 12.0405 2.37538 10 4.53023C7.26795 7.41597 5.45319 10.6322 5.02082 13.3547C4.9612 13.7313 3.81608 27.4111 3.6427 29.5501C3.64209 29.5592 3.64026 32.7383 3.64026 32.7383C3.64026 33.1698 3.98884 33.5195 4.41876 33.5195H6.75364V39.2193C6.75364 39.6508 7.10222 40.0005 7.53214 40.0005C7.96205 40.0005 8.31063 39.6508 8.31063 39.2193V33.5195H10.6455C11.0754 33.5195 11.424 33.1698 11.424 32.7383C11.424 32.7383 11.424 27.4206 11.424 27.1502C11.424 26.187 10.8629 25.6344 10.4841 25.2941C10.4963 25.2843 11.9689 24.2974 11.9689 22.9772C11.9689 21.9127 11.2702 21.3097 10.7703 20.935C11.273 20.609 12.0469 20.0316 12.0469 18.9101C12.0469 17.9647 11.6246 17.5213 11.3164 17.1978C11.0718 16.9411 10.9244 16.7864 10.8758 16.2761C10.7905 15.3826 10.9461 14.0145 12.0267 13.8341C12.4508 13.7633 12.8608 13.9043 13.1529 14.2208L15.4452 16.7064C15.5431 16.8123 15.6669 16.8862 15.8012 16.9249C16.4121 17.1667 17.0059 17.4438 17.6758 17.4438C18.8647 17.4438 19.9905 16.7257 20.4501 15.5547L24.9832 4.31019C25.5862 2.77516 24.8322 1.03352 23.3024 0.428354ZM9.86732 31.957H5.19695V30.3945H9.86732V31.957ZM15.7519 14.739L14.2949 13.1594C13.6507 12.4608 12.7073 12.137 11.7714 12.293C11.0063 12.4206 10.3504 12.8737 9.91441 13.5113C9.37014 14.3068 9.23621 15.4833 9.3258 16.4254C9.42609 17.4749 9.88659 17.958 10.1911 18.2778C10.4208 18.5186 10.4899 18.5915 10.4899 18.9101C10.4899 19.2312 10.2853 19.3947 9.81871 19.6911C9.45086 19.9245 8.94695 20.2444 8.90781 20.8556C8.86836 21.4733 9.34017 21.82 9.71902 22.0983C10.1502 22.4154 10.4122 22.6327 10.4122 22.9775C10.4122 23.3483 10.0474 23.6596 9.57042 24.0279C9.16955 24.3377 8.75462 24.6581 8.72098 25.1885C8.68337 25.7793 9.08974 26.1413 9.38634 26.4056C9.72086 26.7031 9.86732 26.8636 9.86732 27.1502C9.86732 27.4245 9.8765 28.5927 9.87742 28.832H5.26361C5.59507 24.8055 6.4971 14.1076 6.55947 13.5924C6.94047 11.2111 8.6479 8.22682 11.1283 5.60658C13.3837 3.22468 15.8837 1.60878 17.3496 1.58558C18.6286 1.56544 20.0505 1.56208 21.0161 1.563L15.7519 14.739ZM23.5375 3.73097L19.0044 14.9755C18.7164 15.7091 17.8874 16.0708 17.156 15.7818L17.0383 15.7351L22.6043 1.83186L22.7315 1.88221C23.4626 2.17152 23.8228 3.00374 23.5375 3.73097Z" fill="#5CA4FF"/>
<path d="M32.1777 18.2964C32.1777 18.2964 27.3315 15.8031 27.329 15.8019C26.9505 15.6072 26.4747 15.7622 26.2814 16.1409C26.0879 16.5206 26.2429 16.9991 26.6193 17.1926C26.6193 17.1926 31.4643 19.6855 31.4676 19.6871C31.8459 19.8818 32.322 19.727 32.5152 19.348C32.7091 18.9684 32.5547 18.4905 32.1777 18.2964Z" fill="#5CA4FF"/>
<path d="M29.8591 22.2901C29.8591 22.2901 25.3768 19.1861 25.374 19.1846C25.0251 18.9426 24.5313 19.0329 24.2913 19.3836C24.0476 19.7376 24.1365 20.2259 24.4897 20.4703C24.4897 20.4703 28.9678 23.5709 28.9748 23.5758C29.3197 23.8147 29.8209 23.7195 30.0575 23.3765C30.3012 23.0219 30.2116 22.5345 29.8591 22.2901Z" fill="#5CA4FF"/>
<path d="M33.7333 14.1302C33.7333 14.1302 28.6343 12.2067 28.6327 12.2061C28.2362 12.0565 27.7796 12.265 27.6301 12.6623C27.4821 13.0563 27.6962 13.5217 28.0857 13.6688C28.0857 13.6688 33.179 15.5905 33.1854 15.5929C33.5817 15.7424 34.0397 15.5319 34.188 15.1367C34.3363 14.7415 34.1241 14.2776 33.7333 14.1302Z" fill="#5CA4FF"/>
<path d="M34.7363 10.6141C34.7363 10.6141 29.6418 8.69214 29.636 8.69001C29.24 8.54078 28.7811 8.75196 28.6334 9.14624C28.4823 9.54938 28.6869 10.0007 29.0887 10.1524C29.0887 10.1524 34.1829 12.0744 34.1887 12.0765C34.5849 12.2261 35.043 12.0155 35.1913 11.6203C35.342 11.2175 35.1381 10.7658 34.7363 10.6141Z" fill="#5CA4FF"/>
<path d="M35.9524 6.43521C35.9524 6.43521 30.7148 4.93069 30.7139 4.93038C30.3124 4.81503 29.8687 5.0555 29.7519 5.46627C29.636 5.87307 29.8816 6.3168 30.2858 6.43215C30.2858 6.43215 35.5191 7.93606 35.5243 7.93759C35.9255 8.05294 36.3691 7.81277 36.4863 7.4017C36.6046 6.98757 36.3649 6.55392 35.9524 6.43521Z" fill="#5CA4FF"/>
<path d="M23.1308 18.047C23.1308 18.4783 22.7804 18.8283 22.3481 18.8283C21.9157 18.8283 21.5653 18.4783 21.5653 18.047C21.5653 17.6155 21.9157 17.2658 22.3481 17.2658C22.7804 17.2658 23.1308 17.6155 23.1308 18.047Z" fill="#5CA4FF"/>
<path d="M25.0099 15.0782C25.0099 15.5095 24.6595 15.8595 24.2271 15.8595C23.7948 15.8595 23.4443 15.5095 23.4443 15.0782C23.4443 14.6467 23.7948 14.297 24.2271 14.297C24.6595 14.297 25.0099 14.6467 25.0099 15.0782Z" fill="#5CA4FF"/>
<path d="M26.2621 11.8751C26.2621 12.3063 25.9117 12.6564 25.4793 12.6564C25.0469 12.6564 24.6965 12.3063 24.6965 11.8751C24.6965 11.4436 25.0469 11.0938 25.4793 11.0938C25.9117 11.0938 26.2621 11.4436 26.2621 11.8751Z" fill="#5CA4FF"/>
<path d="M27.28 8.35944C27.28 8.79065 26.9296 9.14069 26.4973 9.14069C26.0649 9.14069 25.7145 8.79065 25.7145 8.35944C25.7145 7.92792 26.0649 7.57819 26.4973 7.57819C26.9296 7.57819 27.28 7.92792 27.28 8.35944Z" fill="#5CA4FF"/>
<path d="M28.2972 4.84379C28.2972 5.27501 27.9468 5.62504 27.5145 5.62504C27.0821 5.62504 26.7317 5.27501 26.7317 4.84379C26.7317 4.41227 27.0821 4.06254 27.5145 4.06254C27.9468 4.06254 28.2972 4.41227 28.2972 4.84379Z" fill="#5CA4FF"/>
</g>
<defs>
<clipPath id="clip0">
<rect width="40" height="40" fill="#5CA4FF"/>
</clipPath>
</defs>
</svg>
