<svg width="24" height="24" viewBox="0 0 24 24" fill="none" xmlns="http://www.w3.org/2000/svg">
<path d="M10.921 1.45413L1.76414 6.89587C1.34212 7.14666 1.34212 7.55329 1.76414 7.80409L10.921 13.2458C11.3431 13.4966 12.0273 13.4966 12.4493 13.2458L21.6062 7.80409C22.0282 7.55329 22.0282 7.14666 21.6062 6.89587L12.4493 1.45413C12.0273 1.20333 11.3431 1.20333 10.921 1.45413Z" fill="#0093FF"/>
<path fill-rule="evenodd" clip-rule="evenodd" d="M4.36556 15.35L10.9212 19.2458C11.3432 19.4966 12.0274 19.4966 12.4494 19.2458L19.005 15.35L21.6063 16.8959C22.0284 17.1467 22.0284 17.5533 21.6063 17.8041L12.4494 23.2458C12.0274 23.4966 11.3432 23.4966 10.9212 23.2458L1.76427 17.8041C1.34225 17.5533 1.34225 17.1467 1.76427 16.8959L4.36556 15.35Z" fill="#B5E0FF"/>
<path fill-rule="evenodd" clip-rule="evenodd" d="M4.36556 10.35L10.9212 14.2458C11.3432 14.4966 12.0274 14.4966 12.4494 14.2458L19.005 10.35L21.6063 11.8959C22.0284 12.1467 22.0284 12.5533 21.6063 12.8041L12.4494 18.2458C12.0274 18.4966 11.3432 18.4966 10.9212 18.2458L1.76427 12.8041C1.34225 12.5533 1.34225 12.1467 1.76427 11.8959L4.36556 10.35Z" fill="#33A9FF"/>
</svg>
