<svg width="24" height="24" viewBox="0 0 24 24" fill="none" xmlns="http://www.w3.org/2000/svg">
<path d="M10.3636 12H0C0 15.4909 2.54545 16.7273 3.81818 16.9091H7.09091V20.1818C7.52727 23.2364 10.5455 24 12 24V13.6364C12 12 10.7273 12 10.3636 12Z" fill="#80B8FF"/>
<path d="M16.3636 6H6C6 9.49091 8.54545 10.7273 9.81818 10.9091H13.0909V14.1818C13.5273 17.2364 16.5455 18 18 18V7.63636C18 6 16.7273 6 16.3636 6Z" fill="#80B8FF"/>
<path d="M22.3636 0H12C12 3.49091 14.5455 4.72727 15.8182 4.90909H19.0909V8.18182C19.5273 11.2364 22.5455 12 24 12V1.63636C24 0 22.7273 0 22.3636 0Z" fill="#80B8FF"/>
</svg>
