<svg width="24" height="24" viewBox="0 0 24 24" fill="none" xmlns="http://www.w3.org/2000/svg">
<mask id="path-1-inside-1" fill="white">
<path fill-rule="evenodd" clip-rule="evenodd" d="M24 12C24 18.6274 18.6274 24 12 24C5.37258 24 0 18.6274 0 12C0 5.37258 5.37258 0 12 0C18.6274 0 24 5.37258 24 12ZM8.53846 18.1429V16.4286C8.53846 15.4818 9.22725 14.7143 10.0769 14.7143H13.9231C14.7727 14.7143 15.4615 15.4818 15.4615 16.4286V18.1429C15.4615 18.6162 15.8059 19 16.2308 19C16.6556 19 17 18.6162 17 18.1429V16.4286C17 14.535 15.6224 13 13.9231 13H10.0769C8.37759 13 7 14.535 7 16.4286V18.1429C7 18.6162 7.3444 19 7.76923 19C8.19407 19 8.53846 18.6162 8.53846 18.1429ZM12.0547 12C13.9877 12 15.5547 10.433 15.5547 8.5C15.5547 6.567 13.9877 5 12.0547 5C10.1217 5 8.55469 6.567 8.55469 8.5C8.55469 10.433 10.1217 12 12.0547 12ZM12.0547 10.4444C10.9808 10.4444 10.1102 9.57389 10.1102 8.5C10.1102 7.42611 10.9808 6.55556 12.0547 6.55556C13.1286 6.55556 13.9991 7.42611 13.9991 8.5C13.9991 9.57389 13.1286 10.4444 12.0547 10.4444Z"/>
</mask>
<path fill-rule="evenodd" clip-rule="evenodd" d="M24 12C24 18.6274 18.6274 24 12 24C5.37258 24 0 18.6274 0 12C0 5.37258 5.37258 0 12 0C18.6274 0 24 5.37258 24 12ZM8.53846 18.1429V16.4286C8.53846 15.4818 9.22725 14.7143 10.0769 14.7143H13.9231C14.7727 14.7143 15.4615 15.4818 15.4615 16.4286V18.1429C15.4615 18.6162 15.8059 19 16.2308 19C16.6556 19 17 18.6162 17 18.1429V16.4286C17 14.535 15.6224 13 13.9231 13H10.0769C8.37759 13 7 14.535 7 16.4286V18.1429C7 18.6162 7.3444 19 7.76923 19C8.19407 19 8.53846 18.6162 8.53846 18.1429ZM12.0547 12C13.9877 12 15.5547 10.433 15.5547 8.5C15.5547 6.567 13.9877 5 12.0547 5C10.1217 5 8.55469 6.567 8.55469 8.5C8.55469 10.433 10.1217 12 12.0547 12ZM12.0547 10.4444C10.9808 10.4444 10.1102 9.57389 10.1102 8.5C10.1102 7.42611 10.9808 6.55556 12.0547 6.55556C13.1286 6.55556 13.9991 7.42611 13.9991 8.5C13.9991 9.57389 13.1286 10.4444 12.0547 10.4444Z" fill="#80B8FF"/>
<path d="M12 25.6C19.5111 25.6 25.6 19.5111 25.6 12H22.4C22.4 17.7438 17.7438 22.4 12 22.4V25.6ZM-1.6 12C-1.6 19.5111 4.48893 25.6 12 25.6V22.4C6.25624 22.4 1.6 17.7438 1.6 12H-1.6ZM12 -1.6C4.48893 -1.6 -1.6 4.48893 -1.6 12H1.6C1.6 6.25624 6.25624 1.6 12 1.6V-1.6ZM25.6 12C25.6 4.48893 19.5111 -1.6 12 -1.6V1.6C17.7438 1.6 22.4 6.25624 22.4 12H25.6ZM6.93846 16.4286V18.1429H10.1385V16.4286H6.93846ZM10.0769 13.1143C8.18515 13.1143 6.93846 14.7654 6.93846 16.4286H10.1385C10.1385 16.343 10.1694 16.2967 10.1799 16.285C10.1844 16.28 10.1797 16.2871 10.1602 16.2963C10.1388 16.3064 10.109 16.3143 10.0769 16.3143V13.1143ZM13.9231 13.1143H10.0769V16.3143H13.9231V13.1143ZM17.0615 16.4286C17.0615 14.7654 15.8148 13.1143 13.9231 13.1143V16.3143C13.891 16.3143 13.8612 16.3064 13.8398 16.2963C13.8203 16.2871 13.8156 16.28 13.8201 16.285C13.8306 16.2967 13.8615 16.343 13.8615 16.4286H17.0615ZM17.0615 18.1429V16.4286H13.8615V18.1429H17.0615ZM16.2308 17.4C16.52 17.4 16.7464 17.5341 16.8776 17.6803C17.0063 17.8237 17.0615 17.9918 17.0615 18.1429H13.8615C13.8615 19.3327 14.7638 20.6 16.2308 20.6V17.4ZM15.4 18.1429C15.4 17.9918 15.4552 17.8237 15.5839 17.6803C15.7151 17.5341 15.9415 17.4 16.2308 17.4V20.6C17.6977 20.6 18.6 19.3327 18.6 18.1429H15.4ZM15.4 16.4286V18.1429H18.6V16.4286H15.4ZM13.9231 14.6C14.5803 14.6 15.4 15.2514 15.4 16.4286H18.6C18.6 13.8186 16.6645 11.4 13.9231 11.4V14.6ZM10.0769 14.6H13.9231V11.4H10.0769V14.6ZM8.6 16.4286C8.6 15.2514 9.41969 14.6 10.0769 14.6V11.4C7.33548 11.4 5.4 13.8186 5.4 16.4286H8.6ZM8.6 18.1429V16.4286H5.4V18.1429H8.6ZM7.76923 17.4C8.05848 17.4 8.28491 17.5341 8.41609 17.6803C8.5448 17.8237 8.6 17.9918 8.6 18.1429H5.4C5.4 19.3327 6.30229 20.6 7.76923 20.6V17.4ZM6.93846 18.1429C6.93846 17.9918 6.99366 17.8237 7.12237 17.6803C7.25355 17.5341 7.47998 17.4 7.76923 17.4V20.6C9.23617 20.6 10.1385 19.3327 10.1385 18.1429H6.93846ZM13.9547 8.5C13.9547 9.54934 13.104 10.4 12.0547 10.4V13.6C14.8713 13.6 17.1547 11.3167 17.1547 8.5H13.9547ZM12.0547 6.6C13.104 6.6 13.9547 7.45066 13.9547 8.5H17.1547C17.1547 5.68335 14.8713 3.4 12.0547 3.4V6.6ZM10.1547 8.5C10.1547 7.45066 11.0053 6.6 12.0547 6.6V3.4C9.23804 3.4 6.95469 5.68335 6.95469 8.5H10.1547ZM12.0547 10.4C11.0053 10.4 10.1547 9.54934 10.1547 8.5H6.95469C6.95469 11.3167 9.23804 13.6 12.0547 13.6V10.4ZM8.51024 8.5C8.51024 10.4575 10.0971 12.0444 12.0547 12.0444V8.84444C11.8645 8.84444 11.7102 8.69023 11.7102 8.5H8.51024ZM12.0547 4.95556C10.0971 4.95556 8.51024 6.54246 8.51024 8.5H11.7102C11.7102 8.30977 11.8645 8.15556 12.0547 8.15556V4.95556ZM15.5991 8.5C15.5991 6.54246 14.0122 4.95556 12.0547 4.95556V8.15556C12.2449 8.15556 12.3991 8.30977 12.3991 8.5H15.5991ZM12.0547 12.0444C14.0122 12.0444 15.5991 10.4575 15.5991 8.5H12.3991C12.3991 8.69023 12.2449 8.84444 12.0547 8.84444V12.0444Z" fill="#80B8FF" mask="url(#path-1-inside-1)"/>
</svg>
