<svg width="24" height="24" viewBox="0 0 24 24" fill="none" xmlns="http://www.w3.org/2000/svg">
<g id="i-menu-projects">
<path id="Subtract" fill-rule="evenodd" clip-rule="evenodd" d="M5 2H19V6.25001H21V2C21 0.895431 20.1046 0 19 0H5C3.89543 0 3 0.89543 3 2V4.16667H5L5 2ZM12 8H18.5645V9.37501H20.4524C20.0878 9.75991 19.572 10 19 10H12V8Z" fill="#80B8FF"/>
<path id="Path" d="M9.6 5H2.4C1.08 5 0.012 6.0125 0.012 7.25L0 20.75C0 21.9875 1.08 23 2.4 23H21.6C22.92 23 24 21.9875 24 20.75V9.5C24 8.2625 22.92 7.25 21.6 7.25H12L9.6 5Z" fill="#80B8FF"/>
</g>
</svg>
