<svg width="42" height="42" viewBox="8 12 42 42" fill="none" xmlns="http://www.w3.org/2000/svg">
<path fill-rule="evenodd" clip-rule="evenodd" d="M34.2204 48.0077C38.9018 48.4966 42.2692 44.2942 42.2702 37.0594C42.2715 27.9624 36.95 17.5158 30.3842 13.7263C23.8185 9.93685 18.4949 14.2395 18.4935 23.3365C18.4924 31.3263 22.5972 40.3571 28.0448 45.0045L28.626 52.1105L34.2204 48.0077Z" fill="#E5E5E5"/>
<path fill-rule="evenodd" clip-rule="evenodd" d="M30.8292 47.7928C36.354 49.5628 40.5387 45.2661 40.5398 37.2007C40.5412 28.1037 35.2196 17.6572 28.6539 13.8677C22.0881 10.0782 16.7645 14.3808 16.7632 23.4778C16.762 31.5427 20.9444 40.6683 26.4683 45.2756L28.6479 52.5763L30.8292 47.7928Z" fill="white"/>
<g opacity="0.5">
<path fill-rule="evenodd" clip-rule="evenodd" d="M29.407 26.7464L23.5567 23.9356C23.1398 23.7353 22.8018 24.0861 22.8017 24.7192L22.8 33.889L22.8 33.8943L22.8 33.9229C22.7998 34.558 23.1377 35.2358 23.5546 35.4367L32.9897 39.9845C33.4065 40.1855 33.7446 39.8335 33.7447 39.1984L33.7464 29.9984C33.7465 29.3632 33.4087 28.6855 32.9918 28.4846L32.5489 28.2711C32.5088 28.2418 32.4677 28.2168 32.4257 28.1967L31.8896 27.9391L31.482 27.6175C31.2738 27.4537 31.1051 27.4245 31.1045 27.5523L31.1045 27.5619L30.1619 27.109L30.162 26.8894C30.1618 26.3745 29.7395 25.6335 29.2185 25.234L27.1426 23.6431C26.6215 23.244 26.1991 23.3376 26.1989 23.8523L26.1988 24.7847L26.9536 25.3632L26.9537 24.4308C26.9541 24.3282 27.0384 24.3095 27.1425 24.389L29.2184 25.9799C29.3225 26.0599 29.4068 26.2078 29.4071 26.3109L29.407 26.7464ZM25.4448 24.6169L25.4447 24.8381L24.0294 23.8098L24.0294 23.7213L23.9345 23.6465L23.9345 23.414C23.9352 23.2863 24.1038 23.3154 24.312 23.4793L25.0669 24.0747C25.2751 24.2393 25.4437 24.4762 25.4443 24.6049L25.4443 24.6057C25.4446 24.6095 25.4447 24.6133 25.4448 24.6169ZM28.8881 33.4478C28.8583 33.4784 28.8398 33.5298 28.8384 33.5965L28.8382 35.3321L28.8381 35.3405L28.838 35.4929C28.8377 35.6416 28.7534 35.7173 28.6493 35.6623L27.5171 35.0596C27.413 35.0038 27.3287 34.8383 27.3284 34.6893L27.3285 33.9467L27.3287 32.7955C27.3268 32.6476 27.2432 32.4848 27.1401 32.4294L25.8192 31.7263C25.7151 31.6705 25.6308 31.505 25.6305 31.3559L25.6306 31.0436L25.6304 31.0333L25.6306 29.5352C25.6309 29.3977 25.7152 29.34 25.8193 29.4062L27.1403 30.251C27.1897 30.2824 27.2346 30.2859 27.2683 30.2663C27.3042 30.2379 27.3273 30.1829 27.329 30.1089L27.3293 28.3742L27.3295 28.3648L27.3295 28.2111C27.3298 28.0624 27.4141 27.9867 27.5182 28.0416L28.6505 28.6443C28.7545 28.7002 28.8388 28.8656 28.8391 29.0147L28.8388 30.9041C28.8391 31.0532 28.9233 31.2186 29.0274 31.2745L30.3484 31.9776C30.4525 32.0335 30.5368 32.199 30.5371 32.348L30.537 32.6639L30.5372 32.6731L30.5369 34.1712C30.5366 34.3087 30.4523 34.3664 30.3482 34.3002L29.0272 33.4554C28.9721 33.4204 28.9225 33.42 28.8881 33.4478Z" fill="#DA3333"/>
</g>
</svg>
