<svg width="42" height="42" viewBox="8 12 42 42" fill="none" xmlns="http://www.w3.org/2000/svg">
<path fill-rule="evenodd" clip-rule="evenodd" d="M34.2204 48.0077C38.9018 48.4966 42.2692 44.2942 42.2702 37.0594C42.2715 27.9624 36.95 17.5158 30.3842 13.7263C23.8185 9.93685 18.4949 14.2395 18.4935 23.3365C18.4924 31.3263 22.5972 40.3571 28.0448 45.0045L28.626 52.1105L34.2204 48.0077Z" fill="#E5E5E5"/>
<path fill-rule="evenodd" clip-rule="evenodd" d="M30.8292 47.7928C36.3539 49.5628 40.5387 45.266 40.5398 37.2007C40.5411 28.1037 35.2196 17.6572 28.6538 13.8677C22.0881 10.0782 16.7644 14.3808 16.7631 23.4778C16.762 31.5427 20.9444 40.6683 26.4683 45.2757L28.6479 52.5763L30.8292 47.7928Z" fill="white"/>
<g opacity="0.5">
<path fill-rule="evenodd" clip-rule="evenodd" d="M28.5962 20.6867L33.0796 23.8738C33.23 23.9807 33.3519 24.1792 33.3519 24.3172C33.3518 24.4384 33.257 24.4747 33.1269 24.4033L28.9426 22.1626C29.0056 22.3375 29.0514 22.5191 29.0758 22.699L32.6261 26.5479C32.7678 26.7015 32.879 26.8945 32.9262 27.0689L32.9999 27.3408C33.0439 27.5032 32.9248 27.5387 32.7898 27.4033L28.9759 23.5795C28.8065 23.9154 28.4754 24.0188 28.0946 23.799C27.5417 23.4798 27.0935 22.6 27.0936 21.8338L27.0936 21.8336L26.5936 21.545C25.6256 20.9862 24.8409 21.6307 24.8412 22.9722C24.8416 24.4148 24.9522 25.9338 25.0694 27.5419L25.0694 27.5424L25.0696 27.5444L25.0696 27.5444C25.2005 29.3418 25.3358 31.1992 25.3405 33.1952L25.3411 24.9477C25.3411 24.5258 25.519 24.3023 25.8118 24.3562L26.991 24.5736C27.2105 24.6141 27.344 24.4464 27.344 24.13L27.3441 23.4149L28.8461 24.8391L28.846 25.5542C28.846 25.8707 28.9794 26.2913 29.199 26.6672L30.378 28.6858C30.6708 29.187 30.8486 29.7478 30.8485 30.1697L30.8477 41.4231C30.8477 41.761 30.6235 41.8225 30.347 41.5603L25.8409 37.2878C25.5644 37.0256 25.3402 36.5391 25.3402 36.2012L25.3403 35.0491C25.3376 35.2358 25.2266 35.3232 25.09 35.2444L24.5895 34.9555C24.4513 34.8757 24.3392 34.6557 24.3392 34.4642L24.3394 32.7301C24.3397 30.7643 24.2046 28.9095 24.074 27.1156L24.0738 27.1131C23.9542 25.4722 23.8412 23.9214 23.8401 22.4111C23.8384 20.2967 25.0687 19.2775 26.5938 20.1578L28.0955 21.0245L28.0955 21.0248L28.0955 21.0248L28.0956 20.7902C28.0956 20.5365 28.3197 20.4901 28.5962 20.6867ZM26.336 34.7599L26.3365 30.6939C26.3365 30.1451 26.6476 29.8781 27.0299 30.0987L29.3899 31.4609C29.7722 31.6815 30.0831 32.3075 30.0831 32.8564L30.0826 36.9224C30.0825 37.4712 29.7715 37.7382 29.3892 37.5175L27.0291 36.1553C26.6468 35.9347 26.3359 35.3087 26.336 34.7599ZM29.6401 36.667L29.6406 32.601C29.6406 32.4025 29.5281 32.176 29.3898 32.0962L27.0298 30.734C26.8915 30.6542 26.779 30.7508 26.779 30.9493L26.7785 35.0153C26.7785 35.2138 26.8909 35.4402 27.0292 35.52L29.3893 36.8822C29.5275 36.962 29.64 36.8655 29.6401 36.667Z" fill="#DA3333"/>
</g>
</svg>
