<svg width="60" height="67" viewBox="0 0 60 67" fill="none" xmlns="http://www.w3.org/2000/svg">
<path fill-rule="evenodd" clip-rule="evenodd" d="M34.2204 48.0077C38.9017 48.4966 42.2691 44.2942 42.2702 37.0594C42.2715 27.9624 36.9499 17.5158 30.3842 13.7263C23.8184 9.93685 18.4948 14.2395 18.4935 23.3365C18.4923 31.3263 22.5972 40.3572 28.0448 45.0045L28.626 52.1105L34.2204 48.0077Z" fill="#E5E5E5"/>
<path fill-rule="evenodd" clip-rule="evenodd" d="M30.8291 47.7928C36.3539 49.5628 40.5387 45.2661 40.5398 37.2007C40.5411 28.1037 35.2196 17.6572 28.6538 13.8677C22.0881 10.0782 16.7644 14.3808 16.7631 23.4778C16.762 31.5427 20.9443 40.6682 26.4683 45.2756L28.6479 52.5763L30.8291 47.7928Z" fill="white"/>
<g opacity="0.5">
<path fill-rule="evenodd" clip-rule="evenodd" d="M27.3845 26.9597L28.3126 26.2096C28.3899 26.1471 28.4982 25.931 28.3127 25.5667C28.1271 25.2025 27.6169 23.9865 27.3849 23.424L24.6009 23.4244C24.5236 23.4869 24.3689 23.6762 24.3688 23.9333C24.3688 24.1905 23.2855 28.987 22.7438 31.3531C22.7438 31.4602 22.7902 31.7656 22.9757 32.1298C23.1613 32.4941 23.3623 32.6744 23.4396 32.719L24.1355 33.7636C24.6767 34.6117 26.2231 36.8971 27.383 37.5666C28.079 37.9683 29.6101 38.7234 30.1669 38.5305C30.6309 39.1197 31.7907 40.432 32.9506 41.1015L32.9516 34.0302C32.8873 33.9486 32.8297 33.8616 32.7684 33.7689C32.5346 33.4156 32.2466 32.9805 31.3278 32.4501C30.1678 31.7806 29.4717 32.9861 29.4717 32.9861C29.4717 32.9861 28.7759 31.6201 27.8479 31.0845C27.1163 30.6623 26.6615 30.988 26.4254 31.1571C26.2871 31.2561 26.2239 31.3014 26.2239 31.1115C26.224 30.5973 26.0696 28.0223 25.9925 26.7991L25.7606 26.0224C25.7606 25.9153 25.807 25.7278 25.9926 25.8349L26.6885 26.2366C27.0674 26.4552 27.0853 26.537 27.1212 26.7006C27.1293 26.7374 27.1383 26.7783 27.1525 26.8258L27.3845 26.9597ZM25.2169 32.9596C25.6068 34.0854 26.2023 34.9827 26.9267 35.6746C27.6384 36.3544 28.4549 36.8177 29.2968 37.137L29.1798 36.2809C28.3978 35.9844 27.7064 35.5774 27.1423 35.0387C26.5908 34.512 26.1425 33.8425 25.8367 32.9595L25.2169 32.9596Z" fill="#0072FF"/>
</g>
</svg>
