<svg width="60" height="68" viewBox="0 0 60 68" fill="none" xmlns="http://www.w3.org/2000/svg">
<path fill-rule="evenodd" clip-rule="evenodd" d="M34.1506 48.1413C38.845 48.6316 42.2218 44.4175 42.2228 37.1625C42.2241 28.0402 36.8878 17.5646 30.3037 13.7645C23.7197 9.9645 18.3813 14.2791 18.38 23.4014C18.3788 31.4134 22.4951 40.4694 27.9578 45.1297L28.5406 52.2555L34.1506 48.1413Z" fill="#E5E5E5"/>
<path fill-rule="evenodd" clip-rule="evenodd" d="M30.915 47.9258C36.4551 49.7007 40.6515 45.392 40.6527 37.3043C40.654 28.1819 35.3176 17.7063 28.7336 13.9063C22.1496 10.1063 16.8111 14.4208 16.8098 23.5432C16.8087 31.6305 21.0027 40.7815 26.542 45.4016L28.7277 52.7226L30.915 47.9258Z" fill="white"/>
<g opacity="0.5">
<path d="M26.5178 31.6422C26.4905 31.5002 26.5732 31.4256 26.6859 31.4907L30.1648 33.4986C30.2775 33.5637 30.3602 33.7337 30.3328 33.8441L28.5924 40.8737C28.5486 41.0505 28.3 40.907 28.2563 40.6798L26.5178 31.6422Z" fill="#FFAC30"/>
<path fill-rule="evenodd" clip-rule="evenodd" d="M25.9018 28.2468C25.5954 27.9455 25.1536 27.3508 25.1576 26.4286C25.1613 25.596 25.8372 25.6813 26.1304 25.8103C26.196 25.8392 26.2306 25.7738 26.1938 25.6894C25.9396 25.1069 25.3288 23.4512 26.6039 23.4711C27.7361 23.4888 28.3323 23.2079 28.186 22.3187C28.0999 21.7961 27.7749 21.4075 27.5853 21.2196C27.5559 21.1905 27.561 21.1439 27.5922 21.1586C28.042 21.3705 29.3875 22.1085 29.6034 23.438C29.7318 24.2286 29.4482 24.7965 29.2972 24.9727C29.2614 25.0142 29.2948 25.1172 29.3591 25.1648C29.4266 25.2147 29.5103 25.2639 29.6029 25.3183C29.9901 25.5459 30.5331 25.8651 30.701 26.7092C30.8404 27.4104 30.6523 27.8685 30.4826 27.9826C30.4322 28.0167 30.4698 28.1413 30.5444 28.1878C30.8713 28.3922 31.4345 28.8507 31.6127 29.6615C31.92 31.0608 31.2953 31.1824 30.9475 31.1504C31.0079 31.3487 31.0413 31.5479 31.0412 31.7369C31.0412 32.4873 30.5142 32.7915 29.8643 32.4164L26.9877 30.7561C26.3378 30.381 25.811 29.4685 25.8111 28.7181C25.8111 28.5325 25.8434 28.3743 25.9018 28.2468Z" fill="#FFAC30"/>
</g>
</svg>
