<svg width="42" height="42" viewBox="8 12 42 42" fill="none" xmlns="http://www.w3.org/2000/svg">
<path fill-rule="evenodd" clip-rule="evenodd" d="M34.2177 48.0038C38.8987 48.4927 42.2658 44.2906 42.2668 37.0564C42.2681 27.9601 36.947 17.5144 30.3818 13.7252C23.8166 9.93605 18.4934 14.2383 18.4921 23.3346C18.4909 31.3238 22.5955 40.3539 28.0426 45.0008L28.6238 52.1062L34.2177 48.0038Z" fill="#E5E5E5"/>
<path fill-rule="evenodd" clip-rule="evenodd" d="M30.8267 47.7889C36.351 49.5588 40.5354 45.2624 40.5366 37.1978C40.5379 28.1015 35.2168 17.6558 28.6516 13.8666C22.0863 10.0774 16.7631 14.3797 16.7618 23.4759C16.7607 31.5402 20.9427 40.665 26.4662 45.272L28.6456 52.572L30.8267 47.7889Z" fill="white"/>
<g opacity="0.5">
<path fill-rule="evenodd" clip-rule="evenodd" d="M27.8654 20.4874C23.9195 18.2101 20.7234 20.8031 20.7225 26.2701C20.7216 31.7372 23.9162 38.0183 27.8621 40.2956C31.8151 42.577 35.0183 39.9882 35.0192 34.5211C35.0202 29.0541 31.8184 22.7688 27.8654 20.4874ZM27.87 38.3191C24.7104 36.4956 22.1519 31.473 22.1526 27.0954C22.1533 22.7178 24.7131 20.649 27.8726 22.4725C31.0322 24.296 33.5907 29.3186 33.59 33.6962C33.5892 38.0738 31.0295 40.1425 27.87 38.3191ZM27.6717 25.3281L27.7146 25.3528C28.0005 25.5178 28.2292 25.9668 28.2291 26.3629L28.2284 30.8594L30.9944 34.7339C31.2446 35.0764 31.3231 35.5674 31.173 35.8176C31.0299 36.0718 30.7154 35.9893 30.4724 35.651L27.5062 31.4727C27.2847 31.1666 27.1561 30.7655 27.1561 30.4188L27.1569 25.7441C27.157 25.3479 27.3858 25.163 27.6717 25.3281Z" fill="#0093FF"/>
</g>
</svg>
