<svg width="60" height="67" viewBox="0 0 60 67" fill="none" xmlns="http://www.w3.org/2000/svg">
<path fill-rule="evenodd" clip-rule="evenodd" d="M34.2845 47.852C38.9532 48.3428 42.3121 44.1536 42.3131 36.9396C42.3144 27.872 37.0101 17.4592 30.4656 13.682C23.9211 9.90473 18.6146 14.1934 18.6133 23.261C18.6122 31.2232 22.7018 40.2225 28.1299 44.8558L28.664 51.9419L34.2845 47.852Z" fill="#E5E5E5"/>
<path fill-rule="evenodd" clip-rule="evenodd" d="M30.8795 47.7033C36.2823 49.2934 40.348 45.0179 40.3491 37.081C40.3504 28.0134 35.0461 17.6006 28.5015 13.8234C21.957 10.0461 16.6506 14.3348 16.6493 23.4024C16.6481 31.5943 20.9772 40.884 26.6389 45.3871L28.7347 52.4069L30.8795 47.7033Z" fill="white"/>
<g opacity="0.5">
<path fill-rule="evenodd" clip-rule="evenodd" d="M28.7821 27.0186L27.4535 26.2517L27.4535 26.252L26.6737 25.8019L26.6735 27.1768L28.7819 28.3938L28.7821 27.0186ZM29.6482 27.5095L29.648 28.8937C29.6479 29.446 29.2601 29.6699 28.7818 29.3938L26.6734 28.1768C26.1951 27.9007 25.8074 27.2292 25.8075 26.6769L25.8076 25.2931C25.5537 25.1256 25.1901 24.846 24.8504 24.4167C24.3655 23.8041 24.2685 23.7481 23.8806 23.5242C23.4927 23.3003 23.2341 23.5947 23.1532 23.7699L22.1452 26.8482C22.1452 26.8482 21.6073 28.3228 21.4553 30.1102C21.2612 32.3939 21.859 33.5597 22.1823 33.8572C23.1142 34.7278 23.8416 34.4822 24.1219 33.9786C24.1219 33.9786 24.5691 32.573 24.8495 32.0693C25.1299 31.5657 26.7891 32.5234 26.7891 32.5234L28.0013 33.2231L28.0013 33.2228L28.665 33.6059C28.665 33.6059 30.3242 34.5636 30.6045 35.3908C30.8847 36.2181 31.3315 38.1397 31.3315 38.1397C31.6118 38.9669 32.339 40.0522 33.271 40.2574C33.5942 40.333 34.1923 39.8575 33.9987 37.35C33.8471 35.3873 33.3096 33.2921 33.3096 33.2921L32.3024 29.0505C32.2216 28.782 31.963 28.1891 31.5751 27.9652C31.1872 27.7413 31.0902 27.6853 30.6053 27.7382C30.2656 27.7752 29.9021 27.6352 29.6482 27.5095ZM23.9421 25.8403L24.381 26.0937L24.3809 27.3094L25.2587 27.816L25.2586 28.4241L24.3808 27.9174L24.3807 29.134L23.9418 28.8806L23.9419 27.6641L23.064 27.1573L23.0641 26.5493L23.942 27.056L23.9421 25.8403ZM31.6597 30.8001C31.6597 31.0799 31.4959 31.2123 31.2939 31.0957C31.0919 30.9791 30.9282 30.6577 30.9282 30.3778C30.9282 30.098 31.092 29.9657 31.294 30.0823C31.496 30.1989 31.6598 30.5202 31.6597 30.8001ZM30.5631 31.6858C30.7651 31.8024 30.9289 31.67 30.9289 31.3902C30.9289 31.1103 30.7652 30.7889 30.5632 30.6723C30.3612 30.5557 30.1974 30.6881 30.1974 30.9679C30.1973 31.2478 30.3611 31.5692 30.5631 31.6858ZM32.0251 32.5317C32.2271 32.6483 32.3909 32.516 32.3909 32.2362C32.391 31.9563 32.2272 31.6349 32.0252 31.5183C31.8232 31.4017 31.6594 31.5341 31.6594 31.8139C31.6594 32.0938 31.8231 32.4151 32.0251 32.5317ZM31.2939 33.1233C31.4959 33.2399 31.6597 33.1075 31.6597 32.8277C31.6598 32.5478 31.496 32.2265 31.294 32.1099C31.092 31.9933 30.9282 32.1256 30.9282 32.4055C30.9282 32.6853 31.0919 33.0067 31.2939 33.1233Z" fill="#0072FF"/>
</g>
</svg>
