<svg width="42" height="24" viewBox="0 0 42 24" fill="none" xmlns="http://www.w3.org/2000/svg">
<path opacity="0.3" fill-rule="evenodd" clip-rule="evenodd" d="M36.9164 21.2184C44.2979 16.9758 43.1011 9.40917 34.2433 4.31798C25.3855 -0.773215 12.221 -1.46109 4.83946 2.78158C-2.54204 7.02424 -1.34526 14.5908 7.51254 19.682C16.3703 24.7732 29.5349 25.4611 36.9164 21.2184ZM11.8212 11.9011L10.1347 10.9272L16.7268 4.68131L18.6648 5.80048L14.0563 9.72639L14.1165 9.76117L21.0705 7.18972L22.6507 8.10224L18.1853 12.1255L18.2455 12.1603L25.0599 9.49353L26.9943 10.6107L16.1826 14.4197L14.4926 13.4438L18.4635 9.64053L18.4069 9.60779L11.8212 11.9011ZM30.8591 12.7051C32.6128 13.7179 32.7161 15.1519 30.8108 16.4568L29.0393 15.4338C29.8219 14.8795 29.8579 14.2572 29.0607 13.7968C28.0014 13.1851 26.3989 13.3739 24.7372 14.3336C23.0075 15.3325 22.7627 16.2268 23.7973 16.8242C24.5661 17.2682 25.5877 17.2839 26.5489 16.872L28.3076 17.9024C26.6338 18.7176 23.9085 19.0188 21.9174 17.869C19.9475 16.7314 20.0836 14.9545 22.948 13.3003C25.8252 11.6388 28.9246 11.588 30.8591 12.7051Z" fill="#363A42"/>
</svg>
