<svg width="64" height="37" viewBox="0 0 64 37" fill="none" xmlns="http://www.w3.org/2000/svg">
<path opacity="0.3" fill-rule="evenodd" clip-rule="evenodd" d="M56.04 32.2101C67.2452 25.7696 65.4285 14.2833 51.9822 6.55479C38.5358 -1.17376 18.5517 -2.21796 7.34642 4.2225C-3.85887 10.663 -2.04214 22.1492 11.4042 29.8778C24.8506 37.6063 44.8347 38.6505 56.04 32.2101ZM15.9779 17.81C17.0282 17.9382 19.6835 18.7149 21.1133 20.8078C22.7032 23.1349 26.3649 23.6462 28.0322 23.6068L27.9921 23.0415C26.6067 23.0742 23.4172 22.6384 22.0247 20.6001C20.4721 18.3276 17.5473 17.4232 16.1804 17.2564L15.9779 17.81ZM23.015 19.7492C21.818 18.4263 20.1089 17.8195 19.4824 17.6891L19.8145 17.1568C20.6781 17.3365 22.5755 18.0419 23.8832 19.4871C25.0508 20.7774 27.0186 21.2034 27.7853 21.2571L27.6675 21.8188C26.6262 21.746 24.3521 21.2269 23.015 19.7492ZM32.4783 8.08375C32.603 8.0904 32.7145 8.14996 32.7402 8.22051C32.742 8.2256 32.7433 8.23074 32.7441 8.23593L33.5878 13.5131L28.4586 13.2395L27.6152 7.96405C27.6028 7.88626 27.7019 7.82901 27.8366 7.8362L32.4783 8.08375ZM28.5487 13.803L33.6779 14.0765L35.3777 24.7089L30.2484 24.4353L30.2482 24.4353L28.5484 13.803L28.5487 13.803ZM35.4678 25.2723L35.6572 26.457C35.6696 26.5348 35.5705 26.5921 35.4358 26.5849L30.7941 26.3374C30.6677 26.3306 30.5548 26.2695 30.5312 26.1977C30.5298 26.1934 30.5288 26.1891 30.5281 26.1847L30.3385 24.9988L35.4678 25.2723Z" fill="#363A42"/>
</svg>
