<svg width="64" height="37" viewBox="0 0 64 37" fill="none" xmlns="http://www.w3.org/2000/svg">
<path opacity="0.3" fill-rule="evenodd" clip-rule="evenodd" d="M56.04 32.2101C67.2452 25.7696 65.4285 14.2833 51.9822 6.55479C38.5358 -1.17376 18.5517 -2.21796 7.34642 4.2225C-3.85887 10.663 -2.04214 22.1492 11.4042 29.8778C24.8506 37.6063 44.8347 38.6505 56.04 32.2101ZM34.3555 9.00209C37.0989 7.61442 40.8676 7.73304 44.1999 9.59112L41.4288 10.9928C40.012 10.2269 38.3805 10.1048 37.1335 10.7355C35.4764 11.5737 35.8941 13.0041 38.332 14.5986C40.8697 16.2584 43.2051 16.603 44.8234 15.7844C46.0261 15.1761 46.1168 14.2841 45.0825 13.3826L47.8723 11.9931C49.9306 13.5772 50.5887 16.0068 47.474 17.5823C44.3925 19.141 39.7356 18.7629 35.5332 16.0143C31.3121 13.2535 31.3294 10.5327 34.3555 9.00209ZM31.3197 25.551L28.6816 26.8855L12.6091 20.2044L15.6407 18.6709L25.7207 23.2775L25.8149 23.2298L19.4039 16.7674L21.8757 15.5171L32.2183 20.0125L32.3125 19.9649L25.6444 13.6108L28.6705 12.0802L38.1422 22.1001L35.4986 23.4373L25.7096 19.4068L25.6209 19.4516L31.3197 25.551Z" fill="#363A42"/>
</svg>
