<svg width="66" height="39" viewBox="0 0 66 39" fill="none" xmlns="http://www.w3.org/2000/svg">
<path opacity="0.3" fill-rule="evenodd" clip-rule="evenodd" d="M53.4582 7.39271C67.2221 15.3416 69.0818 27.1553 57.6118 33.7794C46.1419 40.4034 25.6858 39.3295 11.9218 31.3806C-1.84212 23.4317 -3.70177 11.618 7.76818 4.99392C19.2381 -1.63015 39.6942 -0.556179 53.4582 7.39271ZM21.562 10.2565C21.6589 10.2013 22.4835 10.0546 22.4835 10.0546C23.7498 9.7941 25.3462 10.2272 26.0416 11.0197L31.0711 16.8632C31.6019 17.4677 31.4536 18.112 30.7863 18.4974C30.4557 18.6883 30.0139 18.7768 29.5683 18.8661C29.507 18.8784 29.4457 18.8907 29.3846 18.9032C29.2831 18.9317 29.1639 18.9431 29.0376 18.9336L26.0766 18.7098C25.6996 18.6814 25.3744 18.7594 25.1841 18.9245C24.699 19.3449 25.5332 19.9275 26.1829 20.2475C26.5539 20.4302 26.7408 20.4426 27.051 20.4632C27.4419 20.4891 27.9776 20.5247 28.6144 20.8925C29.3698 21.3287 29.3243 21.8042 29.2617 22.0939C29.7948 22.0776 30.5931 22.0857 31.3101 22.4998C32.1729 22.9981 32.0462 23.8238 32.0376 23.8795L32.0372 23.8824C32.4791 23.8919 33.1663 23.925 33.815 24.2997L37.5789 26.4734C37.8696 26.6413 37.9095 26.8903 37.6682 27.0297L36.3576 27.7865L40.1967 30.0037C40.4874 30.1716 40.5273 30.4206 40.286 30.56C40.0447 30.6993 39.6135 30.6763 39.3228 30.5084L35.4836 28.2913L34.1731 29.0481C33.9318 29.1875 33.5005 29.1644 33.2099 28.9966C33.2099 28.9966 31.0696 27.7594 31.0638 27.7556C29.7204 26.8674 21.1489 21.1748 20.9287 21.009C19.3377 19.8098 18.19 17.9704 17.7798 15.9623C17.4736 14.4626 17.5953 12.5908 18.8557 11.8346C20.0058 11.1447 21.3985 10.3499 21.5488 10.2641L21.562 10.2565ZM39.5005 14.1281L35.0987 14.7295C34.7551 14.7765 34.5925 14.991 34.7391 15.201C34.8861 15.4114 35.2955 15.5473 35.6371 15.5005C35.6371 15.5005 40.0357 14.8997 40.0387 14.8992C40.3821 14.8524 40.5451 14.6378 40.3983 14.4278C40.2514 14.2172 39.8428 14.0814 39.5005 14.1281ZM36.2799 16.6791C36.2824 16.6788 40.8891 16.4332 40.8891 16.4332C41.2516 16.414 41.6302 16.5745 41.7322 16.7915C41.8304 17.0016 41.6133 17.2011 41.2587 17.22L36.6495 17.4659C36.2866 17.4853 35.9078 17.3242 35.8061 17.1075C35.7047 16.8932 35.921 16.698 36.2799 16.6791ZM37.5675 12.0032L33.4085 12.9082C33.0851 12.9785 32.9693 13.2076 33.153 13.4106C33.3353 13.6119 33.7689 13.7235 34.0866 13.6545L38.2451 12.7498C38.5683 12.6795 38.6836 12.4491 38.5006 12.2473C38.3176 12.0455 37.8861 11.9339 37.5675 12.0032ZM31.6033 11.2152L35.7622 10.3104C36.0898 10.2391 36.5085 10.3487 36.6953 10.5543C36.8782 10.7561 36.763 10.9865 36.4398 11.0568L32.2811 11.9615C31.9534 12.0327 31.5346 11.9235 31.3479 11.7177C31.1652 11.5164 31.2806 11.2855 31.6033 11.2152ZM33.6299 8.29061L29.676 9.40335C29.3729 9.48863 29.2859 9.72599 29.497 9.92364C29.7059 10.1194 30.1426 10.2125 30.4472 10.1263L34.4016 9.01379C34.7045 8.92862 34.7917 8.69137 34.5806 8.4935C34.3681 8.29405 33.9414 8.20307 33.6299 8.29061ZM34.3414 17.5214C34.5841 17.3812 34.545 17.1315 34.2545 16.9637C33.9639 16.7959 33.5316 16.7734 33.2889 16.9136C33.0462 17.0537 33.0851 17.3034 33.3758 17.4712C33.6662 17.639 34.0987 17.6615 34.3414 17.5214ZM33.3096 15.1998C33.6 15.3675 33.6391 15.6173 33.3964 15.7574C33.1537 15.8976 32.7213 15.875 32.4308 15.7073C32.1402 15.5394 32.1013 15.2898 32.344 15.1496C32.5867 15.0095 33.0189 15.0319 33.3096 15.1998ZM31.9417 14.1055C32.1844 13.9654 32.1453 13.7156 31.8549 13.5479C31.5642 13.38 31.132 13.3576 30.8893 13.4977C30.6466 13.6379 30.6855 13.8875 30.9761 14.0554C31.2666 14.2231 31.699 14.2457 31.9417 14.1055ZM30.0583 11.8503C30.3487 12.0181 30.3878 12.2678 30.1451 12.408C29.9024 12.5481 29.47 12.5256 29.1795 12.3578C28.8889 12.19 28.85 11.9403 29.0927 11.8002C29.3354 11.66 29.7676 11.6825 30.0583 11.8503ZM28.3481 10.7107C28.5908 10.5705 28.5517 10.3207 28.2612 10.153C27.9706 9.98515 27.5383 9.9627 27.2957 10.1029C27.053 10.243 27.0918 10.4926 27.3825 10.6605C27.6729 10.8282 28.1054 10.8508 28.3481 10.7107Z" fill="#363A42"/>
</svg>
