<svg width="66" height="39" viewBox="0 0 66 39" fill="none" xmlns="http://www.w3.org/2000/svg">
<path opacity="0.3" fill-rule="evenodd" clip-rule="evenodd" d="M57.6118 33.7794C69.0818 27.1553 67.2221 15.3416 53.4582 7.39271C39.6942 -0.556179 19.2381 -1.63015 7.76818 4.99392C-3.70177 11.618 -1.84212 23.4317 11.9218 31.3806C25.6858 39.3295 46.1419 40.4034 57.6118 33.7794ZM36.1431 29.3414C36.1498 29.3493 36.1481 29.3578 36.139 29.3631L35.737 29.5952C35.7342 29.5969 35.7265 29.6013 35.71 29.5996C35.6936 29.5979 35.6858 29.592 35.6829 29.5897L32.0587 26.7825C32.0848 26.7688 32.1105 26.7548 32.1355 26.7403L33.3651 26.0302L36.1431 29.3414ZM50.3575 21.1149C50.3614 21.1166 50.3718 21.121 50.3747 21.1306C50.3776 21.1401 50.37 21.1445 50.3671 21.1462L49.9652 21.3783C49.956 21.3836 49.9412 21.3845 49.9275 21.3807L44.1942 19.7763L45.4236 19.0663C45.4487 19.0518 45.473 19.037 45.4967 19.0219L50.3575 21.1149ZM40.3722 11.8773C40.5544 12.2246 40.4931 12.5787 40.2041 12.8487C40.0138 13.0266 40.0435 13.2782 40.2801 13.4897L44.7077 17.4482C45.1558 17.8488 45.1256 18.3267 44.6343 18.6105L31.3463 26.2845C30.8549 26.5682 30.0273 26.5857 29.3337 26.3269L22.4793 23.7698C22.1131 23.6332 21.6775 23.616 21.3695 23.726C20.9018 23.8929 20.2888 23.9283 19.6875 23.8231C19.0791 23.7166 18.5381 23.4798 18.1642 23.1561C17.5116 22.5912 17.6234 21.8727 18.4174 21.5198C19.3181 21.12 20.6109 21.3672 21.5204 21.7318L21.5339 21.7371L27.1228 23.8594L27.9323 24.3269C28.6151 24.7212 29.6335 24.7747 30.2025 24.4461L38.9904 19.3709L41.4508 17.95C42.0199 17.6214 41.9272 17.0332 41.2445 16.6389L40.4346 16.1712L36.7601 12.9438L36.7559 12.9402L36.7509 12.936C36.1195 12.4107 35.6916 11.6641 36.3837 11.144C36.9944 10.6851 38.239 10.6208 39.2171 10.9977C39.7777 11.2136 40.1878 11.526 40.3722 11.8773ZM40.6615 17.4941L38.2011 18.9151L29.4132 23.9902C29.2069 24.1093 28.8377 24.0899 28.5901 23.947L26.9029 22.9726C26.6553 22.8296 26.6218 22.6163 26.8281 22.4972L28.5855 21.4823L38.0763 16.0012C38.2827 15.882 38.6519 15.9014 38.8995 16.0444L40.5867 17.0188C40.8343 17.1618 40.8678 17.375 40.6615 17.4941ZM26.0387 22.0414L27.7962 21.0264L37.287 15.5453C37.5663 15.384 37.9539 15.315 38.3569 15.3329L35.9361 13.2067C35.3767 12.74 35.0654 12.2614 35.0091 11.8216L32.8702 10.1878C32.3358 9.77965 31.5595 9.49879 30.7405 9.41722C29.9215 9.33565 29.1511 9.46257 28.6268 9.76539L16.0305 17.0399C15.5062 17.3427 15.2864 17.7876 15.4276 18.2606C15.5687 18.7336 16.0551 19.1819 16.762 19.4906L19.5911 20.7259C20.3526 20.7584 21.1812 20.9382 21.9892 21.2612L25.671 22.6593C25.6399 22.4266 25.7594 22.2027 26.0387 22.0414ZM26.1284 15.5931C26.31 15.4882 26.2806 15.3011 26.0626 15.1752C25.8446 15.0494 25.5207 15.0324 25.339 15.1373L25.3355 15.1393C25.1539 15.2442 25.1851 15.4303 25.4031 15.5561C25.621 15.682 25.9467 15.698 26.1284 15.5931ZM26.8324 17.6537C27.0503 17.7796 27.0798 17.9667 26.8981 18.0716C26.7165 18.1765 26.3908 18.1605 26.1728 18.0346C25.9549 17.9087 25.9237 17.7227 26.1053 17.6178L26.1088 17.6157C26.2905 17.5108 26.6144 17.5279 26.8324 17.6537ZM30.4131 16.0416C30.5948 15.9367 30.5653 15.7496 30.3474 15.6238C30.1294 15.4979 29.8054 15.4809 29.6238 15.5858L29.6203 15.5878C29.4387 15.6927 29.4699 15.8788 29.6878 16.0047C29.9058 16.1305 30.2315 16.1466 30.4131 16.0416ZM29.5776 13.1453C29.7955 13.2712 29.825 13.4583 29.6433 13.5632C29.4617 13.668 29.136 13.652 28.918 13.5262C28.7001 13.4003 28.6689 13.2142 28.8505 13.1093L28.854 13.1073C29.0357 13.0024 29.3596 13.0194 29.5776 13.1453ZM22.6099 17.6251C22.7916 17.5202 22.7621 17.3331 22.5442 17.2072C22.3262 17.0813 22.0023 17.0643 21.8206 17.1692L21.8171 17.1712C21.6355 17.2761 21.6667 17.4622 21.8846 17.5881C22.1026 17.7139 22.4284 17.7299 22.6099 17.6251Z" fill="#363A42"/>
</svg>
